<?xml version="1.0" encoding="UTF-8"?>
<svg id="Calque_1" data-name="Calque 1" xmlns="http://www.w3.org/2000/svg" viewBox="0 0 1080 1080">
  <defs>
    <style>
      .cls-1 {
        fill: #efca52;
      }

      .cls-2 {
        fill: #2d2218;
      }

      .cls-3 {
        fill: #f6f4f1;
      }
    </style>
  </defs>
  <rect class="cls-1" x="0" y=".78" width="1080" height="1078.36"/>
  <g>
    <g>
      <path class="cls-2" d="M430.58,453.2c-3.13,4.45,7.53,7.59,10.1,8.42,16.91,5.45,44.93,6.75,48.71,29.93,1.94,11.93-1.05,20.04-9.46,27.7-15.89,14.47-38.36,16.07-58.52,14.81-5-.31-22.96-2.98-25.6-7.39-1.95-3.25-1.02-11.78-1.27-16.02-.14-2.29-1.02-4.15-.99-6.74.07-8.11,4.32-7.13,10.31-6.37,13.35,1.69,28,10.55,41.56,5.41,11.9-4.51-1.12-8.42-6.2-9.79-20.02-5.42-65.31-14.09-49.74-47.26,13.58-28.93,53.89-30.23,79.36-21.24,5.42,1.91,7.91,2.9,9.3,9.43,1,4.71,1.21,14.54.87,19.47-.15,2.11-.58,3.4-2.68,3.88-4.77,1.09-17.03-4.71-22.63-6.03-5.12-1.2-19.72-3.01-23.1,1.8Z"/>
      <path class="cls-2" d="M678.31,369.67c-1.7-1.88-1.91-6.8-2.73-9.33-2.16-6.64-3.98-4.79-9.38-5.64-4.56-.72-9.11-1.59-13.8-1.67-1.64-.03-6.39,0-7.63.42-5.21,1.74-3.88,13.7-11.81,14.38-9.58-1.18-20.68-.22-29.8-3.61-1.25-.47-3.67-1.25-3.96-2.69-.72-3.51,2.95-11.17,4.5-14.56,8.63-18.85,19.84-37.76,29.26-56.34,4.02-7.92,7.73-18.04,11.91-25.37,1.64-2.88,3.9-4.73,6.96-5.57,4.12-1.12,19.57.17,24.23,1.05,2.44.46,6.78,2.45,8.19,4.63l32.9,105c-.25,2.49-1.62,3.17-3.8,3.33-9.53-1.17-19.81-.05-29.25-1.66-1.57-.27-4.71-1.17-5.79-2.36ZM656.61,326.15c1.36.53,6.56.52,8.5.67.08,0,1.35-.49,1.4-.8-.92-3.88-1.09-7.96-1.92-11.85-.31-1.44-1.12-6.79-2.79-6.91l-6.26,16.4c-.37.73.53,2.28,1.06,2.49Z"/>
      <path class="cls-2" d="M537.45,245.94c23.94-2.26,49.08,12.35,55.09,37.94,8.66,36.88-2.14,72.89-41.39,77.85-28.37,3.58-53.2-9.35-59.62-40.25-7.28-35.05,9.95-72.15,45.93-75.55ZM539.54,287.76c-5.16,1.13-11.84,11.84-12.13,17.15-.38,7.19,5.63,12.84,11.74,14.69,4.82,1.46,8.84,2.16,12.74-1.76,10.6-10.66,5.15-33.89-12.35-30.07Z"/>
      <path class="cls-2" d="M373.44,288.73c1.05-1.38,3.04-2.09,4.64-2.42,9.38-1.97,20.88-.38,30.27-2.73,21.26-2.02,42.24-6.08,63.62-6.88,1.94.17,3.01,2.47,3.68,4.13,1.57,3.92,3,16.04,2.97,20.47-.01,2.27-.62,4.07-2.68,4.87-7.73,3-16.15,1.11-24.05,2.94-2.35.54-4.35,1.15-5.05,3.86l7.25,70.66c.1,4-.38,6.08-4.37,7-6.25,1.43-15.29,2.62-21.69,2.95-2.17.11-8.26.26-10.07-.19-2.1-.54-2.95-5.11-3.31-7.17-2.9-16.62-2.37-34.54-4.84-51.29l-3.07-17.74c-.62-1.58-3.82-2.01-5.27-2.03-4.63-.07-9.24.99-13.71,1.45-6.5.67-12.51,3.19-14.28-5.59-.88-4.35-2.54-18.98-.04-22.27Z"/>
      <path class="cls-2" d="M597.85,434.23c-.76.49-5.86.71-7.11.67-6.06-.19-11.93-2.25-18.01-2.27-4.1-.01-5.82.2-6.62,4.74-3.47,19.52-2.96,42.51-5.64,62.59-.32,2.39-.89,6.78-1.4,8.9-1.17,4.82-7.31,2.81-10.65,2.74-5.31-.11-10.68-.11-16.01-.91-2.23-.34-7.59-1.23-9.39-2.08-2.05-.97-2.45-3.4-2.48-5.59-.27-19.28,4.82-42.66,5.71-62.55.08-1.73.24-8.12-.08-9.22-.89-3.09-8.82-3.15-11.37-3.48-1.03-.13-2.02-.79-3.14-.9-5.55-.58-16.62,2.2-16.77-6.92-.07-4.03.87-13.97,1.76-17.87.98-4.28,2.92-6.48,7.15-6.58,9.55-.24,21.02,3.95,30.72,3.41,19.3,2.23,38.75,2.09,57.89,5.43,1.82.32,4.2.07,5.82.56,2.82.86,3.09,8.14,3.04,10.79-.06,3.49-.84,16.87-3.44,18.53Z"/>
      <path class="cls-2" d="M695.04,455.82c-.46.56-1.78,1.19-2.47,1.46-5.1,2.01-19.66,1.08-25.84.99-4.68-.07-11.32-2.85-13.57,3.92-1.37,4.12-1.16,9.14,3.5,9.61,8.65.87,18.48-.76,27.23-.05,8.83.71,8.51,4.51,8.28,13.26-.06,2.41-.39,8.1-.97,10.19-.86,3.06-3.05,4.49-5.79,4.79-9.53,1.03-20.53-.84-30.22-.02-3.77.81-4.73,10.93-.5,11.81,11.25,2.36,25.37-.85,36.75.56,2.83.35,4.33,2.28,4.73,5.42.47,3.73.33,15.35-.8,18.73-.94,2.8-2.43,3.24-4.92,3.5-12.45,1.3-29.03.04-41.78,0-7.82-.02-21.55,1.42-28.58-.74-4.27-1.32-4.65-5.85-4.94-10.25-2-30.02,1.56-62.76-.01-93.07-.23-2.91,2.71-4.35,4.86-4.71,5.38-.89,11.15-.4,16.57-.62,16.03-.65,34.93-1.74,50.87-.58,4.1.3,7.75,0,8.28,5.38.42,4.31.93,12.79.52,16.92-.1,1.02-.57,2.74-1.18,3.48Z"/>
      <path class="cls-2" d="M647.33,419.62c5.63-.41,35.88-2.5,40.32-5.07.6-.35,1.74-1.13,2.11-1.77.48-.83.75-2.71.74-3.8-.02-4.43-1.28-13.44-2.07-17.99-.99-5.69-4.29-5.07-8.05-5.04-14.62.09-31.71,2.83-46.24,4.85-4.91.68-10.21.64-15.02,2.04-1.92.56-4.46,2.34-3.97,5.42l1.99,16.77c.49,4.14,4.77,7.08,9.61,6.6l20.57-2.01Z"/>
    </g>
    <g>
      <g>
        <path class="cls-2" d="M589.89,791.31c2.68,0,5.32.5,7.97.49,2.68-.01,5.34-.22,7.98-.24s5.33-.47,7.98-.5,5.35.6,7.99.56,5.34-.39,7.98-.43,5.35.23,7.99.18c2.69-.05,5.35-.22,7.98-.27,2.69-.05,5.34-.63,7.97-.67s5.36.07,7.98.03,5.36.43,7.99.4,5.36-.14,7.98-.16,5.37-.52,7.98-.52c2.71,0,5.37.46,7.98.48s5.39-.41,7.99-.36c2.73.06,5.4-.03,7.99.07,2.74.11,5.4.39,7.97.55,2.76.17,5.4.6,7.94.84,2.77.26,5.47.21,7.98.56,2.79.4,5.32,1.43,7.77,1.95,2.8.6,5.47.93,7.79,1.73,2.77.94,5.01,2.42,7.06,3.67,2.51,1.53,4.83,2.94,6.17,5,1.42,2.19,2.09,4.85,2.09,7.71,0,2.61-1.5,4.68-3.6,6.72-1.62,1.58-3.46,3.51-6.22,4.78-2.14.99-4.81,1.37-7.59,2.19-2.34.69-4.88,1.24-7.64,1.82-2.43.51-5.01.94-7.75,1.37-2.48.39-5.02,1.24-7.74,1.56-2.52.3-5.17.24-7.88.49-2.54.24-5.14.6-7.84.8-2.55.19-5.17.42-7.86.57s-5.19.25-7.87.37-5.21-.14-7.89-.05c-2.58.08-5.2.26-7.88.32s-5.21.44-7.88.48-5.22-.22-7.89-.19-5.22.67-7.88.68-5.23-.55-7.89-.55-5.23.24-7.89.23-5.23-.49-7.88-.52c-2.61-.02-5.24.23-7.89.2s-5.24.02-7.89-.02-5.24.02-7.89-.02-5.24-.5-7.89-.55-5.26.51-7.9.46c-3.92-.02-3.92-.18-7.83-.18s-3.92-.31-7.83-.31-3.92-.03-7.84-.04-3.92.09-7.83.09-3.92.29-7.84.29-3.92-.27-7.83-.27-3.92.42-7.84.41c-3.92,0-3.92-.31-7.84-.31-3.92,0-3.92-.17-7.84-.17-3.92,0-3.92-.15-7.84-.15-3.92,0-3.92-.05-7.84-.06-3.92,0-3.92.18-7.84.17s-3.92.48-7.84.47-3.92-.18-7.84-.18-3.92.18-7.84.17-3.92-.47-7.84-.47-3.92.47-7.84.47-3.92-.28-7.84-.28-3.92-.24-7.84-.25-4.61.23-8.53.23-7.11,2.08-9.47-1.05,3-3.05,3.95-6.99c.95-3.94,1.5-3.81,2.45-7.75.95-3.94.26-4.11,1.2-8.05.95-3.94,1.26-3.87,2.2-7.81.95-3.94,1.03-3.92,1.98-7.87.95-3.95.58-4.03,1.52-7.98s-1.05-5.45,2.23-7.84c3.23-2.35,3.98.66,7.96,1.02s4,.21,7.98.57,4.01.1,7.99.46c3.98.36,3.95.67,7.93,1.03s3.98.42,7.96.79c3.98.36,3.98.44,7.96.8s4.04-.3,8.02.06,3.93.97,7.91,1.33,4.03-.16,8.01.2,3.95.74,7.93,1.11c3.98.36,3.99.3,7.97.66s3.97.49,7.95.85,4.01.03,8,.39,3.97.52,7.95.88,3.95.71,7.94,1.07,4.02-.04,8.01.32,4,.19,7.98.55,3.96.63,7.95.95,4,.22,7.99.49Z"/>
        <g>
          <path class="cls-3" d="M425.82,827.66c-3.65,0-3.65.29-7.29.29-3.65,0-3.65.28-7.3.28-3.65,0-3.65-.25-7.29-.25-3.65,0-3.65-.24-7.3-.24q-3.65,0-7.3,0c-3.88,0-6.96-2.56-8.05-6.27-1.31-4.46-1.5-4.4-2.82-8.86s-4.87-4.71-2.5-8.71c2.01-3.4,3.68-.25,7.63-.25s3.95-.31,7.9-.31,3.95.66,7.9.66,3.95-.49,7.9-.49,3.95.61,7.9.61,3.95-.51,7.9-.51,3.95.32,7.91.32,5.97-3.65,8.09-.31c2.44,3.84-1.2,4.55-2.36,8.95-1.16,4.4-1.55,4.29-2.71,8.69-1.01,3.84-4.23,6.4-8.21,6.4Z"/>
          <path class="cls-2" d="M425.82,833.74c-3.65,0-3.65-.12-7.29-.12s-3.65-.4-7.3-.4c-3.65,0-3.65.47-7.29.47-3.65,0-3.65-.1-7.3-.1s-3.65.23-7.3.23c-3.16,0-6.12-1.47-8.54-3.29-2.43-1.82-4.03-4.43-4.92-7.46-1.31-4.46-1.3-4.46-2.61-8.92-1.31-4.46-1.81-4.31-3.12-8.76-.5-1.7-.22-3.75.84-5.16,1.06-1.42,2.95-1.84,4.72-1.84,3.95,0,3.95-.29,7.9-.29s3.95.27,7.9.27,3.95-.05,7.9-.05,3.95-.11,7.9-.11,3.95-.23,7.9-.23,3.95.29,7.9.29,3.95-.23,7.91-.23,3.95.27,7.91.27c1.74,0,3.64.46,4.7,1.83,1.06,1.38.93,3.31.49,4.99-1.16,4.39-.7,4.51-1.86,8.91-1.16,4.4-1.32,4.35-2.48,8.75-.83,3.15-2.7,5.84-5.15,7.73-2.45,1.89-5.53,3.24-8.79,3.24ZM384,809.58c-.63,2.5.93,5.04,2.49,10.36.39,1.33,1.46,2.53,2.84,2.53,3.65,0,3.65-.47,7.29-.47s3.65.1,7.3.1,3.65-.23,7.29-.23,3.65.43,7.3.43,3.65.25,7.3.25c1.42,0,2.99-1.19,3.35-2.57,1.39-5.27,3.1-8.15,2.56-9.17-1.22-2.33-4.14-1.18-8.17-1.18s-4.04-.52-8.07-.52-4.04.29-8.07.29-4.04-.27-8.07-.27-4.55.45-8.62-.18c-4.33-.67-6.25-1.28-6.73.63Z"/>
        </g>
        <g>
          <path class="cls-3" d="M695.17,827.56c-3.65,0-3.65.08-7.29.08s-3.65.32-7.3.32c-3.65,0-3.65-.03-7.29-.03-3.65,0-3.65-.08-7.3-.08-3.65,0-3.65-.26-7.3-.26-3.88,0-7.58-2.21-8.67-5.93-1.31-4.46-1.07-4.53-2.38-8.98-1.31-4.46-4.96-4.93-2.59-8.93,2.01-3.4,3.96.09,7.91.09s3.95.19,7.9.19,3.95-.33,7.9-.33,3.95-.17,7.9-.17,3.95-.12,7.9-.12,3.95.22,7.9.22,3.95.53,7.91.53,6.04-3.89,8.16-.55c2.44,3.84-1.61,4.51-2.76,8.9-1.16,4.4-.88,4.47-2.04,8.86-1.01,3.84-4.57,6.21-8.54,6.21Z"/>
          <path class="cls-2" d="M695.17,833.8c-3.65,0-3.65-.59-7.29-.59s-3.65-.04-7.3-.04c-3.65,0-3.65-.03-7.29-.03q-3.65,0-7.3,0c-3.65,0-3.65.15-7.3.15-3.16,0-6.04-1.05-8.47-2.86s-4.41-4.23-5.31-7.26c-1.31-4.46-1.1-4.52-2.41-8.97-1.31-4.46-1.76-4.32-3.07-8.78-.5-1.7-.18-3.79.88-5.2,1.06-1.42,2.98-1.89,4.74-1.89,3.95,0,3.95-.47,7.9-.47s3.95.58,7.9.58,3.95.05,7.9.05,3.95-.01,7.9-.01,3.95.04,7.9.04,3.95-.05,7.9-.05,3.95-.2,7.91-.2,3.95-.25,7.91-.25c1.74,0,3.65.75,4.71,2.13s.77,3.28.32,4.96c-1.16,4.39-.58,4.55-1.74,8.94-1.16,4.4-1.18,4.39-2.34,8.78-.83,3.15-3.03,5.53-5.48,7.41-2.45,1.89-5.31,3.59-8.57,3.59ZM652.86,809.5c-1.08,2.62,1.02,5.24,2.58,10.55.39,1.33,1.86,2.47,3.24,2.47,3.65,0,3.65.03,7.29.03s3.65,0,7.3,0,3.65-.15,7.29-.15,3.65.03,7.3.03,3.65-.2,7.3-.2c1.42,0,2.87-.9,3.23-2.27,1.39-5.27,3.58-7.3,2.35-10.48-.48-1.24-3.81.2-7.84.2-4.04,0-4.04-.49-8.07-.49-4.04,0-4.04.47-8.07.47-4.04,0-4.04-.58-8.07-.58s-3.97.21-8-.04c-3.72-.23-7.26-.94-7.84.47Z"/>
        </g>
        <g>
          <path class="cls-3" d="M695.12,626.99c4.27,0,4.27-.47,8.53-.47s4.27.2,8.54.2,4.27-.14,8.53-.14,4.27-.3,8.54-.3,4.27.59,8.54.59c2.5,0,4.85.63,6.78,2.03,1.93,1.4,3.39,3.38,4.18,5.76,1,3.02.68,3.13,1.68,6.15.81,2.46.77,4.71.05,6.95-.76,2.33-1.95,4.39-3.93,5.84-1.89,1.39-4.16,2.26-6.76,2.26-4.19,0-4.19.16-8.38.16s-4.19,0-8.38,0-4.19-.43-8.39-.43c-4.19,0-4.19.41-8.39.41"/>
          <path class="cls-2" d="M739.8,661.61c-4.19,0-4.19-.27-8.38-.27s-4.19.47-8.38.47c-4.19,0-4.19-.13-8.39-.13q-4.19,0-8.39,0c-3.1,0-5.99-2.69-5.99-5.79s2.89-5.41,5.99-5.41c4.19,0,4.19-.04,8.38-.04s4.19.15,8.38.15,4.19-.22,8.39-.22,4.19.22,8.39.22c1.95,0,3.63-1.27,4.77-2.85,1.14-1.58,1.82-3.57,1.21-5.42-1-3.02-1.27-2.93-2.27-5.95-.81-2.46-3.11-4.17-5.7-4.17-4.27,0-4.27.18-8.53.18s-4.27.18-8.54.18-4.27-.23-8.53-.23-4.27-.08-8.54-.08q-4.27,0-8.54,0c-3.1,0-5.9-2.49-5.9-5.59s2.8-5.68,5.9-5.68c4.27,0,4.27.27,8.53.27s4.27-.24,8.54-.24,4.27.27,8.53.27,4.27-.16,8.54-.16,4.27.26,8.54.26c2.46,0,4.87.09,7.02,1.04s3.9,2.7,5.51,4.48,2.96,3.65,3.73,5.99c1,3.02,1.16,2.97,2.16,5.99.87,2.65,1.21,5.45.8,8.09s-1.51,5.25-3.14,7.52c-1.64,2.26-3.93,3.82-6.31,5.03-2.38,1.21-4.98,2.07-7.78,2.07Z"/>
        </g>
        <path class="cls-2" d="M706.33,655.81c3.98,2.59,5.46,2.72,9.25-.15,3.01-2.28.45-3.52.68-7.28.23-3.77.25-3.76.48-7.53.23-3.77.05-3.78.28-7.55.23-3.77,3.47-5.13.53-7.5-3.83-3.08-4.89-.08-9.8-.08-4.91,0-6.41-3.49-9.94-.07-2.8,2.73.89,3.95,1.93,7.72s1.05,3.76,2.09,7.53c1.04,3.77,1.68,3.59,1.97,7.49.31,4.09-.75,5.28,2.53,7.41Z"/>
        <g>
          <path class="cls-3" d="M364.01,691.86c.89-3.99.92-3.98,1.81-7.97s.53-4.07,1.43-8.06c.9-3.99.95-3.98,1.84-7.97.9-3.99,1-3.96,1.9-7.95.9-3.99.58-4.06,1.47-8.05s1.07-3.95,1.93-7.95c.53-2.79,1.55-5.42,2.28-8.08.75-2.74,1.55-5.41,2.51-7.99.99-2.67,1.87-5.34,3.09-7.8,1.27-2.55,2.96-4.79,4.47-7.09,1.56-2.37,2.95-4.82,4.77-6.89s3.75-4.25,5.9-6.01,4.5-3.42,6.95-4.79c2.41-1.35,5.21-1.97,7.9-2.89s5.19-2.03,8.02-2.48c2.62-.41,5.29-.82,8-1.22s5.34-.48,8.05-.86,5.27-.97,7.99-1.32,5.36-.34,8.07-.66,5.29-.94,8-1.23,5.39,0,8.11-.26,5.27-1.24,7.99-1.48,5.36-.29,8.08-.5,5.38.1,8.1-.08,5.33-.86,8.05-1,5.39.32,8.11.21,5.36-.17,8.09-.26,5.36-.29,8.08-.35,5.37-.16,8.09-.19,5.37-.38,8.1-.38,5.28.51,7.87.54,5.28-.33,7.88-.27c2.65.06,5.29-.15,7.88-.07,2.65.08,5.28.16,7.87.27s5.28.18,7.87.32,5.24.84,7.83,1.01c2.65.17,5.29.07,7.87.27s5.24.68,7.82.9,5.28.27,7.86.53,5.23.78,7.8,1.07,5.23.69,7.8,1,5.29.24,7.86.58,5.26.54,7.82.9,5.22.83,7.77,1.22,5.22.85,7.76,1.27c2.77.45,5.37,1.37,7.88,2.25s4.95,2.31,7.29,3.65,4.94,2.45,7.04,4.19c2.08,1.73,3.62,4.06,5.44,6.13,1.78,2.02,3.72,3.95,5.26,6.25,1.5,2.23,2.75,4.66,4.03,7.12,1.24,2.38,2.62,4.76,3.66,7.33,1.01,2.5,1.77,5.13,2.6,7.77.8,2.58,1.49,5.22,2.12,7.9.91,4.08,1.02,4.05,1.9,8.13.89,4.08.44,4.18,1.33,8.26s1.12,4.03,2.01,8.12c.89,4.08,1.29,4,2.18,8.08.89,4.08.4,4.19,1.28,8.28.89,4.08,1.42,3.97,2.31,8.05"/>
          <path class="cls-2" d="M363.86,697.48c-.41,0-.79-.23-1.2-.32-3.02-.68-5.08-2.35-4.4-5.37.89-3.98.97-5.28,1.87-9.26s.87-3.89,1.76-7.87c.89-3.98.72-4.02,1.61-8,.89-3.98.93-3.97,1.83-7.95s1.31-3.89,2.2-7.87q.89-3.98,1.75-7.98c.52-2.76.74-5.53,1.43-8.12s1.4-5.4,2.3-7.93c.95-2.65,2.38-5.04,3.51-7.47,1.19-2.54,2.22-5.12,3.6-7.42s3.29-4.48,4.94-6.6c1.72-2.2,3.28-4.51,5.22-6.39,1.99-1.93,4.52-3.18,6.73-4.77s4.46-3.17,6.9-4.39,4.87-2.53,7.5-3.37,5.27-1.44,8.03-1.87c2.7-.43,5.43-.55,8.1-.95s5.41-.66,8.09-1.03c2.71-.38,5.36-1.04,8.04-1.39s5.39-.84,8.07-1.16,5.47-.09,8.16-.39,5.4-.65,8.1-.91,5.39-.73,8.09-.97,5.41-.58,8.11-.79,5.44-.18,8.14-.36,5.4-.75,8.11-.9,5.45.25,8.16.13,5.4-.83,8.12-.91,5.44.54,8.16.48,5.42-.66,8.14-.68,5.43.3,8.15.3,5.32-.4,7.94-.37,5.32.27,7.93.33,5.33.02,7.93.1c2.68.09,5.31.61,7.91.72s5.34-.02,7.94.12,5.31.61,7.9.78,5.35-.03,7.94.16c2.69.2,5.33.33,7.92.55s5.27,1.02,7.85,1.28,5.38,0,7.94.29c2.7.3,5.32.65,7.88.96,2.71.33,5.31.79,7.85,1.13,2.71.36,5.38.38,7.9.74,2.73.39,5.26,1.33,7.76,1.71,2.74.42,5.42.4,7.89.81,2.68.44,5.27,1.22,7.78,2.04s5.01,1.92,7.39,3.14,4.61,2.68,6.79,4.26,4.02,3.43,5.97,5.33c1.88,1.83,3.61,3.82,5.31,5.97s3.33,4.09,4.77,6.43c1.37,2.22,3,4.39,4.21,6.85,1.15,2.34,1.69,5.03,2.69,7.59s2.3,4.79,3.11,7.42c.76,2.5,1.37,5.12,2,7.79,0,.03.15.04.16.07.89,4.08.36,4.2,1.25,8.28.89,4.08,1.23,4.01,2.12,8.09.89,4.08.65,4.14,1.54,8.22.89,4.08,1.42,3.97,2.3,8.05.89,4.08.72,4.02,1.61,8.11s.61,4.66,1.5,8.74c.66,3.03-1.18,5.51-4.2,6.17-3.03.65-5.92-1.22-6.58-4.24-.89-4.08-1.34-3.98-2.23-8.05-.89-4.08-.43-4.18-1.32-8.26-.89-4.08-1.17-4.02-2.06-8.1s-.93-4.07-1.81-8.15q-.89-4.08-1.78-8.16c-.89-4.08-.82-4.1-1.72-8.17-.58-2.46-.75-5.35-1.68-8.23-.81-2.53-2.16-5.05-3.29-7.73-1.06-2.51-2.14-5.11-3.52-7.6-1.34-2.42-3.03-4.66-4.7-6.93-1.65-2.23-3.37-4.44-5.38-6.4-1.98-1.93-4.12-3.74-6.49-5.29-2.29-1.5-4.83-2.67-7.5-3.7-2.51-.97-5.22-1.51-8.1-1.98-2.44-.4-4.98-.95-7.69-1.37-2.46-.38-5.04-.75-7.73-1.13-2.48-.36-5.04-.84-7.72-1.19-2.5-.33-5.08-.66-7.74-.98-2.51-.31-5.08-.82-7.73-1.11s-5.12-.53-7.77-.79-5.15-.25-7.8-.49-5.14-.42-7.78-.62-5.13-.63-7.77-.8-5.15-.45-7.79-.59-5.18.1-7.82-.01-5.16-.28-7.8-.37-5.17-.34-7.81-.4-5.18-.02-7.82-.05-5.18,0-7.82,0-5.37-.07-8.04-.05-5.35.53-8.03.58-5.36-.11-8.04-.02-5.34.48-8.02.59-5.35.22-8.02.37-5.34.25-8.02.43-5.33.45-8,.65-5.38-.11-8.05.12-5.3.79-7.97,1.05c-2.66.26-5.35.18-8.03.47s-5.24,1.18-7.91,1.49-5.33.43-8,.78-5.33.42-8,.79-5.23,1.17-7.9,1.56-5.29.75-7.95,1.17c-2.55.4-5.1.67-7.48,1.5s-4.56,2.23-6.78,3.49-4.42,2.47-6.41,4.12-3.84,3.29-5.56,5.25c-1.64,1.87-3.1,3.97-4.54,6.15-1.36,2.07-2.53,4.33-3.7,6.68-1.1,2.22-1.83,4.66-2.74,7.11-.87,2.32-2.01,4.61-2.7,7.14-.65,2.4-.97,4.93-1.46,7.5-.01.06.07.19.06.25-.89,3.99-.86,3.99-1.76,7.98-.9,3.99-1.16,3.93-2.06,7.92-.9,3.99-.85,4-1.75,7.99-.9,3.99-.75,4.02-1.65,8.01s-1.07,3.95-1.96,7.94c-.9,3.99-.5,4.08-1.4,8.07-.59,2.61-2.95,4.42-5.51,4.42Z"/>
        </g>
        <g>
          <path class="cls-2" d="M658.77,608.44c-1.46-3.46-4.73-5.51-8.43-6.14-2.59-.44-5.17-.86-7.74-1.26-2.6-.41-5.13-1.09-7.71-1.47-2.6-.38-5.18-.76-7.76-1.11-2.6-.35-5.23-.39-7.82-.7-2.6-.32-5.18-.74-7.77-1.03-2.6-.29-5.18-.74-7.78-.99-2.6-.25-5.23-.21-7.83-.43-2.61-.22-5.18-.82-7.79-1.01-2.61-.19-5.24,0-7.85-.15-2.61-.15-5.19-.68-7.81-.81-2.61-.12-5.22-.26-7.84-.35-2.61-.09-5.22-.15-7.84-.21-2.6-.06-5.22.32-7.85.29-2.6-.03-5.21-.02-7.84-.02s-5.38-.45-8.06-.42c-2.69.03-5.38-.11-8.07-.05-2.69.06-5.36.63-8.05.73-2.68.1-5.39-.28-8.08-.15-2.68.13-5.35.62-8.04.78-2.68.16-5.34.65-8.02.85-2.68.19-5.35.39-8.04.61-2.67.22-5.38.1-8.06.36-2.67.26-5.3.93-7.98,1.22-2.67.29-5.36.32-8.04.64-2.66.32-5.31.77-7.99,1.11-2.66.35-5.31.79-7.98,1.17-2.65.37-5.3.84-7.97,1.25-2.65.4-5.37.37-8.04.81-3.73.61-6.83,3.16-8.4,6.61,0,0-.05.01-.05.01-.17.4-.8,2.19.11,3.34s3.09,2.42,10.66,1.32c1.46-.3,5.89-1.01,7.36-1.24,2.63-.4,5.22-.97,7.83-1.33,2.63-.37,5.22-.97,7.83-1.31,2.63-.34,5.28-.52,7.9-.83,2.63-.31,5.29-.35,7.91-.63,2.64-.28,5.27-.53,7.89-.79,2.64-.25,5.29-.29,7.92-.51,2.64-.22,5.26-.56,7.9-.75,2.64-.19,5.25-.82,7.89-.98,2.64-.16,5.29-.26,7.93-.39,2.64-.13,5.29-.1,7.94-.19,2.64-.1,5.29-.25,7.93-.32,2.64-.06,5.29-.08,7.94-.11,2.64-.03,5.29-.23,7.94-.23,2.78,0,5.55.18,8.31.21,2.78.03,5.54.49,8.29.56,2.77.07,5.53.24,8.29.35,2.77.1,5.54.06,8.3.2,2.77.14,5.55,0,8.3.18,2.76.18,5.54.2,8.3.41,2.76.21,5.51.6,8.26.85,2.75.25,5.49.69,8.25.98,2.75.29,5.5.59,8.25.92,2.74.32,5.53.36,8.28.72,2.73.36,5.48.74,8.23,1.14,2.73.39,5.42,1.1,8.17,1.53,2.72.43,5.45.89,8.19,1.36.02,0,.45.06.46.08.03.06,1.9.15,1.93.2,4.21.29,6.22.51,7.66-.71s.9-2.44.18-4.15Z"/>
          <path class="cls-2" d="M663.54,623.03c-.07-.16-.13-.32-.2-.44-.72-1.16-2.45-2.35-4.52-2.61-3.07-.38-6.44-.66-9.35-1.39,0,0-.03-.01-.03-.01-2.45-.37-5.13-.91-7.79-1.29-2.47-.35-5.07-.42-7.72-.76-2.49-.32-5-1.04-7.64-1.35-2.5-.3-5.11-.23-7.74-.51-2.51-.27-5.04-.92-7.67-1.18-2.52-.24-5.09-.51-7.72-.73-2.52-.22-5.1-.41-7.73-.6-2.53-.19-5.14.06-7.76-.11-2.54-.16-5.11-.28-7.74-.42-2.54-.13-5.1-.72-7.72-.83-2.55-.11-5.13-.39-7.75-.47-2.55-.08-5.15.34-7.77.29-2.55-.05-5.13-.58-7.74-.61-2.55-.03-5.14.31-7.76.31s-5.33.33-7.99.36c-2.67.03-5.33.05-7.99.11-2.67.05-5.34-.24-7.99-.15-2.66.08-5.31.59-7.97.7-2.66.11-5.33-.03-7.99.11-2.66.14-5.31.41-7.97.58-2.66.17-5.3.44-7.96.63-2.65.2-5.3.49-7.96.72-2.65.23-5.34.01-8,.27-2.64.25-5.28.69-7.94.97-2.64.28-5.27.74-7.93,1.05-2.64.31-5.34.12-8,.45-2.63.33-5.28.64-7.94,1.01-2.63.36-5.06.84-7.71,1.23-.22-.15-3.91.82-3.9.71-5.01.8-6.7,1.12-9.3,2.77-.68.43-1.14.99-1.46,1.72-.85,1.88-.83,4.05.42,5.69,1.07,1.41,2.95,1.98,4.69,1.98.29,0,.56-.1.85-.15,2.66-.42,5.39-.32,8.02-.71,2.67-.4,5.21-1.5,7.85-1.86,2.67-.37,5.35-.5,7.99-.84,2.67-.35,5.37-.34,8.01-.66,2.67-.32,5.33-.63,7.98-.92,2.67-.29,5.31-.77,7.97-1.03,2.67-.26,5.37-.12,8.03-.35,2.67-.23,5.28-1.18,7.95-1.39,2.67-.2,5.35-.29,8.02-.47,2.67-.17,5.36-.22,8.03-.36,2.67-.14,5.37.19,8.05.07,2.67-.11,5.34-.45,8.02-.54,2.67-.09,5.35-.34,8.03-.4,2.67-.06,5.35-.34,8.03-.37,2.67-.03,5.35.11,8.04.11s5.24.28,7.82.3c2.64.03,5.24.09,7.81.14,2.64.06,5.24.32,7.8.4,2.64.08,5.25.05,7.81.16,2.64.11,5.27-.22,7.82-.08,2.64.14,5.24.34,7.8.51,2.64.17,5.23.5,7.78.69,2.65.2,5.25.34,7.79.56,2.65.23,5.24.5,7.78.75,2.65.26,5.26.35,7.79.63,2.66.29,5.23.75,7.74,1.06,2.66.32,5.19,1.06,7.69,1.39,2.67.36,5.23.8,7.72,1.16,2.68.39,5.28.61,7.75.99,2.7.42,5.32.53,7.76.93,2.07.34,3.88-.57,5.14-2.27s1.39-3.81.55-5.65Z"/>
        </g>
        <g>
          <path class="cls-3" d="M715.5,696.38c-.2-2.59-1.01-5.06-1.54-7.54-.54-2.53-1.05-5.03-1.91-7.43-.87-2.43-1.7-4.87-2.87-7.14-1.19-2.29-2.51-4.51-3.98-6.61s-2.96-4.26-4.7-6.14-3.82-3.46-5.81-5.1c-1.98-1.63-4.26-2.84-6.44-4.19-2.17-1.35-4.19-3.02-6.54-4.08s-4.81-1.8-7.29-2.53-4.96-1.28-7.52-1.68-5.15-.84-7.78-1.22-5.23-.26-7.87-.62-5.18-.62-7.82-.95-5.15-.85-7.8-1.16c-2.58-.3-5.16-.84-7.81-1.12s-5.19-.59-7.84-.85-5.22-.26-7.87-.49-5.19-.54-7.85-.74c-2.59-.2-5.21-.33-7.86-.51s-5.2-.51-7.85-.66c-2.59-.15-5.22-.32-7.87-.44-2.59-.12-5.22-.38-7.87-.48s-5.24.27-7.89.2-5.23.01-7.88-.04-5.22-.2-7.88-.23-5.23.15-7.89.15-5.43-.19-8.11-.17-5.43-.26-8.11-.21-5.42.37-8.1.44-5.42.4-8.09.5-5.43.04-8.1.17-5.42.34-8.09.49-5.44-.05-8.11.13c-2.72.18-5.43.25-8.09.46s-5.4.6-8.07.83-5.37.94-8.03,1.19c-2.72.26-5.46.04-8.11.32s-5.35,1.08-8,1.38-5.47.04-8.11.36-5.37.86-8.02,1.21-5.37.89-8,1.26-5.38.76-8.01,1.15-5.2.85-7.69,1.58c-2.54.74-5.07,1.47-7.45,2.53s-4.74,2.32-6.96,3.7c-2.23,1.4-4.13,3.24-6.13,4.92s-4.29,3.11-6.06,5.05-3.1,4.25-4.58,6.42c-1.48,2.16-2.75,4.44-3.92,6.79s-2.45,4.64-3.3,7.14-1.42,5.04-1.92,7.64c-.49,2.55-.69,5.17-.83,7.82-.22,4.12.01,4.14-.2,8.26-.22,4.12-.65,4.1-.87,8.22-.22,4.12,0,4.13-.21,8.26s-.05,4.13-.26,8.25c-.22,4.12-.12,4.13-.34,8.25-.22,4.12-.29,4.12-.51,8.24-.22,4.13-.41,4.11-.62,8.24-.22,4.12-.48,4.11-.7,8.23-.22,4.13-.13,4.13-.35,8.26s.25,4.15.03,8.28c-.17,3.2.33,6.14,1.73,8.77s3.58,4.9,6.21,6.49c2.55,1.53,5.44,2.24,8.64,2.24,4.01,0,4.01.49,8.02.49s4.01-.03,8.02-.03,4.01.23,8.02.23,4.01-.6,8.02-.6,4.01-.06,8.02-.06,4.01.69,8.02.69,4.01-.1,8.02-.1,4.01-.47,8.02-.47,4.01.35,8.02.35,4.01.03,8.02.03,4.01-.06,8.02-.06,4.01-.2,8.02-.2,4.01.19,8.02.19,4.01-.02,8.02-.02,4.01.19,8.02.19,4.01-.05,8.02-.05,4.01-.02,8.02-.02,4.01-.18,8.02-.18,4.01-.36,8.02-.36,4.01.63,8.02.63,4.01-.72,8.02-.72,4.01.29,8.02.29,4.01.17,8.02.17,4.01-.3,8.02-.3,4.01-.05,8.02-.05,4.01.24,8.02.24,4.01-.35,8.03-.35,4.01.74,8.03.74,4.01-.44,8.03-.44,4.01-.14,8.03-.14,4.01-.13,8.03-.13,4.01.52,8.03.52,4.01.21,8.03.21,4.01-.23,8.03-.23,4.01.03,8.03.03,4.01.05,8.03.05,4.01-.35,8.03-.35,4.02.51,8.03.51,4.01-.25,8.03-.25,4.02-.35,8.03-.35,4.02.39,8.03.39c3.25,0,6.22-1.19,8.79-2.76,2.66-1.63,5.24-3.69,6.66-6.46,1.38-2.68,1.43-5.93,1.19-9.17-.32-4.18.23-4.22-.09-8.4-.32-4.18-.89-4.13-1.2-8.31-.32-4.18-.18-4.19-.5-8.37-.32-4.18-.09-4.2-.4-8.37-.32-4.18-.64-4.15-.96-8.33-.32-4.18-.1-4.2-.42-8.37s-.13-4.19-.44-8.38-.75-4.15-1.07-8.33-.22-4.19-.49-8.38c-.27-4.19-.06-4.2-.38-8.38Z"/>
          <path class="cls-2" d="M704.83,803.81c-4.01,0-4.01.01-8.02.01s-4.01-.26-8.02-.26-4.01.21-8.02.21-4.01.05-8.02.05-4.01.11-8.02.11-4.01-.14-8.02-.14-4.01.14-8.02.14-4.01-.21-8.02-.21-4.01.47-8.02.47-4.01-.15-8.02-.15c-4.01,0-4.01-.05-8.02-.05-4.01,0-4.01-.34-8.02-.34s-4.01.5-8.02.5-4.01-.02-8.02-.02-4.01-.16-8.02-.16-4.01-.51-8.02-.51c-4.01,0-4.01.66-8.02.66-4.01,0-4.01-.17-8.02-.17-4.01,0-4.01-.13-8.02-.13-4.01,0-4.01.26-8.02.26s-4.01.07-8.02.07-4.01-.05-8.02-.05-4.01.09-8.02.09-4.01-.38-8.02-.38-4.01-.37-8.02-.37c-4.01,0-4.01.55-8.02.55-4.01,0-4.01.22-8.03.22-4.01,0-4.01-.44-8.03-.44s-4.01.41-8.03.41-4.01-.44-8.03-.44-4.01-.31-8.03-.31-4.01.19-8.03.19-4.01.02-8.03.02-4.01.32-8.03.32-4.01.06-8.03.06c-4.01,0-4.01-.1-8.03-.1-4.01,0-4.01.21-8.03.21s-4.02,0-8.03,0-4.01-.27-8.03-.27c-4.02,0-4.02-.11-8.03-.11s-4.02.15-8.03.15c-3.12,0-6.3-.35-9.07-1.54-2.77-1.19-5.17-3.29-7.32-5.55-2.15-2.27-4.1-4.78-5.15-7.61-1.04-2.83-1.49-6.02-1.33-9.14.22-4.12.78-4.09.99-8.22.22-4.12.04-4.13.25-8.26.22-4.12.16-4.13.38-8.25.22-4.12.05-4.13.27-8.25.22-4.12.37-4.11.59-8.24.22-4.12.12-4.13.33-8.25s.69-4.1.9-8.23.14-3.83.36-7.95c.22-4.13.21-4.42.43-8.55.22-4.13.1-4.13.31-8.26.14-2.64.36-5.24.81-7.79s1.27-5.07,2.04-7.55c.78-2.51,1.43-5.05,2.51-7.42,1.09-2.39,2.11-4.84,3.48-7.06s3.06-4.28,4.7-6.32,3.38-4.02,5.26-5.84c1.87-1.82,3.73-3.74,5.82-5.32s4.69-2.38,6.96-3.69c2.26-1.3,4.34-2.97,6.76-3.99s4.96-1.63,7.5-2.34,4.98-1.68,7.6-2.07c2.7-.4,5.47-.26,8.15-.63s5.34-1.21,8.02-1.57,5.47-.21,8.15-.54,5.42-.53,8.11-.83,5.37-.96,8.07-1.24,5.46-.12,8.16-.38,5.41-.57,8.11-.8,5.41-.65,8.11-.85,5.42-.47,8.13-.65,5.41-.67,8.12-.83,5.44-.18,8.15-.31,5.42-.41,8.14-.51,5.44-.02,8.16-.1,5.44.17,8.16.12,5.43-.14,8.15-.17,5.43-.08,8.15-.08,5.32.2,7.93.23c2.68.02,5.33-.41,7.94-.36,2.68.05,5.32.29,7.93.36s5.32.22,7.93.32,5.31.58,7.91.7,5.35-.14,7.95,0,5.32.37,7.92.54,5.33.33,7.92.53,5.32.54,7.9.76,5.37,0,7.95.24,5.31.7,7.88.97c2.7.29,5.35.46,7.9.76,2.71.32,5.34.57,7.89.89,2.71.34,5.27,1.18,7.8,1.53,2.72.37,5.31.93,7.83,1.29,2.74.4,5.35.81,7.83,1.19,2.79.43,5.66.5,8.36,1.3,2.71.8,5.24,2.11,7.81,3.27s5.15,2.3,7.55,3.78,4.51,3.35,6.69,5.14c2.17,1.79,4.19,3.71,6.11,5.78,1.92,2.07,4.14,3.92,5.76,6.22s2.87,4.89,4.16,7.39,2.4,5.11,3.35,7.76,1.37,5.45,1.96,8.2c.59,2.75,1.24,5.48,1.46,8.3.32,4.18.45,4.17.77,8.35.32,4.18.51,4.16.82,8.34s.17,4.19.49,8.37c.32,4.18.46,4.17.78,8.34.32,4.18-.15,4.21.16,8.39.32,4.18.16,4.19.48,8.37.32,4.18.4,4.17.72,8.35s.43,4.17.75,8.35c.32,4.18.82,4.14,1.14,8.33.32,4.18.2,4.19.52,8.37.24,3.12-.63,6.16-1.65,9.06-1.01,2.91-2.62,5.45-4.75,7.75-2.13,2.3-4.38,4.47-7.2,5.7-2.82,1.23-5.95,1.75-9.08,1.75ZM541.26,639.99c-2.69,0-5.38.03-8.05.05-2.69.02-5.38-.2-8.06-.15s-5.37.32-8.05.39-5.37.21-8.05.31-5.36.33-8.04.45-5.37.13-8.05.28c-2.68.15-5.35.46-8.03.64s-5.37.16-8.05.37-5.31.89-7.99,1.12-5.35.32-8.03.58-5.34.47-8.01.75-5.36.23-8.04.53-5.26,1.12-7.94,1.45-5.31.64-7.98.99-5.33.55-8,.93-5.38.25-8.05.64c-2.63.39-5.06,1.62-7.54,2.38s-5.01,1.58-7.36,2.73-4.7,2.37-6.85,3.86-4.03,3.35-5.94,5.15c-1.91,1.81-3.6,3.77-5.22,5.84-1.61,2.07-3.09,4.2-4.38,6.49-1.28,2.28-2.29,4.66-3.22,7.14s-2,4.84-2.54,7.44c-.53,2.54-1.24,5.14-1.38,7.8-.22,4.12.33,4.15.12,8.28-.22,4.12,0,4.13-.21,8.26-.22,4.12-.66,4.1-.87,8.22-.22,4.12.19,4.14-.02,8.27-.22,4.12-.65,4.1-.87,8.22s-.52,4.11-.74,8.23c-.22,4.13-.03,4.13-.24,8.26-.22,4.12-.19,4.12-.41,8.25-.22,4.13.11,4.14-.11,8.27-.22,4.13-.16,4.13-.37,8.26-.16,3.14.81,6.04,2.97,8.32,2.16,2.28,5.01,3.3,8.15,3.3q4.01,0,8.02,0c4.01,0,4.01.27,8.02.27s4.01.11,8.02.11,4.01-.15,8.02-.15,4.01-.3,8.02-.3,4.01.36,8.02.36,4.01-.34,8.02-.34,4.01.05,8.02.05,4.01.56,8.02.56,4.01-.18,8.02-.18,4.01-.05,8.02-.05,4.01-.16,8.02-.16,4.01.16,8.02.16,4.01-.1,8.02-.1,4.01.47,8.02.47,4.01-.72,8.02-.72,4.01.64,8.02.64,4.01-.12,8.02-.12,4.01-.08,8.02-.08,4.01.19,8.02.19,4.01-.31,8.02-.31,4.01-.25,8.02-.25,4.01.2,8.02.2,4.01-.04,8.02-.04,4.01-.25,8.02-.25,4.01.77,8.02.77,4.01-.57,8.03-.57,4.01.26,8.03.26,4.01-.45,8.03-.45,4.01.53,8.03.53,4.01-.47,8.03-.47,4.01.49,8.03.49,4.01.13,8.03.13,4.01-.36,8.03-.36,4.01.44,8.03.44,4.01-.06,8.03-.06,4.01-.19,8.03-.19,4.02-.07,8.03-.07,4.01-.32,8.03-.32,4.02.12,8.03.12,4.02-.17,8.03-.17c3.19,0,6.04-1.08,8.21-3.42,2.17-2.34,3.5-5.3,3.26-8.49-.32-4.18-.37-4.17-.69-8.35-.32-4.18-.36-4.17-.68-8.35-.32-4.18-.13-4.19-.45-8.37-.32-4.18-.79-4.14-1.11-8.32-.32-4.18-.14-4.19-.46-8.37-.32-4.18-.26-4.18-.58-8.36s.05-4.21-.27-8.39-.72-4.15-1.04-8.33c-.32-4.18-.26-4.19-.58-8.37-.32-4.18-.36-4.18-.68-8.36-.2-2.6-.47-5.18-1.03-7.66-.57-2.54-1.79-4.84-2.71-7.22s-1.88-4.78-3.16-7c-1.29-2.24-2.82-4.27-4.42-6.28s-3.37-3.83-5.25-5.58-3.57-3.74-5.71-5.19c-2.12-1.44-4.28-2.91-6.62-4.04-2.3-1.11-4.74-2.09-7.22-2.85-2.43-.75-5.07-.79-7.66-1.19-2.45-.38-4.98-1.11-7.69-1.51-2.48-.36-5.09-.53-7.78-.89-2.5-.34-5.05-.96-7.73-1.3-2.51-.32-5.1-.65-7.77-.96-2.52-.29-5.18-.01-7.84-.3s-5.1-.8-7.76-1.06-5.14-.52-7.79-.75-5.12-.8-7.78-1-5.18-.13-7.83-.3-5.17-.2-7.82-.35c-2.57-.15-5.18-.09-7.83-.22s-5.17-.38-7.81-.48-5.18-.04-7.83-.11-5.17-.61-7.82-.66-5.19-.25-7.83-.27-5.2.35-7.84.35Z"/>
        </g>
      </g>
      <g>
        <g>
          <path class="cls-2" d="M498.4,719.51c-1.14,2.15-2.43,4.14-3.79,5.97-1.43,1.91-3.26,3.4-5.05,4.92s-3.46,3.19-5.67,4.23c-2,.95-4.29,1.7-6.75,2.24"/>
          <path class="cls-2" d="M477.07,742.2c-2.58,0-5.1-1.78-5.68-4.4-.66-3.02,1.46-6.04,4.49-6.7,2.7-.59,5.08-1.5,7.23-2.78s4.29-2.78,6.06-4.89c1.53-1.82,2.78-4.11,4.12-6.63,1.45-2.74,4.79-3.8,7.53-2.35,2.74,1.45,3.88,4.89,2.43,7.62-1.15,2.17-2.68,4.52-4.52,6.92-1.57,2.06-3.34,4.21-5.6,6.07-2,1.65-4.41,2.99-7.07,4.25-2.32,1.1-4.79,2.45-7.7,3.09-.4.09-.89-.2-1.28-.2Z"/>
        </g>
        <g>
          <path class="cls-2" d="M584.37,711.63c0,1.86.58,4.97,1.95,8.38.99,2.44,2.63,4.92,4.34,7.43,1.58,2.33,3.34,4.65,5.54,6.54s4.51,3.71,7.26,4.68"/>
          <path class="cls-2" d="M603.58,743.91c-.61,0-1.36.26-1.97.05-2.69-.94-5.01-2.58-7.19-4.17s-4.03-3.79-5.78-5.86-3.47-4.38-4.75-6.71c-1.43-2.59-2.77-5.08-3.57-7.46-1.11-3.29-1.33-6.22-1.33-8.12,0-3.1,2.34-5.38,5.44-5.38s5.3,2.28,5.3,5.38c0,1.66,1.57,4.89,3.39,8.52,1.29,2.57,2.51,5.59,4.64,7.89,2.1,2.26,4.88,3.72,7.76,4.73,2.92,1.02,4.27,4.43,3.25,7.35-.81,2.31-2.86,3.79-5.18,3.79Z"/>
        </g>
        <path class="cls-2" d="M540.63,764.68c-1.42,0-2.87.59-4.3.5-2.62-.16-5.16-1.02-7.7-1.45s-5.19-.78-7.66-1.48c-2.54-.73-4.84-2.01-7.21-2.99-2.45-1.01-4.89-1.88-7.12-3.13s-4.55-2.65-6.58-4.19c-2.13-1.61-4.16-3.27-5.92-5.09-1.85-1.93-3.14-4.21-4.51-6.34-1.44-2.25-3.12-4.32-3.94-6.74-.99-2.93.81-6.3,3.75-7.28,2.93-.99,5.96.75,6.94,3.68.83,2.47,2.22,4.94,4.03,7.18,1.63,2.02,3.72,3.88,6,5.63,2.09,1.6,4.57,2.81,7.09,4.11,2.36,1.22,4.78,2.54,7.43,3.45s5.29,1.18,8.01,1.72c2.65.53,5.31,1.18,8.07,1.35,2.24.14,5.19.33,8.57.03,2.6-.23,5.51-.53,8.5-1.27,2.63-.66,5.42-1.53,8.16-2.74,2.5-1.11,4.96-2.66,7.41-4.36,2.25-1.55,4.12-3.73,6.22-5.87,1.9-1.94,3.82-3.99,5.52-6.48,1.53-2.23,2.78-4.76,4.08-7.48,1.34-2.79,4.95-3.72,7.74-2.39,2.79,1.34,4.35,4.74,3.02,7.53-1.14,2.38-2.63,4.54-3.98,6.69s-3.09,4.19-4.71,6.16-3.47,3.82-5.35,5.57c-1.89,1.77-3.92,3.31-6.04,4.8s-4,3.33-6.31,4.53c-2.22,1.15-4.76,1.64-7.13,2.51s-4.57,2.25-7.04,2.82-4.99.67-7.52.95-5,.08-7.54.08Z"/>
        <path class="cls-2" d="M518.25,731.31c-2.82,0-5.66-.07-8.21-.86-2.66-.82-4.92-2.57-7.14-4.1s-4.53-3.2-6.19-5.36-2.61-4.78-3.51-7.39c-.87-2.54-1.87-5.17-1.87-7.99s.6-5.58,1.48-8.12c.9-2.61,2.65-4.77,4.32-6.93s3.23-4.51,5.51-6.07c2.23-1.53,4.95-2.25,7.61-3.07s5.19-1.12,8.02-1.12,5.43.45,7.98,1.23,5.32,1.57,7.54,3.11,4.03,3.7,5.69,5.86c1.67,2.16,3.1,4.47,3.99,7.08.87,2.54,1.41,5.22,1.41,8.04s-.49,5.51-1.37,8.05-2.49,4.81-4.16,6.97-3.53,4.06-5.8,5.62-4.53,3.02-7.19,3.84-5.28,1.21-8.11,1.21ZM518.25,691.19c-2.73,0-5.12.99-7.35,2.16-2.36,1.24-4.68,2.59-6.07,4.76s-1.84,4.8-1.84,7.51.41,5.37,1.79,7.54c1.39,2.17,3.71,3.58,6.07,4.82,2.23,1.17,4.67,1.93,7.4,1.93s5.46-.2,7.69-1.37c2.36-1.24,3.93-3.5,5.32-5.67,1.39-2.17,2.7-4.54,2.7-7.25s-.77-5.43-2.16-7.59c-1.39-2.17-3.48-4.13-5.84-5.37-2.23-1.17-4.98-1.47-7.71-1.47Z"/>
        <path class="cls-2" d="M563.74,731.5c-2.83,0-5.61-.53-8.17-1.36-2.65-.86-4.92-2.49-7.13-4.1-2.23-1.62-4.52-3.25-6.15-5.48-1.61-2.21-2.43-4.89-3.29-7.54-.83-2.56-1.46-5.2-1.46-8.04s.05-5.66.88-8.22,2.72-4.81,4.33-7.02,3.33-4.36,5.56-5.99c2.21-1.61,4.76-2.57,7.41-3.44,2.56-.83,5.18-1.39,8.01-1.39s5.66-.06,8.22.77,5.11,2.31,7.31,3.91,3.81,3.92,5.43,6.15c1.61,2.21,2.9,4.55,3.76,7.19.83,2.56,1.76,5.2,1.76,8.03s-.89,5.49-1.72,8.05c-.86,2.65-1.71,5.33-3.32,7.54-1.62,2.23-3.54,4.38-5.77,6-2.21,1.61-4.83,2.8-7.48,3.66-2.56.83-5.37,1.27-8.2,1.27ZM563.74,690.13c-2.74,0-5.24.64-7.46,1.93-2.29,1.33-4.49,2.97-5.82,5.26-1.29,2.22-1.58,4.92-1.58,7.67s.27,5.46,1.55,7.68c1.33,2.29,3.43,4.14,5.72,5.46s4.85,1.62,7.59,1.62,5.5-.12,7.71-1.4c2.29-1.33,4.06-3.52,5.38-5.8,1.29-2.22,2.34-4.82,2.34-7.56s-.89-5.44-2.18-7.66-3.58-3.82-5.87-5.15-4.65-2.06-7.39-2.06Z"/>
        <path class="cls-2" d="M518.25,714.88c-2.4,0-4.64-.61-6.22-2.18s-2.89-3.82-2.89-6.22,1.56-4.39,3.14-5.97,3.57-2.97,5.97-2.97,4.31,1.47,5.89,3.05c1.58,1.58,2.95,3.49,2.95,5.89s-1.24,4.44-2.82,6.02c-1.58,1.58-3.62,2.38-6.02,2.38Z"/>
        <path class="cls-2" d="M563.74,713.41c-2.37,0-4.6-.71-6.16-2.26s-2.83-3.78-2.83-6.16,1.25-4.62,2.81-6.18,3.81-2.32,6.18-2.32,4.45.94,6.01,2.49,2.24,3.64,2.24,6.01-.72,4.42-2.28,5.97c-1.56,1.56-3.6,2.45-5.97,2.45Z"/>
      </g>
    </g>
  </g>
</svg>