<?xml version="1.0" encoding="UTF-8"?>
<svg id="Calque_1" data-name="Calque 1" xmlns="http://www.w3.org/2000/svg" viewBox="0 0 1080 600">
  <defs>
    <style>
      .cls-1 {
        fill: #efca52;
      }

      .cls-2 {
        fill: #2d2218;
      }
    </style>
  </defs>
  <rect class="cls-1" y=".78" width="1080" height="599.22"/>
  <path class="cls-2" d="M595.58,281.19c-3.72,4.17,6.92,8.57,9.47,9.7,16.84,7.46,45.59,11.96,46.9,35.95.67,12.35-3.33,20.26-12.85,27.1-18,12.92-41.36,12-62.02,8.43-5.12-.89-23.35-5.63-25.58-10.41-1.65-3.53.27-12.09.48-16.44.12-2.35-.58-4.34-.27-6.97.98-8.24,5.25-6.76,11.34-5.31,13.58,3.23,27.71,13.9,42.27,10.21,12.78-3.24-.22-8.69-5.3-10.66-20.04-7.78-65.79-21.73-46.03-53.69,17.24-27.88,58.96-24.64,84.23-12.61,5.38,2.56,7.83,3.84,8.54,10.64.51,4.91-.37,14.92-1.27,19.9-.39,2.13-.98,3.39-3.2,3.64-5.04.56-17.04-6.72-22.67-8.69-5.15-1.8-20.01-5.3-24.03-.78Z"/>
  <path class="cls-2" d="M509.44,376.81c-1.91-1.78-2.51-6.78-3.56-9.29-2.76-6.6-4.5-4.56-10.16-5-4.78-.37-9.55-.89-14.41-.6-1.7.1-6.61.52-7.86,1.04-5.25,2.19-2.93,14.28-11.08,15.61-10-.44-21.41,1.43-31.11-1.29-1.33-.37-3.89-.98-4.31-2.43-1.02-3.52,2.17-11.63,3.5-15.21,7.44-19.92,17.54-40.11,25.81-59.82,3.53-8.4,6.57-19.02,10.31-26.83,1.47-3.07,3.65-5.14,6.76-6.24,4.18-1.48,20.26-1.4,25.15-.88,2.56.27,7.2,1.95,8.84,4.07l42.36,104.45c-.06,2.55-1.42,3.37-3.67,3.7-9.95-.43-20.5,1.54-30.39.65-1.65-.15-4.97-.82-6.17-1.94ZM483.54,334.16c1.45.43,6.83,0,8.85,0,.08,0,1.35-.6,1.38-.92-1.25-3.88-1.76-8.03-2.92-11.93-.43-1.44-1.7-6.84-3.43-6.83l-5.17,17.23c-.32.78.73,2.28,1.3,2.45Z"/>
  <path class="cls-2" d="M209.03,275.65c1.12-1.38,3.21-2.05,4.88-2.35,9.79-1.75,21.67.2,31.48-1.94,22.11-1.47,43.98-5.03,66.19-5.24,2.01.23,3.06,2.61,3.7,4.33,1.52,4.06,2.66,16.49,2.51,21.01-.08,2.32-.76,4.14-2.92,4.9-8.1,2.85-16.79.68-25.03,2.32-2.46.49-4.55,1.06-5.35,3.8l5.55,72.47c0,4.09-.56,6.21-4.73,7.03-6.52,1.29-15.93,2.25-22.58,2.41-2.25.05-8.58.04-10.44-.48-2.17-.61-2.92-5.31-3.24-7.43-2.54-17.07-1.5-35.39-3.6-52.59l-2.69-18.23c-.6-1.63-3.91-2.16-5.41-2.23-4.8-.2-9.61.75-14.26,1.1-6.76.5-13.07,2.9-14.66-6.12-.79-4.47-2.1-19.48.58-22.78Z"/>
  <path class="cls-2" d="M768.2,305.56c-.79.5-6.08.72-7.37.68-6.29-.19-12.37-2.3-18.69-2.32-4.26-.01-6.04.2-6.87,4.85-3.6,19.97-3.07,43.48-5.85,64.03-.33,2.45-.92,6.94-1.45,9.1-1.21,4.93-7.59,2.87-11.05,2.8-5.51-.11-11.09-.11-16.61-.93-2.32-.34-7.88-1.25-9.74-2.12-2.13-.99-2.54-3.48-2.57-5.72-.28-19.72,5-43.64,5.92-63.99.08-1.77.25-8.31-.08-9.43-.92-3.17-9.15-3.23-11.8-3.56-1.07-.13-2.1-.81-3.26-.93-5.76-.59-17.25,2.25-17.4-7.08-.07-4.12.9-14.29,1.83-18.28,1.02-4.38,3.03-6.63,7.42-6.73,9.91-.25,21.81,4.04,31.88,3.49,20.02,2.29,40.22,2.13,60.07,5.56,1.89.33,4.36.07,6.04.58,2.93.88,3.2,8.33,3.15,11.04-.07,3.57-.88,17.26-3.57,18.96Z"/>
  <path class="cls-2" d="M865.77,284.84c-.43.6-1.74,1.35-2.43,1.67-5.09,2.43-20.16,2.6-26.52,2.97-4.83.28-11.87-2.03-13.68,5.01-1.1,4.29-.51,9.37,4.33,9.49,8.97.23,18.96-2.17,28.02-2.12,9.14.05,9.1,3.92,9.52,12.83.12,2.45.21,8.25-.24,10.41-.66,3.17-2.8,4.79-5.6,5.3-9.73,1.78-21.19.71-31.11,2.29-3.82,1.1-4.05,11.45.37,12.03,11.75,1.54,26.05-2.8,37.87-2.23,2.94.14,4.63,1.98,5.27,5.14.77,3.75,1.49,15.55.58,19.07-.75,2.92-2.26,3.48-4.81,3.93-12.72,2.27-29.88,2.25-43.01,3.19-8.05.57-22.07,3.08-29.47,1.42-4.5-1.01-5.22-5.58-5.85-10.03-4.31-30.31-3.1-63.81-7-94.44-.46-2.94,2.46-4.62,4.64-5.15,5.47-1.31,11.45-1.25,17.01-1.89,16.45-1.88,35.82-4.43,52.32-4.46,4.25-.01,7.98-.6,8.93,4.83.76,4.34,1.92,12.91,1.8,17.13-.03,1.05-.38,2.83-.95,3.62Z"/>
  <path class="cls-2" d="M812.94,251.75c5.77-.85,36.74-5.27,41.13-8.21.59-.4,1.71-1.28,2.04-1.95.43-.88.56-2.8.48-3.92-.35-4.5-2.33-13.54-3.49-18.1-1.45-5.7-4.79-4.82-8.66-4.51-15.04,1.21-32.43,5.28-47.23,8.44-5,1.07-10.46,1.43-15.3,3.21-1.93.71-4.41,2.72-3.68,5.81l3.31,16.87c.82,4.16,5.44,6.82,10.39,5.97l21.03-3.61Z"/>
  <path class="cls-2" d="M430.39,285.55c-6.23-26.18-32.32-41.13-57.16-38.82-37.33,3.48-55.21,41.43-47.66,77.29,6.66,31.61,32.43,44.84,61.87,41.17,40.73-5.07,51.94-41.91,42.95-79.64ZM397.83,301.3c-.79,1.99-3.25,3.09-5.23,3.38-.92,3.44.13,3.69.13,7.25s.08,3.56.08,7.12c0,2.08-1.43,3.35-3.51,3.35-3.37,0-3.37.18-6.74.18s-3.37.04-6.74.04-3.37.03-6.73.03c-2.08,0-3.73-1.53-3.73-3.61,0-3.56-.23-3.56-.23-7.13s1.35-3.75.42-7.19c-2.01-.34-4.24-1.59-4.95-3.66-1.05-3.01.72-6.52,3.73-7.57,2-.7,4.57-.78,7.3-1.15,2.32-.31,4.78-.62,7.34-.66,1.92-.03,4.74,0,7.78.39,2.55.32,5.41.28,7.78,1.21,2.96,1.17,4.45,5.03,3.28,7.99Z"/>
</svg>