<?xml version="1.0" encoding="UTF-8"?>
<svg id="Calque_1" data-name="Calque 1" xmlns="http://www.w3.org/2000/svg" xmlns:xlink="http://www.w3.org/1999/xlink" viewBox="0 0 1080 1080">
  <defs>
    <style>
      .cls-1 {
        fill: none;
      }

      .cls-2 {
        fill: #efca52;
      }

      .cls-3 {
        fill: #232115;
      }

      .cls-4 {
        fill: #2d2218;
      }

      .cls-5 {
        fill: #f6f4f1;
      }

      .cls-6 {
        clip-path: url(#clippath);
      }
    </style>
    <clipPath id="clippath">
      <circle class="cls-1" cx="540" cy="540" r="285.67"/>
    </clipPath>
  </defs>
  <g>
    <circle class="cls-2" cx="540" cy="540" r="285.67"/>
    <path class="cls-3" d="M540,254.33c157.77,0,285.67,127.9,285.67,285.67s-127.9,285.67-285.67,285.67-285.67-127.9-285.67-285.67,127.9-285.67,285.67-285.67M540,245.33c-39.78,0-78.37,7.79-114.7,23.16-35.09,14.84-66.6,36.09-93.66,63.15-27.06,27.06-48.31,58.57-63.15,93.66-15.37,36.33-23.16,74.93-23.16,114.7s7.79,78.37,23.16,114.7c14.84,35.09,36.09,66.6,63.15,93.66,27.06,27.06,58.57,48.31,93.66,63.15,36.33,15.37,74.93,23.16,114.7,23.16s78.37-7.79,114.7-23.16c35.09-14.84,66.6-36.09,93.66-63.15,27.06-27.06,48.31-58.57,63.15-93.66,15.37-36.33,23.16-74.93,23.16-114.7s-7.79-78.37-23.16-114.7c-14.84-35.09-36.09-66.6-63.15-93.66-27.06-27.06-58.57-48.31-93.66-63.15-36.33-15.37-74.93-23.16-114.7-23.16h0Z"/>
  </g>
  <g class="cls-6">
    <g>
      <g>
        <path class="cls-4" d="M607.97,826.55c3.71,0,7.37.69,11.04.68s7.39-.3,11.06-.33,7.39-.65,11.05-.69,7.41.83,11.07.77c3.72-.05,7.4-.54,11.05-.6,3.72-.06,7.41.31,11.06.25,3.72-.07,7.41-.31,11.05-.37,3.73-.07,7.4-.87,11.04-.93s7.42.09,11.06.04c3.74-.06,7.43.6,11.06.56,3.74-.05,7.42-.19,11.05-.22,3.75-.03,7.43-.72,11.05-.73,3.76,0,7.44.64,11.05.67,3.77.04,7.47-.57,11.06-.49,3.78.08,7.48-.04,11.06.1,3.8.15,7.48.54,11.04.76,3.82.24,7.47.83,11,1.16,3.84.36,7.57.28,11.05.78,3.86.55,7.37,1.98,10.76,2.71,3.88.83,7.58,1.29,10.8,2.39,3.84,1.31,6.94,3.35,9.78,5.08,3.48,2.12,6.69,4.08,8.55,6.93,1.97,3.03,2.9,6.71,2.89,10.68,0,3.62-2.08,6.48-4.98,9.31-2.24,2.19-4.79,4.86-8.61,6.62-2.97,1.37-6.66,1.89-10.52,3.03-3.23.95-6.76,1.72-10.59,2.52-3.37.71-6.94,1.3-10.73,1.89-3.44.54-6.95,1.71-10.72,2.17-3.48.42-7.16.33-10.91.68-3.52.33-7.12.84-10.86,1.11-3.53.26-7.16.58-10.89.79s-7.19.35-10.91.51c-3.57.16-7.22-.19-10.93-.07-3.58.12-7.21.35-10.91.44s-7.21.61-10.91.67c-3.59.06-7.24-.3-10.93-.27-3.6.03-7.23.93-10.92.94-3.6.01-7.24-.76-10.93-.76-3.6,0-7.25.34-10.92.32-3.61-.02-7.25-.68-10.92-.71-3.61-.03-7.25.32-10.92.27-3.62-.04-7.26.02-10.93-.03-3.62-.05-7.26.03-10.92-.03-3.62-.06-7.26-.7-10.92-.77s-7.28.7-10.94.63c-5.43-.03-5.42-.24-10.85-.25-5.43,0-5.43-.43-10.85-.43s-5.43-.05-10.85-.05c-5.43,0-5.43.13-10.85.12-5.43,0-5.43.41-10.86.4-5.43,0-5.43-.37-10.85-.38-5.43,0-5.43.58-10.86.57-5.43,0-5.43-.43-10.86-.43-5.43,0-5.43-.23-10.86-.24-5.43,0-5.43-.21-10.86-.21-5.43,0-5.43-.07-10.86-.08-5.43,0-5.43.25-10.86.24-5.43,0-5.43.66-10.86.65-5.43,0-5.43-.24-10.86-.25s-5.43.25-10.86.24c-5.43,0-5.43-.64-10.86-.65-5.43,0-5.43.66-10.86.65-5.43,0-5.43-.39-10.86-.39-5.43,0-5.43-.34-10.86-.35-5.43,0-6.38.32-11.82.32s-9.85,2.88-13.12-1.46c-3.38-4.48,4.16-4.23,5.47-9.69s2.08-5.27,3.39-10.73c1.31-5.46.36-5.69,1.67-11.15,1.31-5.46,1.74-5.36,3.05-10.82,1.31-5.46,1.43-5.43,2.74-10.89,1.31-5.47.8-5.59,2.11-11.05,1.31-5.47-1.46-7.55,3.09-10.86s5.51.91,11.03,1.41c5.51.5,5.53.29,11.05.79,5.52.5,5.55.14,11.07.64s5.48.93,10.99,1.43c5.52.5,5.51.59,11.03,1.09,5.52.5,5.51.61,11.03,1.11,5.52.5,5.6-.41,11.12.09,5.52.5,5.44,1.34,10.96,1.84,5.52.5,5.58-.22,11.1.28,5.52.5,5.47,1.03,10.99,1.53,5.52.5,5.52.42,11.04.92s5.5.67,11.02,1.17c5.52.5,5.56.04,11.07.54,5.52.5,5.5.72,11.01,1.22s5.47.99,10.99,1.49c5.52.5,5.57-.05,11.09.45,5.52.5,5.54.26,11.06.76,5.52.5,5.49.87,11.02,1.31,5.53.44,5.53.3,11.07.68Z"/>
        <g>
          <path class="cls-5" d="M380.7,876.89c-5.05,0-5.05.4-10.1.4-5.05,0-5.05.39-10.11.39-5.05,0-5.05-.34-10.1-.34s-5.06-.33-10.11-.33q-5.06,0-10.11,0c-5.37,0-9.64-3.54-11.15-8.69-1.82-6.17-2.08-6.09-3.9-12.27-1.82-6.17-6.74-6.53-3.47-12.07,2.79-4.71,5.1-.34,10.57-.34s5.47-.43,10.94-.43,5.47.92,10.94.92,5.47-.68,10.94-.68,5.47.84,10.95.84,5.47-.7,10.94-.7,5.48.45,10.95.45,8.27-5.06,11.21-.44c3.38,5.31-1.66,6.31-3.27,12.4-1.6,6.09-2.15,5.94-3.76,12.03-1.4,5.32-5.87,8.87-11.37,8.87Z"/>
          <path class="cls-4" d="M380.7,885.31c-5.05,0-5.05-.17-10.1-.17-5.05,0-5.05-.56-10.11-.56-5.05,0-5.05.65-10.1.65-5.06,0-5.06-.14-10.11-.14s-5.06.32-10.11.32c-4.38,0-8.47-2.04-11.84-4.56-3.36-2.52-5.58-6.13-6.81-10.33-1.82-6.17-1.8-6.18-3.61-12.35-1.82-6.17-2.51-5.97-4.32-12.14-.69-2.35-.3-5.19,1.17-7.15,1.47-1.96,4.08-2.55,6.53-2.55,5.47,0,5.47-.4,10.94-.4s5.47.37,10.94.37,5.47-.06,10.94-.06,5.47-.16,10.94-.16,5.47-.33,10.95-.33,5.47.4,10.94.4,5.48-.32,10.95-.32,5.48.37,10.95.37c2.41,0,5.04.63,6.51,2.54,1.47,1.91,1.29,4.58.68,6.91-1.6,6.09-.98,6.25-2.58,12.34-1.6,6.09-1.83,6.03-3.43,12.12-1.15,4.36-3.74,8.09-7.13,10.7-3.39,2.61-7.66,4.49-12.17,4.49ZM322.78,851.85c-.87,3.47,1.28,6.98,3.45,14.34.54,1.84,2.03,3.51,3.94,3.51,5.05,0,5.05-.65,10.1-.65s5.05.14,10.11.14,5.05-.32,10.1-.32,5.06.59,10.11.59,5.06.35,10.11.35c1.97,0,4.14-1.65,4.64-3.56,1.92-7.3,4.29-11.28,3.55-12.7-1.68-3.23-5.73-1.63-11.32-1.63-5.59,0-5.59-.73-11.18-.73-5.59,0-5.59.4-11.18.4-5.59,0-5.59-.37-11.18-.37-5.59,0-6.3.62-11.94-.25-5.99-.92-8.66-1.77-9.32.87Z"/>
        </g>
        <g>
          <path class="cls-5" d="M753.79,876.75c-5.05,0-5.05.11-10.1.11-5.05,0-5.05.44-10.11.44-5.05,0-5.05-.05-10.1-.05-5.06,0-5.06-.12-10.11-.12-5.06,0-5.06-.36-10.11-.36-5.37,0-10.5-3.06-12.02-8.21-1.82-6.17-1.48-6.27-3.3-12.44-1.82-6.17-6.87-6.83-3.59-12.37,2.79-4.71,5.49.13,10.96.13s5.47.26,10.94.26,5.47-.46,10.94-.46,5.47-.23,10.94-.23,5.47-.17,10.95-.17,5.47.3,10.94.3,5.48.73,10.95.73,8.37-5.39,11.31-.77c3.38,5.31-2.22,6.24-3.83,12.33-1.6,6.09-1.22,6.19-2.83,12.28-1.4,5.32-6.33,8.6-11.83,8.6Z"/>
          <path class="cls-4" d="M753.79,885.4c-5.05,0-5.05-.82-10.1-.82s-5.05-.06-10.11-.06c-5.05,0-5.05-.04-10.1-.04q-5.06,0-10.11,0c-5.06,0-5.06.21-10.11.21-4.38,0-8.37-1.45-11.73-3.96s-6.11-5.86-7.35-10.06c-1.82-6.17-1.53-6.26-3.35-12.43-1.82-6.17-2.43-5.99-4.25-12.16-.69-2.35-.25-5.25,1.22-7.21,1.47-1.96,4.12-2.62,6.57-2.62,5.47,0,5.47-.65,10.94-.65s5.47.8,10.94.8,5.47.07,10.94.07,5.47-.02,10.94-.02,5.47.06,10.95.06,5.47-.08,10.94-.08,5.48-.28,10.95-.28,5.48-.35,10.95-.35c2.41,0,5.06,1.04,6.53,2.95,1.47,1.91,1.06,4.54.45,6.87-1.6,6.09-.81,6.3-2.41,12.39s-1.63,6.08-3.24,12.17c-1.15,4.36-4.2,7.66-7.59,10.27-3.39,2.61-7.36,4.97-11.86,4.97ZM695.2,851.74c-1.49,3.63,1.41,7.25,3.58,14.62.54,1.84,2.57,3.42,4.49,3.42,5.05,0,5.05.04,10.1.04s5.05,0,10.11,0,5.05-.21,10.1-.21,5.06.04,10.11.04,5.06-.28,10.11-.28c1.97,0,3.98-1.24,4.48-3.15,1.93-7.3,4.96-10.11,3.26-14.52-.67-1.72-5.27.28-10.86.28-5.59,0-5.59-.67-11.18-.67-5.59,0-5.59.65-11.18.65s-5.59-.8-11.18-.8c-5.59,0-5.5.29-11.08-.06-5.16-.32-10.05-1.3-10.85.64Z"/>
        </g>
        <g>
          <path class="cls-5" d="M295.08,688.79c1.24-5.52,1.27-5.52,2.51-11.04,1.24-5.52.74-5.64,1.98-11.16,1.24-5.53,1.31-5.51,2.55-11.04,1.24-5.52,1.39-5.49,2.63-11.02,1.24-5.53.8-5.63,2.04-11.16,1.24-5.53,1.48-5.47,2.67-11.01.73-3.86,2.15-7.51,3.15-11.19,1.04-3.8,2.15-7.49,3.48-11.06,1.38-3.7,2.59-7.39,4.28-10.8,1.75-3.53,4.1-6.64,6.19-9.82,2.16-3.29,4.08-6.68,6.61-9.54s5.19-5.89,8.17-8.32,6.24-4.73,9.63-6.63c3.34-1.87,7.22-2.73,10.94-4.01s7.18-2.82,11.11-3.44c3.63-.57,7.33-1.13,11.08-1.69s7.4-.66,11.15-1.18c3.65-.51,7.31-1.34,11.06-1.83,3.66-.47,7.42-.47,11.18-.92s7.32-1.3,11.09-1.71c3.67-.4,7.46,0,11.23-.36s7.3-1.72,11.07-2.05c3.68-.32,7.43-.41,11.19-.69s7.46.13,11.23-.11c3.69-.24,7.38-1.19,11.15-1.39,3.69-.2,7.47.45,11.24.29,3.7-.16,7.43-.24,11.2-.36,3.7-.12,7.43-.4,11.2-.49s7.44-.22,11.21-.26,7.44-.52,11.21-.52,7.31.71,10.9.75c3.68.04,7.32-.45,10.91-.38s7.32-.21,10.91-.09c3.68.12,7.32.22,10.91.38,3.68.16,7.32.25,10.9.45s7.26,1.17,10.84,1.4c3.67.24,7.33.1,10.9.37,3.67.28,7.26.94,10.84,1.25,3.67.32,7.31.38,10.88.73,3.67.36,7.25,1.08,10.81,1.48,3.66.41,7.25.95,10.81,1.39s7.33.33,10.88.8,7.29.74,10.84,1.25c3.65.52,7.23,1.14,10.77,1.69,3.64.56,7.23,1.18,10.76,1.76,3.84.63,7.44,1.9,10.92,3.12,3.62,1.27,6.85,3.19,10.1,5.05,3.29,1.88,6.84,3.39,9.75,5.81,2.88,2.39,5.01,5.62,7.54,8.49s5.15,5.47,7.29,8.66c2.07,3.09,3.81,6.45,5.58,9.86,1.71,3.3,3.63,6.59,5.07,10.15s2.45,7.11,3.6,10.76,2.06,7.23,2.94,10.95c1.25,5.65,1.41,5.61,2.64,11.27,1.23,5.65.61,5.79,1.84,11.44,1.23,5.66,1.55,5.59,2.79,11.24s1.78,5.53,3.01,11.19c1.23,5.66.55,5.81,1.78,11.46,1.23,5.66,1.97,5.5,3.2,11.16"/>
          <path class="cls-4" d="M294.87,696.58c-.56,0-1.09-.32-1.66-.45-4.18-.94-7.03-3.25-6.09-7.44,1.24-5.51,1.35-7.31,2.58-12.83,1.24-5.51,1.2-5.39,2.44-10.9,1.24-5.52.99-5.57,2.23-11.09,1.24-5.51,1.3-5.5,2.53-11.02,1.24-5.52,1.81-5.39,3.05-10.91q1.24-5.52,2.42-11.05c.72-3.82,1.03-7.66,1.98-11.25s1.94-7.49,3.18-10.98c1.31-3.67,3.3-6.99,4.87-10.35,1.65-3.53,3.07-7.09,4.99-10.27s4.55-6.21,6.85-9.14,4.54-6.25,7.22-8.85c2.76-2.68,6.26-4.41,9.32-6.6,3.1-2.22,6.17-4.38,9.56-6.09s6.74-3.51,10.39-4.67c3.57-1.13,7.3-1.99,11.12-2.59,3.74-.59,7.52-.76,11.22-1.31,3.74-.56,7.49-.91,11.2-1.43,3.75-.52,7.42-1.44,11.13-1.92s7.46-1.17,11.18-1.61,7.58-.13,11.31-.53c3.76-.41,7.48-.89,11.22-1.26,3.76-.37,7.47-1.02,11.21-1.34,3.76-.33,7.49-.81,11.24-1.09,3.76-.29,7.53-.25,11.28-.49,3.76-.24,7.48-1.04,11.24-1.25,3.76-.2,7.55.35,11.31.18,3.76-.16,7.48-1.14,11.25-1.26,3.75-.12,7.54.74,11.31.66,3.75-.08,7.5-.91,11.28-.95,3.75-.04,7.52.42,11.29.42s7.38-.55,10.99-.52c3.71.04,7.37.38,10.99.46s7.38.03,10.99.14c3.72.12,7.35.85,10.96,1,3.72.16,7.39-.03,11,.16s7.35.85,10.95,1.08c3.72.24,7.41-.05,11,.22,3.73.28,7.39.46,10.96.77s7.3,1.42,10.87,1.77,7.45.01,11,.4c3.74.41,7.37.9,10.91,1.33,3.75.46,7.36,1.09,10.88,1.56,3.76.5,7.45.53,10.94,1.03,3.78.54,7.29,1.84,10.75,2.37,3.8.59,7.51.56,10.93,1.12,3.71.61,7.3,1.69,10.78,2.83,3.55,1.15,6.94,2.66,10.24,4.35,3.29,1.68,6.38,3.71,9.4,5.9s5.57,4.75,8.27,7.38,5,5.29,7.35,8.26,4.61,5.67,6.61,8.9c1.9,3.07,4.16,6.08,5.83,9.49,1.59,3.24,2.35,6.96,3.72,10.51s3.19,6.64,4.3,10.27c1.06,3.46,1.89,7.1,2.76,10.79.01.04.21.05.22.09,1.23,5.65.5,5.81,1.73,11.46s1.7,5.55,2.93,11.21.9,5.73,2.13,11.38c1.23,5.65,1.96,5.5,3.19,11.15,1.23,5.66,1,5.57,2.23,11.23,1.23,5.66.84,6.45,2.07,12.11.91,4.19-1.63,7.64-5.82,8.55-4.19.91-8.2-1.68-9.12-5.87-1.23-5.65-1.86-5.51-3.09-11.16-1.23-5.65-.59-5.79-1.82-11.43-1.23-5.65-1.63-5.56-2.85-11.21-1.23-5.65-1.28-5.64-2.51-11.29q-1.23-5.65-2.47-11.3c-1.23-5.65-1.13-5.67-2.39-11.32-.81-3.41-1.05-7.41-2.32-11.4-1.13-3.51-2.99-7-4.55-10.7-1.47-3.48-2.96-7.08-4.87-10.53-1.85-3.35-4.2-6.46-6.52-9.6-2.29-3.09-4.66-6.15-7.45-8.87-2.75-2.67-5.71-5.19-8.99-7.33s-6.69-3.69-10.39-5.12c-3.48-1.34-7.23-2.09-11.21-2.74-3.38-.55-6.9-1.31-10.65-1.89-3.41-.53-6.98-1.03-10.7-1.57-3.44-.5-6.99-1.16-10.69-1.65-3.46-.46-7.04-.91-10.73-1.36-3.48-.42-7.03-1.13-10.71-1.54-3.5-.39-7.09-.73-10.77-1.09-3.51-.35-7.13-.35-10.81-.67-3.52-.31-7.12-.58-10.78-.86-3.53-.27-7.1-.87-10.76-1.11-3.54-.23-7.13-.62-10.79-.82-3.54-.19-7.17.14-10.83-.02-3.55-.15-7.15-.39-10.81-.51s-7.16-.47-10.81-.55c-3.56-.08-7.17-.03-10.83-.06-3.56-.04-7.18,0-10.83,0s-7.43-.1-11.13-.06c-3.72.04-7.42.73-11.12.81-3.72.08-7.43-.15-11.13-.03-3.71.12-7.4.66-11.1.82s-7.41.31-11.11.51c-3.7.2-7.4.35-11.11.59-3.7.24-7.38.62-11.09.91-3.69.28-7.45-.16-11.15.16-3.69.32-7.34,1.1-11.04,1.46-3.68.36-7.42.25-11.12.65-3.67.4-7.26,1.63-10.96,2.07-3.67.44-7.38.6-11.08,1.08s-7.38.58-11.08,1.09c-3.66.51-7.24,1.62-10.94,2.17-3.65.54-7.32,1.04-11.01,1.62-3.53.56-7.06.93-10.36,2.08-3.34,1.16-6.32,3.09-9.39,4.84-3.04,1.73-6.12,3.42-8.87,5.7-2.67,2.21-5.32,4.56-7.7,7.27s-4.3,5.5-6.29,8.53c-1.89,2.87-3.51,6-5.12,9.25-1.53,3.07-2.53,6.45-3.8,9.85-1.2,3.22-2.78,6.39-3.74,9.89-.9,3.32-1.34,6.82-2.02,10.38-.02.09.1.26.08.34-1.24,5.52-1.2,5.53-2.44,11.06-1.24,5.52-1.61,5.44-2.85,10.97s-1.18,5.54-2.42,11.07c-1.24,5.52-1.04,5.57-2.28,11.09-1.24,5.53-1.48,5.47-2.72,11-1.24,5.53-.7,5.65-1.94,11.18-.81,3.61-4.08,6.12-7.64,6.12Z"/>
        </g>
        <g>
          <path class="cls-4" d="M703.38,573.24c-2.03-4.79-6.55-7.64-11.68-8.5-3.59-.61-7.16-1.19-10.72-1.75-3.6-.57-7.11-1.51-10.68-2.04-3.6-.53-7.17-1.06-10.75-1.54-3.6-.48-7.24-.54-10.83-.98-3.6-.44-7.17-1.03-10.76-1.42-3.61-.4-7.18-1.02-10.78-1.37-3.61-.35-7.25-.29-10.85-.6-3.61-.3-7.17-1.14-10.79-1.4-3.61-.26-7.25,0-10.87-.21-3.61-.21-7.2-.95-10.82-1.12-3.61-.17-7.23-.36-10.86-.49-3.61-.13-7.23-.21-10.87-.29-3.61-.08-7.24.44-10.87.4-3.61-.04-7.22-.02-10.86-.02s-7.45-.63-11.17-.58c-3.72.04-7.45-.15-11.18-.06-3.72.09-7.42.88-11.14,1.01-3.72.13-7.47-.39-11.19-.21-3.72.18-7.41.86-11.13,1.08-3.71.22-7.4.9-11.12,1.17-3.71.27-7.42.54-11.13.85-3.7.31-7.45.14-11.17.5-3.7.35-7.34,1.3-11.05,1.69-3.69.4-7.43.45-11.14.89-3.69.44-7.36,1.06-11.07,1.54-3.68.48-7.35,1.09-11.05,1.62-3.67.52-7.34,1.17-11.03,1.73-3.67.56-7.44.51-11.13,1.12-5.16.84-9.46,4.38-11.63,9.15,0,0-.07.02-.07.02-.24.55-1.11,3.03.15,4.62,1.26,1.59,4.28,3.35,14.76,1.82,2.02-.41,8.16-1.41,10.19-1.71,3.64-.55,7.23-1.34,10.84-1.85,3.64-.51,7.23-1.34,10.85-1.81,3.64-.47,7.31-.72,10.94-1.15,3.65-.43,7.33-.49,10.96-.88,3.65-.39,7.3-.74,10.93-1.09,3.65-.35,7.32-.41,10.97-.71,3.66-.31,7.29-.77,10.94-1.03,3.66-.26,7.27-1.14,10.93-1.35,3.66-.22,7.33-.36,10.98-.53,3.66-.18,7.33-.13,10.99-.27,3.66-.13,7.32-.35,10.98-.44,3.66-.09,7.33-.11,10.99-.16,3.66-.04,7.33-.32,10.99-.32,3.85,0,7.69.25,11.51.29,3.85.05,7.67.69,11.49.78,3.84.09,7.66.34,11.48.48,3.84.14,7.67.09,11.49.28,3.83.19,7.68,0,11.5.24,3.83.25,7.67.27,11.49.57,3.82.3,7.63.83,11.45,1.17,3.81.35,7.61.95,11.42,1.35,3.8.4,7.61.82,11.43,1.27,3.8.45,7.66.49,11.47.99,3.79.5,7.59,1.02,11.4,1.57,3.78.54,7.51,1.52,11.32,2.12,3.77.59,7.55,1.24,11.35,1.88.03,0,.62.08.64.12.03.08,2.63.2,2.67.27,5.83.4,8.62.7,10.61-.98,2-1.68,1.25-3.38.25-5.75Z"/>
          <path class="cls-4" d="M709.99,593.45c-.1-.23-.17-.44-.28-.61-1-1.61-3.4-3.26-6.26-3.62-4.25-.53-8.92-.92-12.96-1.93,0,0-.04-.02-.04-.02-3.4-.51-7.11-1.26-10.78-1.78-3.43-.48-7.02-.58-10.69-1.05-3.44-.45-6.92-1.44-10.58-1.87-3.46-.41-7.08-.31-10.73-.71-3.48-.37-6.98-1.28-10.63-1.63-3.49-.34-7.05-.71-10.69-1.02-3.5-.3-7.07-.57-10.71-.84-3.51-.26-7.12.08-10.75-.15-3.51-.22-7.08-.39-10.72-.58-3.52-.18-7.07-1-10.7-1.16-3.53-.15-7.1-.54-10.73-.66-3.53-.11-7.13.48-10.76.4-3.53-.07-7.1-.81-10.73-.85-3.54-.04-7.12.42-10.75.42s-7.39.46-11.07.49c-3.7.04-7.38.07-11.06.15-3.69.08-7.39-.33-11.07-.21-3.69.12-7.36.82-11.04.97-3.69.15-7.39-.04-11.07.16-3.68.19-7.35.57-11.04.81-3.68.23-7.35.6-11.03.88-3.67.27-7.34.68-11.02.99-3.67.31-7.4.02-11.08.37-3.66.35-7.31.95-10.99,1.34-3.66.39-7.3,1.03-10.98,1.46-3.65.43-7.4.16-11.08.63-3.65.46-7.32.89-10.99,1.39-3.64.5-7.01,1.17-10.68,1.7-.3-.2-5.41,1.14-5.4.99-6.95,1.11-9.29,1.55-12.88,3.84-.95.59-1.57,1.37-2.02,2.39-1.18,2.6-1.15,5.61.58,7.88,1.48,1.95,4.09,2.75,6.5,2.75.4,0,.78-.15,1.18-.21,3.69-.58,7.46-.44,11.11-.99,3.69-.55,7.22-2.07,10.88-2.58,3.69-.51,7.41-.69,11.07-1.17,3.7-.48,7.43-.48,11.1-.91,3.7-.44,7.38-.88,11.05-1.28,3.7-.4,7.36-1.06,11.03-1.42,3.7-.36,7.44-.17,11.13-.49,3.7-.32,7.32-1.64,11.01-1.92,3.7-.28,7.42-.41,11.11-.65,3.7-.24,7.42-.3,11.12-.5,3.7-.2,7.44.26,11.14.1,3.7-.16,7.39-.62,11.11-.74,3.7-.12,7.4-.47,11.12-.55,3.7-.08,7.41-.47,11.13-.51,3.7-.04,7.41.15,11.13.15s7.26.38,10.83.42c3.66.04,7.26.12,10.82.19,3.66.08,7.25.45,10.81.56,3.66.12,7.27.07,10.82.23,3.66.16,7.29-.3,10.84-.11,3.66.2,7.26.47,10.8.7,3.66.24,7.25.69,10.78.96,3.67.28,7.27.46,10.79.77,3.67.32,7.26.7,10.77,1.04,3.68.36,7.29.49,10.79.87,3.68.41,7.24,1.04,10.72,1.47,3.69.45,7.19,1.47,10.65,1.93,3.7.49,7.25,1.11,10.69,1.61,3.72.54,7.32.84,10.73,1.37,3.75.58,7.37.74,10.75,1.29,2.87.47,5.37-.78,7.11-3.14,1.67-2.26,1.92-5.28.76-7.83Z"/>
        </g>
        <g>
          <path class="cls-5" d="M781.96,695.05c-.27-3.59-1.4-7.01-2.13-10.45-.75-3.51-1.46-6.97-2.65-10.29s-2.35-6.75-3.98-9.89c-1.64-3.17-3.47-6.25-5.51-9.15-2.05-2.91-4.09-5.89-6.51-8.5-2.41-2.61-5.3-4.8-8.04-7.06-2.74-2.26-5.89-3.93-8.93-5.81s-5.8-4.19-9.07-5.65c-3.22-1.44-6.66-2.5-10.1-3.51-3.38-.99-6.87-1.78-10.42-2.32-3.54-.54-7.13-1.16-10.78-1.69-3.55-.51-7.24-.37-10.9-.86-3.56-.48-7.17-.85-10.83-1.32-3.56-.45-7.13-1.18-10.8-1.61-3.57-.42-7.15-1.16-10.81-1.55s-7.19-.82-10.85-1.17c-3.58-.35-7.23-.36-10.9-.68s-7.2-.75-10.87-1.03-7.22-.46-10.89-.71c-3.59-.24-7.2-.7-10.88-.91-3.59-.2-7.23-.44-10.9-.61-3.59-.17-7.22-.53-10.9-.66-3.6-.13-7.26.37-10.94.27-3.6-.1-7.24.02-10.92-.05-3.6-.07-7.24-.28-10.92-.31-3.6-.03-7.24.21-10.92.21s-7.52-.27-11.23-.23c-3.78.04-7.52-.36-11.23-.29-3.77.07-7.51.51-11.21.61-3.78.11-7.5.55-11.21.69-3.78.14-7.52.06-11.23.24-3.78.18-7.5.47-11.2.68-3.77.22-7.54-.07-11.23.18-3.77.25-7.52.35-11.21.63-3.77.29-7.49.84-11.17,1.15-3.77.32-7.44,1.3-11.12,1.65-3.77.36-7.56.05-11.24.44-3.77.39-7.41,1.49-11.08,1.91-3.77.43-7.58.05-11.24.5s-7.44,1.19-11.1,1.67c-3.76.49-7.43,1.24-11.08,1.75-3.76.52-7.46,1.06-11.1,1.6-3.64.54-7.2,1.18-10.65,2.19-3.52,1.02-7.03,2.04-10.32,3.51-3.33,1.49-6.57,3.21-9.63,5.13-3.09,1.93-5.72,4.49-8.5,6.81-2.79,2.33-5.95,4.31-8.39,6.99-2.44,2.69-4.29,5.89-6.35,8.89s-3.8,6.15-5.43,9.41c-1.62,3.23-3.4,6.43-4.57,9.89-1.16,3.42-1.97,6.98-2.66,10.58-.67,3.53-.96,7.16-1.15,10.83-.3,5.71.02,5.73-.28,11.44-.3,5.71-.9,5.68-1.2,11.39-.3,5.71,0,5.73-.29,11.44-.3,5.71-.07,5.72-.36,11.43s-.17,5.72-.47,11.43c-.3,5.71-.4,5.71-.7,11.42-.3,5.71-.57,5.7-.87,11.41-.3,5.71-.67,5.69-.97,11.41-.3,5.72-.18,5.72-.48,11.44s.34,5.75.04,11.47c-.23,4.43.46,8.51,2.39,12.14,2,3.75,4.96,6.79,8.6,8.99,3.53,2.12,7.54,3.1,11.97,3.1,5.56,0,5.56.69,11.11.69s5.56-.04,11.11-.04,5.56.32,11.11.32,5.56-.83,11.11-.83,5.56-.08,11.11-.08,5.56.96,11.11.96,5.56-.13,11.11-.13,5.56-.65,11.11-.65,5.56.49,11.11.49,5.56.05,11.11.05,5.56-.09,11.11-.09,5.56-.28,11.12-.28,5.56.26,11.11.26,5.56-.02,11.12-.02,5.56.26,11.11.26,5.56-.06,11.11-.06,5.55-.03,11.11-.03,5.55-.25,11.11-.25,5.56-.51,11.11-.51,5.55.88,11.11.88,5.56-.99,11.11-.99,5.56.4,11.11.4,5.56.24,11.11.24,5.56-.41,11.11-.41,5.56-.07,11.12-.07,5.56.33,11.11.33,5.56-.48,11.12-.48,5.56,1.02,11.12,1.02,5.56-.6,11.12-.6,5.56-.19,11.12-.19,5.56-.18,11.12-.18,5.56.72,11.12.72,5.56.29,11.12.29,5.56-.32,11.12-.32,5.56.04,11.12.04,5.56.07,11.12.07,5.56-.48,11.12-.48,5.56.71,11.12.71,5.56-.35,11.12-.35,5.56-.48,11.13-.48,5.56.53,11.13.53c4.51,0,8.61-1.65,12.17-3.83,3.68-2.26,7.26-5.11,9.23-8.95,1.91-3.71,1.98-8.21,1.64-12.7-.44-5.79.32-5.85-.12-11.63-.44-5.79-1.23-5.73-1.67-11.52-.44-5.79-.25-5.8-.69-11.59-.44-5.79-.12-5.81-.56-11.6-.44-5.79-.89-5.75-1.33-11.54-.44-5.79-.14-5.81-.58-11.6s-.18-5.81-.62-11.6c-.44-5.79-1.03-5.74-1.48-11.53-.44-5.79-.31-5.8-.69-11.6-.38-5.8-.09-5.82-.53-11.61Z"/>
          <path class="cls-4" d="M767.18,843.85c-5.56,0-5.56.02-11.11.02s-5.56-.36-11.11-.36c-5.56,0-5.56.29-11.11.29-5.56,0-5.56.06-11.11.06-5.56,0-5.56.16-11.11.16-5.56,0-5.56-.19-11.11-.19s-5.56.2-11.11.2c-5.56,0-5.56-.29-11.11-.29-5.56,0-5.56.65-11.11.65-5.56,0-5.56-.2-11.11-.2-5.56,0-5.56-.07-11.11-.07-5.56,0-5.56-.48-11.12-.48-5.56,0-5.56.7-11.11.7-5.56,0-5.56-.03-11.12-.03-5.56,0-5.56-.22-11.11-.22-5.56,0-5.56-.71-11.11-.71-5.55,0-5.55.91-11.11.91s-5.55-.24-11.11-.24-5.56-.18-11.11-.18c-5.55,0-5.55.35-11.11.35-5.56,0-5.56.1-11.11.1-5.56,0-5.56-.07-11.11-.07-5.56,0-5.56.12-11.11.12s-5.56-.52-11.11-.52c-5.56,0-5.56-.51-11.12-.51-5.56,0-5.56.76-11.11.76-5.56,0-5.56.31-11.12.31-5.56,0-5.56-.61-11.12-.61-5.56,0-5.56.57-11.12.57s-5.56-.61-11.12-.61c-5.56,0-5.56-.43-11.12-.43-5.56,0-5.56.26-11.12.26-5.56,0-5.56.03-11.12.03s-5.56.45-11.12.45c-5.56,0-5.56.08-11.12.08-5.56,0-5.56-.14-11.12-.14-5.56,0-5.56.28-11.12.28q-5.56,0-11.12.01c-5.56,0-5.56-.37-11.12-.37-5.56,0-5.56-.15-11.13-.15s-5.56.2-11.13.2c-4.33,0-8.72-.49-12.56-2.14-3.84-1.65-7.16-4.55-10.14-7.69-2.98-3.14-5.68-6.62-7.13-10.54-1.45-3.92-2.06-8.34-1.84-12.67.3-5.71,1.08-5.67,1.38-11.38.3-5.71.05-5.72.35-11.44.3-5.71.22-5.71.52-11.42s.07-5.72.37-11.43c.3-5.71.52-5.7.81-11.41.3-5.71.16-5.72.46-11.43.3-5.71.95-5.68,1.25-11.39.3-5.71.2-5.31.49-11.02s.29-6.13.59-11.84.13-5.72.43-11.44c.19-3.66.49-7.25,1.13-10.79.64-3.59,1.76-7.03,2.83-10.46s1.98-7,3.48-10.28,2.92-6.7,4.82-9.78c1.9-3.09,4.24-5.93,6.51-8.75,2.27-2.83,4.68-5.56,7.28-8.09,2.6-2.52,5.16-5.18,8.06-7.37s6.5-3.3,9.65-5.11c3.13-1.8,6.01-4.11,9.37-5.52,3.32-1.39,6.87-2.26,10.39-3.24s6.9-2.33,10.52-2.87c3.75-.55,7.58-.36,11.29-.87,3.75-.52,7.39-1.68,11.11-2.17s7.57-.29,11.29-.75c3.76-.46,7.51-.73,11.24-1.15,3.76-.43,7.45-1.33,11.18-1.72,3.76-.39,7.56-.17,11.3-.52s7.5-.78,11.24-1.11c3.76-.32,7.49-.9,11.23-1.18,3.76-.29,7.51-.65,11.26-.9,3.76-.25,7.49-.93,11.25-1.14,3.76-.21,7.53-.25,11.29-.43s7.51-.57,11.28-.71c3.76-.14,7.53-.03,11.3-.14s7.53.23,11.3.17c3.76-.07,7.52-.2,11.29-.23,3.76-.03,7.52-.11,11.29-.11s7.37.28,10.99.31c3.71.03,7.38-.57,11-.5,3.71.07,7.37.4,10.99.5,3.71.1,7.37.3,10.98.44,3.72.14,7.35.8,10.96.97s7.41-.2,11.01,0c3.72.21,7.37.51,10.97.75,3.72.25,7.38.45,10.97.73,3.73.28,7.36.75,10.94,1.06,3.73.32,7.44,0,11.01.33,3.73.36,7.36.97,10.91,1.35,3.74.4,7.4.64,10.95,1.05,3.75.44,7.4.79,10.93,1.24,3.76.47,7.3,1.64,10.8,2.12,3.77.51,7.36,1.29,10.84,1.79,3.8.55,7.41,1.13,10.85,1.65,3.87.59,7.84.7,11.58,1.8s7.25,2.93,10.81,4.52,7.14,3.19,10.46,5.24c3.32,2.05,6.25,4.64,9.27,7.13s5.81,5.14,8.47,8.01c2.66,2.87,5.74,5.43,7.97,8.62s3.97,6.77,5.76,10.23c1.8,3.47,3.32,7.08,4.64,10.75,1.32,3.67,1.9,7.54,2.72,11.36s1.72,7.59,2.02,11.49c.44,5.79.63,5.77,1.07,11.56.44,5.79.7,5.77,1.14,11.56.44,5.79.23,5.8.67,11.59.44,5.79.64,5.77,1.08,11.56s-.21,5.84.23,11.62c.44,5.79.22,5.81.66,11.59.44,5.79.55,5.78.99,11.57s.6,5.78,1.04,11.57,1.14,5.74,1.58,11.53c.44,5.79.28,5.81.72,11.6.33,4.32-.88,8.53-2.28,12.55-1.41,4.03-3.63,7.55-6.58,10.73-2.95,3.18-6.07,6.19-9.97,7.9-3.91,1.71-8.24,2.43-12.57,2.43ZM540.6,616.94c-3.73,0-7.45.04-11.15.07-3.73.03-7.45-.27-11.16-.2-3.72.07-7.44.44-11.15.54s-7.43.29-11.15.43c-3.72.14-7.42.45-11.14.63-3.71.18-7.43.18-11.15.39-3.71.21-7.41.64-11.12.88-3.7.25-7.43.23-11.15.51-3.7.28-7.35,1.23-11.06,1.55-3.69.32-7.41.45-11.12.8-3.69.35-7.39.65-11.1,1.04s-7.43.32-11.14.74c-3.68.42-7.29,1.55-11,2-3.67.45-7.36.89-11.06,1.38s-7.38.77-11.09,1.28c-3.66.51-7.45.34-11.15.89-3.65.54-7,2.24-10.44,3.3-3.51,1.09-6.94,2.2-10.19,3.78-3.29,1.6-6.51,3.29-9.49,5.35-3,2.08-5.59,4.64-8.23,7.14s-4.99,5.22-7.23,8.1c-2.23,2.87-4.28,5.81-6.07,8.99s-3.17,6.46-4.46,9.89c-1.27,3.38-2.78,6.71-3.52,10.3-.73,3.53-1.71,7.12-1.9,10.8-.3,5.71.46,5.75.16,11.46-.3,5.71.01,5.73-.29,11.44s-.91,5.68-1.21,11.39c-.3,5.71.27,5.74-.03,11.45s-.9,5.68-1.2,11.39-.72,5.69-1.02,11.4c-.3,5.71-.04,5.73-.34,11.44s-.27,5.71-.57,11.43c-.3,5.72.15,5.74-.15,11.46-.3,5.72-.22,5.72-.51,11.44-.23,4.35,1.12,8.36,4.12,11.52,3,3.16,6.94,4.56,11.29,4.56q5.56,0,11.11-.01c5.56,0,5.56.37,11.11.37s5.56.15,11.11.15,5.56-.2,11.11-.2,5.56-.42,11.11-.42,5.56.49,11.11.49,5.56-.47,11.11-.47,5.56.06,11.11.06,5.56.78,11.11.78,5.56-.25,11.11-.25,5.56-.08,11.11-.08,5.56-.22,11.12-.22,5.56.22,11.11.22,5.56-.14,11.12-.14,5.56.65,11.11.65,5.56-.99,11.11-.99,5.55.88,11.11.88,5.55-.17,11.11-.17,5.56-.11,11.11-.11,5.55.26,11.11.26,5.56-.43,11.11-.43,5.56-.35,11.11-.35,5.56.27,11.11.27,5.56-.05,11.11-.05,5.56-.34,11.12-.34,5.56,1.07,11.11,1.07,5.56-.78,11.12-.78,5.56.36,11.12.36,5.56-.62,11.12-.62,5.56.74,11.12.74,5.56-.66,11.12-.66,5.56.68,11.12.68,5.56.17,11.12.17,5.56-.5,11.12-.5,5.56.6,11.12.6,5.56-.09,11.12-.09,5.56-.27,11.12-.27,5.56-.1,11.12-.1,5.56-.45,11.12-.45,5.56.16,11.13.16,5.56-.23,11.13-.23c4.42,0,8.37-1.49,11.38-4.74,3.01-3.25,4.85-7.34,4.52-11.75-.44-5.79-.52-5.78-.96-11.57-.44-5.79-.5-5.78-.94-11.57-.44-5.79-.18-5.81-.62-11.59-.44-5.79-1.09-5.74-1.53-11.52-.44-5.79-.19-5.81-.63-11.59-.44-5.79-.36-5.79-.8-11.58-.44-5.79.07-5.83-.37-11.62-.44-5.79-1-5.75-1.44-11.53-.44-5.79-.37-5.8-.81-11.59-.44-5.79-.5-5.79-.94-11.58-.27-3.61-.65-7.17-1.42-10.61-.8-3.52-2.47-6.71-3.76-10.01-1.3-3.35-2.61-6.62-4.38-9.69-1.78-3.1-3.9-5.92-6.12-8.71-2.22-2.79-4.66-5.3-7.28-7.73-2.61-2.42-4.95-5.18-7.9-7.19-2.93-2-5.93-4.04-9.17-5.59s-6.56-2.89-10.01-3.95-7.03-1.1-10.61-1.64c-3.4-.52-6.9-1.54-10.65-2.09-3.43-.5-7.05-.73-10.78-1.24-3.46-.47-6.99-1.34-10.7-1.8-3.48-.44-7.07-.9-10.76-1.33-3.49-.41-7.17-.02-10.86-.41-3.51-.37-7.06-1.11-10.74-1.47-3.52-.34-7.11-.72-10.79-1.04s-7.1-1.11-10.77-1.39c-3.54-.27-7.17-.18-10.84-.42-3.54-.24-7.16-.27-10.83-.48-3.55-.2-7.18-.13-10.84-.3-3.56-.17-7.16-.53-10.82-.67-3.56-.13-7.18-.05-10.85-.16-3.57-.1-7.17-.84-10.83-.91-3.57-.07-7.19-.34-10.85-.37s-7.2.48-10.86.48Z"/>
        </g>
      </g>
      <g>
        <g>
          <path class="cls-4" d="M481.23,727.08c-1.57,2.97-3.36,5.74-5.25,8.28-1.98,2.65-4.51,4.72-6.99,6.81-2.43,2.05-4.79,4.42-7.85,5.86-2.78,1.31-5.95,2.36-9.35,3.1"/>
          <path class="cls-4" d="M451.69,758.52c-3.57,0-7.07-2.47-7.86-6.1-.92-4.19,2.03-8.37,6.22-9.29,3.73-.82,7.04-2.08,10.02-3.85,3-1.78,5.95-3.85,8.39-6.77,2.12-2.52,3.85-5.69,5.7-9.19,2.01-3.79,6.64-5.26,10.43-3.25,3.79,2.01,5.37,6.77,3.36,10.56-1.59,3-3.72,6.26-6.26,9.59-2.17,2.85-4.63,5.83-7.76,8.41-2.76,2.29-6.1,4.14-9.8,5.89-3.21,1.52-6.64,3.39-10.67,4.28-.56.12-1.23-.28-1.78-.28Z"/>
        </g>
        <g>
          <path class="cls-4" d="M600.32,716.17c0,2.58.8,6.89,2.71,11.61,1.37,3.38,3.65,6.81,6.01,10.29,2.19,3.23,4.63,6.44,7.67,9.06,2.99,2.57,6.24,5.14,10.06,6.48"/>
          <path class="cls-4" d="M626.94,760.89c-.85,0-1.88.36-2.73.06-3.72-1.3-6.94-3.57-9.96-5.77s-5.59-5.24-8-8.12c-2.52-3.01-4.81-6.07-6.58-9.3-1.98-3.59-3.84-7.04-4.95-10.34-1.53-4.56-1.84-8.62-1.84-11.25,0-4.29,3.25-7.45,7.54-7.45s7.34,3.16,7.34,7.45c0,2.3,2.18,6.77,4.7,11.8,1.78,3.56,3.47,7.75,6.43,10.93,2.91,3.14,6.76,5.16,10.74,6.55,4.05,1.41,5.91,6.13,4.5,10.18-1.12,3.2-3.96,5.25-7.17,5.25Z"/>
        </g>
        <path class="cls-4" d="M539.74,789.65c-1.97,0-3.98.81-5.96.69-3.63-.22-7.14-1.41-10.67-2.01-3.59-.62-7.19-1.07-10.61-2.05s-6.7-2.78-9.98-4.14c-3.39-1.4-6.78-2.61-9.87-4.34s-6.3-3.68-9.11-5.8c-2.95-2.23-5.76-4.52-8.19-7.06-2.57-2.68-4.35-5.83-6.24-8.79-1.99-3.11-4.33-5.99-5.46-9.34-1.37-4.06,1.13-8.72,5.19-10.09,4.06-1.37,8.25,1.04,9.62,5.1,1.15,3.43,3.07,6.84,5.59,9.95,2.26,2.79,5.16,5.37,8.32,7.79,2.89,2.21,6.34,3.89,9.82,5.7,3.27,1.69,6.62,3.52,10.29,4.78s7.32,1.63,11.1,2.38c3.68.73,7.36,1.63,11.18,1.87,3.1.19,7.19.46,11.87.04,3.6-.32,7.64-.73,11.77-1.77,3.64-.91,7.51-2.12,11.3-3.8,3.46-1.54,6.87-3.69,10.27-6.04,3.11-2.15,5.71-5.17,8.61-8.13,2.63-2.68,5.3-5.53,7.65-8.97,2.11-3.09,3.85-6.59,5.65-10.37,1.85-3.87,6.86-5.16,10.72-3.31,3.87,1.85,6.03,6.57,4.18,10.43-1.58,3.3-3.65,6.29-5.51,9.27-1.93,3.09-4.28,5.8-6.52,8.54-2.29,2.8-4.81,5.29-7.41,7.72-2.62,2.45-5.43,4.59-8.36,6.65-2.91,2.05-5.54,4.61-8.75,6.27-3.08,1.6-6.59,2.27-9.88,3.47-3.25,1.18-6.32,3.11-9.75,3.9-3.37.78-6.92.93-10.41,1.32s-6.93.11-10.45.11Z"/>
        <path class="cls-4" d="M508.73,743.43c-3.91,0-7.84-.1-11.38-1.19-3.69-1.13-6.81-3.55-9.9-5.68s-6.27-4.43-8.58-7.42-3.62-6.62-4.86-10.23c-1.21-3.52-2.59-7.16-2.59-11.06s.83-7.73,2.04-11.25c1.25-3.61,3.67-6.6,5.98-9.6,2.31-2.99,4.48-6.24,7.63-8.41s6.86-3.11,10.54-4.25,7.2-1.55,11.1-1.55,7.52.62,11.06,1.71c3.69,1.13,7.36,2.18,10.45,4.3,3.15,2.17,5.58,5.12,7.89,8.11,2.31,3,4.29,6.19,5.53,9.81,1.21,3.52,1.95,7.23,1.95,11.13s-.68,7.64-1.9,11.15c-1.25,3.61-3.45,6.66-5.76,9.66-2.31,2.99-4.89,5.62-8.03,7.79-3.08,2.12-6.27,4.19-9.96,5.32-3.54,1.09-7.32,1.67-11.23,1.67ZM508.73,687.86c-3.78,0-7.09,1.37-10.17,2.99-3.27,1.72-6.48,3.59-8.4,6.59-1.92,3-2.55,6.65-2.55,10.4s.56,7.44,2.48,10.44c1.92,3,5.14,4.97,8.4,6.68,3.09,1.62,6.46,2.67,10.25,2.67s7.57-.27,10.65-1.9c3.27-1.72,5.45-4.85,7.37-7.86,1.92-3,3.74-6.3,3.74-10.04s-1.07-7.52-2.99-10.52c-1.92-3-4.82-5.72-8.09-7.43-3.09-1.62-6.9-2.03-10.68-2.03Z"/>
        <path class="cls-4" d="M571.75,743.7c-3.93,0-7.77-.73-11.32-1.89-3.67-1.2-6.81-3.45-9.87-5.67-3.09-2.25-6.26-4.5-8.51-7.59-2.23-3.06-3.37-6.78-4.56-10.45-1.15-3.55-2.02-7.21-2.02-11.13s.07-7.84,1.22-11.39c1.2-3.67,3.77-6.67,6-9.72,2.25-3.09,4.61-6.05,7.7-8.29,3.06-2.23,6.59-3.57,10.26-4.76,3.55-1.15,7.17-1.93,11.1-1.93s7.84-.09,11.38,1.07c3.67,1.2,7.07,3.19,10.13,5.42,3.09,2.25,5.28,5.43,7.53,8.52,2.23,3.06,4.02,6.3,5.21,9.97,1.15,3.55,2.44,7.2,2.44,11.13s-1.23,7.6-2.38,11.15c-1.2,3.67-2.37,7.38-4.6,10.44-2.25,3.09-4.9,6.07-7.99,8.32-3.06,2.23-6.69,3.87-10.36,5.07-3.55,1.15-7.44,1.76-11.36,1.76ZM571.75,686.38c-3.8,0-7.26.89-10.34,2.67s-6.23,4.12-8.06,7.29-2.19,6.82-2.19,10.62.37,7.57,2.15,10.64c1.84,3.17,4.75,5.73,7.92,7.57s6.71,2.24,10.51,2.24,7.61-.16,10.69-1.94,5.62-4.87,7.46-8.04c1.78-3.07,3.25-6.67,3.25-10.47s-1.24-7.53-3.02-10.61c-1.84-3.17-4.96-5.29-8.13-7.13s-6.44-2.85-10.24-2.85Z"/>
        <path class="cls-4" d="M508.73,720.67c-3.33,0-6.43-.84-8.61-3.02s-4-5.29-4-8.61,2.16-6.08,4.35-8.27,4.94-4.11,8.27-4.11,5.97,2.04,8.15,4.22c2.18,2.18,4.09,4.83,4.09,8.15s-1.72,6.15-3.91,8.33c-2.18,2.18-5.01,3.3-8.33,3.3Z"/>
        <path class="cls-4" d="M571.75,718.63c-3.28,0-6.37-.98-8.53-3.14s-3.93-5.24-3.93-8.53,1.74-6.4,3.89-8.56c2.16-2.16,5.28-3.22,8.56-3.22s6.17,1.3,8.33,3.45c2.16,2.16,3.11,5.04,3.11,8.32s-1,6.12-3.16,8.27c-2.16,2.16-4.99,3.39-8.27,3.39Z"/>
      </g>
    </g>
  </g>
  <path class="cls-3" d="M612.82,347.73c-2.32-.92-4.68-1.75-7.1-2.52-2.38-.76-4.64-2.04-7.09-2.67-2.43-.62-5.04-.57-7.5-1.08s-4.9-1.2-7.38-1.61c-2.51-.41-4.97-1.02-7.44-1.34-2.54-.32-5.09-.19-7.55-.42-2.57-.24-5.08-.41-7.53-.57-2.6-.17-5.11-.58-7.52-.67-2.65-.1-5.19.25-7.55.22-2.75-.03-5.28-.38-7.54-.35-2.39.03-4.77.23-7.14.32-2.39.09-4.77.18-7.14.32-2.4.14-4.75.55-7.11.74s-4.74.61-7.08.86c-2.4.26-4.85-.2-7.18.11-2.4.32-4.7,1.04-7.01,1.42-2.4.39-4.75.74-7.04,1.2-2.39.47-4.77.77-7.03,1.31-2.39.57-4.76.95-6.98,1.58-2.38.68-4.6,1.59-6.76,2.34-2.36.82-4.3,2.36-6.27,3.69-2.04,1.38-3.93,2.85-5.5,4.68s-2.92,3.87-3.98,6.05c-1.06,2.18-2.1,4.42-2.57,6.82-.46,2.36-.28,4.82-.1,7.28s.9,4.64,1.71,6.99c.84,2.41,1.55,4.78,2.93,6.79s3.3,3.71,5.18,5.29c1.91,1.61,3.99,2.85,6.24,3.89,2.25,1.04,4.62,2.04,7.08,2.46,1.1,3.26-.53,3.48-.53,6.92s.08,3.44.08,6.88c0,3.44.32,3.44.32,6.88,0,3.44-.07,3.44-.07,6.88,0,3.44-.23,3.44-.23,6.88s.21,3.44.21,6.88c0,3.44.09,3.44.09,6.88,0,3.44-.01,3.44-.01,6.89,0,3.45.46,3.45.46,6.89s0,3.45,0,6.89c0,2.46.2,4.76,1.09,6.9.92,2.22,1.96,4.45,3.63,6.12s3.99,2.51,6.21,3.43,4.35,1.8,6.82,1.8c3.48,0,3.48-.28,6.97-.28s3.48-.12,6.96-.12,3.48.22,6.97.22,3.48-.29,6.97-.29,3.48.75,6.97.75,3.48-.1,6.96-.1,3.48-.22,6.97-.22,3.48-.37,6.97-.37,3.48.59,6.97.59,3.48-.49,6.97-.49,3.48-.1,6.96-.1,3.48.14,6.97.14,3.49.25,6.97.25,3.49.25,6.97.25c2.46,0,4.79-.84,6.94-1.73,2.22-.92,4.45-2.01,6.13-3.68s2.81-3.89,3.73-6.11,1.11-4.49,1.11-6.96c0-3.44.74-3.44.74-6.87s-.75-3.43-.75-6.87c0-3.44.13-3.44.13-6.87,0-3.44.48-3.44.48-6.87s-.45-3.44-.45-6.87c0-3.44-.18-3.44-.18-6.87s.71-3.44.71-6.87c0-3.44-.31-3.44-.31-6.88,0-3.44-.22-3.44-.22-6.88,0-3.44-.98-3.63.11-6.89,2.43-.35,4.65-1.38,6.89-2.34s4.58-1.75,6.51-3.27c1.9-1.5,3.42-3.43,4.89-5.42,1.42-1.92,2.55-4.04,3.47-6.37.92-2.32,1.26-4.66,1.53-7.02s.79-4.86.44-7.24c-.36-2.42-1.36-4.66-2.32-6.88s-2.37-4.13-3.89-6.04c-1.49-1.89-3.07-3.63-5.05-5.09-1.91-1.42-3.94-2.65-6.26-3.57Z"/>
</svg>