<?xml version="1.0" encoding="UTF-8"?>
<svg id="Calque_1" data-name="Calque 1" xmlns="http://www.w3.org/2000/svg" viewBox="0 0 1080 1080">
  <defs>
    <style>
      .cls-1 {
        fill: #efca52;
      }

      .cls-2 {
        fill: #232115;
      }

      .cls-3 {
        fill: #2d2218;
      }

      .cls-4 {
        fill: #f6f4f1;
      }
    </style>
  </defs>
  <g>
    <rect class="cls-1" x="283.18" y="211.58" width="513.64" height="656.84" rx="38.7" ry="38.7"/>
    <path class="cls-2" d="M758.12,872.42h-436.24c-23.55,0-42.7-19.16-42.7-42.7V250.28c0-23.55,19.16-42.7,42.7-42.7h436.24c23.55,0,42.7,19.16,42.7,42.7v579.44c0,23.54-19.16,42.7-42.7,42.7ZM321.88,215.58c-19.13,0-34.7,15.57-34.7,34.7v579.44c0,19.13,15.57,34.7,34.7,34.7h436.24c19.13,0,34.7-15.57,34.7-34.7V250.28c0-19.13-15.57-34.7-34.7-34.7h-436.24Z"/>
  </g>
  <g>
    <path class="cls-2" d="M412.58,470.8c-3.19,4.48,7.69,7.65,10.32,8.48,17.28,5.49,45.91,6.8,49.77,30.15,1.99,12.02-1.08,20.19-9.67,27.91-16.24,14.58-39.2,16.19-59.81,14.92-5.11-.32-23.46-3.01-26.16-7.45-1.99-3.28-1.04-11.86-1.29-16.14-.14-2.31-1.04-4.18-1.02-6.79.07-8.17,4.41-7.18,10.53-6.42,13.64,1.7,28.61,10.63,42.47,5.45,12.16-4.54-1.15-8.48-6.33-9.87-20.45-5.46-66.74-14.2-50.83-47.61,13.88-29.15,55.07-30.46,81.1-21.4,5.54,1.93,8.08,2.92,9.5,9.5,1.03,4.75,1.24,14.65.89,19.62-.15,2.13-.59,3.43-2.74,3.91-4.88,1.09-17.4-4.75-23.13-6.07-5.23-1.21-20.15-3.03-23.61,1.82Z"/>
    <path class="cls-2" d="M675.25,386.65c-1.74-1.9-1.95-6.85-2.79-9.4-2.21-6.69-4.07-4.82-9.59-5.69-4.66-.73-9.31-1.6-14.11-1.69-1.67-.03-6.53,0-7.79.42-5.33,1.75-3.97,13.8-12.07,14.48-9.79-1.19-21.13-.23-30.45-3.64-1.28-.47-3.75-1.26-4.05-2.71-.74-3.54,3.02-11.25,4.6-14.66,8.82-18.99,20.28-38.04,29.9-56.76,4.1-7.98,7.9-18.17,12.17-25.56,1.67-2.9,3.98-4.77,7.11-5.61,4.21-1.13,20,.18,24.76,1.06,2.49.46,6.92,2.47,8.37,4.67l33.62,105.78c-.25,2.5-1.65,3.2-3.88,3.35-9.74-1.18-20.24-.05-29.89-1.68-1.61-.27-4.82-1.18-5.91-2.37ZM653.08,342.8c1.39.53,6.71.52,8.69.68.08,0,1.38-.49,1.43-.8-.94-3.91-1.12-8.02-1.96-11.94-.31-1.45-1.15-6.84-2.85-6.96l-6.4,16.52c-.38.74.54,2.3,1.09,2.51Z"/>
    <path class="cls-2" d="M534.93,255.74c24.46-2.28,50.16,12.45,56.29,38.23,8.85,37.15-2.19,73.44-42.3,78.43-28.99,3.61-54.37-9.42-60.93-40.55-7.44-35.31,10.17-72.68,46.93-76.11ZM537.07,297.87c-5.27,1.13-12.1,11.93-12.39,17.28-.39,7.25,5.76,12.93,11.99,14.8,4.92,1.47,9.04,2.17,13.02-1.77,10.83-10.74,5.27-34.15-12.62-30.3Z"/>
    <path class="cls-2" d="M366.42,305.11c1.07-1.39,3.11-2.1,4.74-2.44,9.59-1.99,21.33-.39,30.94-2.75,21.72-2.04,43.16-6.13,65.02-6.93,1.99.18,3.08,2.49,3.76,4.16,1.6,3.95,3.07,16.16,3.04,20.62-.01,2.28-.64,4.1-2.74,4.9-7.9,3.03-16.51,1.11-24.58,2.96-2.4.55-4.45,1.16-5.16,3.89l7.41,71.19c.1,4.03-.39,6.13-4.47,7.05-6.39,1.44-15.62,2.64-22.17,2.97-2.22.11-8.44.27-10.29-.2-2.15-.54-3.02-5.15-3.39-7.22-2.96-16.74-2.42-34.8-4.95-51.68l-3.14-17.87c-.63-1.59-3.9-2.03-5.38-2.05-4.73-.07-9.44,1-14.01,1.46-6.65.67-12.78,3.21-14.59-5.63-.9-4.38-2.59-19.12-.04-22.44Z"/>
    <path class="cls-2" d="M587.79,444.62c-.78.49-5.98.71-7.26.67-6.19-.19-12.19-2.27-18.41-2.28-4.19-.01-5.94.2-6.77,4.77-3.55,19.67-3.02,42.82-5.76,63.05-.33,2.41-.91,6.83-1.43,8.97-1.19,4.85-7.47,2.83-10.88,2.76-5.42-.11-10.92-.11-16.36-.92-2.28-.34-7.76-1.23-9.6-2.09-2.09-.98-2.5-3.43-2.53-5.63-.27-19.42,4.92-42.97,5.83-63.02.08-1.74.24-8.18-.08-9.29-.91-3.12-9.01-3.18-11.62-3.5-1.05-.13-2.07-.79-3.21-.91-5.68-.58-16.99,2.22-17.14-6.97-.07-4.06.89-14.08,1.8-18,1-4.31,2.99-6.52,7.31-6.63,9.76-.24,21.48,3.98,31.4,3.44,19.72,2.25,39.6,2.1,59.16,5.47,1.86.32,4.3.07,5.95.57,2.88.87,3.16,8.2,3.11,10.87-.07,3.51-.86,16.99-3.52,18.67Z"/>
    <path class="cls-2" d="M695.07,473.44c-.47.56-1.82,1.2-2.52,1.48-5.21,2.03-20.09,1.09-26.41.99-4.79-.07-11.57-2.87-13.87,3.95-1.4,4.15-1.19,9.21,3.58,9.69,8.84.88,18.88-.76,27.83-.05s8.7,4.54,8.46,13.36c-.06,2.43-.4,8.17-.99,10.26-.88,3.08-3.11,4.52-5.92,4.82-9.74,1.04-20.98-.85-30.88-.02-3.85.81-4.84,11.01-.51,11.9,11.49,2.37,25.93-.86,37.55.57,2.9.35,4.43,2.29,4.83,5.46.48,3.76.34,15.47-.82,18.87-.96,2.83-2.48,3.27-5.03,3.53-12.73,1.31-29.67.04-42.7,0-7.99-.02-22.02,1.43-29.2-.75-4.37-1.33-4.75-5.89-5.05-10.33-2.04-30.24,1.6-63.23-.01-93.76-.24-2.93,2.77-4.39,4.96-4.74,5.49-.9,11.39-.4,16.93-.62,16.38-.65,35.69-1.75,51.99-.59,4.19.3,7.92,0,8.47,5.42.43,4.34.95,12.89.53,17.05-.1,1.03-.58,2.76-1.2,3.5Z"/>
    <path class="cls-2" d="M646.31,436.98c5.75-.41,36.66-2.52,41.21-5.11.61-.35,1.78-1.14,2.15-1.78.49-.84.76-2.73.76-3.83-.02-4.47-1.31-13.54-2.12-18.13-1.01-5.74-4.38-5.11-8.22-5.08-14.94.09-32.4,2.85-47.25,4.89-5.01.69-10.43.64-15.34,2.05-1.96.56-4.56,2.36-4.06,5.46l2.03,16.89c.5,4.17,4.87,7.13,9.82,6.65l21.03-2.02Z"/>
  </g>
  <g>
    <g>
      <path class="cls-3" d="M578.13,770.3c2.45,0,4.87.46,7.29.45,2.45-.01,4.88-.2,7.3-.22,2.45-.02,4.88-.43,7.29-.46,2.45-.03,4.89.55,7.3.51,2.45-.04,4.88-.36,7.29-.4,2.45-.04,4.89.21,7.3.16s4.89-.2,7.3-.25,4.88-.57,7.29-.61c2.46-.04,4.9.06,7.3.02,2.47-.04,4.9.4,7.3.37,2.47-.03,4.9-.13,7.29-.14,2.48-.02,4.91-.48,7.3-.48,2.48,0,4.91.42,7.3.44s4.93-.38,7.3-.33c2.5.06,4.94-.03,7.3.06,2.51.1,4.94.35,7.29.5,2.52.16,4.93.55,7.26.77,2.53.24,5,.19,7.29.51,2.55.36,4.86,1.31,7.1,1.79,2.56.55,5,.85,7.13,1.58,2.54.86,4.58,2.21,6.46,3.35,2.3,1.4,4.42,2.69,5.64,4.58,1.3,2,1.91,4.43,1.91,7.05,0,2.39-1.37,4.28-3.29,6.15-1.48,1.44-3.16,3.21-5.69,4.37-1.96.9-4.4,1.25-6.94,2-2.14.63-4.47,1.13-6.99,1.66-2.22.47-4.58.86-7.08,1.25-2.27.36-4.59,1.13-7.08,1.43-2.3.28-4.72.22-7.2.45-2.32.22-4.7.55-7.17.73-2.33.17-4.73.38-7.18.52-2.34.13-4.75.23-7.2.34-2.35.1-4.77-.12-7.21-.04-2.36.08-4.76.23-7.2.29s-4.76.4-7.2.44-4.78-.2-7.21-.18c-2.37.02-4.77.61-7.21.62-2.38,0-4.78-.5-7.21-.5s-4.78.22-7.21.21c-2.38-.01-4.78-.45-7.21-.47s-4.79.21-7.21.18c-2.39-.03-4.79.02-7.21-.02-2.39-.04-4.79.02-7.21-.02s-4.79-.46-7.21-.51-4.81.47-7.22.42c-3.58-.02-3.58-.16-7.16-.16-3.58,0-3.58-.28-7.16-.29s-3.58-.03-7.16-.03c-3.58,0-3.58.08-7.16.08-3.58,0-3.58.27-7.17.27-3.58,0-3.58-.25-7.16-.25-3.58,0-3.58.38-7.17.38-3.58,0-3.58-.28-7.17-.29s-3.58-.15-7.17-.16c-3.58,0-3.58-.14-7.17-.14-3.58,0-3.58-.05-7.17-.05-3.58,0-3.58.16-7.17.16-3.58,0-3.58.44-7.17.43-3.58,0-3.58-.16-7.17-.17-3.58,0-3.58.16-7.17.16-3.58,0-3.58-.43-7.16-.43s-3.58.43-7.17.43c-3.58,0-3.58-.25-7.17-.26-3.58,0-3.58-.22-7.17-.23s-4.21.21-7.8.21-6.5,1.9-8.66-.96c-2.23-2.96,2.75-2.79,3.61-6.39.86-3.6,1.37-3.48,2.24-7.09.86-3.6.24-3.76,1.1-7.36s1.15-3.54,2.01-7.14c.86-3.6.94-3.59,1.81-7.19.87-3.61.53-3.69,1.39-7.3.87-3.61-.96-4.98,2.04-7.16s3.64.6,7.28.93c3.64.33,3.65.19,7.29.52,3.64.33,3.66.09,7.3.42,3.64.33,3.61.61,7.25.94s3.64.39,7.28.72,3.64.4,7.28.73c3.64.33,3.7-.27,7.34.06,3.64.33,3.59.88,7.23,1.21,3.64.33,3.68-.14,7.33.19s3.61.68,7.25,1.01,3.65.28,7.29.61c3.64.33,3.63.45,7.27.78s3.67.02,7.31.35,3.63.47,7.27.8c3.64.33,3.61.65,7.26.98s3.68-.03,7.32.3,3.66.17,7.3.5c3.64.33,3.62.58,7.27.87s3.65.2,7.3.45Z"/>
      <g>
        <path class="cls-4" d="M428.13,803.53c-3.33,0-3.33.26-6.67.26s-3.34.26-6.67.26c-3.33,0-3.33-.23-6.67-.23s-3.34-.22-6.67-.22q-3.34,0-6.67,0c-3.54,0-6.36-2.34-7.36-5.74-1.2-4.07-1.37-4.02-2.57-8.1-1.2-4.07-4.45-4.31-2.29-7.97,1.84-3.11,3.37-.22,6.98-.22s3.61-.28,7.22-.28,3.61.6,7.22.6,3.61-.45,7.22-.45,3.61.55,7.22.55,3.61-.46,7.22-.46,3.61.3,7.23.3,5.46-3.34,7.4-.29c2.23,3.51-1.1,4.16-2.16,8.18s-1.42,3.92-2.48,7.94c-.93,3.51-3.87,5.85-7.5,5.85Z"/>
        <path class="cls-3" d="M428.13,809.09c-3.33,0-3.33-.11-6.67-.11-3.34,0-3.34-.37-6.67-.37s-3.33.43-6.67.43-3.34-.09-6.67-.09-3.34.21-6.67.21c-2.89,0-5.59-1.35-7.81-3.01-2.22-1.66-3.68-4.05-4.5-6.82-1.2-4.07-1.19-4.08-2.39-8.15-1.2-4.07-1.65-3.94-2.85-8.01-.46-1.55-.2-3.43.77-4.72.97-1.29,2.7-1.68,4.31-1.68,3.61,0,3.61-.26,7.22-.26s3.61.24,7.22.24,3.61-.04,7.22-.04,3.61-.1,7.22-.1,3.61-.21,7.22-.21,3.61.26,7.22.26,3.61-.21,7.23-.21,3.61.24,7.23.24c1.59,0,3.33.42,4.3,1.68.97,1.26.85,3.02.45,4.56-1.06,4.02-.64,4.13-1.7,8.15-1.06,4.02-1.21,3.98-2.27,8-.76,2.88-2.47,5.34-4.71,7.07-2.24,1.72-5.06,2.96-8.03,2.96ZM389.89,787c-.57,2.29.85,4.61,2.28,9.47.36,1.21,1.34,2.31,2.6,2.31,3.33,0,3.33-.43,6.67-.43s3.34.09,6.67.09,3.33-.21,6.67-.21,3.34.39,6.67.39,3.34.23,6.67.23c1.3,0,2.73-1.09,3.07-2.35,1.27-4.82,2.83-7.45,2.34-8.38-1.11-2.13-3.78-1.08-7.47-1.08-3.69,0-3.69-.48-7.38-.48-3.69,0-3.69.26-7.38.26-3.69,0-3.69-.24-7.38-.24-3.69,0-4.16.41-7.88-.16-3.96-.61-5.72-1.17-6.15.57Z"/>
      </g>
      <g>
        <path class="cls-4" d="M674.38,803.44c-3.33,0-3.33.08-6.67.08-3.34,0-3.34.29-6.67.29-3.33,0-3.33-.03-6.67-.03s-3.34-.08-6.67-.08-3.34-.24-6.67-.24c-3.54,0-6.93-2.02-7.93-5.42-1.2-4.07-.98-4.14-2.18-8.21-1.2-4.07-4.53-4.51-2.37-8.17,1.84-3.11,3.62.08,7.23.08s3.61.17,7.22.17,3.61-.3,7.22-.3,3.61-.15,7.22-.15,3.61-.11,7.22-.11,3.61.2,7.22.2,3.61.48,7.23.48,5.52-3.56,7.46-.51c2.23,3.51-1.47,4.12-2.53,8.14-1.06,4.02-.81,4.09-1.87,8.1-.93,3.51-4.18,5.68-7.81,5.68Z"/>
        <path class="cls-3" d="M674.38,809.14c-3.33,0-3.33-.54-6.67-.54-3.34,0-3.34-.04-6.67-.04-3.33,0-3.33-.02-6.67-.02s-3.34,0-6.67,0-3.34.14-6.67.14c-2.89,0-5.52-.96-7.74-2.62-2.22-1.66-4.04-3.87-4.85-6.64-1.2-4.07-1.01-4.13-2.21-8.2-1.2-4.07-1.61-3.95-2.81-8.03-.46-1.55-.16-3.46.8-4.76.97-1.29,2.72-1.73,4.34-1.73,3.61,0,3.61-.43,7.22-.43s3.61.53,7.22.53,3.61.05,7.22.05,3.61-.01,7.22-.01,3.61.04,7.22.04,3.61-.05,7.22-.05,3.61-.18,7.23-.18,3.61-.23,7.23-.23c1.59,0,3.34.69,4.31,1.95.97,1.26.7,3,.3,4.53-1.06,4.02-.53,4.16-1.59,8.18-1.06,4.02-1.08,4.01-2.14,8.03-.76,2.88-2.77,5.05-5.01,6.78-2.24,1.72-4.85,3.28-7.83,3.28ZM635.71,786.93c-.98,2.39.93,4.79,2.36,9.65.36,1.21,1.7,2.26,2.96,2.26,3.33,0,3.33.02,6.67.02s3.34,0,6.67,0,3.33-.14,6.67-.14,3.34.02,6.67.02,3.34-.18,6.67-.18c1.3,0,2.62-.82,2.96-2.08,1.27-4.82,3.28-6.67,2.15-9.58-.44-1.13-3.48.19-7.17.19-3.69,0-3.69-.44-7.38-.44-3.69,0-3.69.43-7.38.43s-3.69-.53-7.38-.53c-3.69,0-3.63.19-7.31-.04-3.4-.21-6.64-.86-7.16.43Z"/>
      </g>
      <g>
        <path class="cls-4" d="M674.34,620.07c3.9,0,3.9-.43,7.8-.43s3.9.18,7.8.18,3.9-.12,7.8-.12,3.9-.27,7.81-.27,3.9.54,7.81.54c2.29,0,4.43.58,6.2,1.85,1.77,1.28,3.1,3.09,3.82,5.27.91,2.76.62,2.86,1.53,5.62.74,2.25.71,4.31.04,6.35s-1.79,4.01-3.59,5.34-3.81,2.07-6.18,2.07c-3.83,0-3.83.15-7.66.15q-3.83,0-7.66,0c-3.83,0-3.83-.4-7.67-.4-3.83,0-3.83.37-7.67.37"/>
        <path class="cls-3" d="M715.19,651.72c-3.83,0-3.83-.24-7.66-.24-3.83,0-3.83.43-7.66.43-3.83,0-3.83-.12-7.67-.12q-3.83,0-7.67,0c-2.83,0-5.47-2.46-5.47-5.29s2.64-4.94,5.47-4.94c3.83,0,3.83-.04,7.66-.04s3.83.14,7.66.14,3.83-.2,7.67-.2,3.83.2,7.67.2c1.78,0,3.32-1.16,4.36-2.61,1.04-1.44,1.66-3.27,1.1-4.96-.91-2.76-1.16-2.68-2.08-5.44-.74-2.25-2.84-3.81-5.21-3.81-3.9,0-3.9.17-7.8.17s-3.9.16-7.8.16c-3.9,0-3.9-.21-7.8-.21s-3.9-.08-7.81-.08q-3.9,0-7.81,0c-2.83,0-5.39-2.28-5.39-5.11s2.56-5.19,5.39-5.19c3.9,0,3.9.25,7.8.25s3.9-.22,7.8-.22,3.9.25,7.8.25,3.9-.14,7.81-.14,3.9.23,7.81.23c2.25,0,4.46.08,6.42.95,2.01.89,3.57,2.47,5.04,4.1s2.7,3.34,3.41,5.48c.91,2.76,1.06,2.71,1.98,5.47.8,2.42,1.11,4.98.73,7.4-.37,2.41-1.38,4.8-2.87,6.87-1.5,2.07-3.6,3.49-5.77,4.6-2.17,1.11-4.56,1.9-7.11,1.9Z"/>
      </g>
      <path class="cls-2" d="M684.58,646.42c3.64,2.37,4.99,2.49,8.46-.13,2.75-2.08.41-3.22.62-6.66.21-3.44.23-3.44.44-6.88.21-3.45.05-3.45.25-6.9.21-3.45,3.18-4.69.49-6.85-3.5-2.81-4.47-.07-8.96-.07-4.49,0-5.86-3.19-9.08-.06-2.56,2.49.81,3.61,1.76,7.06s.96,3.44,1.91,6.88c.95,3.45,1.54,3.29,1.8,6.85.28,3.74-.69,4.82,2.31,6.77Z"/>
      <g>
        <path class="cls-4" d="M371.62,679.38c.82-3.65.84-3.64,1.66-7.29.82-3.65.49-3.72,1.3-7.37s.87-3.64,1.69-7.28c.82-3.65.92-3.62,1.74-7.27.82-3.65.53-3.71,1.35-7.36.82-3.65.98-3.61,1.76-7.27.48-2.55,1.42-4.96,2.08-7.39s1.42-4.95,2.3-7.3c.91-2.44,1.71-4.88,2.83-7.13,1.16-2.33,2.71-4.38,4.09-6.48s2.69-4.41,4.36-6.3c1.71-1.94,3.43-3.89,5.39-5.49s4.12-3.12,6.36-4.38c2.21-1.23,4.76-1.81,7.22-2.64s4.74-1.86,7.34-2.27c2.4-.38,4.83-.75,7.31-1.12,2.4-.36,4.88-.44,7.36-.78s4.82-.88,7.3-1.2c2.41-.31,4.9-.31,7.38-.61,2.42-.29,4.83-.86,7.32-1.13,2.42-.26,4.93,0,7.41-.24,2.43-.24,4.82-1.14,7.31-1.35,2.43-.21,4.9-.27,7.39-.46,2.43-.18,4.92.09,7.41-.07s4.87-.78,7.36-.92c2.44-.13,4.93.3,7.42.19,2.44-.11,4.9-.16,7.39-.24,2.44-.08,4.9-.27,7.39-.32s4.91-.14,7.4-.17c2.45-.03,4.91-.35,7.4-.35s4.82.47,7.2.49c2.43.03,4.83-.3,7.2-.25s4.83-.14,7.2-.06,4.83.15,7.2.25c2.43.1,4.83.17,7.2.3,2.43.13,4.79.77,7.16.92,2.42.16,4.84.07,7.2.25s4.79.62,7.15.83,4.83.25,7.18.48c2.42.24,4.78.71,7.13.97s4.79.63,7.13.92,4.84.22,7.18.53,4.81.49,7.15.83c2.41.35,4.77.76,7.11,1.11,2.41.37,4.77.78,7.1,1.16,2.53.41,4.91,1.25,7.21,2.06s4.52,2.11,6.66,3.33c2.17,1.24,4.51,2.24,6.44,3.83s3.31,3.71,4.98,5.6,3.4,3.61,4.81,5.71c1.37,2.04,2.52,4.26,3.69,6.51s2.39,4.35,3.34,6.7c.92,2.28,1.62,4.69,2.37,7.1.74,2.36,1.36,4.77,1.94,7.23.83,3.73.93,3.71,1.74,7.44.81,3.73.4,3.82,1.21,7.55.81,3.73,1.03,3.69,1.84,7.42.81,3.73,1.18,3.65,1.99,7.38.81,3.73.36,3.83,1.17,7.57.81,3.73,1.3,3.63,2.11,7.36"/>
        <path class="cls-3" d="M371.48,684.51c-.37,0-.72-.21-1.1-.3-2.76-.62-4.64-2.15-4.02-4.91.82-3.64.89-4.83,1.71-8.47s.79-3.55,1.61-7.19c.82-3.64.66-3.68,1.47-7.32s.85-3.63,1.67-7.27,1.19-3.56,2.01-7.2q.82-3.64,1.6-7.29c.48-2.52.68-5.06,1.31-7.42s1.28-4.94,2.1-7.25c.86-2.42,2.18-4.61,3.21-6.83,1.09-2.33,2.03-4.68,3.29-6.78s3-4.1,4.52-6.03,3-4.13,4.77-5.84,4.13-2.91,6.15-4.36,4.07-2.89,6.31-4.02,4.45-2.31,6.86-3.08,4.82-1.31,7.34-1.71c2.47-.39,4.96-.5,7.41-.86,2.47-.37,4.95-.6,7.39-.94,2.47-.34,4.9-.95,7.35-1.27,2.48-.32,4.92-.77,7.38-1.06,2.48-.3,5-.09,7.46-.35s4.94-.59,7.4-.83c2.48-.24,4.93-.67,7.4-.89s4.94-.53,7.42-.72c2.48-.19,4.97-.17,7.45-.33,2.48-.16,4.94-.69,7.42-.82,2.48-.13,4.98.23,7.46.12s4.94-.75,7.43-.83,4.98.49,7.46.44c2.48-.05,4.95-.6,7.44-.62,2.48-.03,4.96.28,7.45.28s4.87-.37,7.26-.34,4.87.25,7.25.3,4.87.02,7.25.09c2.45.08,4.85.56,7.23.66s4.88-.02,7.26.11c2.46.13,4.85.56,7.22.71,2.46.16,4.89-.03,7.26.15s4.88.3,7.24.51c2.46.22,4.82.94,7.17,1.17,2.46.24,4.92,0,7.26.27,2.47.27,4.87.6,7.2.88,2.47.3,4.86.72,7.18,1.03,2.48.33,4.92.35,7.22.68,2.49.36,4.81,1.21,7.1,1.57,2.51.39,4.96.37,7.22.74,2.45.4,4.82,1.12,7.12,1.86,2.34.76,4.58,1.76,6.76,2.87,2.17,1.11,4.21,2.45,6.21,3.9,1.95,1.42,3.68,3.13,5.46,4.87,1.72,1.67,3.3,3.49,4.85,5.45s3.04,3.74,4.36,5.87c1.26,2.03,2.74,4.01,3.85,6.26s1.55,4.59,2.46,6.93c.86,2.22,2.11,4.38,2.84,6.78s1.25,4.68,1.82,7.12c0,.03.14.03.14.06.81,3.73.33,3.84,1.14,7.57.81,3.73,1.12,3.66,1.93,7.4.81,3.73.59,3.78,1.4,7.51.81,3.73,1.29,3.63,2.11,7.36.81,3.73.66,3.68,1.47,7.41s.56,4.26,1.37,7.99c.6,2.77-1.08,5.04-3.84,5.64-2.77.6-5.42-1.11-6.02-3.88-.81-3.73-1.23-3.64-2.04-7.36-.81-3.73-.39-3.82-1.2-7.55s-1.07-3.67-1.88-7.4c-.81-3.73-.85-3.72-1.66-7.45q-.81-3.73-1.63-7.46c-.81-3.73-.75-3.74-1.57-7.47-.53-2.25-.69-4.89-1.53-7.52-.74-2.32-1.97-4.62-3-7.07-.97-2.3-1.96-4.68-3.22-6.95s-2.77-4.26-4.3-6.33-3.08-4.06-4.92-5.85c-1.81-1.76-3.77-3.42-5.93-4.84s-4.41-2.44-6.86-3.38c-2.29-.89-4.77-1.38-7.4-1.81-2.23-.36-4.56-.87-7.03-1.25-2.25-.35-4.61-.68-7.06-1.04-2.27-.33-4.61-.76-7.05-1.09-2.29-.3-4.65-.6-7.08-.9-2.3-.28-4.64-.75-7.07-1.01s-4.68-.48-7.11-.72-4.71-.23-7.13-.44c-2.32-.2-4.7-.39-7.12-.57s-4.69-.57-7.1-.73-4.71-.41-7.12-.54c-2.34-.13-4.73.09-7.15-.01-2.34-.1-4.72-.26-7.13-.33s-4.72-.31-7.14-.36c-2.35-.05-4.73-.02-7.15-.04s-4.74,0-7.15,0-4.91-.07-7.35-.04c-2.45.03-4.89.48-7.34.53-2.45.05-4.9-.1-7.35-.02s-4.88.44-7.33.54c-2.45.1-4.89.2-7.33.33s-4.89.23-7.33.39-4.87.41-7.32.6c-2.44.19-4.92-.11-7.36.11s-4.84.72-7.29.96c-2.43.24-4.9.17-7.34.43s-4.79,1.08-7.23,1.37c-2.42.29-4.87.4-7.31.71-2.42.31-4.87.38-7.31.72s-4.78,1.07-7.22,1.43c-2.41.36-4.83.68-7.27,1.07-2.33.37-4.66.61-6.84,1.37-2.2.77-4.17,2.04-6.2,3.19-2,1.14-4.04,2.26-5.86,3.76-1.76,1.46-3.51,3.01-5.08,4.8-1.5,1.71-2.84,3.63-4.15,5.63-1.25,1.89-2.32,3.96-3.38,6.1-1.01,2.03-1.67,4.26-2.51,6.5-.79,2.12-1.84,4.22-2.47,6.53-.6,2.19-.89,4.5-1.33,6.85-.01.06.06.17.05.23-.82,3.65-.79,3.65-1.61,7.3-.82,3.65-1.06,3.59-1.88,7.24-.82,3.65-.78,3.66-1.6,7.3-.82,3.65-.69,3.68-1.5,7.32-.82,3.65-.98,3.61-1.8,7.26-.82,3.65-.46,3.73-1.28,7.38-.53,2.38-2.7,4.04-5.04,4.04Z"/>
      </g>
      <g>
        <path class="cls-3" d="M641.11,603.1c-1.34-3.16-4.33-5.04-7.71-5.61-2.37-.4-4.73-.78-7.08-1.15-2.37-.37-4.69-1-7.05-1.34-2.37-.35-4.74-.7-7.09-1.02-2.38-.32-4.78-.36-7.15-.64-2.38-.29-4.74-.68-7.11-.94-2.38-.26-4.74-.67-7.11-.91-2.38-.23-4.78-.19-7.16-.39-2.38-.2-4.73-.75-7.12-.92-2.38-.17-4.79,0-7.18-.14-2.38-.14-4.75-.62-7.14-.74-2.38-.11-4.77-.24-7.17-.32-2.38-.08-4.77-.14-7.17-.19-2.38-.05-4.78.29-7.18.26-2.38-.03-4.77-.02-7.17-.02s-4.92-.41-7.37-.39c-2.46.03-4.92-.1-7.38-.04-2.46.06-4.9.58-7.36.67-2.45.09-4.93-.26-7.39-.14-2.45.12-4.89.57-7.35.71-2.45.15-4.88.6-7.34.77-2.45.18-4.89.35-7.35.56-2.44.21-4.92.1-7.37.33-2.44.23-4.85.85-7.3,1.12-2.44.26-4.91.3-7.35.59-2.43.29-4.86.7-7.3,1.02-2.43.32-4.85.72-7.3,1.07-2.43.34-4.84.77-7.28,1.14-2.42.37-4.91.34-7.35.74-3.41.55-6.25,2.89-7.68,6.04,0,0-.04.01-.04.01-.16.36-.73,2,.1,3.05.83,1.05,2.82,2.21,9.74,1.2,1.34-.27,5.39-.93,6.73-1.13,2.4-.37,4.77-.88,7.16-1.22,2.4-.34,4.77-.88,7.16-1.19,2.41-.31,4.83-.48,7.22-.76,2.41-.29,4.84-.32,7.24-.58,2.41-.26,4.82-.49,7.22-.72,2.41-.23,4.83-.27,7.24-.47,2.41-.2,4.81-.51,7.22-.68,2.42-.17,4.8-.75,7.21-.89,2.42-.15,4.84-.24,7.25-.35,2.42-.12,4.84-.09,7.25-.18,2.42-.09,4.83-.23,7.25-.29,2.42-.06,4.84-.07,7.26-.1,2.42-.03,4.84-.21,7.26-.21,2.54,0,5.08.16,7.59.19,2.54.03,5.06.45,7.58.51,2.54.06,5.06.22,7.58.32,2.53.1,5.07.06,7.59.18,2.53.13,5.07,0,7.59.16,2.53.16,5.06.18,7.58.37,2.52.2,5.03.54,7.55.77,2.52.23,5.02.63,7.54.89,2.51.26,5.03.54,7.54.84,2.51.3,5.05.32,7.57.66,2.5.33,5.01.68,7.53,1.04,2.49.36,4.96,1,7.47,1.4,2.49.39,4.98.82,7.49,1.24.02,0,.41.05.42.08.02.05,1.74.13,1.77.18,3.85.27,5.69.47,7.01-.65s.82-2.23.16-3.79Z"/>
        <path class="cls-3" d="M645.47,616.44c-.07-.15-.11-.29-.18-.4-.66-1.06-2.24-2.15-4.13-2.39-2.8-.35-5.89-.61-8.55-1.27,0,0-.02-.01-.02-.01-2.24-.34-4.69-.83-7.12-1.18-2.26-.32-4.63-.38-7.05-.7-2.27-.3-4.57-.95-6.98-1.24-2.29-.27-4.67-.21-7.08-.47-2.29-.25-4.61-.84-7.01-1.07-2.3-.22-4.65-.47-7.06-.67-2.31-.2-4.67-.37-7.07-.55-2.31-.17-4.7.05-7.1-.1-2.32-.15-4.68-.26-7.07-.39-2.32-.12-4.66-.66-7.06-.76-2.33-.1-4.69-.36-7.08-.43-2.33-.07-4.71.31-7.1.26-2.33-.05-4.69-.53-7.08-.56-2.33-.02-4.7.28-7.09.28s-4.87.3-7.3.33c-2.44.02-4.87.05-7.3.1-2.44.05-4.88-.22-7.31-.14-2.44.08-4.85.54-7.29.64-2.43.1-4.87-.02-7.31.1-2.43.13-4.85.38-7.29.53-2.43.15-4.85.4-7.28.58-2.42.18-4.84.45-7.27.65-2.42.21-4.88.01-7.31.25-2.42.23-4.83.63-7.26.89-2.41.26-4.82.68-7.25.96-2.41.28-4.89.11-7.31.41-2.41.31-4.83.59-7.26.92-2.4.33-4.62.77-7.05,1.12-.2-.13-3.57.75-3.56.65-4.58.73-6.13,1.02-8.5,2.54-.63.39-1.04.9-1.33,1.57-.78,1.72-.76,3.7.38,5.2.98,1.29,2.7,1.81,4.29,1.81.27,0,.51-.1.78-.14,2.43-.38,4.93-.29,7.33-.65,2.44-.36,4.77-1.37,7.18-1.7,2.44-.34,4.89-.46,7.31-.77,2.44-.32,4.91-.31,7.33-.6,2.44-.29,4.87-.58,7.29-.84,2.44-.27,4.86-.7,7.28-.94,2.44-.24,4.91-.11,7.34-.32,2.44-.21,4.83-1.08,7.27-1.27,2.44-.19,4.9-.27,7.34-.43,2.44-.16,4.9-.2,7.34-.33,2.44-.13,4.91.17,7.36.07,2.44-.1,4.88-.41,7.33-.49,2.44-.08,4.89-.31,7.34-.36,2.44-.05,4.89-.31,7.34-.34,2.44-.03,4.89.1,7.35.1s4.79.25,7.15.28c2.41.03,4.79.08,7.14.13,2.41.05,4.79.29,7.13.37,2.42.08,4.8.05,7.14.15,2.42.1,4.81-.2,7.15-.07,2.42.13,4.79.31,7.13.46,2.42.16,4.78.45,7.11.63,2.42.18,4.8.31,7.12.51,2.42.21,4.79.46,7.11.69,2.43.24,4.81.32,7.12.57,2.43.27,4.78.69,7.08.97,2.43.3,4.75.97,7.03,1.27,2.44.32,4.78.73,7.06,1.06,2.45.35,4.83.56,7.08.91,2.47.38,4.87.49,7.09.85,1.9.31,3.54-.52,4.7-2.07s1.27-3.48.5-5.17Z"/>
      </g>
      <g>
        <path class="cls-4" d="M692.97,683.51c-.18-2.37-.92-4.62-1.41-6.9-.49-2.32-.96-4.6-1.75-6.79-.8-2.22-1.55-4.46-2.63-6.53-1.09-2.09-2.29-4.12-3.64-6.04-1.35-1.92-2.7-3.89-4.3-5.61-1.59-1.72-3.5-3.17-5.31-4.66-1.81-1.49-3.89-2.59-5.89-3.83s-3.83-2.76-5.98-3.73c-2.13-.95-4.4-1.65-6.67-2.31s-4.53-1.17-6.88-1.53c-2.34-.36-4.71-.77-7.12-1.12s-4.78-.24-7.19-.57c-2.35-.32-4.73-.56-7.15-.87-2.35-.3-4.71-.78-7.13-1.06-2.35-.27-4.72-.76-7.14-1.02s-4.74-.54-7.16-.78c-2.36-.23-4.77-.24-7.19-.45s-4.75-.49-7.17-.68c-2.37-.18-4.76-.3-7.19-.47s-4.75-.46-7.18-.6c-2.37-.13-4.77-.29-7.2-.4-2.37-.11-4.77-.35-7.2-.44s-4.79.25-7.22.18c-2.38-.07-4.78.01-7.21-.03-2.38-.04-4.78-.18-7.21-.21-2.38-.02-4.78.14-7.21.14s-4.96-.18-7.41-.15-4.97-.24-7.41-.19c-2.49.05-4.96.33-7.4.4s-4.95.36-7.4.46c-2.49.09-4.97.04-7.41.16s-4.95.31-7.4.45-4.98-.05-7.42.12c-2.49.17-4.96.23-7.4.42-2.49.19-4.94.55-7.37.76-2.49.21-4.91.86-7.34,1.09-2.49.24-4.99.04-7.42.29s-4.89.98-7.31,1.26c-2.49.28-5,.04-7.42.33s-4.91.79-7.33,1.1-4.91.82-7.31,1.15c-2.48.35-4.92.7-7.33,1.05-2.4.35-4.75.78-7.03,1.44-2.32.68-4.64,1.34-6.81,2.32s-4.34,2.12-6.36,3.38c-2.04,1.28-3.77,2.96-5.61,4.5s-3.93,2.84-5.54,4.62c-1.61,1.77-2.83,3.89-4.19,5.87-1.35,1.97-2.51,4.06-3.59,6.21-1.07,2.13-2.24,4.24-3.02,6.53-.76,2.25-1.3,4.61-1.76,6.98s-.63,4.73-.76,7.15c-.2,3.77.01,3.78-.19,7.55-.2,3.77-.6,3.75-.79,7.52-.2,3.77,0,3.78-.19,7.55-.2,3.77-.04,3.78-.24,7.55-.2,3.77-.11,3.77-.31,7.54s-.27,3.77-.46,7.54c-.2,3.77-.37,3.76-.57,7.53-.2,3.77-.44,3.76-.64,7.53s-.12,3.78-.32,7.55c-.2,3.77.23,3.79.03,7.57-.15,2.92.3,5.62,1.58,8.01,1.32,2.48,3.27,4.48,5.68,5.93s4.98,2.05,7.9,2.05c3.67,0,3.67.45,7.33.45s3.67-.03,7.34-.03,3.67.21,7.33.21,3.67-.55,7.33-.55,3.67-.06,7.34-.06,3.67.63,7.33.63,3.67-.09,7.34-.09,3.67-.43,7.34-.43,3.67.32,7.33.32,3.67.03,7.34.03,3.67-.06,7.33-.06,3.67-.18,7.34-.18,3.67.17,7.34.17,3.67-.01,7.34-.01,3.67.17,7.34.17,3.67-.04,7.33-.04,3.67-.02,7.33-.02,3.67-.17,7.33-.17,3.67-.33,7.34-.33,3.67.58,7.33.58,3.67-.66,7.34-.66,3.67.26,7.33.26,3.67.16,7.34.16,3.67-.27,7.33-.27,3.67-.05,7.34-.05,3.67.22,7.34.22,3.67-.32,7.34-.32,3.67.68,7.34.68,3.67-.4,7.34-.4,3.67-.13,7.34-.13,3.67-.12,7.34-.12,3.67.47,7.34.47,3.67.19,7.34.19,3.67-.21,7.34-.21,3.67.03,7.34.03,3.67.04,7.34.04,3.67-.32,7.34-.32,3.67.47,7.34.47,3.67-.23,7.34-.23,3.67-.32,7.34-.32,3.67.35,7.34.35c2.97,0,5.68-1.09,8.03-2.53,2.43-1.49,4.79-3.37,6.09-5.91,1.26-2.45,1.31-5.42,1.08-8.38-.29-3.82.21-3.86-.08-7.68-.29-3.82-.81-3.78-1.1-7.6-.29-3.82-.17-3.83-.46-7.65-.29-3.82-.08-3.84-.37-7.66-.29-3.82-.58-3.8-.88-7.62-.29-3.82-.09-3.84-.38-7.66-.29-3.82-.12-3.84-.41-7.66-.29-3.82-.68-3.79-.97-7.61-.29-3.82-.2-3.83-.45-7.66-.25-3.83-.06-3.84-.35-7.66Z"/>
        <path class="cls-3" d="M683.22,781.72c-3.67,0-3.67.01-7.33.01-3.67,0-3.67-.24-7.34-.24s-3.67.19-7.33.19c-3.67,0-3.67.04-7.33.04-3.67,0-3.67.1-7.34.1-3.67,0-3.67-.12-7.33-.12-3.67,0-3.67.13-7.34.13s-3.67-.19-7.34-.19c-3.67,0-3.67.43-7.33.43-3.67,0-3.67-.13-7.34-.13s-3.67-.05-7.33-.05c-3.67,0-3.67-.31-7.34-.31-3.67,0-3.67.46-7.34.46-3.67,0-3.67-.02-7.34-.02s-3.67-.14-7.34-.14c-3.67,0-3.67-.47-7.33-.47-3.67,0-3.67.6-7.33.6-3.67,0-3.67-.16-7.33-.16-3.67,0-3.67-.12-7.34-.12s-3.67.23-7.33.23c-3.67,0-3.67.06-7.34.06-3.67,0-3.67-.05-7.33-.05s-3.67.08-7.34.08c-3.67,0-3.67-.34-7.33-.34-3.67,0-3.67-.33-7.34-.33-3.67,0-3.67.5-7.34.5-3.67,0-3.67.2-7.34.2-3.67,0-3.67-.41-7.34-.41-3.67,0-3.67.38-7.34.38s-3.67-.4-7.34-.4c-3.67,0-3.67-.28-7.34-.28-3.67,0-3.67.17-7.34.17-3.67,0-3.67.02-7.34.02s-3.67.3-7.34.3-3.67.05-7.34.05c-3.67,0-3.67-.09-7.34-.09-3.67,0-3.67.19-7.34.19q-3.67,0-7.34,0c-3.67,0-3.67-.24-7.34-.24-3.67,0-3.67-.1-7.34-.1-3.67,0-3.67.13-7.34.13-2.86,0-5.76-.32-8.29-1.41s-4.73-3-6.7-5.08c-1.97-2.07-3.75-4.37-4.71-6.96s-1.36-5.51-1.21-8.36c.2-3.77.71-3.74.91-7.51s.03-3.78.23-7.55c.2-3.77.15-3.77.34-7.54.2-3.77.05-3.78.25-7.55.2-3.77.34-3.76.54-7.53.2-3.77.11-3.77.3-7.55s.63-3.75.82-7.52c.2-3.77.13-3.5.33-7.27s.19-4.05.39-7.82c.2-3.77.09-3.78.28-7.55.13-2.41.33-4.79.74-7.12.43-2.37,1.16-4.64,1.87-6.91s1.31-4.62,2.3-6.79,1.93-4.42,3.18-6.45c1.26-2.04,2.8-3.91,4.29-5.77,1.5-1.87,3.09-3.67,4.81-5.34,1.71-1.67,3.41-3.42,5.32-4.86s4.29-2.18,6.37-3.37,3.97-2.71,6.18-3.64,4.53-1.49,6.85-2.14c2.28-.64,4.55-1.54,6.95-1.89,2.47-.37,5-.24,7.45-.58s4.88-1.11,7.33-1.43,5-.19,7.45-.5c2.48-.3,4.96-.48,7.42-.76,2.48-.28,4.91-.88,7.38-1.14s4.99-.11,7.46-.35c2.48-.24,4.95-.52,7.42-.73s4.94-.59,7.41-.78c2.48-.19,4.95-.43,7.43-.6s4.94-.61,7.42-.75c2.48-.14,4.97-.16,7.45-.28,2.48-.12,4.96-.37,7.44-.47s4.97-.02,7.46-.09,4.97.15,7.46.11c2.48-.05,4.96-.13,7.45-.15s4.96-.07,7.45-.07,4.86.18,7.25.21c2.45.02,4.87-.37,7.26-.33,2.45.05,4.87.27,7.25.33,2.45.07,4.87.2,7.25.29,2.45.09,4.85.53,7.23.64s4.89-.13,7.27,0c2.46.14,4.87.34,7.24.5,2.46.16,4.87.3,7.24.48s4.86.49,7.22.7,4.91,0,7.27.22c2.46.24,4.86.64,7.2.89,2.47.26,4.89.42,7.23.69,2.47.29,4.88.52,7.21.82,2.48.31,4.82,1.08,7.13,1.4,2.49.34,4.86.85,7.16,1.18,2.51.36,4.89.74,7.16,1.09,2.55.39,5.18.46,7.64,1.19,2.47.73,4.79,1.93,7.14,2.99,2.35,1.05,4.71,2.1,6.9,3.46s4.13,3.06,6.12,4.7,3.83,3.39,5.59,5.29c1.76,1.9,3.79,3.58,5.26,5.69s2.62,4.47,3.8,6.76c1.19,2.29,2.19,4.67,3.06,7.1.87,2.42,1.25,4.98,1.79,7.5.54,2.51,1.14,5.01,1.33,7.59.29,3.82.41,3.81.7,7.63s.46,3.81.75,7.63.15,3.83.44,7.65c.29,3.82.42,3.81.71,7.63.29,3.82-.14,3.85.15,7.67.29,3.82.14,3.83.43,7.65.29,3.82.36,3.82.65,7.64.29,3.82.4,3.81.69,7.63s.75,3.79,1.04,7.61.18,3.83.47,7.65c.22,2.85-.58,5.63-1.51,8.29-.93,2.66-2.4,4.99-4.34,7.09-1.94,2.1-4,4.09-6.58,5.21-2.58,1.13-5.44,1.6-8.3,1.6ZM533.67,631.95c-2.46,0-4.91.02-7.36.05-2.46.02-4.92-.18-7.37-.13s-4.91.29-7.36.36c-2.46.07-4.91.19-7.36.28-2.45.09-4.9.3-7.35.41-2.45.12-4.91.12-7.36.26-2.45.14-4.89.42-7.34.58-2.44.16-4.91.15-7.36.34s-4.85.81-7.3,1.02c-2.44.21-4.89.3-7.34.53s-4.88.43-7.33.69c-2.43.25-4.9.21-7.35.49-2.43.28-4.81,1.02-7.26,1.32-2.42.3-4.86.59-7.3.91-2.42.32-4.87.51-7.32.85-2.42.34-4.92.22-7.36.59-2.41.36-4.62,1.48-6.89,2.18-2.31.72-4.58,1.45-6.72,2.49-2.17,1.06-4.3,2.17-6.27,3.53-1.98,1.37-3.69,3.06-5.43,4.71-1.75,1.65-3.29,3.45-4.77,5.34-1.47,1.89-2.83,3.84-4,5.94s-2.09,4.26-2.94,6.53-1.83,4.43-2.33,6.8c-.48,2.33-1.13,4.7-1.26,7.13-.2,3.77.3,3.8.11,7.57-.2,3.77,0,3.78-.19,7.55s-.6,3.75-.8,7.52c-.2,3.77.18,3.79-.02,7.56-.2,3.77-.6,3.75-.79,7.52-.2,3.77-.48,3.76-.67,7.53-.2,3.77-.03,3.78-.22,7.55-.2,3.77-.18,3.77-.37,7.54-.2,3.77.1,3.79-.1,7.56-.2,3.77-.14,3.78-.34,7.55-.15,2.87.74,5.52,2.72,7.6,1.98,2.08,4.58,3.01,7.45,3.01q3.67,0,7.33,0c3.67,0,3.67.24,7.34.24s3.67.1,7.33.1,3.67-.13,7.33-.13,3.67-.28,7.34-.28,3.67.33,7.33.33,3.67-.31,7.34-.31,3.67.04,7.34.04,3.67.51,7.33.51,3.67-.16,7.34-.16,3.67-.05,7.33-.05,3.67-.15,7.34-.15,3.67.14,7.34.14,3.67-.09,7.34-.09,3.67.43,7.34.43,3.67-.65,7.33-.65,3.67.58,7.33.58,3.67-.11,7.33-.11,3.67-.08,7.34-.08,3.67.17,7.33.17,3.67-.28,7.34-.28,3.67-.23,7.33-.23,3.67.18,7.34.18,3.67-.04,7.33-.04,3.67-.22,7.34-.22,3.67.71,7.34.71,3.67-.52,7.34-.52,3.67.23,7.34.23,3.67-.41,7.34-.41,3.67.49,7.34.49,3.67-.43,7.34-.43,3.67.45,7.34.45,3.67.11,7.34.11,3.67-.33,7.34-.33,3.67.4,7.34.4,3.67-.06,7.34-.06,3.67-.18,7.34-.18,3.67-.06,7.34-.06,3.67-.29,7.34-.29,3.67.11,7.34.11,3.67-.15,7.34-.15c2.92,0,5.52-.98,7.51-3.13,1.99-2.14,3.2-4.85,2.98-7.76-.29-3.82-.34-3.82-.63-7.64-.29-3.82-.33-3.82-.62-7.64-.29-3.82-.12-3.83-.41-7.65-.29-3.82-.72-3.79-1.01-7.61-.29-3.82-.13-3.83-.42-7.65-.29-3.82-.24-3.82-.53-7.65-.29-3.82.04-3.85-.25-7.67s-.66-3.79-.95-7.61c-.29-3.82-.24-3.83-.53-7.65-.29-3.82-.33-3.82-.62-7.64-.18-2.38-.43-4.74-.94-7-.52-2.32-1.63-4.43-2.48-6.6-.86-2.21-1.72-4.37-2.89-6.4-1.18-2.05-2.58-3.91-4.04-5.75-1.47-1.84-3.08-3.5-4.8-5.1-1.72-1.6-3.26-3.42-5.22-4.75-1.94-1.32-3.92-2.66-6.05-3.69s-4.33-1.91-6.6-2.61c-2.22-.68-4.64-.72-7-1.08-2.24-.34-4.55-1.02-7.03-1.38-2.27-.33-4.65-.48-7.11-.82-2.28-.31-4.62-.88-7.06-1.19-2.3-.29-4.66-.59-7.1-.88-2.31-.27-4.73-.01-7.17-.27s-4.66-.73-7.09-.97-4.7-.47-7.12-.68c-2.33-.2-4.68-.73-7.11-.92s-4.73-.12-7.15-.28c-2.34-.16-4.73-.18-7.15-.32-2.35-.13-4.74-.09-7.16-.2s-4.73-.35-7.14-.44c-2.35-.09-4.74-.03-7.16-.1-2.35-.07-4.73-.55-7.15-.6-2.36-.04-4.75-.22-7.16-.25-2.36-.02-4.75.32-7.17.32Z"/>
      </g>
    </g>
    <g>
      <g>
        <path class="cls-3" d="M494.48,704.65c-1.04,1.96-2.22,3.79-3.47,5.46-1.31,1.75-2.98,3.11-4.61,4.49-1.6,1.36-3.16,2.92-5.18,3.87-1.83.87-3.92,1.56-6.17,2.05"/>
        <path class="cls-3" d="M474.98,725.4c-2.36,0-4.67-1.63-5.19-4.02-.6-2.77,1.34-5.53,4.1-6.13,2.47-.54,4.64-1.38,6.61-2.54,1.98-1.17,3.93-2.54,5.54-4.47,1.4-1.66,2.54-3.76,3.76-6.06,1.32-2.5,4.38-3.47,6.88-2.15,2.5,1.33,3.54,4.47,2.22,6.97-1.05,1.98-2.45,4.13-4.13,6.33-1.43,1.88-3.06,3.84-5.12,5.55-1.82,1.51-4.03,2.73-6.47,3.88-2.12,1-4.38,2.24-7.04,2.82-.37.08-.81-.18-1.17-.18Z"/>
      </g>
      <g>
        <path class="cls-3" d="M573.08,697.45c0,1.7.53,4.55,1.79,7.66.91,2.23,2.41,4.5,3.97,6.79,1.45,2.13,3.06,4.25,5.06,5.98,1.98,1.7,4.12,3.4,6.64,4.28"/>
        <path class="cls-3" d="M590.65,726.96c-.56,0-1.24.24-1.8.04-2.45-.86-4.58-2.36-6.58-3.81-2.07-1.51-3.69-3.46-5.28-5.36s-3.17-4.01-4.35-6.14c-1.3-2.37-2.53-4.65-3.26-6.82-1.01-3.01-1.22-5.69-1.22-7.42,0-2.83,2.14-4.92,4.97-4.92s4.84,2.09,4.84,4.92c0,1.52,1.44,4.47,3.1,7.79,1.18,2.35,2.29,5.11,4.24,7.21,1.92,2.07,4.46,3.4,7.09,4.32,2.67.93,3.9,4.05,2.97,6.72-.74,2.11-2.62,3.47-4.73,3.47Z"/>
      </g>
      <path class="cls-3" d="M533.1,745.95c-1.3,0-2.62.54-3.94.46-2.4-.15-4.72-.93-7.04-1.33s-4.74-.71-7.01-1.36c-2.32-.66-4.42-1.84-6.59-2.73-2.24-.92-4.47-1.72-6.51-2.87-2.12-1.19-4.16-2.43-6.01-3.83-1.95-1.47-3.8-2.99-5.41-4.66-1.7-1.77-2.87-3.85-4.12-5.8-1.31-2.05-2.86-3.95-3.6-6.16-.9-2.68.75-5.76,3.43-6.66,2.68-.9,5.44.69,6.35,3.37.76,2.26,2.03,4.52,3.69,6.57,1.49,1.84,3.4,3.55,5.49,5.14,1.91,1.46,4.18,2.57,6.48,3.76,2.16,1.12,4.37,2.33,6.79,3.16,2.32.8,4.83,1.08,7.33,1.57s4.86,1.08,7.38,1.23c2.05.12,4.75.3,7.83.03,2.38-.21,5.04-.48,7.77-1.17,2.4-.6,4.96-1.4,7.46-2.51,2.29-1.01,4.54-2.44,6.78-3.99,2.05-1.42,3.77-3.41,5.68-5.36,1.74-1.77,3.5-3.65,5.05-5.92,1.4-2.04,2.54-4.35,3.73-6.84,1.22-2.55,4.52-3.41,7.08-2.18,2.55,1.22,3.98,4.33,2.76,6.89-1.04,2.18-2.41,4.15-3.64,6.12s-2.83,3.83-4.3,5.63c-1.51,1.85-3.18,3.49-4.89,5.1-1.73,1.62-3.58,3.03-5.52,4.39s-3.65,3.04-5.77,4.14c-2.03,1.05-4.35,1.5-6.52,2.29-2.15.78-4.17,2.06-6.43,2.58-2.22.51-4.57.62-6.87.87-2.26.25-4.57.07-6.89.07Z"/>
      <path class="cls-3" d="M512.63,715.44c-2.58,0-5.17-.07-7.51-.79-2.43-.75-4.5-2.35-6.53-3.75-2.08-1.43-4.14-2.92-5.66-4.9-1.52-1.98-2.39-4.37-3.21-6.75s-1.71-4.73-1.71-7.3.55-5.1,1.35-7.42,2.42-4.36,3.95-6.34c1.52-1.97,2.96-4.12,5.03-5.55s4.53-2.05,6.96-2.8c2.34-.72,4.75-1.02,7.33-1.02s4.96.41,7.3,1.13c2.43.75,4.86,1.44,6.9,2.84s3.69,3.38,5.21,5.36c1.52,1.98,2.83,4.09,3.65,6.47.8,2.32,1.29,4.77,1.29,7.35s-.45,5.04-1.25,7.36c-.82,2.39-2.28,4.4-3.8,6.37s-3.22,3.71-5.3,5.14c-2.04,1.4-4.14,2.76-6.57,3.51-2.34.72-4.83,1.1-7.41,1.1ZM512.63,678.76c-2.5,0-4.68.9-6.72,1.98-2.16,1.13-4.28,2.37-5.55,4.35s-1.69,4.39-1.69,6.86.37,4.91,1.64,6.89c1.27,1.98,3.39,3.28,5.55,4.41,2.04,1.07,4.27,1.76,6.76,1.76s4.99-.18,7.03-1.25c2.16-1.13,3.6-3.2,4.86-5.18,1.27-1.98,2.47-4.16,2.47-6.63s-.71-4.96-1.98-6.94-3.18-3.77-5.34-4.91c-2.04-1.07-4.55-1.34-7.05-1.34Z"/>
      <path class="cls-3" d="M554.22,715.62c-2.59,0-5.13-.48-7.47-1.25-2.42-.79-4.5-2.27-6.51-3.75s-4.13-2.97-5.62-5.01-2.22-4.47-3.01-6.9c-.76-2.34-1.33-4.76-1.33-7.35s.04-5.18.81-7.52,2.49-4.4,3.96-6.42c1.48-2.04,3.05-3.99,5.08-5.47,2.02-1.47,4.35-2.35,6.77-3.14,2.34-.76,4.74-1.27,7.33-1.27s5.17-.06,7.51.7c2.42.79,4.67,2.11,6.69,3.58,2.04,1.48,3.48,3.58,4.97,5.62s2.65,4.16,3.44,6.58,1.61,4.75,1.61,7.34-.81,5.02-1.57,7.36c-.79,2.42-1.57,4.87-3.04,6.89-1.48,2.04-3.23,4.01-5.27,5.49-2.02,1.47-4.42,2.56-6.84,3.35s-4.91,1.16-7.5,1.16ZM554.22,677.79c-2.51,0-4.79.59-6.82,1.76s-4.11,2.72-5.32,4.81-1.44,4.5-1.44,7.01.24,5,1.42,7.02c1.21,2.09,3.14,3.78,5.23,5s4.43,1.48,6.94,1.48,5.02-.11,7.05-1.28c2.09-1.21,3.71-3.21,4.92-5.3,1.18-2.03,2.14-4.4,2.14-6.91s-.82-4.97-1.99-7c-1.21-2.09-3.28-3.49-5.37-4.71-2.03-1.18-4.25-1.88-6.76-1.88Z"/>
      <path class="cls-3" d="M512.63,700.42c-2.2,0-4.24-.55-5.68-2-1.44-1.44-2.64-3.49-2.64-5.68s1.43-4.01,2.87-5.46,3.26-2.71,5.46-2.71,3.94,1.35,5.38,2.79,2.7,3.19,2.7,5.38-1.14,4.06-2.58,5.5c-1.44,1.44-3.31,2.18-5.5,2.18Z"/>
      <path class="cls-3" d="M554.22,699.07c-2.17,0-4.2-.65-5.63-2.07s-2.59-3.46-2.59-5.63,1.15-4.23,2.57-5.65c1.42-1.42,3.48-2.12,5.65-2.12s4.07.86,5.49,2.28,2.05,3.33,2.05,5.49-.66,4.04-2.08,5.46c-1.42,1.42-3.29,2.24-5.46,2.24Z"/>
    </g>
  </g>
</svg>