<?xml version="1.0" encoding="UTF-8"?>
<svg id="Calque_1" data-name="Calque 1" xmlns="http://www.w3.org/2000/svg" viewBox="0 0 1080 1080">
  <defs>
    <style>
      .cls-1 {
        fill: #efca52;
      }

      .cls-2 {
        fill: #232115;
      }

      .cls-3 {
        fill: #f6f4f1;
      }
    </style>
  </defs>
  <g>
    <circle class="cls-1" cx="540" cy="540" r="285.67"/>
    <path class="cls-2" d="M540,254.33c157.77,0,285.67,127.9,285.67,285.67s-127.9,285.67-285.67,285.67-285.67-127.9-285.67-285.67,127.9-285.67,285.67-285.67M540,245.33c-39.78,0-78.37,7.79-114.7,23.16-35.09,14.84-66.6,36.09-93.66,63.15-27.06,27.06-48.31,58.57-63.15,93.66-15.37,36.33-23.16,74.93-23.16,114.7s7.79,78.37,23.16,114.7c14.84,35.09,36.09,66.6,63.15,93.66,27.06,27.06,58.57,48.31,93.66,63.15,36.33,15.37,74.93,23.16,114.7,23.16s78.37-7.79,114.7-23.16c35.09-14.84,66.6-36.09,93.66-63.15,27.06-27.06,48.31-58.57,63.15-93.66,15.37-36.33,23.16-74.93,23.16-114.7s-7.79-78.37-23.16-114.7c-14.84-35.09-36.09-66.6-63.15-93.66-27.06-27.06-58.57-48.31-93.66-63.15-36.33-15.37-74.93-23.16-114.7-23.16h0Z"/>
  </g>
  <g>
    <g>
      <path class="cls-3" d="M486.24,529.41c-1.15,2.17-2.32,4.24-3.65,6.16s-3.07,3.65-4.72,5.35c-1.66,1.71-3.04,3.75-5.05,5.12s-4.21,2.11-6.51,3.06c-2.11.87-4.33,1.72-6.8,2.26"/>
      <path class="cls-2" d="M459.52,558.59c-3.28,0-6.23-2.28-6.96-5.61-.84-3.85,1.6-7.65,5.45-8.49,1.48-.32,2.98-.89,4.56-1.48l.16-.06c1.3-.49,2.66-1.16,4.29-2.1.33-.19.66-.38.99-.57,1.18-.68,2.3-1.31,3.04-1.94.39-.33.96-1.08,1.5-1.8.46-.6.97-1.28,1.57-1.97.8-.93,1.61-1.67,2.33-2.33.47-.43,1.12-1.03,1.3-1.29.11-.2.35-.9.53-1.41.35-1.01.78-2.27,1.47-3.57,1.85-3.48,6.17-4.81,9.64-2.97,3.48,1.84,4.81,6.16,2.97,9.65-.16.31-.37.92-.58,1.51-.45,1.33-1.02,2.98-2.11,4.64-1.15,1.75-2.5,2.98-3.59,3.98-.46.42-.9.82-1.14,1.1-.31.36-.66.82-1.03,1.3-.92,1.21-2.06,2.71-3.66,4.06-1.74,1.47-3.57,2.51-5.18,3.43l-.89.51c-2.33,1.36-4.38,2.35-6.44,3.12l-.16.06c-1.9.71-4.05,1.52-6.54,2.06-.51.11-1.03.17-1.53.17Z"/>
    </g>
    <g>
      <path class="cls-3" d="M596.51,519.6c0,1.72.06,4.25.99,7.15.67,2.1,1.98,4.22,3.13,6.58,1.03,2.1,1.79,4.48,3.2,6.56s2.99,3.83,4.69,5.61,3.48,3.42,5.5,4.79,4.06,2.81,6.39,3.62"/>
      <path class="cls-2" d="M620.42,561.02c-.78,0-1.57-.13-2.35-.4-2.59-.9-5-2.06-7.17-3.43-1.95-1.23-3.46-2.75-4.68-3.97-.36-.36-.72-.72-1.09-1.07-1.57-1.47-2.69-3.02-3.68-4.38-.32-.43-.63-.87-.96-1.29-.38-.49-.78-.95-1.18-1.42-1.03-1.2-2.19-2.56-3.19-4.25-1.15-1.94-2.2-4.01-3.22-6.33l-.37-.83c-.84-1.89-1.71-3.85-2.3-5.87-.86-2.94-1.33-5.85-1.33-8.19,0-3.94,3.19-7.14,7.14-7.14s7.14,3.19,7.14,7.14c0,.77.2,2.28.76,4.2.32,1.1.96,2.54,1.64,4.07l.38.86c.79,1.79,1.59,3.37,2.45,4.82.36.61,1.03,1.39,1.74,2.22.54.63,1.09,1.27,1.6,1.93.43.55.84,1.11,1.25,1.68.68.94,1.32,1.82,1.91,2.37.48.45.96.93,1.43,1.4.82.82,1.59,1.6,2.19,1.97,1.24.78,2.71,1.48,4.26,2.02,3.72,1.3,5.68,5.37,4.38,9.09-1.03,2.94-3.79,4.79-6.74,4.79Z"/>
    </g>
    <path class="cls-2" d="M540.03,587c-1.64,0-3.19-.04-4.68-.13-.64-.04-1.39-.03-2.18-.02-1.45.02-3.09.03-4.86-.21-1.9-.26-3.65-.65-5.33-1.02-.52-.12-1.05-.23-1.57-.35-.64-.14-1.38-.25-2.16-.36-1.44-.22-3.07-.46-4.77-.96-2.45-.72-4.76-1.58-6.69-2.31-1.82-.69-3.32-1.63-4.53-2.39-.64-.4-1.25-.78-1.72-1.01-2-.96-4.15-2.03-6.28-3.31l-.8-.47c-1.72-1.02-3.5-2.08-5.26-3.39l-.96-.7c-1.57-1.15-3.2-2.35-4.77-3.83-1.65-1.55-2.93-3.17-4.07-4.61-.27-.34-.54-.68-.81-1.01-1.38-1.71-2.98-3.79-4.37-6.22-.27-.48-.57-.95-.86-1.42-.97-1.57-2.07-3.34-2.82-5.56-1.26-3.73.75-7.78,4.49-9.04,3.74-1.26,7.78.75,9.04,4.49.22.65.8,1.59,1.42,2.58.38.62.77,1.24,1.13,1.88.88,1.55,2.05,3.05,3.07,4.31.3.38.61.76.91,1.14.91,1.15,1.77,2.23,2.65,3.06.94.89,2.15,1.78,3.44,2.72l1.03.76c1.16.87,2.56,1.69,4.03,2.57l.83.5c1.65.99,3.45,1.88,5.15,2.7,1.17.56,2.19,1.2,3.08,1.75.8.5,1.55.96,2.08,1.17,1.67.64,3.64,1.37,5.62,1.95.76.23,1.78.38,2.86.54.91.14,1.94.29,3.01.52.57.12,1.15.25,1.72.38,1.45.33,2.82.63,4.11.81.76.1,1.75.09,2.81.08.94-.01,2.01-.02,3.14.04,1.8.1,3.73.13,5.9.08.5-.01.99-.02,1.49-.03,1.56-.02,3.03-.05,4.39-.19.83-.09,1.66-.15,2.49-.2,1.23-.09,2.39-.17,3.36-.35l1.1-.21c1.66-.31,3.22-.6,4.64-1.01.79-.23,1.76-.66,2.79-1.13.82-.37,1.67-.75,2.6-1.12.77-.3,1.55-.57,2.34-.85,1.15-.4,2.24-.78,3.09-1.21.48-.24.97-.48,1.45-.72,1.35-.66,2.62-1.29,3.69-1.97.68-.43,1.48-1.13,2.33-1.88.64-.56,1.36-1.19,2.15-1.81.78-.61,1.53-1.14,2.26-1.65.92-.65,1.79-1.26,2.39-1.83,1.3-1.25,2.79-2.71,4.06-4.19.29-.34.7-1.1,1.1-1.85.52-.97,1.11-2.07,1.91-3.2l.39-.55c1.04-1.48,2.03-2.87,2.87-4.31,1.09-1.87,2-3.57,2.78-5.21,1.7-3.56,5.96-5.06,9.51-3.36,3.56,1.7,5.06,5.96,3.36,9.52-.95,1.98-2.03,4.02-3.32,6.23-1.16,1.99-2.37,3.71-3.55,5.37l-.38.54c-.3.43-.65,1.07-1.01,1.75-.68,1.27-1.54,2.85-2.81,4.35-1.68,1.97-3.46,3.72-5.01,5.2-1.39,1.34-2.83,2.35-4.09,3.24-.59.42-1.16.81-1.62,1.18-.49.39-1.02.85-1.57,1.34-1.16,1.01-2.47,2.16-4.07,3.18-1.73,1.1-3.5,1.97-5.06,2.74-.44.22-.88.43-1.31.65-1.7.86-3.37,1.44-4.85,1.95-.62.22-1.24.43-1.85.67-.59.23-1.23.52-1.91.83-1.38.62-2.94,1.33-4.74,1.84-2.05.59-4.02.96-5.93,1.31l-1.05.2c-1.81.35-3.53.47-5.05.57-.67.05-1.34.09-2.01.16-2,.21-3.86.24-5.66.26-.46,0-.92.01-1.39.02-.8.02-1.58.03-2.34.03Z"/>
    <g>
      <path class="cls-3" d="M538.7,511.94c0,2.34.12,4.74-.5,6.89s-2.19,4.07-3.39,6c-1.2,1.94-2.22,4.11-3.9,5.68s-3.61,2.93-5.64,4.03c-1.98,1.07-4.32,1.51-6.57,2.08s-4.43,1.15-6.78,1.15-4.55-.84-6.72-1.38-4.53-.99-6.51-2.06-3.97-2.42-5.63-3.96c-1.68-1.56-3.31-3.29-4.52-5.23-1.2-1.93-1.53-4.31-2.16-6.52s-1.6-4.34-1.6-6.68.43-4.68,1.04-6.84,1.58-4.39,2.78-6.32,3.17-3.28,4.85-4.84c1.66-1.54,3.22-3.25,5.25-4.34s4.15-1.91,6.4-2.47c2.17-.54,4.46-.78,6.81-.78s4.58.5,6.74,1.04,4.54,1.02,6.53,2.09,3.46,3,5.11,4.54c1.68,1.56,3.22,3.13,4.42,5.07,1.2,1.93,2.16,3.93,2.8,6.15s1.19,4.35,1.19,6.69Z"/>
      <path class="cls-2" d="M511.91,544.92c-3.18,0-6.08-.72-8.41-1.3l-.1-.03c-2.61-.65-5.23-1.69-8-3.18l-.74-.4c-2.07-1.1-4.42-2.35-6.55-4.33-2.36-2.2-4.27-4.46-5.69-6.74-1.55-2.5-2.29-5.16-2.88-7.29-.09-.33-.18-.66-.28-.99-.65-2.25-1.39-5.28-1.39-8.72,0-2.99.41-5.94,1.23-8.77.95-3.29,2.04-5.88,3.45-8.15,1.41-2.26,3.26-4.45,5.67-6.7,2.12-1.98,4.5-3.68,7.07-5.06,2.24-1.21,4.95-2.55,8.03-3.31,2.87-.71,5.65-.71,8.12-.71h.48c3.04,0,5.91.33,8.53.98,3.24.81,5.82,1.76,8.12,2.99,2.43,1.31,4.18,3.06,5.59,4.46.36.36.71.71,1.08,1.05.27.25.55.51.83.76,1.57,1.43,3.53,3.2,5.04,5.64,1.47,2.36,2.98,4.92,3.85,7.98.86,3.01.94,6.01.94,8.83s-.42,5.7-1.3,8.73l-.12.42c-.69,2.42-1.48,5.16-3.13,7.82-1.48,2.37-3.39,4.06-4.93,5.41-.36.32-.72.64-1.07.96l-.51.47c-1.72,1.61-3.67,3.44-6.3,4.86-2.66,1.43-5.37,2.17-8.14,2.86-.32.08-.65.17-.98.25-2.06.53-4.63,1.2-7.5,1.2ZM510.95,493.51c-1.62,0-3.12.02-4.18.29-1.54.38-3.24,1.24-4.7,2.03-1.48.79-2.9,1.81-4.11,2.94-1.47,1.37-2.54,2.61-3.27,3.79-.68,1.1-1.29,2.59-1.86,4.56-.45,1.55-.67,3.17-.67,4.83,0,1.3.26,2.77.83,4.78.11.37.21.74.31,1.12.38,1.38.78,2.81,1.25,3.57.75,1.2,1.86,2.49,3.29,3.83.76.71,2.11,1.42,3.53,2.18l.81.43c1.71.92,3.24,1.54,4.68,1.9l.1.03c1.82.45,3.53.88,4.96.88,1.06,0,2.45-.36,3.93-.74.37-.1.74-.19,1.11-.28,1.92-.48,3.61-.93,4.82-1.57,1-.54,2.12-1.59,3.31-2.7l.55-.51c.44-.41.9-.82,1.36-1.23.92-.81,1.88-1.65,2.24-2.24.59-.96,1.05-2.53,1.52-4.2l.12-.43c.5-1.73.74-3.3.74-4.79,0-1.87-.03-3.66-.38-4.89-.37-1.29-1.28-2.81-2.26-4.38-.47-.75-1.46-1.66-2.52-2.61-.32-.29-.64-.58-.96-.88-.49-.45-.96-.93-1.44-1.4-.82-.82-1.68-1.68-2.27-1.99-1.2-.65-2.77-1.21-4.8-1.71-1.49-.37-3.2-.56-5.08-.56h-.49c-.16,0-.32,0-.47,0Z"/>
    </g>
    <g>
      <path class="cls-3" d="M596.27,511.14c0,2.36-.19,4.71-.78,6.88-.6,2.25-1.52,4.44-2.66,6.41s-3.07,3.42-4.69,5.04-3.18,3.3-5.17,4.46c-1.97,1.14-4.14,1.85-6.39,2.45s-4.4,1.22-6.76,1.22-4.68-.3-6.85-.88c-2.25-.6-4.19-1.89-6.16-3.03-2-1.16-3.66-2.63-5.28-4.25-1.62-1.62-2.99-3.34-4.15-5.34-1.14-1.97-2.51-3.86-3.11-6.11s-.92-4.49-.92-6.85.38-4.66.96-6.84c.6-2.25,1.73-4.27,2.87-6.24,1.16-2,2.6-3.73,4.22-5.35,1.62-1.62,3.19-3.35,5.18-4.51,1.97-1.14,4.1-2.18,6.35-2.78s4.53-.36,6.89-.36,4.6.23,6.77.81c2.25.6,4.64.95,6.61,2.09,2,1.16,3.95,2.61,5.57,4.23s3.05,3.58,4.2,5.58c1.14,1.97,2.04,4.21,2.64,6.46s.66,4.55.66,6.91Z"/>
      <path class="cls-2" d="M569.59,544.28c-2.55,0-5.44-.01-8.44-.81-3.16-.85-5.81-2.25-7.99-3.5l-.56-.32c-2.09-1.2-4.46-2.56-6.6-4.7-1.86-1.86-3.52-4.1-5.22-7.04-1.31-2.27-2.33-4.86-3.21-8.14-.69-2.6-1.02-5.34-1.02-8.63v-.8c-.01-2.37-.03-5.07.73-7.91.82-3.06,2.22-5.63,3.59-8,1.53-2.64,3.45-4.56,5.15-6.25l.41-.41c.33-.33.73-.79,1.14-1.28,1.27-1.49,2.86-3.34,5.26-4.73,2.66-1.54,5.54-2.42,8.25-3.15,2.65-.71,5.16-.63,7.18-.58.51.01,1.01.03,1.53.03,3.28,0,6.01.32,8.58,1.01.48.13.96.24,1.44.35,1.99.47,4.47,1.06,6.87,2.45,2.51,1.45,4.39,3.37,5.9,4.92.26.26.51.52.76.78,2.24,2.24,4,4.48,5.37,6.85,1.62,2.8,2.51,5.67,3.16,8.11.76,2.84,1.13,5.65,1.13,8.59,0,3.33-.65,6.2-1.28,8.55-.77,2.9-1.85,5.51-3.28,7.99l-.32.56c-1.19,2.07-2.54,4.42-4.67,6.55-2.28,2.28-4.53,4.05-6.87,5.4-2.73,1.58-5.53,2.33-7.99,2.99l-.2.05c-2.64.7-5.45,1.05-8.6,1.05h-.22ZM566.39,492.28c-.66,0-1.23.03-1.6.13-1.65.44-3.51.97-4.79,1.71-.31.19-1.07,1.07-1.57,1.66-.55.64-1.17,1.36-1.89,2.09l-.43.43c-1.22,1.22-2.28,2.27-2.86,3.28-.93,1.6-1.79,3.16-2.16,4.54-.27.99-.26,2.53-.25,4.16v.87c0,2.01.17,3.59.54,4.95.54,2.03,1.11,3.52,1.77,4.67,1.06,1.83,2,3.13,2.96,4.09.8.8,2.17,1.58,3.62,2.42l.59.34c1.37.79,2.97,1.65,4.53,2.07,1.24.33,2.95.32,4.87.33h.11c1.91,0,3.47-.18,4.91-.56l.2-.05c1.77-.47,3.43-.92,4.53-1.55,1.25-.72,2.53-1.75,3.92-3.14.8-.8,1.54-2.09,2.4-3.58l.34-.59c.81-1.4,1.4-2.84,1.85-4.53.56-2.1.79-3.51.79-4.87,0-1.68-.21-3.28-.64-4.91-.41-1.53-.94-3.29-1.73-4.65-.74-1.28-1.75-2.55-3.11-3.9-.3-.3-.59-.59-.88-.89-1.04-1.06-2.02-2.07-2.84-2.54-.59-.34-1.83-.64-3.03-.92-.61-.14-1.22-.29-1.82-.45-1.36-.36-2.87-.52-4.9-.52-.65,0-1.3-.02-1.94-.04-.5-.01-1.01-.03-1.48-.03Z"/>
    </g>
    <path class="cls-2" d="M511.91,523.79c-6.36,0-11.53-4.82-11.53-10.75s5.17-10.8,11.53-10.8,11.37,4.84,11.37,10.8-4.99,10.75-11.37,10.75Z"/>
    <path class="cls-2" d="M569.82,522.39c-5.92,0-10.74-5.05-10.74-11.25s4.82-11.23,10.74-11.23,11.28,5.25,11.28,11.23-5.27,11.25-11.28,11.25Z"/>
  </g>
</svg>