<?xml version="1.0" encoding="UTF-8"?>
<svg id="Calque_1" data-name="Calque 1" xmlns="http://www.w3.org/2000/svg" viewBox="0 0 600 600">
  <defs>
    <style>
      .cls-1 {
        fill: #efca52;
      }

      .cls-2 {
        fill: #2d2218;
      }
    </style>
  </defs>
  <rect class="cls-1" y=".78" width="600" height="599.22"/>
  <g>
    <path class="cls-2" d="M299.66,369.31c-4.64,0-9-1.15-13.38-2.02-4.52-.9-8.91-1.7-13.06-3.43-4.23-1.76-8-4.15-11.76-6.67-3.79-2.54-7.26-5.29-10.48-8.51-3.21-3.21-6.34-6.44-8.88-10.22-2.52-3.76-4.21-7.92-5.97-12.15-1.73-4.16-3.39-8.31-4.28-12.82-.87-4.39-.84-8.85-.84-13.49s.26-9.05,1.13-13.43c.9-4.52,2.2-8.75,3.93-12.91,1.76-4.23,3.92-8.09,6.44-11.85s4.21-8.34,7.42-11.55c3.21-3.21,7.12-5.84,10.91-8.38,3.76-2.52,8.34-3.54,12.57-5.29,4.16-1.73,8.3-3.3,12.81-4.2,4.39-.87,8.81-1.71,13.45-1.71s9.24-.06,13.63.81c4.52.9,8.84,2.5,13,4.23,4.23,1.76,8.69,3.28,12.45,5.8,3.79,2.54,6.77,6.21,9.98,9.42,3.21,3.21,6.58,6.4,9.12,10.19,2.52,3.76,4.91,7.79,6.67,12.01,1.73,4.16,2.31,8.81,3.2,13.32.87,4.39,1.3,8.9,1.3,13.53s.04,9.24-.83,13.63c-.9,4.52-3.02,8.62-4.75,12.78-1.76,4.23-3.5,8.42-6.01,12.18-2.54,3.79-4.81,7.93-8.02,11.15-3.21,3.21-6.98,6.05-10.77,8.59-3.76,2.52-7.86,4.82-12.08,6.58-4.16,1.73-8.88,2-13.39,2.9s-8.85,1.51-13.48,1.51ZM299.66,252.44c-4.24,0-8.58-.12-12.5.93-4.05,1.08-7.83,3.23-11.38,5.29s-7.19,4.45-10.11,7.37c-2.92,2.92-5.5,6.4-7.58,9.99-2.05,3.54-3.36,7.62-4.45,11.67s-2.1,8.09-2.1,12.33.94,8.44,1.99,12.36c1.08,4.05,2.31,8.2,4.37,11.75,2.08,3.59,4.88,6.93,7.8,9.85,2.92,2.92,6.34,5.56,9.94,7.64,3.54,2.05,7.51,3.8,11.56,4.88,3.91,1.05,8.21.03,12.45.03s8.24-.09,12.15-1.14c4.05-1.08,8.42-1.54,11.96-3.59,3.59-2.08,6.86-4.97,9.77-7.88,2.92-2.92,5.21-6.52,7.29-10.12,2.05-3.54,3.17-7.55,4.26-11.6,1.05-3.91,1.87-7.93,1.87-12.17s-1.31-8.13-2.36-12.04c-1.08-4.05-1.79-8.14-3.84-11.69-2.08-3.59-5.05-6.5-7.96-9.41-2.92-2.92-6.21-5.21-9.8-7.29s-7-4.38-11.04-5.46c-3.91-1.05-8.06-1.67-12.3-1.67Z"/>
    <path class="cls-2" d="M326.09,276.03c-4.09-1.62-9.06-1.54-13.47-2.1-5.25-.67-10.14-.72-13.46-.68-4.42.06-8.69.59-12.7,1.13-4.72.64-9.17.78-12.64,1.99-5.21,1.81-8.27,7.89-6.46,13.1,1.24,3.57,5.09,5.74,8.58,6.33,1.61,5.96-.73,6.28-.73,12.45,0,6.17.39,6.17.39,12.34,0,3.6,2.85,6.24,6.45,6.24,5.83,0,5.83-.06,11.65-.06s5.83-.07,11.66-.07,5.83-.31,11.66-.31c3.6,0,6.07-2.2,6.07-5.8,0-6.16-.15-6.16-.15-12.32s-1.82-6.59-.23-12.54c3.43-.5,7.68-2.4,9.05-5.85,2.03-5.13-.55-11.81-5.68-13.84Z"/>
  </g>
</svg>