<?xml version="1.0" encoding="UTF-8"?>
<svg id="Calque_1" data-name="Calque 1" xmlns="http://www.w3.org/2000/svg" viewBox="0 0 1080 1080">
  <defs>
    <style>
      .cls-1 {
        fill: #2d2218;
      }
    </style>
  </defs>
  <path class="cls-1" d="M692.34,813.16c-1.49,0-2.24-.02-2.99-.05-.65-.02-1.3-.04-2.61-.04-1.73,0-2.72-.13-3.74-.29-.58-.09-.93-.14-1.85-.14-1.03,0-1.46.05-2.06.12-.79.09-1.77.21-3.53.21s-2.82-.14-3.63-.24c-.59-.08-.98-.13-1.96-.13-1.48,0-2.22-.02-2.96-.04-.66-.02-1.31-.03-2.63-.03-.82,0-1.09.05-1.65.16-.83.16-1.97.37-3.94.37-1.54,0-2.36-.04-3.08-.07-.67-.03-1.25-.06-2.51-.06-1.96,0-3.09-.21-3.92-.36-.56-.1-.84-.15-1.67-.15-1.07,0-1.52.05-2.14.11-.77.08-1.72.18-3.45.18-1.54,0-2.37-.04-3.09-.07-.67-.03-1.25-.06-2.5-.06-1.12,0-1.61.04-2.23.1-.79.07-1.68.15-3.36.15-1.08,0-1.53.05-2.16.11-.76.08-1.71.17-3.43.17-2.02,0-3.25-.27-4.35-.56-.51-.13-.63-.16-1.24-.16-1.29,0-1.94.02-2.59.04-.75.02-1.5.05-3,.05-1.25,0-1.82.03-2.49.06-.72.03-1.55.07-3.09.07s-2.47-.06-3.22-.11c-.63-.04-1.18-.08-2.36-.08-.89,0-1.2.05-1.78.15-.8.13-1.9.31-3.81.31-1.22,0-1.78.03-2.44.07-.74.04-1.57.09-3.15.09-1.45,0-2.17-.01-2.89-.02-.67-.01-1.35-.02-2.7-.02-1.58,0-2.42-.05-3.16-.09-.65-.04-1.21-.07-2.42-.07-1.36,0-2.03,0-2.71.02-.72,0-1.44.02-2.87.02s-2.15,0-2.87-.02c-.68,0-1.36-.02-2.71-.02-1.5,0-2.27-.03-3.01-.05-.64-.02-1.29-.04-2.58-.04-1.69,0-2.63-.09-3.38-.16-.62-.06-1.1-.1-2.2-.1-.7,0-.88.04-1.41.16-1.1.25-2.24.47-4.18.47-1.79,0-2.78-.13-3.58-.23-.61-.08-1.01-.13-2.01-.13-1.09,0-1.54.05-2.17.11-.76.08-1.71.17-3.41.17-1.45,0-2.18-.01-2.9-.03-.67-.01-1.34-.02-2.69-.02-1.48,0-2.23-.02-2.97-.04-.65-.02-1.31-.04-2.62-.04s-1.99.01-2.66.03c-.73.02-1.46.03-2.93.03-1.3,0-1.95.02-2.6.04-.75.02-1.49.05-2.99.05s-2.36-.04-3.09-.07c-.67-.03-1.25-.06-2.5-.06-1.77,0-2.75-.12-3.53-.21-.6-.07-1.03-.12-2.05-.12-1.59,0-2.44-.05-3.19-.1-.64-.04-1.2-.08-2.4-.08-.79,0-1.05.05-1.6.16-1.05.2-2.14.39-3.98.39s-3.03-.19-3.84-.33c-.56-.1-.88-.15-1.74-.15-1.46,0-2.19-.02-2.92-.03-.67-.01-1.33-.03-2.66-.03-1.43,0-2.15,0-2.86-.02-.68,0-1.36-.02-2.73-.02s-2.07,0-2.77,0c-.71,0-1.41,0-2.82,0-.75,0-.97.05-1.51.16-1.07.23-2.19.43-4.08.43-1.45,0-2.17-.01-2.89-.02-.67-.01-1.35-.02-2.69-.02-1.49,0-2.24-.02-2.99-.05-.65-.02-1.3-.04-2.6-.04-1.1,0-1.58.05-2.2.11-.76.07-1.69.16-3.39.16s-2.69-.1-3.46-.19c-.62-.07-1.06-.11-2.12-.11-1.65,0-2.52-.07-3.3-.13-.64-.05-1.14-.09-2.29-.09-.92,0-1.27.05-1.85.14-1.02.16-2.01.29-3.74.29s-2.65-.09-3.41-.17c-.63-.06-1.09-.11-2.18-.11-1.48,0-2.22-.02-2.95-.04-.66-.02-1.32-.03-2.63-.03-1.04,0-1.48.05-2.09.12-.78.09-1.75.2-3.5.2s-2.68-.1-3.44-.18c-.62-.07-1.07-.11-2.14-.11-1.71,0-2.65-.1-3.41-.17-.63-.06-1.09-.11-2.17-.11-1.37,0-2.06,0-2.74.01-.71,0-1.42.01-2.84.01-.79,0-1.04.05-1.6.16-1.05.21-2.14.39-3.99.39-1.7,0-2.64-.09-3.4-.17-.61-.06-1.09-.11-2.19-.11-1.03,0-1.46.05-2.06.12-.78.09-1.76.21-3.52.21s-2.81-.13-3.62-.24c-.59-.08-.98-.13-1.97-.13-1.26,0-1.84.03-2.52.06-.72.03-1.53.07-3.07.07-1.76,0-2.74-.12-3.52-.21-.6-.07-1.03-.12-2.06-.12-1.32,0-1.98.02-2.64.03-.74.02-1.47.03-2.94.03-.57,0-1.21.04-1.89.08-1.3.08-2.77.17-4.37.03-1.69-.15-3.2-.57-4.41-.91-.64-.18-1.25-.35-1.73-.44-.45-.08-1.08-.11-1.75-.15-1.26-.06-2.83-.15-4.5-.59-1.85-.49-3.94-1.05-6.03-1.81-1.79-.65-3.41-1.42-4.98-2.16l-.78-.37c-1.68-.78-3.39-1.69-5.55-2.94-1.66-.96-3.14-2.01-4.58-3.02l-.65-.46c-1.98-1.39-3.57-2.59-4.99-3.79-.45-.38-.92-.75-1.39-1.11-1.07-.84-2.28-1.78-3.42-2.93-1.16-1.16-2.03-2.37-2.79-3.43-.4-.56-.78-1.08-1.12-1.49-1.06-1.27-1.94-2.57-2.71-3.73-.3-.46-.61-.91-.92-1.36-.27-.39-.55-.77-.83-1.16-.89-1.24-1.82-2.52-2.68-4.01-1.08-1.86-1.95-3.7-2.83-5.58-.26-.55-.54-1.08-.81-1.62-.61-1.18-1.31-2.52-1.87-4.05-.14-.38-.28-.76-.42-1.15-.56-1.51-1.15-3.07-1.61-4.8-.49-1.82-.92-3.83-1.33-6.15-.37-2.13-.55-4.22-.73-6.23-.14-1.6-.08-3.11-.03-4.44.02-.61.05-1.22.05-1.84,0-1.32-.02-1.98-.04-2.64-.02-.75-.04-1.5-.04-2.99,0-1.37,0-2.05-.02-2.74,0-.72-.02-1.45-.02-2.89,0-1.57.05-2.41.08-3.15.04-.66.07-1.24.07-2.48,0-1.56.04-2.39.08-3.13.03-.67.06-1.25.06-2.5,0-.84-.05-1.13-.16-1.7-.15-.83-.36-1.96-.36-3.93,0-1.38,0-2.07-.01-2.76,0-.72-.01-1.43-.01-2.87,0-1.9.17-3,.3-3.79.09-.57.15-.92.15-1.83s-.06-1.25-.15-1.82c-.13-.8-.31-1.9-.31-3.81,0-1.31-.02-1.97-.04-2.63-.02-.75-.04-1.5-.04-2.99,0-1.4,0-2.09,0-2.79,0-.71,0-1.42,0-2.83,0-1.9.17-2.99.3-3.78.09-.58.15-.92.15-1.84s-.05-1.23-.15-1.81c-.13-.8-.31-1.9-.31-3.81,0-1.66.07-2.55.14-3.33.05-.64.1-1.15.1-2.3,0-1.74.13-2.73.29-3.76.09-.58.14-.93.14-1.86,0-.76-.05-.98-.16-1.52-.23-1.08-.43-2.2-.43-4.1s.19-2.98.4-4.04c.11-.55.16-.8.16-1.58,0-1.25-.03-1.82-.06-2.49-.04-.73-.08-1.56-.08-3.13,0-.79-.05-1.05-.16-1.6-.21-1.06-.4-2.16-.4-4.02,0-1.61.06-2.46.11-3.22.04-.64.08-1.2.08-2.4,0-1.48.02-2.22.03-2.96.02-.67.03-1.33.03-2.66,0-1.52.03-2.29.05-3.03.02-.65.05-1.3.05-2.59,0-1.36,0-2.04-.02-2.73,0-.72-.02-1.45-.02-2.89,0-1.19-.04-1.74-.08-2.38-.05-.76-.11-1.62-.11-3.24,0-1.83.14-2.85.25-3.66.08-.59.14-.98.14-1.96s-.05-1.37-.14-1.96c-.11-.81-.25-1.83-.25-3.66,0-1.98.21-3.11.36-3.94.1-.56.16-.84.16-1.68s-.05-1.17-.15-1.73c-.14-.82-.34-1.94-.34-3.89s.21-3.05.45-4.14c.12-.54.16-.75.16-1.48,0-.63-.03-.76-.17-1.28-.28-1.09-.55-2.33-.55-4.34,0-1.76.11-2.74.2-3.52.07-.61.12-1.05.12-2.1,0-1.18-.04-1.69-.09-2.35-.06-.77-.12-1.63-.12-3.27,0-1.42,0-2.12,0-2.83,0-.7,0-1.4,0-2.79,0-1.58.05-2.42.09-3.16.04-.66.07-1.23.07-2.46,0-1.76.11-2.73.2-3.51.07-.61.12-1.05.12-2.11v-5.62c0-1.48.02-2.23.04-2.97.02-.66.03-1.33.03-2.65,0-1.03-.05-1.46-.12-2.06-.1-.79-.22-1.78-.22-3.56,0-1.08-.05-1.53-.11-2.16-.08-.77-.18-1.73-.18-3.47,0-1.89.2-3,.42-4.07.11-.55.16-.78.16-1.55,0-1.45.01-2.18.02-2.9.01-.68.02-1.36.02-2.72,0-.71-.04-.91-.16-1.44-.25-1.1-.47-2.25-.47-4.19,0-.12,0-.24,0-.35-.15-.03-.3-.06-.44-.1-1.44-.33-2.75-.73-4.01-1.13-.59-.18-1.18-.37-1.77-.54-2.21-.64-4.04-1.21-5.74-1.8-1.39-.49-2.61-1.09-3.68-1.62-.65-.32-1.25-.62-1.8-.85-.57-.24-1.15-.46-1.73-.68-1.23-.47-2.5-.96-3.82-1.6-.47-.23-.95-.45-1.42-.67-1.29-.6-2.62-1.22-3.98-1.97-.47-.26-.95-.52-1.43-.77-1.24-.66-2.52-1.35-3.82-2.16-1.33-.83-2.54-1.7-3.7-2.55-.41-.3-.82-.59-1.24-.89-1.19-.84-2.2-1.75-3.1-2.56-.53-.48-1.04-.94-1.51-1.31-.36-.29-.92-.63-1.51-.99-1.01-.61-2.27-1.38-3.46-2.44-1.39-1.24-2.67-2.52-3.91-3.76l-.43-.43c-1.02-1.02-1.89-2.09-2.66-3.03-.45-.55-.87-1.07-1.28-1.53-1-1.12-1.86-2.24-2.69-3.32-.35-.46-.71-.92-1.07-1.37-.34-.43-.8-.91-1.3-1.43-.84-.88-1.79-1.87-2.67-3.12-.84-1.19-1.52-2.35-2.18-3.48-.32-.55-.65-1.11-.99-1.65-.77-1.23-1.36-2.46-1.87-3.55-.31-.65-.6-1.26-.89-1.8-.25-.45-.62-.99-1.02-1.57-.7-1.01-1.49-2.15-2.16-3.55-.28-.58-.57-1.15-.87-1.72-.57-1.11-1.22-2.36-1.77-3.71-.64-1.55-.9-3.04-1.11-4.23-.12-.65-.23-1.27-.35-1.64-.72-2.08-1.32-3.94-1.82-5.68-.14-.48-.39-1.1-.66-1.74-.47-1.13-.99-2.41-1.34-3.92-.35-1.52-.42-2.91-.49-4.14-.04-.69-.08-1.35-.16-1.84-.09-.56-.26-1.21-.44-1.91-.3-1.16-.64-2.48-.8-3.96-.18-1.63-.26-3.2-.33-4.71l-.06-1.27c-.1-1.75-.09-3.43-.08-5.05v-.94c0-.45,0-.9,0-1.35,0-1.49-.01-3.03.08-4.64.1-1.78.28-3.68.54-5.97.08-.65.12-1.31.17-1.97.09-1.21.19-2.58.44-4,.25-1.42.61-2.75.93-3.92.17-.63.35-1.27.5-1.9.14-.58.25-1.25.37-1.96.2-1.18.42-2.53.83-3.92.46-1.58,1.16-2.91,1.72-3.97.31-.59.61-1.15.74-1.53.67-1.9,1.43-3.71,2.15-5.46l.04-.09c.25-.61.48-1.23.71-1.85.41-1.13.88-2.41,1.51-3.71.64-1.31,1.32-2.48,1.99-3.61.31-.53.63-1.07.93-1.61.27-.49.55-1.11.84-1.76.49-1.09,1.05-2.33,1.85-3.6.84-1.33,1.71-2.54,2.56-3.7.29-.4.58-.8.87-1.21.37-.53.73-1.07,1.09-1.61.68-1.02,1.44-2.18,2.34-3.31.9-1.13,1.86-2.12,2.71-2.99.46-.47.91-.94,1.35-1.43.97-1.08,1.98-1.98,2.87-2.78.53-.47,1.04-.92,1.46-1.35.31-.31.71-.82,1.12-1.36.72-.94,1.62-2.11,2.83-3.18,1.23-1.1,2.53-1.84,3.57-2.44.58-.33,1.12-.65,1.44-.9l.27-.21c1.42-1.13,2.89-2.29,4.48-3.41.3-.21.76-.66,1.2-1.1.87-.85,1.96-1.92,3.4-2.81,1.38-.86,2.76-1.38,3.88-1.81.63-.24,1.23-.47,1.61-.67.46-.25,1.01-.63,1.59-1.02,1-.69,2.14-1.47,3.53-2.13,1.35-.64,2.65-1.05,3.79-1.41.69-.21,1.34-.42,1.86-.63.43-.18.99-.49,1.59-.83,1.03-.58,2.3-1.3,3.81-1.82,1.16-.4,2.3-.69,3.31-.94.79-.2,1.53-.39,2.17-.6,1.23-.41,2.4-.66,3.44-.88.77-.16,1.49-.32,2.08-.5.38-.12.97-.42,1.58-.73.99-.5,2.21-1.12,3.65-1.56,1.16-.35,2.3-.6,3.3-.82.8-.17,1.56-.34,2.22-.53.61-.18,1.31-.45,2.05-.73.98-.38,2.09-.81,3.31-1.15,1.1-.31,2.22-.6,3.33-.89.71-.19,1.43-.37,2.15-.57,1.2-.32,2.36-.52,3.38-.69.8-.14,1.55-.26,2.18-.43.74-.19,1.49-.4,2.24-.6,1.07-.29,2.15-.59,3.23-.86,1.07-.27,2.12-.49,3.13-.7.8-.17,1.6-.34,2.39-.53,1.09-.26,2.14-.46,3.15-.66.8-.15,1.6-.31,2.39-.49.68-.16,1.43-.38,2.22-.62.97-.29,2.07-.62,3.24-.88.8-.18,1.59-.37,2.38-.57,1-.25,2.04-.51,3.13-.74,1.04-.22,2.08-.41,3.12-.6.81-.15,1.62-.29,2.43-.46,1.12-.23,2.18-.38,3.21-.53.84-.12,1.64-.24,2.37-.38l.69-.14c1.61-.32,3.23-.63,4.86-.94.68-.13,1.43-.33,2.23-.53.98-.26,2.09-.55,3.27-.76,1.26-.23,2.44-.31,3.49-.39.79-.06,1.54-.11,2.14-.22.6-.1,1.32-.3,2.08-.51,1.01-.28,2.16-.6,3.42-.81,1.85-.31,3.71-.61,5.57-.91.79-.13,1.58-.26,2.37-.39,1.06-.18,2.13-.36,3.2-.53.75-.12,1.54-.27,2.38-.44,1.01-.2,2.06-.42,3.18-.58,1.46-.21,2.82-.18,3.91-.15.7.02,1.36.04,1.77-.02,1.09-.15,2.18-.29,3.28-.44.77-.1,1.54-.2,2.31-.3.81-.11,1.62-.25,2.43-.39,1.01-.17,2.04-.35,3.14-.5.82-.11,1.64-.24,2.46-.36,1.01-.16,2.05-.32,3.13-.45.77-.09,1.57-.23,2.43-.37,1.01-.16,2.05-.33,3.15-.46,1.06-.12,2.12-.23,3.18-.34.81-.08,1.62-.16,2.43-.25,1.14-.13,2.22-.18,3.25-.22.85-.04,1.65-.08,2.38-.15.7-.07,1.47-.21,2.29-.36.99-.17,2.11-.37,3.29-.49.83-.08,1.66-.19,2.49-.29,1.04-.13,2.07-.26,3.12-.36,1.36-.13,2.6-.07,3.7-.03.75.03,1.45.06,1.96.02.5-.04,1.18-.2,1.9-.37,1.07-.24,2.29-.52,3.66-.64,1.33-.11,2.54-.06,3.62-.02.77.03,1.49.06,2.04.02.5-.04,1.18-.19,1.91-.35,1.08-.24,2.29-.5,3.68-.6,1.31-.1,2.52-.04,3.59,0,.77.03,1.5.07,2.07.03.7-.05,1.49-.15,2.32-.27,1.04-.14,2.11-.29,3.29-.36.69-.04,1.47-.15,2.3-.26,1-.13,2.13-.29,3.31-.36,2.08-.12,3.99-.02,5.64-.11,1.28-.07,2.56-.13,3.85-.19l1.78-.08c.84-.04,1.68-.1,2.51-.16,1.04-.07,2.07-.14,3.11-.19,1.03-.04,2.07-.06,3.1-.08.85-.01,1.69-.03,2.54-.06,1.03-.04,2.07-.06,3.1-.08.84-.01,1.69-.03,2.53-.06,1.15-.04,2.22,0,3.25.03.85.03,1.65.05,2.39.03,1.14-.03,2.21,0,3.24.03.85.03,1.66.05,2.4.04.66-.02,1.42-.1,2.23-.19,1.01-.11,2.16-.23,3.39-.26.72-.01,1.51-.08,2.35-.15,1.04-.09,2.12-.18,3.29-.19.8-.01,1.61-.04,2.43-.06,1.04-.03,2.09-.07,3.16-.07,1.22,0,2.36.1,3.37.19.81.07,1.57.18,2.22.14,1.16,0,2.3.09,3.3.17.83.07,1.6.13,2.3.13,1.87,0,3.71.01,5.59.03.72.01,1.51-.03,2.34-.07,1.03-.05,2.09-.1,3.25-.08.67,0,1.45-.03,2.26-.08,1-.06,2.14-.12,3.34-.1,1.02.02,2.06.05,3.1.09.83.03,1.65.06,2.49.08l1.98.04c1.2.03,2.4.05,3.62.08,1.3.04,2.48.22,3.53.37.76.11,1.48.22,2.05.24.56.02,1.28-.03,2.05-.09,1.05-.08,2.25-.17,3.55-.12,1.85.07,3.71.15,5.59.23.67.03,1.44,0,2.26-.01,1.01-.03,2.15-.06,3.35,0,1.13.06,2.18.17,3.19.29.84.09,1.64.18,2.38.22,1.15.06,2.31.14,3.47.21l2.12.13c.75.05,1.56.06,2.41.08,1.02.02,2.07.04,3.19.11,1.12.08,2.17.21,3.19.34.84.11,1.64.21,2.38.26,1.08.08,2.11.2,3.11.31.82.09,1.64.19,2.46.25.53.04,1.24,0,1.99-.02,1.08-.05,2.3-.1,3.64.01,1.37.12,2.57.39,3.64.64.72.17,1.4.32,1.9.37.6.05,1.34.05,2.13.04,1.04,0,2.22-.02,3.49.11.81.08,1.63.14,2.45.19,1.04.07,2.09.15,3.13.25,1.07.11,2.11.25,3.1.39.82.11,1.64.23,2.46.32,1.14.12,2.19.31,3.21.48.83.14,1.61.28,2.34.36,1.19.14,2.31.36,3.29.56.8.16,1.56.31,2.24.39.74.09,1.53.15,2.37.22,1.03.08,2.09.16,3.21.31.81.11,1.62.19,2.44.28,1.04.11,2.09.23,3.13.37,1.16.16,2.27.4,3.25.6.81.17,1.57.34,2.27.44.73.11,1.53.18,2.36.26,1.03.1,2.09.2,3.21.37,1.08.16,2.11.36,3.11.55.8.15,1.61.31,2.41.44.69.11,1.46.18,2.28.26,1,.09,2.13.2,3.29.4,1.14.19,2.18.44,3.19.67.81.19,1.58.37,2.3.5.74.13,1.53.24,2.36.35,1.02.14,2.08.28,3.2.48.62.12,1.37.19,2.16.26,1.03.1,2.19.21,3.42.45,1.14.22,2.19.5,3.21.77.8.21,1.56.41,2.26.55.69.14,1.47.25,2.28.37,1.04.15,2.12.3,3.27.55,1.17.25,2.27.57,3.24.86.78.23,1.52.45,2.19.6,1.12.25,2.16.54,3.16.83.8.23,1.56.44,2.27.61,1.83.43,3.65.87,5.47,1.31.55.13,1.27.23,2.03.33,1.06.14,2.26.3,3.53.62,1.09.28,2.13.59,3.13.89.76.23,1.52.46,2.29.66,1.33.35,2.66.72,3.99,1.1l1.44.4c.7.2,1.41.38,2.11.57,1.11.3,2.22.59,3.32.91,1.12.33,2.15.69,3.15,1.05.78.28,1.51.54,2.2.75.73.22,1.45.43,2.18.64,1.08.31,2.16.62,3.23.96.75.24,1.5.44,2.26.65,1.02.28,2.07.57,3.16.93,1.36.45,2.49,1.03,3.49,1.54.64.33,1.24.63,1.67.79.69.24,1.43.46,2.22.7,1.02.3,2.07.62,3.16,1.01.5.18,1.18.34,1.91.51,1.07.25,2.28.53,3.56,1.01,1.09.41,2.11.86,3.09,1.28.71.31,1.41.62,2.13.9h0c1.41.56,2.59,1.24,3.64,1.84.61.35,1.2.69,1.69.91,1.95.9,3.79,1.86,5.34,2.68.55.29,1.15.57,1.79.88,1.09.51,2.32,1.09,3.55,1.83,1.25.75,2.37,1.58,3.36,2.3.52.38,1.03.76,1.56,1.12.46.31,1.05.64,1.67.99,1.05.59,2.24,1.26,3.43,2.17,1.39,1.07,3.04,2.36,4.67,3.77,1.5,1.3,2.99,2.66,4.43,4.05,1.13,1.09,2.13,2.2,3.1,3.27.33.37.67.74,1.01,1.1,1.51,1.64,2.89,3.28,3.92,4.54.93,1.13,1.7,2.24,2.44,3.32.36.51.71,1.03,1.08,1.53.36.49.78,1.01,1.23,1.56.76.93,1.62,1.99,2.41,3.2l.61.93c.86,1.32,1.76,2.68,2.6,4.14,1.07,1.86,2,3.59,2.85,5.28.69,1.38,1.1,2.71,1.47,3.87.21.67.4,1.3.61,1.77.58,1.35,1.03,2.64,1.46,3.89.2.57.39,1.14.6,1.71.17.46.46,1.04.78,1.66.55,1.09,1.18,2.33,1.64,3.83l.38,1.24c.45,1.44.92,2.94,1.31,4.52.52,2.12.94,4.25,1.24,5.87.08.44.17.87.25,1.31.29,1.47.58,3,.79,4.6.19,1.44.24,2.78.3,4.08.03.64.05,1.28.1,1.91.04.57.09,1.13.14,1.7.12,1.37.25,2.78.27,4.29.03,1.54-.17,2.91-.35,4.11-.1.7-.2,1.36-.22,1.87-.02.6-.01,1.27,0,1.98.02,1.2.04,2.56-.1,4.01-.14,1.44-.38,2.74-.62,4.01-.12.63-.24,1.27-.34,1.91-.08.51-.11,1.18-.15,1.88-.06,1.22-.14,2.6-.46,4.1-.33,1.55-.89,2.91-1.34,4-.26.64-.51,1.24-.64,1.69-.17.63-.31,1.26-.46,1.9-.27,1.18-.57,2.52-1.03,3.9-.54,1.62-1.15,3.16-1.74,4.64l-.38.95c-.22.55-.43,1.19-.65,1.87-.36,1.12-.77,2.39-1.37,3.69-.62,1.34-1.28,2.55-1.93,3.71-.28.51-.56,1.01-.83,1.52-.71,1.34-1.52,2.43-2.24,3.4-.41.55-.8,1.08-1.07,1.51-.29.48-.58,1.08-.89,1.71-.52,1.06-1.12,2.26-1.94,3.48-.33.49-.68,1.07-1.04,1.68-.61,1.02-1.29,2.17-2.16,3.31-1.25,1.63-2.5,3.18-3.73,4.61-1.02,1.19-2.14,2.11-3.04,2.84-.53.43-1.02.84-1.34,1.17-.38.4-.8.92-1.25,1.46-.75.92-1.6,1.97-2.68,2.97-1.05.98-2.12,1.79-3.08,2.5-.56.42-1.09.82-1.54,1.2-.42.36-.9.82-1.41,1.32-.85.83-1.81,1.78-2.99,2.66-1.21.9-2.4,1.67-3.56,2.41-.46.29-.91.58-1.36.88-.38.25-.76.5-1.13.76-1.22.82-2.48,1.66-3.84,2.46-1.42.83-2.83,1.3-3.97,1.68-.62.21-1.2.4-1.53.57-.49.25-1.05.6-1.65.98-1.01.63-2.14,1.34-3.49,1.94-1.3.58-2.58.99-3.7,1.34-.67.21-1.31.42-1.86.63-.58.22-1.15.45-1.72.69-1.19.49-2.42.99-3.79,1.43-.61.19-1.21.41-1.81.62-1.14.41-2.43.86-3.8,1.22-1.46.38-2.8.52-3.99.64-.69.07-1.35.14-1.86.24-.14.03-.28.06-.42.09,0,.22.01.44.01.68,0,1.72-.1,2.68-.17,3.44-.06.63-.11,1.09-.11,2.18,0,.81.05,1.06.16,1.63.2,1.05.39,2.14.39,3.99,0,1.36,0,2.05.02,2.73,0,.72.02,1.44.02,2.89s-.01,2.18-.02,2.91c-.01.68-.02,1.35-.02,2.71,0,1.7-.09,2.64-.16,3.4-.06.62-.11,1.11-.11,2.22,0,1.45-.01,2.18-.02,2.91-.01.68-.02,1.35-.02,2.71,0,1.57-.04,2.41-.08,3.14-.04.66-.07,1.24-.07,2.47,0,1.56-.04,2.39-.08,3.12-.03.67-.06,1.25-.06,2.5s.03,1.84.06,2.51c.03.73.07,1.55.07,3.1,0,1.18.04,1.73.09,2.36.05.76.12,1.63.12,3.26,0,1.32.02,1.98.04,2.64.02.74.04,1.49.04,2.98s-.02,2.25-.04,2.99c-.02.66-.04,1.31-.04,2.62,0,1.5-.02,2.25-.05,3-.02.65-.04,1.31-.04,2.62,0,1.38,0,2.07.01,2.75,0,.71.01,1.43.01,2.86,0,1.52-.03,2.33-.06,3.05-.03.66-.05,1.28-.05,2.56,0,1.15.04,1.66.09,2.3.06.78.13,1.66.13,3.31,0,1.36,0,2.04.02,2.72,0,.72.02,1.45.02,2.89,0,1.73-.13,2.72-.28,3.74-.09.58-.14.94-.14,1.87,0,1.39,0,2.08,0,2.78,0,.71,0,1.42,0,2.83,0,1.17.04,1.68.09,2.34.06.77.12,1.64.12,3.28,0,1.18.04,1.73.08,2.37.05.76.11,1.62.11,3.24,0,1.8-.13,2.79-.23,3.59-.08.61-.13,1.01-.13,2.02,0,1.06.05,1.51.12,2.13.08.78.19,1.74.19,3.48s-.13,2.79-.23,3.59c-.08.61-.13,1.01-.13,2.02,0,.77.05,1,.16,1.55.22,1.07.42,2.18.42,4.06s-.2,3.01-.43,4.08c-.11.55-.16.77-.16,1.53,0,1.13.04,1.64.1,2.27.07.78.14,1.67.14,3.34,0,1.16.04,1.68.09,2.33.06.77.13,1.64.13,3.28,0,1.33.02,2,.03,2.66.02.74.03,1.48.03,2.95,0,1.2.04,1.76.08,2.41.05.75.1,1.6.1,3.2,0,1.43,0,2.15-.01,2.87,0,.69-.01,1.37-.01,2.75,0,1.93-.19,3.04-.33,3.86-.1.57-.15.88-.15,1.76,0,.93.05,1.28.14,1.87.16,1.02.28,2.01.28,3.74,0,1.37,0,2.06.01,2.74,0,.72.01,1.44.01,2.87,0,1.6-.05,2.46-.1,3.21-.04.65-.08,1.2-.08,2.41,0,1.68-.08,2.57-.15,3.35-.06.63-.1,1.13-.1,2.26,0,1.25.03,1.83.06,2.51.03.73.07,1.55.07,3.11,0,1.24.03,1.82.06,2.49.04.73.08,1.56.08,3.12,0,1.65-.07,2.52-.13,3.29-.05.65-.09,1.16-.09,2.32,0,1.76-.11,2.74-.2,3.52-.07.61-.12,1.05-.12,2.09,0,.78.05,1.03.16,1.57.21,1.06.41,2.17.41,4.04s-.16,3.73-.31,5.47l-.07.79c-.16,1.9-.44,3.94-.84,6.22-.4,2.28-.96,4.47-1.4,6.11-.42,1.58-.99,3.01-1.5,4.26-.22.54-.44,1.08-.63,1.63-.16.43-.3,1.05-.46,1.71-.29,1.23-.65,2.76-1.38,4.33-.69,1.48-1.51,2.8-2.23,3.97-.31.49-.61.99-.9,1.49-.82,1.41-1.74,2.64-2.55,3.73-.35.47-.7.93-1.04,1.41l-.4.57c-1.02,1.46-2.07,2.97-3.33,4.46-1.59,1.9-2.89,3.33-4.2,4.64-.4.39-.78.8-1.17,1.21-.96,1-2.04,2.14-3.3,3.2-1.28,1.07-2.61,1.97-3.79,2.77-.44.3-.88.59-1.31.89-.5.35-.98.72-1.47,1.1-1.06.81-2.26,1.74-3.66,2.55-1.5.87-3,1.36-4.21,1.75-.64.21-1.24.4-1.64.59-.5.24-1.06.53-1.64.84-1.16.62-2.47,1.32-4.01,1.88-.47.17-.95.35-1.42.54-1.35.52-2.87,1.1-4.51,1.54-1.59.43-3.07.56-4.37.67-.68.06-1.33.12-1.85.21-.53.09-1.15.25-1.8.41-1.27.31-2.72.67-4.36.81-1.61.14-3.08.03-4.38-.06-.69-.05-1.33-.09-1.89-.09-1.32,0-1.98.02-2.64.03-.74.02-1.48.04-2.95.04s-2.22-.02-2.96-.04c-.66-.02-1.32-.03-2.64-.03-1.22,0-1.79.03-2.44.07-.74.04-1.57.09-3.15.09-.87,0-1.18.05-1.74.15-.81.14-1.92.33-3.85.33ZM681.16,800.19c1.73,0,2.72.13,3.74.29.58.09.93.14,1.85.14,1.49,0,2.24.02,2.99.05.65.02,1.3.04,2.61.04.87,0,1.18-.05,1.74-.15.81-.14,1.92-.33,3.85-.33,1.22,0,1.79-.03,2.44-.07.74-.04,1.57-.09,3.15-.09,1.48,0,2.22.02,2.96.04.66.02,1.32.03,2.64.03s1.98-.02,2.64-.03c.74-.02,1.48-.04,2.95-.04,1,0,1.94.07,2.77.12.92.07,1.79.13,2.43.07.67-.06,1.53-.27,2.44-.5.79-.2,1.69-.42,2.64-.58,1.04-.18,2.02-.27,2.89-.35.88-.08,1.71-.15,2.27-.3,1.01-.27,2.11-.69,3.27-1.14.54-.21,1.08-.41,1.62-.61.7-.25,1.52-.69,2.39-1.16.71-.38,1.43-.77,2.25-1.15,1.1-.51,2.15-.85,3.07-1.15.71-.23,1.45-.47,1.81-.68.69-.4,1.48-1,2.3-1.64.6-.46,1.22-.94,1.91-1.42.49-.35,1-.69,1.5-1.02,1.01-.68,1.97-1.33,2.74-1.98.73-.61,1.49-1.41,2.3-2.26.46-.48.91-.96,1.38-1.42,1.05-1.05,2.12-2.23,3.47-3.84.9-1.07,1.75-2.29,2.66-3.58l.41-.59c.41-.58.84-1.16,1.27-1.73.66-.89,1.29-1.72,1.74-2.49.35-.61.72-1.21,1.1-1.81.59-.96,1.15-1.86,1.53-2.68.18-.39.36-1.16.54-1.9.22-.93.47-1.99.88-3.12.25-.67.51-1.34.78-2.01.41-1.02.79-1.98,1.02-2.83.4-1.49.85-3.25,1.16-5.05.34-1.92.56-3.6.7-5.14l.07-.82c.14-1.54.27-2.99.27-4.37,0-.78-.05-1.03-.16-1.57-.21-1.06-.41-2.17-.41-4.04,0-1.76.11-2.74.2-3.52.07-.61.12-1.05.12-2.09,0-1.65.07-2.52.13-3.29.05-.65.09-1.16.09-2.32,0-1.25-.03-1.82-.06-2.49-.04-.73-.08-1.56-.08-3.12,0-1.25-.03-1.83-.06-2.51-.03-.73-.07-1.55-.07-3.11,0-1.68.08-2.57.15-3.35.06-.63.1-1.13.1-2.26,0-1.6.05-2.46.1-3.21.04-.65.08-1.2.08-2.41,0-1.37,0-2.06-.01-2.74,0-.72-.01-1.44-.01-2.87,0-.93-.05-1.28-.14-1.87-.16-1.02-.28-2.01-.28-3.74,0-1.93.19-3.04.33-3.86.1-.57.15-.88.15-1.76,0-1.43,0-2.15.01-2.87,0-.69.01-1.37.01-2.75,0-1.21-.04-1.76-.08-2.41-.05-.75-.1-1.6-.1-3.2,0-1.33-.02-2-.03-2.66-.02-.74-.03-1.48-.03-2.95,0-1.16-.04-1.68-.09-2.33-.06-.77-.13-1.64-.13-3.28,0-1.13-.04-1.63-.1-2.27-.07-.78-.14-1.67-.14-3.34,0-1.89.2-3.01.43-4.08.11-.55.16-.77.16-1.53s-.05-1.02-.16-1.55c-.22-1.07-.42-2.18-.42-4.06s.13-2.79.23-3.59c.08-.61.13-1.01.13-2.02,0-1.06-.05-1.51-.12-2.13-.08-.78-.19-1.74-.19-3.48s.13-2.79.23-3.59c.08-.61.13-1.01.13-2.02,0-1.18-.04-1.73-.08-2.37-.05-.76-.11-1.62-.11-3.24,0-1.17-.04-1.68-.09-2.34-.06-.77-.12-1.64-.12-3.28,0-1.39,0-2.08,0-2.78,0-.71,0-1.42,0-2.83,0-1.73.13-2.72.28-3.74.09-.58.14-.94.14-1.87,0-1.36,0-2.04-.02-2.73,0-.72-.02-1.44-.02-2.89,0-1.15-.04-1.66-.09-2.3-.06-.78-.13-1.66-.13-3.31,0-1.52.03-2.34.06-3.05.03-.66.05-1.28.05-2.56,0-1.38,0-2.07-.01-2.75,0-.72-.01-1.43-.01-2.86s.02-2.25.05-3c.02-.65.04-1.31.04-2.62,0-1.5.02-2.25.04-2.99.02-.66.04-1.31.04-2.62s-.02-1.98-.04-2.64c-.02-.74-.04-1.49-.04-2.98,0-1.18-.04-1.73-.09-2.36-.05-.76-.12-1.63-.12-3.26,0-1.26-.03-1.84-.06-2.51-.03-.73-.07-1.55-.07-3.1s.04-2.39.08-3.12c.03-.67.06-1.25.06-2.49,0-1.57.04-2.41.08-3.14.04-.66.07-1.24.07-2.47,0-1.45.01-2.18.02-2.91.01-.68.02-1.35.02-2.71,0-1.7.09-2.64.16-3.4.06-.62.11-1.11.11-2.22,0-1.46.01-2.18.02-2.91.01-.68.02-1.35.02-2.71s0-2.05-.02-2.73c0-.72-.02-1.44-.02-2.89,0-.81-.05-1.06-.16-1.63-.2-1.05-.39-2.14-.39-3.99,0-1.72.1-2.67.17-3.44.06-.63.11-1.09.11-2.18,0-.56-.05-.85-.12-1.31-.26-1.62-.42-3.3.47-6.14l1.17-3.75,3.89-.56c.65-.1,1.4-.3,2.27-.54.81-.23,1.73-.48,2.73-.68,1.1-.22,2.14-.33,3.05-.42.82-.08,1.59-.16,2.13-.3.85-.22,1.77-.55,2.75-.9.73-.26,1.46-.52,2.2-.76.89-.28,1.84-.67,2.84-1.09.67-.27,1.34-.55,2.01-.81.88-.34,1.71-.6,2.52-.86.89-.29,1.74-.55,2.41-.85.56-.25,1.24-.68,1.97-1.13.75-.47,1.6-1,2.55-1.49,1.19-.61,2.36-1,3.29-1.31.61-.2,1.31-.43,1.6-.61,1.03-.6,2.08-1.31,3.18-2.05.4-.27.8-.54,1.2-.8.49-.33,1-.65,1.5-.97,1.03-.66,2-1.28,2.86-1.93.49-.37,1.08-.94,1.69-1.55.63-.62,1.34-1.32,2.16-2,.7-.59,1.38-1.1,2.04-1.59.77-.58,1.5-1.13,2.06-1.65.45-.42.96-1.05,1.5-1.72.56-.69,1.19-1.46,1.93-2.23.84-.87,1.69-1.57,2.44-2.18.6-.49,1.17-.96,1.47-1.31,1.08-1.25,2.18-2.62,3.29-4.07.43-.56.87-1.31,1.35-2.11.42-.71.9-1.52,1.45-2.32.34-.5.7-1.23,1.08-1.99.39-.79.84-1.69,1.39-2.61.58-.97,1.21-1.81,1.76-2.54.49-.66.95-1.27,1.21-1.76.3-.57.62-1.15.94-1.72.56-1.02,1.09-1.98,1.52-2.9.29-.63.56-1.45.84-2.33.26-.79.55-1.69.91-2.61l.39-.99c.55-1.38,1.07-2.69,1.49-3.96.27-.8.48-1.73.7-2.72.18-.77.36-1.57.59-2.41.33-1.21.76-2.26,1.14-3.18.29-.71.57-1.39.67-1.82.12-.55.16-1.34.2-2.17.05-.93.1-1.99.28-3.12.12-.77.26-1.54.41-2.31.2-1.04.38-2.03.47-2.91.07-.75.06-1.65.04-2.61-.01-.85-.03-1.73,0-2.69.05-1.17.2-2.23.34-3.17.12-.81.23-1.58.22-2.11-.02-1.05-.12-2.19-.23-3.39-.06-.63-.11-1.27-.16-1.9-.06-.76-.09-1.52-.12-2.29-.05-1.08-.09-2.11-.21-3.01-.16-1.22-.41-2.49-.67-3.83-.09-.46-.18-.93-.27-1.39-.27-1.46-.65-3.37-1.09-5.19-.3-1.21-.69-2.46-1.1-3.78-.14-.44-.27-.87-.41-1.31-.15-.47-.48-1.14-.84-1.85-.44-.87-.94-1.85-1.35-2.98-.24-.65-.47-1.31-.69-1.97-.37-1.07-.72-2.09-1.11-2.99-.47-1.08-.79-2.12-1.07-3.03-.24-.78-.47-1.51-.71-1.98-.74-1.47-1.58-3.04-2.52-4.67-.65-1.14-1.41-2.29-2.21-3.51l-.63-.97c-.43-.65-1.01-1.37-1.62-2.13-.53-.65-1.07-1.32-1.62-2.06-.43-.59-.85-1.2-1.27-1.8-.63-.91-1.22-1.76-1.82-2.49-.93-1.13-2.16-2.6-3.46-4.01-.36-.39-.72-.79-1.09-1.19-.87-.96-1.7-1.88-2.53-2.68-1.27-1.23-2.58-2.43-3.91-3.58-1.39-1.21-2.87-2.36-4.12-3.33-.47-.36-1.18-.76-1.93-1.18-.79-.45-1.69-.95-2.61-1.58-.64-.44-1.27-.9-1.89-1.35-.86-.63-1.66-1.22-2.43-1.69-.68-.41-1.52-.8-2.41-1.22-.74-.35-1.52-.71-2.32-1.14-1.4-.74-3.05-1.6-4.72-2.37-1-.46-1.89-.97-2.68-1.43-.75-.43-1.45-.83-2.02-1.06h0c-.85-.33-1.69-.7-2.52-1.06-.88-.38-1.72-.75-2.52-1.05-.5-.19-1.21-.35-1.96-.52-1-.23-2.14-.49-3.34-.93-.76-.27-1.6-.53-2.49-.79-.88-.26-1.78-.53-2.73-.86-1.27-.44-2.34-.99-3.29-1.47-.66-.34-1.28-.66-1.72-.8-.8-.26-1.66-.5-2.57-.76-.9-.25-1.8-.5-2.69-.78-.96-.3-1.93-.58-2.9-.86-.79-.23-1.58-.45-2.36-.69-.98-.3-1.89-.62-2.77-.94-.86-.31-1.67-.6-2.43-.82-1.02-.29-2.04-.57-3.07-.84-.74-.2-1.49-.4-2.23-.6l-1.46-.41c-1.28-.36-2.55-.71-3.84-1.05-.89-.24-1.77-.5-2.65-.76-.92-.28-1.79-.54-2.64-.75-.56-.14-1.3-.24-2.09-.34-1-.13-2.14-.28-3.35-.58-1.78-.43-3.56-.87-5.35-1.28-1.01-.24-1.94-.5-2.85-.76-.87-.25-1.7-.48-2.47-.65-1.08-.24-2.06-.53-3.01-.81-.83-.24-1.61-.48-2.31-.62-.74-.16-1.56-.28-2.44-.4-.96-.14-1.95-.28-3-.49-1.05-.21-2.02-.47-2.96-.72-.85-.23-1.66-.44-2.4-.58-.64-.12-1.42-.2-2.24-.28-.97-.09-2.08-.2-3.24-.41-.8-.15-1.65-.26-2.56-.38-.93-.12-1.89-.25-2.89-.43-1.05-.19-2.03-.41-2.97-.64-.86-.2-1.67-.39-2.42-.52-.71-.12-1.53-.2-2.39-.28-.98-.09-2-.19-3.09-.36-.93-.15-1.85-.32-2.77-.5-.93-.18-1.81-.34-2.66-.47-.78-.12-1.62-.2-2.52-.29-.95-.09-1.93-.18-2.96-.33-1.1-.16-2.11-.37-3.08-.58-.84-.18-1.64-.35-2.35-.45-.92-.13-1.84-.22-2.76-.32-.91-.1-1.82-.2-2.72-.31-.79-.1-1.64-.17-2.55-.24-.95-.07-1.92-.15-2.95-.27-1.13-.14-2.2-.35-3.15-.54-.83-.17-1.62-.32-2.3-.4-1.07-.12-2.06-.3-3.03-.46-.87-.15-1.69-.29-2.43-.37-.94-.1-1.87-.23-2.8-.36-.89-.12-1.79-.25-2.68-.34-.91-.09-1.82-.16-2.72-.22-.93-.07-1.86-.13-2.78-.22-.62-.06-1.38-.05-2.2-.05-1,0-2.13.02-3.34-.09-1.34-.12-2.52-.39-3.56-.63-.73-.17-1.41-.32-1.9-.36-.54-.05-1.27-.01-2.04.02-1.04.05-2.22.1-3.51,0-1.01-.08-1.98-.19-2.91-.3-.91-.1-1.77-.2-2.59-.26-1.07-.08-2.08-.2-3.05-.33-.87-.11-1.7-.22-2.45-.27-.82-.05-1.68-.07-2.59-.09-.94-.02-1.92-.04-2.94-.1l-2.16-.14c-1.13-.07-2.25-.15-3.36-.21-1.08-.06-2.09-.17-3.07-.28-.87-.1-1.69-.19-2.44-.23-.71-.04-1.52-.01-2.38.01-1,.03-2.04.06-3.16,0-1.86-.08-3.7-.16-5.53-.23-.59-.02-1.35.03-2.14.09-1.01.07-2.16.16-3.4.12-1.29-.04-2.46-.22-3.49-.37-.76-.11-1.48-.22-2.02-.24-1.18-.03-2.36-.06-3.52-.08l-2.01-.04c-.88-.02-1.76-.05-2.64-.08-.97-.03-1.93-.07-2.89-.09-.73-.01-1.55.03-2.41.08-.99.06-2.02.12-3.12.1-.79,0-1.63.03-2.52.07-.96.04-1.95.09-3.01.08-1.85-.01-3.68-.02-5.47-.03-1.24,0-2.36-.1-3.34-.18-.82-.07-1.6-.16-2.24-.13-1.2.02-2.38-.1-3.38-.19-.79-.07-1.54-.15-2.14-.14-.97,0-1.93.04-2.87.07-.9.03-1.78.06-2.65.07-.73,0-1.55.08-2.42.15-1,.08-2.03.17-3.15.19-.67.01-1.45.1-2.28.19-.98.11-2.1.23-3.28.25-1.09.02-2.1,0-3.09-.04-.89-.03-1.72-.06-2.49-.03-1.1.03-2.13,0-3.12-.03-.88-.03-1.71-.05-2.46-.03-.91.03-1.82.05-2.72.06-.95.02-1.9.03-2.85.07-.94.04-1.87.05-2.81.07-.92.01-1.84.03-2.76.07-.93.04-1.86.1-2.79.17-.92.06-1.85.13-2.77.17l-1.8.08c-1.26.06-2.51.12-3.77.18-2.06.11-3.96,0-5.58.1-.71.04-1.52.15-2.37.27-.96.13-2.04.28-3.18.35-.73.05-1.54.16-2.4.27-.99.13-2.02.27-3.14.35-1.28.09-2.46.03-3.5-.02-.78-.04-1.53-.07-2.09-.03-.5.04-1.2.19-1.93.35-1.05.23-2.24.49-3.59.6-1.3.1-2.49.05-3.54,0-.77-.03-1.51-.06-2.05-.02-.5.04-1.2.2-1.94.37-1.04.24-2.23.51-3.57.63-1.34.12-2.55.07-3.62.02-.76-.03-1.47-.06-1.97-.02-.91.09-1.82.2-2.73.32-.94.12-1.87.24-2.81.33-.71.07-1.51.21-2.36.36-.99.18-2.02.36-3.15.48-1.09.12-2.12.16-3.11.21-.88.04-1.7.08-2.45.16-.85.1-1.71.18-2.56.27-1,.1-1.99.2-2.98.32-.82.1-1.68.24-2.6.39-.93.15-1.9.31-2.91.43-.91.11-1.81.25-2.71.4-.93.15-1.87.29-2.8.41-.83.11-1.69.26-2.61.42-.93.16-1.89.33-2.89.46-.8.11-1.6.21-2.39.31-1.04.13-2.08.27-3.12.41-1.44.2-2.77.17-3.84.14-.67-.02-1.37-.04-1.76.02-.8.12-1.64.29-2.53.47-.94.19-1.91.39-2.94.54-1.01.16-2.01.33-3.02.5-.83.14-1.65.28-2.48.41-1.84.29-3.67.59-5.49.9-.62.1-1.37.31-2.15.53-.97.27-2.07.57-3.27.78-1.22.21-2.36.3-3.37.37-.81.06-1.57.11-2.17.22-.71.13-1.5.34-2.33.56-.97.26-1.98.52-3.08.73-1.59.3-3.18.61-4.76.92l-.69.13c-1.05.21-2.04.35-3,.49-.89.13-1.72.25-2.48.4-.9.18-1.81.35-2.71.51-.92.17-1.84.33-2.75.53-.87.18-1.76.41-2.7.64-.9.23-1.8.45-2.7.65-.72.16-1.52.4-2.36.65-.95.28-1.93.58-3,.82-.94.22-1.88.4-2.81.58-.93.18-1.8.35-2.62.54-.9.22-1.8.41-2.71.6-.91.19-1.82.38-2.71.61-.99.25-1.97.51-2.94.78-.8.22-1.61.44-2.41.65-1.15.3-2.25.48-3.21.65-.82.14-1.6.27-2.23.44-.75.2-1.5.4-2.25.59-1.04.27-2.08.54-3.11.83-.65.18-1.4.47-2.19.78-.9.35-1.93.74-3.04,1.07-1.09.32-2.14.55-3.08.75-.84.18-1.64.35-2.3.56-.4.12-1.01.43-1.65.75-.98.5-2.1,1.06-3.44,1.49-1.16.37-2.27.61-3.25.82-.79.17-1.54.33-2.12.52-1.08.36-2.13.62-3.05.86-.83.21-1.62.41-2.27.64-.45.16-1.1.52-1.78.91-.86.48-1.83,1.03-2.97,1.5-1.02.42-2,.73-2.87,1-.82.26-1.6.5-2.14.76-.51.24-1.16.69-1.85,1.16-.77.53-1.64,1.12-2.64,1.67-1.14.63-2.23,1.04-3.19,1.4-.67.25-1.36.51-1.7.73-.29.18-.82.7-1.28,1.15-.72.71-1.62,1.58-2.73,2.37-1.3.92-2.57,1.92-3.91,2.99l-.27.21c-1.04.83-2.07,1.42-2.97,1.94-.6.35-1.23.71-1.51.95-.33.29-.77.86-1.23,1.47-.61.8-1.31,1.7-2.2,2.59-.68.67-1.34,1.26-1.97,1.83-.71.63-1.38,1.23-1.88,1.79-.55.61-1.11,1.2-1.68,1.79-.72.74-1.39,1.44-1.92,2.1-.55.69-1.1,1.52-1.68,2.4-.44.66-.88,1.32-1.33,1.97-.31.44-.62.87-.94,1.3-.77,1.05-1.49,2.05-2.11,3.03-.33.53-.67,1.28-1.03,2.08-.37.81-.78,1.74-1.31,2.68-.35.63-.72,1.26-1.09,1.88-.56.96-1.09,1.86-1.51,2.72-.36.74-.68,1.62-1.03,2.56-.28.76-.56,1.54-.91,2.36l-.04.09c-.69,1.66-1.35,3.23-1.91,4.81-.44,1.25-.99,2.29-1.47,3.2-.33.62-.67,1.26-.78,1.63-.2.7-.35,1.57-.51,2.5-.14.82-.3,1.75-.52,2.71-.19.8-.4,1.6-.62,2.39-.27.99-.53,1.92-.67,2.75-.14.82-.21,1.78-.29,2.79-.06.8-.12,1.62-.22,2.49-.24,2.05-.39,3.72-.48,5.27-.07,1.21-.07,2.49-.06,3.85,0,.48,0,.96,0,1.43v.97c-.01,1.51-.02,2.94.06,4.32l.07,1.34c.07,1.38.13,2.69.27,3.94.07.61.27,1.4.49,2.24.22.87.48,1.86.66,2.93.2,1.17.26,2.25.31,3.21.05.81.09,1.57.2,2.08.11.49.4,1.18.7,1.92.37.9.79,1.91,1.12,3.07.44,1.52.96,3.17,1.61,5.03.45,1.3.67,2.55.85,3.55.11.64.24,1.37.37,1.68.35.85.82,1.76,1.32,2.72.36.69.71,1.37,1.04,2.07.24.49.68,1.13,1.15,1.81.54.78,1.15,1.66,1.72,2.68.47.85.87,1.7,1.22,2.44.41.86.79,1.66,1.18,2.29.41.65.79,1.31,1.18,1.97.55.94,1.06,1.82,1.59,2.57.35.49.91,1.08,1.51,1.7.63.66,1.35,1.41,2.04,2.27.41.51.8,1.03,1.2,1.54.73.94,1.41,1.83,2.1,2.61.6.67,1.13,1.33,1.65,1.96.63.78,1.23,1.51,1.8,2.08l.44.44c1.16,1.16,2.26,2.26,3.38,3.26.35.31.98.69,1.65,1.1.85.52,1.81,1.1,2.79,1.88.77.61,1.47,1.25,2.09,1.8.7.63,1.36,1.22,1.95,1.64.45.32.89.64,1.34.96,1.05.76,2.04,1.48,3.02,2.09.94.59,1.98,1.14,3.08,1.73.53.28,1.05.56,1.57.85.99.55,2.08,1.05,3.23,1.59.52.24,1.03.48,1.55.73.87.42,1.86.8,2.91,1.2.67.26,1.34.52,2.01.79.95.39,1.82.82,2.59,1.21.82.41,1.59.79,2.25,1.02,1.48.51,3.09,1.02,5.07,1.59.68.2,1.37.41,2.05.62,1.08.34,2.1.66,3.06.87.72.16,1.69.27,2.73.38.92.1,1.86.2,2.83.36l3.76.63,1.14,3.64c1.12,3.55.26,5.88-.19,7.13-.05.13-.11.3-.12.36,0,0,0,.03,0,.09,0,.71.04.91.16,1.43.25,1.1.47,2.25.47,4.19,0,1.45-.01,2.18-.02,2.9-.01.68-.02,1.36-.02,2.72,0,1.89-.2,3-.42,4.07-.11.55-.16.78-.16,1.55,0,1.08.05,1.53.11,2.16.08.77.18,1.73.18,3.47,0,1.03.05,1.46.13,2.06.1.79.21,1.78.21,3.56,0,1.48-.02,2.23-.04,2.97-.02.66-.03,1.33-.03,2.65v5.62c0,1.76-.12,2.73-.2,3.51-.07.61-.12,1.05-.12,2.11,0,1.58-.05,2.42-.09,3.16-.04.66-.07,1.23-.07,2.46,0,1.42,0,2.12,0,2.83,0,.7,0,1.4,0,2.79,0,1.18.04,1.7.09,2.35.06.77.12,1.63.12,3.27,0,1.76-.11,2.73-.2,3.52-.07.61-.12,1.05-.12,2.1,0,.63.03.76.17,1.28.28,1.09.55,2.33.55,4.34s-.21,3.05-.45,4.14c-.12.54-.16.75-.16,1.48,0,.86.05,1.17.15,1.72.14.82.34,1.94.34,3.89s-.21,3.11-.36,3.94c-.1.56-.16.84-.16,1.68,0,.98.05,1.37.14,1.96.11.82.25,1.83.25,3.66s-.14,2.85-.25,3.66c-.08.59-.14.98-.14,1.96,0,1.19.04,1.74.08,2.38.05.76.11,1.62.11,3.24,0,1.36,0,2.05.02,2.73,0,.72.02,1.45.02,2.89s-.03,2.29-.05,3.03c-.02.65-.05,1.3-.05,2.59,0,1.48-.02,2.22-.03,2.96-.02.67-.03,1.33-.03,2.66,0,1.61-.06,2.46-.11,3.22-.04.64-.08,1.2-.08,2.4,0,.79.05,1.05.16,1.6.21,1.06.4,2.16.4,4.02,0,1.25.03,1.82.06,2.49.04.73.08,1.56.08,3.13,0,1.87-.19,2.98-.4,4.04-.11.55-.16.8-.16,1.58s.05.98.16,1.52c.23,1.08.43,2.2.43,4.1,0,1.74-.13,2.73-.29,3.76-.09.58-.14.93-.14,1.86,0,1.66-.07,2.55-.14,3.33-.05.64-.1,1.15-.1,2.3,0,.9.05,1.23.15,1.81.13.8.31,1.9.31,3.81s-.17,2.99-.3,3.78c-.09.58-.15.92-.15,1.84,0,1.4,0,2.09,0,2.79,0,.71,0,1.42,0,2.83,0,1.31.02,1.97.04,2.63.02.75.04,1.5.04,2.99,0,.91.06,1.25.15,1.82.13.8.31,1.9.31,3.81s-.17,3-.3,3.79c-.09.57-.15.92-.15,1.83,0,1.38,0,2.07.01,2.76,0,.72.01,1.43.01,2.87,0,.84.05,1.13.16,1.7.15.83.36,1.96.36,3.93,0,1.56-.04,2.39-.08,3.13-.03.67-.06,1.25-.06,2.5,0,1.58-.05,2.41-.08,3.15-.04.66-.07,1.24-.07,2.48,0,1.37,0,2.05.02,2.74,0,.72.02,1.45.02,2.89,0,1.32.02,1.98.04,2.64.02.75.04,1.5.04,2.99,0,.77-.03,1.55-.06,2.32-.04,1.06-.08,2.06,0,2.88.16,1.84.31,3.57.59,5.16.34,1.96.7,3.62,1.09,5.08.31,1.15.76,2.37,1.25,3.67.15.41.31.83.46,1.24.28.77.74,1.65,1.22,2.58.36.69.72,1.38,1.05,2.09.75,1.61,1.5,3.18,2.32,4.61.55.95,1.26,1.93,2,2.97.31.43.62.86.92,1.29.37.53.73,1.06,1.08,1.59.65.97,1.27,1.89,1.89,2.64.65.77,1.21,1.55,1.7,2.23.54.75,1.04,1.45,1.49,1.9.61.61,1.43,1.26,2.3,1.93.58.45,1.16.91,1.72,1.38,1.14.96,2.46,1.95,4.13,3.13l.68.48c1.26.89,2.46,1.73,3.63,2.41,1.84,1.06,3.25,1.81,4.59,2.44l.82.38c1.38.65,2.68,1.26,3.94,1.72,1.57.57,3.3,1.03,4.98,1.48.4.11,1.18.15,1.92.19.97.05,2.06.11,3.26.32,1.1.19,2.09.47,2.96.72.81.23,1.58.44,2.1.49.68.06,1.58,0,2.53-.06.8-.05,1.71-.11,2.67-.11,1.32,0,1.98-.02,2.64-.03.74-.02,1.47-.03,2.94-.03,1.76,0,2.74.12,3.52.21.6.07,1.03.12,2.06.12,1.26,0,1.84-.03,2.52-.06.72-.03,1.53-.07,3.07-.07,1.81,0,2.81.13,3.62.24.59.08.98.13,1.97.13,1.03,0,1.46-.05,2.06-.12.78-.09,1.76-.21,3.52-.21s2.64.09,3.4.17c.61.06,1.09.11,2.19.11.79,0,1.04-.05,1.6-.16,1.05-.21,2.14-.39,3.99-.39,1.37,0,2.06,0,2.75-.01.71,0,1.42-.01,2.84-.01,1.71,0,2.65.1,3.41.17.63.06,1.09.11,2.17.11,1.72,0,2.68.1,3.44.18.62.07,1.07.11,2.14.11s1.48-.05,2.09-.12c.78-.09,1.75-.2,3.5-.2,1.48,0,2.22.02,2.95.04.66.02,1.32.03,2.63.03,1.71,0,2.65.09,3.41.17.63.06,1.09.11,2.18.11.92,0,1.27-.05,1.85-.14,1.02-.16,2.01-.29,3.74-.29s2.52.07,3.3.13c.64.05,1.14.09,2.29.09,1.73,0,2.69.1,3.46.19.62.07,1.06.11,2.12.11s1.58-.05,2.2-.11c.75-.07,1.69-.16,3.39-.16,1.49,0,2.24.02,2.99.05.65.02,1.3.04,2.6.04,1.45,0,2.17.01,2.89.02.67.01,1.35.02,2.69.02.75,0,.97-.05,1.51-.16,1.07-.23,2.19-.43,4.08-.43,1.38,0,2.07,0,2.77,0,.71,0,1.41,0,2.82,0s2.15,0,2.86.02c.68,0,1.36.02,2.73.02,1.46,0,2.19.02,2.92.03.67.01,1.33.03,2.66.03,1.93,0,3.03.19,3.84.33.56.1.88.15,1.74.15.79,0,1.05-.05,1.6-.16,1.05-.2,2.14-.39,3.99-.39,1.59,0,2.44.05,3.19.1.64.04,1.2.08,2.4.08,1.77,0,2.75.12,3.53.21.6.07,1.03.12,2.05.12,1.54,0,2.36.04,3.09.07.67.03,1.25.06,2.5.06s1.95-.02,2.6-.04c.75-.02,1.49-.05,2.99-.05,1.33,0,1.99-.01,2.66-.03.73-.02,1.46-.03,2.93-.03s2.23.02,2.97.04c.65.02,1.31.04,2.62.04,1.45,0,2.18.01,2.9.03.67.01,1.34.02,2.69.02,1.09,0,1.54-.05,2.17-.11.76-.08,1.71-.17,3.41-.17s2.78.13,3.58.23c.61.08,1.01.13,2.01.13.7,0,.88-.04,1.41-.16,1.1-.25,2.24-.47,4.18-.47,1.69,0,2.63.09,3.38.16.62.06,1.1.1,2.2.1,1.5,0,2.27.03,3.01.05.64.02,1.29.04,2.58.04,1.44,0,2.15,0,2.87.02.68,0,1.36.02,2.71.02s2.03,0,2.71-.02c.72,0,1.44-.02,2.87-.02,1.58,0,2.42.05,3.16.09.65.04,1.21.07,2.42.07,1.45,0,2.17.01,2.89.02.67.01,1.35.02,2.7.02,1.22,0,1.78-.03,2.44-.07.74-.04,1.57-.09,3.15-.09.89,0,1.2-.05,1.78-.15.8-.13,1.9-.31,3.81-.31,1.61,0,2.47.06,3.22.11.63.04,1.18.08,2.37.08,1.25,0,1.82-.03,2.49-.06.73-.03,1.55-.07,3.09-.07,1.29,0,1.94-.02,2.59-.04.75-.02,1.5-.05,3-.05,2.02,0,3.25.27,4.35.56.51.13.63.16,1.24.16,1.08,0,1.53-.05,2.16-.11.76-.08,1.71-.17,3.43-.17,1.12,0,1.61-.04,2.23-.1.79-.07,1.68-.15,3.35-.15,1.55,0,2.37.04,3.09.07.67.03,1.25.06,2.5.06,1.07,0,1.52-.05,2.14-.11.77-.08,1.72-.18,3.45-.18,1.96,0,3.09.21,3.92.36.56.1.84.15,1.67.15,1.54,0,2.36.04,3.08.07.67.03,1.25.06,2.51.06.82,0,1.09-.05,1.65-.16.83-.16,1.97-.37,3.94-.37,1.48,0,2.22.02,2.96.04.66.02,1.31.03,2.63.03,1.82,0,2.82.14,3.63.24.59.08.98.13,1.96.13s1.46-.05,2.06-.12c.79-.09,1.77-.21,3.53-.21Z"/>
  <path class="cls-1" d="M396.95,570.31c-3.86,5.5,9.31,9.38,12.48,10.41,20.91,6.74,55.55,8.35,60.22,37,2.4,14.75-1.3,24.78-11.7,34.25-19.64,17.89-47.43,19.87-72.36,18.31-6.18-.39-28.39-3.69-31.65-9.14-2.41-4.02-1.26-14.56-1.56-19.81-.17-2.83-1.26-5.14-1.23-8.33.08-10.03,5.34-8.81,12.74-7.87,16.5,2.09,34.62,13.04,51.39,6.69,14.71-5.58-1.39-10.41-7.66-12.11-24.75-6.7-80.75-17.42-61.5-58.43,16.79-35.77,66.63-37.38,98.12-26.26,6.71,2.37,9.78,3.59,11.5,11.66,1.24,5.83,1.5,17.98,1.08,24.08-.18,2.61-.72,4.2-3.32,4.8-5.9,1.34-21.05-5.82-27.98-7.45-6.33-1.49-24.38-3.72-28.57,2.23Z"/>
  <path class="cls-1" d="M699.06,475.98c-2.11-2.33-2.36-8.4-3.37-11.53-2.67-8.21-4.92-5.92-11.6-6.98-5.64-.89-11.27-1.96-17.07-2.07-2.02-.04-7.9,0-9.43.52-6.44,2.15-4.8,16.94-14.6,17.78-11.84-1.46-25.56-.28-36.84-4.47-1.55-.58-4.54-1.54-4.9-3.33-.89-4.34,3.65-13.81,5.57-18,10.67-23.31,24.54-46.69,36.18-69.66,4.97-9.8,9.56-22.3,14.72-31.37,2.03-3.56,4.82-5.85,8.61-6.88,5.1-1.39,24.19.22,29.96,1.3,3.02.57,8.38,3.03,10.12,5.73l40.68,129.82c-.31,3.07-2,3.92-4.7,4.11-11.79-1.44-24.49-.06-36.17-2.06-1.94-.33-5.83-1.45-7.15-2.91ZM672.23,422.17c1.68.65,8.11.64,10.51.83.1,0,1.67-.6,1.73-.98-1.13-4.8-1.35-9.84-2.37-14.65-.38-1.78-1.39-8.4-3.45-8.55l-7.74,20.28c-.46.9.65,2.82,1.31,3.08Z"/>
  <path class="cls-1" d="M526.29,329.65c29.6-2.8,60.68,15.28,68.11,46.91,10.7,45.6-2.64,90.12-51.18,96.25-35.08,4.43-65.78-11.57-73.72-49.76-9-43.33,12.3-89.2,56.78-93.4ZM528.88,381.36c-6.38,1.39-14.64,14.64-14.99,21.2-.47,8.89,6.96,15.87,14.51,18.16,5.96,1.81,10.93,2.66,15.75-2.18,13.1-13.18,6.37-41.91-15.27-37.18Z"/>
  <path class="cls-1" d="M325.41,370.54c1.29-1.7,3.76-2.58,5.73-3,11.6-2.44,25.81-.47,37.43-3.37,26.28-2.5,52.22-7.52,78.66-8.51,2.4.22,3.73,3.06,4.54,5.1,1.94,4.85,3.71,19.84,3.67,25.3-.02,2.8-.77,5.03-3.31,6.02-9.56,3.71-19.97,1.37-29.74,3.63-2.91.67-5.38,1.43-6.24,4.77l8.96,87.37c.13,4.94-.47,7.52-5.41,8.65-7.73,1.77-18.9,3.25-26.82,3.65-2.68.14-10.22.33-12.44-.24-2.6-.66-3.65-6.32-4.1-8.86-3.58-20.54-2.93-42.71-5.99-63.42l-3.8-21.93c-.77-1.95-4.72-2.49-6.51-2.51-5.73-.09-11.43,1.23-16.95,1.79-8.04.83-15.47,3.94-17.66-6.91-1.08-5.38-3.14-23.47-.04-27.54Z"/>
  <path class="cls-1" d="M601.87,555.8c-.94.6-7.24.87-8.79.82-7.49-.23-14.74-2.78-22.27-2.8-5.07-.01-7.19.24-8.19,5.86-4.29,24.13-3.66,52.55-6.97,77.38-.39,2.96-1.1,8.38-1.73,11-1.44,5.95-9.04,3.47-13.17,3.39-6.56-.14-13.21-.13-19.79-1.13-2.76-.42-9.39-1.51-11.61-2.57-2.53-1.2-3.02-4.21-3.06-6.91-.33-23.83,5.95-52.74,7.06-77.34.1-2.14.3-10.04-.09-11.4-1.1-3.83-10.9-3.9-14.06-4.3-1.27-.16-2.5-.97-3.88-1.12-6.87-.71-20.55,2.72-20.73-8.55-.08-4.98,1.08-17.27,2.18-22.09,1.21-5.29,3.61-8.01,8.84-8.14,11.81-.3,25.99,4.88,37.99,4.22,23.86,2.76,47.92,2.58,71.58,6.72,2.25.39,5.2.09,7.2.7,3.49,1.06,3.82,10.07,3.76,13.34-.08,4.31-1.04,20.85-4.26,22.91Z"/>
  <path class="cls-1" d="M723.04,582.49c-.57.69-2.2,1.47-3.05,1.81-6.3,2.49-24.31,1.34-31.95,1.22-5.79-.09-14-3.53-16.78,4.84-1.7,5.09-1.44,11.31,4.33,11.89,10.7,1.08,22.85-.93,33.67-.06,10.92.88,10.52,5.57,10.24,16.4-.08,2.98-.48,10.02-1.2,12.59-1.07,3.79-3.77,5.55-7.16,5.92-11.78,1.28-25.38-1.04-37.36-.02-4.66,1-5.85,13.51-.62,14.6,13.9,2.91,31.37-1.05,45.44.69,3.5.44,5.36,2.82,5.85,6.7.58,4.61.41,18.98-.99,23.16-1.16,3.47-3,4.01-6.09,4.33-15.4,1.61-35.89.05-51.66,0-9.67-.03-26.64,1.76-35.33-.92-5.28-1.63-5.75-7.23-6.11-12.68-2.47-37.12,1.93-77.6-.01-115.07-.29-3.6,3.35-5.38,6-5.82,6.65-1.1,13.79-.49,20.48-.76,19.82-.8,43.18-2.15,62.9-.72,5.07.37,9.59,0,10.24,6.65.52,5.33,1.15,15.82.64,20.92-.13,1.27-.71,3.39-1.46,4.3Z"/>
  <path class="cls-1" d="M664.05,537.74c6.96-.51,44.36-3.09,49.86-6.27.74-.43,2.15-1.4,2.6-2.18.6-1.03.92-3.35.92-4.7-.02-5.48-1.58-16.61-2.56-22.25-1.23-7.04-5.3-6.27-9.95-6.24-18.07.11-39.2,3.49-57.17,6-6.07.85-12.62.79-18.56,2.52-2.37.69-5.51,2.89-4.91,6.71l2.46,20.73c.61,5.12,5.89,8.75,11.88,8.17l25.44-2.48Z"/>
  <g id="yAEPha.tif">
    <g>
      <g>
        <path class="cls-1" d="M387.41,722.74c2.75,2.72,4.66,7.01,2.99,10.78-.81,1.84-3.84,3.66-2.43,5.66,1.7,2.4,3.44,2.83,4.36,6.35,2.93,11.15-8.75,16.96-18.06,17.55-5.01.32-12.42.33-17.42,0-2.81-.18-4.18-.47-4.18-3.7,0-.51.25-.98.25-1.43.04-9.39.25-18.89.49-28.28.06-2.29-.53-9.46.93-10.9.86-.85,7.5-2.33,8.98-2.51,7.37-.92,18.63,1.09,24.08,6.47ZM373.13,734.24c1.21-1.15.9-3.96-.43-5.04-.6-.49-2.41-1.22-3.1-.74-.65.45-.8,3.99-.33,4.87.52.96,3.08,1.64,3.86.91ZM369.22,748.96c1.64,1.64,5.32.13,5.03-2.33-.26-2.22-3.35-3.54-5.24-2.82-.76,1.27-.83,4.12.21,5.15Z"/>
        <path class="cls-1" d="M403.65,716.54c3.72-.21,7.4.3,11.12.18,1.54.29,1.71,1.61,1.81,2.95.55,7.05-.44,14.77,0,21.89-.89,6.14.24,13.43-.48,19.49-.09.76-.43,1.36-1.13,1.73-4.24-.21-9.1.47-13.27.02-1.68-.18-2.36-.34-2.66-2.1-.21-1.21-.3-3.34-.35-4.64-.52-12.59.23-25.17.02-37.79.3-1.94,3.32-1.64,4.94-1.73Z"/>
        <g>
          <path class="cls-1" d="M443.51,725.27c3.11-1.4,4-6.8,7.14-7.73,4.28-1.27,9.11-.15,13.47.12,1.64.1,5.04-.36,6.29.38,2.1,1.24-1.49,4.32-2.36,5.45-2.58,3.4-5.67,7.08-8.07,10.5-2.1,3-1.84,3.54-.93,7.02,1.07,4.07,3.39,9.53,5.06,13.49.9,2.13,3.6,5.93,2.93,8.16-.21.69-1.11.83-1.73.89-3.19.29-8.19.15-11.46,0-.85-.04-3.31-.16-3.93-.36-2.71-.83-2.47-7.64-4.63-9.36-3.14,1.52-2.11,4.97-2.85,7.57-.43,1.49-2.37,1.56-3.82,1.66-2.97.22-7.76.09-10.73-.25-3.67-.41-2.69-5.55-2.73-8.21-.12-7.24-.03-14.56,0-21.85.02-4.07-.59-8.98-.26-12.86.09-1.05.35-2.44,1.47-2.81.61-.2,2.65-.35,3.42-.39,2.68-.15,6.4-.19,9.06-.01.64.04,2.21.19,2.74.35,2.48.75.69,6.4,1.9,8.21Z"/>
          <path class="cls-1" d="M485.64,716.78c7.26-.22,16.13-.55,23.3-.08,2.6.17,3.9.11,4.16,2.99.13,1.44.28,4.05.26,5.46-.04,2.49-1.41,3.26-3.71,3.46-4.66.4-9.79-.33-14.48-.18-2.68-.07-3.69,5.27-1.2,5.83,4.46.38,9.36-.34,13.77.05,2.39.21,3.61.86,3.67,3.47.01.46-.22.9-.23,1.39-.02,2.94.65,6.69-3.2,7.03-4.56.4-9.68-.32-14.3,0-1.7.32-1.9,4.67-.24,4.98,5.19.98,11.83-.26,17.17.23,1.93.18,2.53,1.11,2.73,2.98.14,1.28-.11,4.56-.24,5.94-.16,1.61-.8,2.59-2.49,2.75-5.9.54-13.73.02-19.78,0-3.7-.01-10.48.61-13.77-.31-2.72-.77-1.97-4.25-2.09-6.47-.69-12.34-.02-24.88-.18-37.27.12-1.09,1.03-1.61,2.03-1.78,2.57-.44,6.15-.38,8.83-.46Z"/>
        </g>
      </g>
      <g>
        <g>
          <path class="cls-1" d="M629.09,722.02c4.89,4.79,6.21,10.93,6.53,17.62.95,19.69-15.35,28.43-33.08,23.01-14.64-4.47-17.12-24.53-10.35-36.36,7.45-13.01,26.43-14.54,36.9-4.27ZM616.93,734.63c-2.69-2.93-7.06-2.22-9.41.79-3.89,4.99-2.22,9.87,4,11.15,1.74.36,2.73.47,4.18-.61,3.24-2.39,3.95-8.37,1.23-11.33Z"/>
          <path class="cls-1" d="M558.1,716.07c7.43-.17,21.34,1.97,25.35,9.04,2.75,4.84,2.85,11.48.06,16.31-3.41,5.9-7.17,6.88-13.6,7.83-1.69.25-5.22,0-6.29,1.33-1.49,1.86-.3,6.4-.48,8.8-.16,2.24-.3,3.11-2.56,3.63-2.27.52-9.85.35-12.27,0-1.01-.15-1.79-.39-2.14-1.43-.35-1.03-.59-3.64-.66-4.81-.69-12.1.47-24.86.05-37.03.51-2.82,4.44-2.96,6.77-3.23,1.82-.21,3.94-.39,5.76-.44ZM563.39,729.67v9.03c0,.09.48.5.65.55.77.22,2.48-.57,3.15-1.05,2.56-1.82,2.1-5.76-.22-7.6-.54-.43-3.26-1.98-3.58-.95Z"/>
        </g>
        <g>
          <path class="cls-1" d="M701.58,715.36c14.24-1.26,24.18,7.85,25.55,21.68,1.97,19.88-11.29,30.47-30.55,26.19-23.9-5.31-21.09-45.56,5-47.88ZM708.7,734.62c-2.64-2.97-7.27-2.15-9.55.88-3.77,5.01-1.93,9.8,4.14,11.05,1.74.36,2.73.46,4.18-.61,3.23-2.38,3.91-8.32,1.23-11.33Z"/>
          <path class="cls-1" d="M644.85,716.78c2.74-.33,9.36-.38,12.09-.07,3.34.38,2.27,3.63,2.25,5.81-.07,7.35-.32,15.57,0,22.84.04.84.2,3.8.43,4.33.48,1.13,3.32,1.4,4.47,1.48,4.02.29,8.39-.29,12.4,0,2.17.15,3.48.27,3.69,2.73.14,1.6.17,6.4-.36,7.74-.94,2.37-6.31,1.2-8.33,1.17-8.4-.11-18.1.98-26.24.26-1.81-.16-2.85-.96-3.15-2.8-.16-.95-.25-2.71-.3-3.74-.61-12.42.48-25.34,0-37.81-.02-1.5,1.84-1.81,3.05-1.95Z"/>
        </g>
      </g>
    </g>
  </g>
</svg>