<?xml version="1.0" encoding="UTF-8"?>
<svg id="Calque_1" data-name="Calque 1" xmlns="http://www.w3.org/2000/svg" viewBox="0 0 1080 1080">
  <defs>
    <style>
      .cls-1 {
        fill: #efca52;
      }

      .cls-2 {
        fill: #232115;
      }

      .cls-3 {
        fill: #2d2218;
      }
    </style>
  </defs>
  <g>
    <circle class="cls-1" cx="540" cy="540" r="285.67"/>
    <path class="cls-2" d="M540,254.33c157.77,0,285.67,127.9,285.67,285.67s-127.9,285.67-285.67,285.67-285.67-127.9-285.67-285.67,127.9-285.67,285.67-285.67M540,245.33c-39.78,0-78.37,7.79-114.7,23.16-35.09,14.84-66.6,36.09-93.66,63.15-27.06,27.06-48.31,58.57-63.15,93.66-15.37,36.33-23.16,74.93-23.16,114.7s7.79,78.37,23.16,114.7c14.84,35.09,36.09,66.6,63.15,93.66,27.06,27.06,58.57,48.31,93.66,63.15,36.33,15.37,74.93,23.16,114.7,23.16s78.37-7.79,114.7-23.16c35.09-14.84,66.6-36.09,93.66-63.15,27.06-27.06,48.31-58.57,63.15-93.66,15.37-36.33,23.16-74.93,23.16-114.7s-7.79-78.37-23.16-114.7c-14.84-35.09-36.09-66.6-63.15-93.66-27.06-27.06-58.57-48.31-93.66-63.15-36.33-15.37-74.93-23.16-114.7-23.16h0Z"/>
  </g>
  <g>
    <path class="cls-3" d="M411.37,606.94c-3.53,5.02,8.49,8.56,11.39,9.49,19.07,6.15,50.67,7.62,54.93,33.75,2.19,13.45-1.19,22.6-10.67,31.24-17.92,16.32-43.26,18.13-66.01,16.7-5.64-.35-25.89-3.37-28.87-8.33-2.2-3.67-1.14-13.28-1.43-18.07-.15-2.58-1.15-4.68-1.12-7.6.08-9.15,4.87-8.04,11.62-7.18,15.05,1.91,31.58,11.9,46.87,6.1,13.42-5.09-1.27-9.5-6.99-11.05-22.57-6.11-73.66-15.89-56.1-53.3,15.31-32.63,60.78-34.1,89.51-23.96,6.12,2.16,8.92,3.27,10.49,10.64,1.13,5.32,1.37,16.4.99,21.96-.16,2.38-.65,3.84-3.03,4.38-5.38,1.22-19.2-5.31-25.53-6.8-5.78-1.36-22.24-3.4-26.06,2.03Z"/>
    <path class="cls-3" d="M690.76,512.73c-1.92-2.12-2.15-7.66-3.08-10.52-2.43-7.49-4.49-5.4-10.58-6.36-5.15-.82-10.28-1.79-15.57-1.89-1.85-.03-7.2,0-8.6.47-5.88,1.96-4.38,15.45-13.32,16.22-10.8-1.34-23.32-.25-33.61-4.08-1.41-.52-4.14-1.41-4.47-3.04-.81-3.96,3.33-12.6,5.08-16.42,9.74-21.26,22.38-42.59,33-63.54,4.53-8.94,8.72-20.34,13.43-28.61,1.85-3.25,4.39-5.34,7.85-6.28,4.65-1.27,22.07.2,27.33,1.18,2.75.52,7.64,2.76,9.23,5.22l37.11,118.42c-.28,2.8-1.83,3.58-4.28,3.75-10.75-1.32-22.34-.05-32.99-1.88-1.77-.3-5.32-1.32-6.53-2.66ZM666.3,463.65c1.53.59,7.4.58,9.59.76.09,0,1.52-.55,1.58-.9-1.03-4.38-1.23-8.98-2.16-13.37-.35-1.62-1.27-7.66-3.14-7.8l-7.06,18.5c-.42.82.6,2.57,1.2,2.81Z"/>
    <path class="cls-3" d="M531.9,373.18c27-2.55,55.35,13.93,62.13,42.79,9.76,41.59-2.41,82.21-46.68,87.8-32,4.04-60-10.55-67.24-45.39-8.21-39.53,11.22-81.37,51.8-85.2ZM534.26,420.35c-5.82,1.27-13.36,13.36-13.67,19.34-.43,8.11,6.35,14.48,13.24,16.57,5.43,1.65,9.97,2.43,14.36-1.99,11.95-12.02,5.81-38.23-13.93-33.92Z"/>
    <path class="cls-3" d="M346.92,421.45c1.18-1.55,3.43-2.36,5.23-2.73,10.58-2.23,23.54-.43,34.14-3.08,23.98-2.28,47.63-6.86,71.75-7.76,2.19.2,3.4,2.79,4.15,4.66,1.77,4.42,3.38,18.1,3.35,23.08-.02,2.56-.7,4.59-3.02,5.49-8.72,3.39-18.22,1.25-27.13,3.31-2.65.61-4.91,1.3-5.7,4.35l8.18,79.7c.12,4.51-.43,6.86-4.93,7.89-7.05,1.62-17.24,2.96-24.47,3.33-2.45.13-9.32.3-11.35-.22-2.37-.6-3.33-5.77-3.74-8.09-3.27-18.74-2.68-38.96-5.46-57.85l-3.47-20.01c-.7-1.78-4.31-2.27-5.94-2.29-5.22-.08-10.42,1.12-15.46,1.64-7.33.76-14.11,3.59-16.11-6.3-.99-4.91-2.86-21.41-.04-25.12Z"/>
    <path class="cls-3" d="M600.03,585.54c-.86.55-6.6.8-8.01.75-6.84-.21-13.45-2.54-20.31-2.56-4.63-.01-6.56.22-7.47,5.35-3.91,22.01-3.34,47.94-6.36,70.58-.36,2.7-1,7.65-1.58,10.04-1.32,5.43-8.25,3.17-12.01,3.09-5.99-.12-12.05-.12-18.05-1.03-2.52-.38-8.56-1.38-10.59-2.34-2.31-1.1-2.76-3.84-2.79-6.3-.3-21.74,5.43-48.11,6.44-70.55.09-1.95.27-9.16-.09-10.4-1-3.49-9.95-3.56-12.82-3.92-1.16-.15-2.28-.89-3.54-1.02-6.26-.65-18.75,2.48-18.91-7.8-.07-4.55.98-15.76,1.99-20.15,1.11-4.82,3.29-7.3,8.06-7.42,10.77-.27,23.71,4.45,34.65,3.85,21.76,2.52,43.71,2.35,65.29,6.13,2.05.36,4.74.08,6.57.63,3.18.97,3.48,9.18,3.43,12.17-.07,3.93-.95,19.02-3.88,20.9Z"/>
    <path class="cls-3" d="M709.64,609.89c-.52.63-2.01,1.34-2.78,1.65-5.75,2.27-22.17,1.22-29.14,1.11-5.28-.08-12.77-3.22-15.31,4.42-1.55,4.65-1.31,10.31,3.95,10.84,9.76.98,20.84-.85,30.71-.06,9.96.8,9.6,5.08,9.34,14.96-.07,2.72-.44,9.14-1.1,11.49-.97,3.45-3.44,5.06-6.53,5.4-10.75,1.17-23.15-.95-34.08-.02-4.25.91-5.34,12.32-.57,13.32,12.68,2.66,28.62-.96,41.45.63,3.2.4,4.89,2.57,5.33,6.11.53,4.21.37,17.31-.9,21.13-1.06,3.16-2.74,3.66-5.55,3.95-14.05,1.47-32.74.05-47.12,0-8.82-.03-24.3,1.6-32.23-.84-4.82-1.49-5.24-6.6-5.57-11.56-2.25-33.86,1.76-70.78-.01-104.96-.26-3.28,3.06-4.91,5.48-5.31,6.06-1,12.58-.45,18.68-.7,18.08-.73,39.39-1.96,57.37-.66,4.63.34,8.75,0,9.34,6.07.48,4.86,1.05,14.43.58,19.09-.12,1.15-.64,3.09-1.33,3.92Z"/>
    <path class="cls-3" d="M655.83,569.07c6.35-.46,40.46-2.82,45.48-5.72.68-.39,1.96-1.28,2.38-1.99.54-.94.84-3.05.84-4.29-.02-5-1.44-15.15-2.34-20.29-1.12-6.42-4.83-5.72-9.08-5.69-16.49.1-35.76,3.19-52.15,5.47-5.53.77-11.51.72-16.93,2.3-2.16.63-5.03,2.64-4.48,6.12l2.24,18.91c.55,4.67,5.37,7.98,10.84,7.45l23.2-2.27Z"/>
  </g>
</svg>