<?xml version="1.0" encoding="UTF-8"?>
<svg id="Calque_1" data-name="Calque 1" xmlns="http://www.w3.org/2000/svg" viewBox="0 0 1200 700">
  <defs>
    <style>
      .cls-1 {
        fill: #efca52;
      }

      .cls-2 {
        fill: #232115;
      }

      .cls-3 {
        fill: #2d2218;
      }

      .cls-4 {
        fill: #f6f4f1;
      }
    </style>
  </defs>
  <rect class="cls-1" x="-4.53" y="-.47" width="1205.46" height="700.49"/>
  <g>
    <path class="cls-2" d="M383.52,165.5c-2.19-.87-4.43-1.65-6.74-2.37s-4.41-1.93-6.74-2.5-4.79-.45-7.13-.9-4.67-1.08-7.02-1.43-4.74-.9-7.08-1.16-4.85-.07-7.17-.24c-2.46-.18-4.85-.29-7.14-.39-2.52-.11-4.91-.46-7.14-.5-2.62-.04-5.02.37-7.15.4-2.55.03-5.1-.25-7.62-.15s-5.09.39-7.6.57-5.1.38-7.59.63-5.06.8-7.53,1.13-5.04.91-7.49,1.33c-2.57.44-5.2.19-7.62.71-2.57.56-4.96,1.52-7.32,2.16-2.56.7-5.01,1.37-7.29,2.16-2.42.84-4.74,1.86-6.68,3.33s-3.97,3.25-5.38,5.28-2.38,4.48-3.1,6.87-.58,4.9-.53,7.42.3,4.86,1.15,7.28c.71,2.06,1.67,3.92,2.84,5.63s2.45,3.54,4.05,4.9,3.61,2.24,5.53,3.13,4.3,1.56,6.4,1.92c.97,3.54-.44,3.78-.44,7.45s.29,3.67.29,7.34.07,3.67.07,7.34-.21,3.67-.21,7.34-.54,3.67-.54,7.34.08,3.67.08,7.34.32,3.67.32,7.35-.07,3.67-.07,7.35c0,2.83.57,5.63,1.89,7.91s3.54,4.24,5.9,5.61,4.98,2,7.8,2c3.47,0,3.47.01,6.93.01s3.47-.46,6.93-.46,3.47,0,6.94,0,3.47.28,6.93.28,3.47.39,6.93.39,3.47-.61,6.93-.61,3.47.44,6.93.44,3.47-.28,6.94-.28,3.47-.12,6.93-.12,3.47.22,6.94.22,3.47-.29,6.94-.29,3.47.75,6.94.75c2.83,0,5.6-.89,7.88-2.21s4.21-3.53,5.58-5.88,1.71-4.94,1.71-7.77c0-3.66.59-3.66.59-7.33s-.49-3.66-.49-7.33-.1-3.66-.1-7.33.14-3.67.14-7.33.25-3.67.25-7.33.25-3.67.25-7.33-.35-3.67-.35-7.34-.9-3.78.34-7.24c2.76-.4,5.14-1.39,7.59-2.7s4.44-3.21,6.31-5.31,3.92-4.04,4.97-6.71c.94-2.38.76-5.02.91-7.45s.04-4.96-.57-7.35-1.2-4.93-2.53-7.04-3.33-3.71-5.27-5.31-4.03-2.72-6.41-3.66Z"/>
    <g>
      <path class="cls-2" d="M617.8,425.26c-4.37,6.14,10.53,10.47,14.13,11.61,23.67,7.52,62.88,9.32,68.17,41.29,2.72,16.46-1.48,27.65-13.24,38.22-22.23,19.97-53.69,22.18-81.91,20.43-7-.43-32.13-4.12-35.83-10.2-2.73-4.49-1.42-16.25-1.77-22.11-.19-3.16-1.42-5.73-1.39-9.3.09-11.19,6.04-9.83,14.42-8.79,18.68,2.33,39.19,14.55,58.17,7.46,16.66-6.22-1.57-11.62-8.67-13.51-28.01-7.48-91.4-19.44-69.62-65.21,19-39.92,75.42-41.71,111.07-29.31,7.59,2.64,11.07,4,13.02,13.01,1.41,6.5,1.7,20.06,1.22,26.87-.2,2.91-.81,4.69-3.76,5.35-6.68,1.5-23.83-6.5-31.68-8.32-7.17-1.66-27.6-4.15-32.34,2.49Z"/>
      <path class="cls-2" d="M966.02,308.52c-2.38-2.6-2.67-9.38-3.82-12.87-3.02-9.16-5.57-6.6-13.13-7.79-6.39-1-12.75-2.19-19.32-2.31-2.29-.04-8.94,0-10.67.58-7.29,2.4-5.43,18.9-16.52,19.84-13.4-1.63-28.94-.31-41.7-4.99-1.75-.64-5.13-1.72-5.55-3.71-1.01-4.84,4.13-15.41,6.3-20.08,12.08-26.01,27.77-52.1,40.95-77.73,5.62-10.93,10.82-24.88,16.67-35,2.29-3.97,5.45-6.53,9.74-7.68,5.77-1.55,27.39.24,33.91,1.45,3.41.63,9.48,3.38,11.46,6.39l46.05,144.87c-.35,3.43-2.27,4.38-5.32,4.59-13.34-1.61-27.72-.07-40.94-2.3-2.2-.37-6.6-1.62-8.1-3.25ZM935.65,248.47c1.9.73,9.19.71,11.9.92.11,0,1.88-.67,1.96-1.1-1.28-5.35-1.53-10.98-2.69-16.35-.43-1.99-1.57-9.37-3.9-9.54l-8.76,22.63c-.52,1.01.74,3.15,1.49,3.43Z"/>
      <path class="cls-2" d="M763.15,160.64c33.5-3.12,68.69,17.05,77.1,52.35,12.12,50.88-2.99,100.57-57.93,107.41-39.71,4.94-74.46-12.91-83.44-55.53-10.19-48.36,13.92-99.54,64.27-104.23ZM766.08,218.34c-7.22,1.55-16.57,16.34-16.97,23.66-.54,9.93,7.88,17.71,16.43,20.27,6.74,2.02,12.37,2.97,17.82-2.43,14.83-14.71,7.21-46.76-17.28-41.49Z"/>
      <path class="cls-2" d="M535.37,187.87c1.46-1.9,4.25-2.88,6.49-3.34,13.13-2.72,29.22-.53,42.37-3.77,29.75-2.79,59.11-8.4,89.04-9.49,2.72.24,4.22,3.41,5.14,5.7,2.2,5.41,4.2,22.14,4.16,28.24-.02,3.13-.87,5.61-3.75,6.72-10.82,4.14-22.61,1.53-33.66,4.05-3.29.75-6.09,1.59-7.07,5.33l10.15,97.5c.14,5.52-.53,8.39-6.12,9.66-8.75,1.98-21.4,3.62-30.36,4.07-3.03.15-11.56.37-14.09-.27-2.94-.74-4.14-7.06-4.64-9.89-4.05-22.93-3.32-47.66-6.78-70.77l-4.3-24.48c-.87-2.18-5.35-2.77-7.37-2.81-6.48-.1-12.93,1.37-19.18,2-9.1.92-17.51,4.4-19.98-7.71-1.23-6-3.55-26.19-.05-30.73Z"/>
      <path class="cls-2" d="M855.76,417.57c-1.06.67-8.2.97-9.95.92-8.48-.26-16.69-3.1-25.21-3.13-5.74-.02-8.14.27-9.27,6.54-4.86,26.93-4.14,58.65-7.89,86.35-.45,3.3-1.24,9.36-1.96,12.28-1.63,6.64-10.24,3.88-14.9,3.78-7.43-.15-14.95-.15-22.4-1.26-3.12-.46-10.63-1.69-13.14-2.87-2.87-1.34-3.42-4.69-3.46-7.71-.37-26.6,6.74-58.85,7.99-86.3.11-2.39.34-11.21-.11-12.72-1.24-4.27-12.34-4.35-15.91-4.8-1.44-.18-2.83-1.09-4.39-1.25-7.77-.8-23.26,3.04-23.47-9.54-.09-5.56,1.22-19.28,2.47-24.65,1.37-5.9,4.09-8.94,10.01-9.08,13.37-.33,29.42,5.45,43,4.71,27,3.08,54.24,2.88,81.02,7.5,2.54.44,5.88.1,8.15.78,3.95,1.19,4.32,11.23,4.25,14.89-.09,4.81-1.18,23.27-4.82,25.57Z"/>
      <path class="cls-2" d="M998.67,426.87c-.64.77-2.49,1.65-3.45,2.02-7.13,2.78-27.52,1.5-36.16,1.36-6.56-.1-15.84-3.94-19,5.41-1.92,5.69-1.62,12.62,4.9,13.27,12.11,1.2,25.86-1.04,38.11-.07,12.36.98,11.91,6.22,11.59,18.3-.09,3.33-.54,11.18-1.36,14.05-1.21,4.22-4.26,6.19-8.11,6.6-13.34,1.43-28.73-1.16-42.29-.02-5.28,1.11-6.62,15.07-.7,16.3,15.74,3.25,35.51-1.17,51.43.78,3.97.49,6.06,3.14,6.62,7.48.66,5.15.46,21.18-1.12,25.85-1.31,3.87-3.4,4.48-6.89,4.84-17.43,1.79-40.63.06-58.48,0-10.94-.03-30.16,1.96-39.99-1.03-5.98-1.82-6.5-8.07-6.91-14.15-2.8-41.42,2.19-86.59-.02-128.41-.32-4.02,3.79-6.01,6.8-6.5,7.53-1.23,15.61-.55,23.18-.85,22.44-.9,48.88-2.4,71.2-.8,5.74.41,10.85,0,11.59,7.42.59,5.95,1.3,17.65.72,23.35-.14,1.41-.8,3.79-1.65,4.8Z"/>
      <path class="cls-2" d="M931.9,376.93c7.88-.57,50.21-3.45,56.43-6.99.84-.48,2.44-1.56,2.95-2.44.67-1.15,1.04-3.73,1.04-5.25-.02-6.12-1.79-18.54-2.9-24.82-1.39-7.86-6-6.99-11.26-6.96-20.46.13-44.38,3.9-64.71,6.69-6.87.94-14.28.88-21.01,2.81-2.69.77-6.24,3.23-5.56,7.48l2.78,23.14c.69,5.71,6.67,9.76,13.45,9.11l28.8-2.77Z"/>
    </g>
    <g>
      <g>
        <path class="cls-3" d="M362.36,505.94c2.39,0,4.76.45,7.12.44s4.77-.19,7.13-.21c2.39-.02,4.77-.42,7.13-.45s4.78.53,7.14.5,4.77-.35,7.13-.39,4.78.2,7.14.16,4.78-.2,7.13-.24,4.77-.56,7.12-.6,4.79.06,7.13.02,4.79.39,7.14.36,4.79-.12,7.13-.14c2.42-.02,4.8-.47,7.13-.47s4.8.41,7.13.43,4.82-.37,7.14-.32c2.44.05,4.83-.03,7.14.06,2.45.1,4.82.35,7.12.49,2.46.15,4.82.53,7.1.75,2.48.23,4.89.18,7.13.5,2.49.35,4.75,1.28,6.94,1.75,2.5.54,4.89.83,6.96,1.54,2.48.84,4.48,2.16,6.31,3.28,2.24,1.37,4.32,2.63,5.51,4.47,1.27,1.95,1.87,4.33,1.87,6.89,0,2.33-1.34,4.18-3.21,6.01-1.44,1.41-3.09,3.13-5.56,4.27-1.91.88-4.3,1.22-6.78,1.95-2.09.62-4.36,1.11-6.83,1.62-2.17.46-4.47.84-6.92,1.22-2.22.35-4.48,1.1-6.92,1.4-2.25.27-4.62.21-7.04.44-2.27.21-4.6.54-7.01.71-2.28.17-4.62.37-7.02.51s-4.64.23-7.03.33-4.66-.12-7.05-.04-4.65.23-7.04.28-4.65.4-7.04.43-4.67-.19-7.05-.17-4.67.6-7.04.61-4.67-.49-7.05-.49-4.67.22-7.05.2-4.67-.44-7.04-.46-4.68.2-7.05.17-4.68.02-7.05-.02-4.68.02-7.05-.02-4.68-.45-7.05-.5c-2.34-.04-4.7.45-7.06.41-3.5-.02-3.5-.16-7-.16s-3.5-.27-7-.28-3.5-.03-7-.03c-3.5,0-3.5.08-7,.08s-3.5.26-7,.26-3.5-.24-7-.24c-3.5,0-3.5.37-7,.37-3.5,0-3.5-.27-7-.28s-3.5-.15-7-.15-3.5-.13-7-.14c-3.5,0-3.5-.05-7-.05-3.5,0-3.5.16-7.01.15s-3.5.43-7,.42-3.5-.16-7-.16c-3.5,0-3.5.16-7,.15s-3.5-.42-7-.42c-3.5,0-3.5.42-7.01.42-3.5,0-3.5-.25-7.01-.25-3.5,0-3.5-.22-7-.22-3.5,0-4.12.21-7.62.2-3.5,0-6.35,1.86-8.47-.94s2.68-2.73,3.53-6.25c.84-3.52,1.34-3.4,2.19-6.92.84-3.52.23-3.67,1.08-7.19s1.12-3.46,1.97-6.98.92-3.5,1.77-7.03.52-3.6,1.36-7.13-.94-4.87,1.99-7c2.89-2.1,3.56.59,7.11.91,3.56.32,3.57.19,7.13.51s3.58.09,7.14.41c3.56.32,3.53.6,7.09.92,3.56.32,3.55.38,7.11.7,3.56.32,3.55.39,7.11.71,3.56.32,3.61-.27,7.17.06s3.51.86,7.07,1.19c3.56.32,3.6-.14,7.16.18s3.53.67,7.09.99c3.56.32,3.56.27,7.12.59s3.55.44,7.11.76,3.59.02,7.14.35,3.55.46,7.1.78c3.56.32,3.53.64,7.09.96s3.59-.03,7.15.29,3.57.17,7.13.49,3.54.56,7.11.85,3.57.19,7.14.44Z"/>
        <g>
          <path class="cls-4" d="M215.76,538.41c-3.26,0-3.26.26-6.52.26s-3.26.25-6.52.25-3.26-.22-6.52-.22c-3.26,0-3.26-.22-6.52-.22q-3.26,0-6.52,0c-3.46,0-6.22-2.28-7.2-5.61-1.17-3.98-1.34-3.93-2.52-7.91s-4.35-4.21-2.24-7.78c1.8-3.04,3.29-.22,6.82-.22s3.53-.28,7.06-.28,3.53.59,7.06.59,3.53-.44,7.06-.44,3.53.54,7.06.54,3.53-.45,7.06-.45,3.53.29,7.06.29,5.34-3.26,7.23-.28c2.18,3.43-1.07,4.07-2.11,8-1.04,3.93-1.39,3.83-2.42,7.76-.9,3.43-3.78,5.72-7.33,5.72Z"/>
          <path class="cls-3" d="M215.76,543.84c-3.26,0-3.26-.11-6.52-.11-3.26,0-3.26-.36-6.52-.36-3.26,0-3.26.42-6.52.42-3.26,0-3.26-.09-6.52-.09-3.26,0-3.26.21-6.52.21-2.82,0-5.47-1.32-7.64-2.94-2.17-1.62-3.6-3.96-4.39-6.66-1.17-3.98-1.16-3.99-2.33-7.97-1.17-3.98-1.62-3.85-2.79-7.83-.45-1.51-.19-3.35.75-4.61.95-1.26,2.63-1.64,4.21-1.64,3.53,0,3.53-.26,7.06-.26s3.53.24,7.06.24,3.53-.04,7.06-.04,3.53-.1,7.06-.1,3.53-.21,7.06-.21,3.53.26,7.06.26,3.53-.21,7.06-.21,3.53.24,7.06.24c1.55,0,3.25.41,4.2,1.64.95,1.23.83,2.96.44,4.46-1.04,3.93-.63,4.03-1.66,7.96s-1.18,3.89-2.21,7.82c-.74,2.81-2.41,5.22-4.6,6.91s-4.94,2.9-7.85,2.9ZM178.4,522.26c-.56,2.24.83,4.5,2.23,9.25.35,1.18,1.31,2.26,2.54,2.26,3.26,0,3.26-.42,6.52-.42s3.26.09,6.52.09,3.26-.21,6.52-.21,3.26.38,6.52.38,3.26.23,6.52.23c1.27,0,2.67-1.06,3-2.29,1.24-4.71,2.77-7.28,2.29-8.19-1.09-2.09-3.7-1.05-7.3-1.05s-3.61-.47-7.21-.47c-3.61,0-3.61.26-7.21.26s-3.61-.24-7.21-.24-4.07.4-7.7-.16c-3.87-.59-5.59-1.14-6.01.56Z"/>
        </g>
        <g>
          <path class="cls-4" d="M456.42,538.32c-3.26,0-3.26.07-6.52.07s-3.26.28-6.52.28c-3.26,0-3.26-.03-6.52-.03-3.26,0-3.26-.08-6.52-.08s-3.26-.23-6.52-.23c-3.46,0-6.77-1.97-7.75-5.3-1.17-3.98-.95-4.05-2.13-8.03s-4.43-4.41-2.32-7.98c1.8-3.04,3.54.08,7.07.08s3.53.17,7.06.17,3.53-.3,7.06-.3,3.53-.15,7.06-.15,3.53-.11,7.06-.11,3.53.19,7.06.19,3.53.47,7.06.47,5.4-3.48,7.29-.5c2.18,3.43-1.43,4.03-2.47,7.95s-.79,3.99-1.82,7.92c-.9,3.43-4.08,5.55-7.63,5.55Z"/>
          <path class="cls-3" d="M456.42,543.9c-3.26,0-3.26-.53-6.52-.53-3.26,0-3.26-.04-6.52-.04-3.26,0-3.26-.02-6.52-.02q-3.26,0-6.52,0c-3.26,0-3.26.14-6.52.14-2.82,0-5.4-.93-7.57-2.56-2.17-1.62-3.94-3.78-4.74-6.49-1.17-3.98-.99-4.04-2.16-8.02-1.17-3.98-1.57-3.86-2.74-7.85-.45-1.51-.16-3.39.79-4.65.95-1.26,2.66-1.69,4.24-1.69,3.53,0,3.53-.42,7.06-.42s3.53.52,7.06.52,3.53.04,7.06.04,3.53-.01,7.06-.01,3.53.04,7.06.04,3.53-.05,7.06-.05,3.53-.18,7.06-.18,3.53-.23,7.06-.23c1.55,0,3.26.67,4.21,1.9s.69,2.93.29,4.43c-1.04,3.93-.52,4.06-1.56,7.99s-1.05,3.92-2.09,7.85c-.74,2.81-2.71,4.94-4.9,6.62-2.19,1.69-4.74,3.2-7.65,3.2ZM418.63,522.19c-.96,2.34.91,4.68,2.31,9.43.35,1.18,1.66,2.2,2.89,2.2,3.26,0,3.26.02,6.52.02s3.26,0,6.52,0,3.26-.14,6.52-.14,3.26.02,6.52.02,3.26-.18,6.52-.18c1.27,0,2.57-.8,2.89-2.03,1.24-4.71,3.2-6.52,2.1-9.37-.43-1.11-3.4.18-7,.18s-3.61-.43-7.21-.43c-3.61,0-3.61.42-7.21.42s-3.61-.52-7.21-.52c-3.61,0-3.54.19-7.15-.04-3.33-.21-6.49-.84-7,.42Z"/>
        </g>
        <g>
          <path class="cls-4" d="M456.38,359.11c3.81,0,3.81-.42,7.62-.42s3.81.18,7.63.18,3.81-.12,7.63-.12,3.82-.27,7.63-.27,3.82.52,7.63.52c2.24,0,4.33.56,6.06,1.81s3.03,3.02,3.73,5.15c.89,2.7.61,2.79,1.5,5.49.73,2.2.69,4.21.04,6.21s-1.75,3.92-3.51,5.22-3.72,2.02-6.04,2.02c-3.75,0-3.75.14-7.49.14s-3.74,0-7.49,0-3.75-.39-7.49-.39c-3.75,0-3.75.36-7.49.36"/>
          <path class="cls-3" d="M496.3,390.05c-3.75,0-3.75-.24-7.49-.24s-3.74.42-7.49.42-3.75-.11-7.49-.11-3.75,0-7.49,0c-2.77,0-5.35-2.4-5.35-5.17s2.58-4.83,5.35-4.83c3.75,0,3.75-.04,7.49-.04s3.74.13,7.49.13,3.75-.2,7.49-.2,3.75.2,7.49.2c1.74,0,3.24-1.14,4.26-2.55,1.02-1.41,1.62-3.19,1.08-4.84-.89-2.7-1.14-2.62-2.03-5.32-.73-2.2-2.78-3.73-5.09-3.73-3.81,0-3.81.16-7.62.16s-3.81.16-7.63.16c-3.81,0-3.81-.21-7.63-.21s-3.82-.08-7.63-.08q-3.82,0-7.63,0c-2.77,0-5.27-2.23-5.27-4.99s2.51-5.07,5.27-5.07c3.81,0,3.81.24,7.62.24s3.81-.21,7.63-.21,3.81.24,7.63.24,3.82-.14,7.63-.14,3.82.23,7.63.23c2.2,0,4.36.08,6.28.93,1.96.87,3.49,2.41,4.93,4,1.41,1.56,2.64,3.26,3.33,5.35.89,2.7,1.04,2.65,1.93,5.35.78,2.37,1.08,4.87.71,7.23s-1.35,4.69-2.81,6.72c-1.46,2.02-3.51,3.41-5.64,4.5s-4.45,1.85-6.95,1.85Z"/>
        </g>
        <path class="cls-3" d="M466.4,384.87c3.56,2.31,4.88,2.43,8.27-.13,2.69-2.03.4-3.14.61-6.51s.23-3.36.43-6.73c.2-3.37.05-3.38.25-6.74s3.1-4.59.48-6.7c-3.42-2.75-4.37-.07-8.76-.07-4.39,0-5.73-3.12-8.88-.06-2.5,2.44.79,3.53,1.72,6.89s.94,3.36,1.87,6.73,1.5,3.21,1.76,6.69-.67,4.71,2.26,6.62Z"/>
        <g>
          <path class="cls-4" d="M160.53,417.08c.8-3.56.82-3.56,1.62-7.12s.48-3.64,1.28-7.2.85-3.55,1.65-7.12c.8-3.56.9-3.54,1.7-7.11s.52-3.63,1.32-7.2.95-3.53,1.72-7.1c.47-2.49,1.39-4.84,2.03-7.22s1.39-4.83,2.24-7.14,1.67-4.77,2.76-6.97,2.64-4.28,3.99-6.33c1.4-2.12,2.63-4.31,4.26-6.16,1.67-1.89,3.35-3.8,5.27-5.37s4.02-3.05,6.21-4.28,4.66-1.76,7.06-2.58,4.63-1.82,7.17-2.22c2.34-.37,4.73-.73,7.15-1.09s4.77-.43,7.19-.76c2.35-.33,4.71-.86,7.14-1.18s4.79-.31,7.21-.59,4.72-.84,7.15-1.1c2.37-.26,4.82,0,7.24-.23,2.37-.23,4.71-1.11,7.14-1.32s4.79-.26,7.22-.45c2.38-.18,4.81.09,7.24-.07s4.76-.77,7.19-.9,4.82.29,7.25.18,4.79-.15,7.23-.23,4.79-.26,7.22-.31c2.39-.05,4.8-.14,7.23-.17s4.8-.34,7.23-.34,4.71.46,7.03.48,4.72-.29,7.04-.24,4.72-.13,7.04-.06,4.72.14,7.03.24,4.72.16,7.03.29,4.68.75,6.99.9,4.73.06,7.03.24,4.69.6,6.99.81,4.72.24,7.02.47,4.67.7,6.97.95,4.68.62,6.97.9,4.73.21,7.02.52,4.7.48,6.99.81,4.67.74,6.95,1.09,4.66.76,6.94,1.13c2.47.4,4.8,1.22,7.04,2.01,2.33.82,4.42,2.06,6.51,3.26s4.41,2.19,6.29,3.75,3.23,3.63,4.86,5.48,3.32,3.53,4.7,5.58,2.46,4.16,3.6,6.36,2.34,4.25,3.27,6.55,1.58,4.59,2.32,6.94,1.33,4.67,1.89,7.06c.81,3.64.91,3.62,1.7,7.27.79,3.65.39,3.73,1.19,7.38.79,3.65,1,3.6,1.8,7.25s1.15,3.57,1.94,7.22c.79,3.65.35,3.75,1.15,7.4s1.27,3.55,2.07,7.2"/>
          <path class="cls-3" d="M160.4,422.1c-.36,0-.7-.21-1.07-.29-2.7-.61-4.54-2.1-3.93-4.8.8-3.56.87-4.72,1.67-8.27s.78-3.47,1.57-7.03.64-3.59,1.44-7.15.84-3.55,1.63-7.11c.8-3.56,1.17-3.48,1.97-7.04s.79-3.56,1.56-7.13c.47-2.46.66-4.94,1.28-7.26s1.25-4.83,2.05-7.08c.84-2.37,2.13-4.51,3.14-6.68s1.98-4.58,3.22-6.63,2.94-4,4.42-5.89,2.93-4.03,4.66-5.71,4.04-2.85,6.01-4.26,3.98-2.83,6.17-3.93,4.35-2.26,6.7-3.01,4.71-1.28,7.17-1.67c2.41-.38,4.85-.49,7.24-.85s4.83-.59,7.23-.92,4.79-.93,7.18-1.24,4.81-.75,7.21-1.04,4.89-.08,7.29-.34,4.83-.58,7.24-.81,4.82-.65,7.23-.87,4.83-.52,7.25-.7c2.42-.18,4.86-.16,7.28-.32s4.82-.67,7.25-.8,4.87.22,7.3.12,4.83-.74,7.26-.82,4.86.48,7.29.43,4.84-.59,7.27-.61,4.85.27,7.28.27,4.76-.36,7.09-.33,4.76.25,7.09.29,4.76.02,7.09.09,4.74.55,7.07.65,4.77-.02,7.09.1,4.74.55,7.06.7,4.78-.03,7.09.14,4.77.29,7.07.5,4.71.91,7.01,1.14,4.81,0,7.1.26c2.41.27,4.76.58,7.04.86,2.42.29,4.75.7,7.02,1.01,2.42.32,4.81.34,7.06.66,2.44.35,4.7,1.18,6.93,1.53,2.45.38,4.84.36,7.05.72,2.4.39,4.71,1.09,6.95,1.82s4.48,1.72,6.6,2.8,4.12,2.39,6.07,3.81,3.59,3.06,5.33,4.76,3.23,3.41,4.74,5.33c1.45,1.83,2.97,3.66,4.26,5.74,1.23,1.98,2.68,3.92,3.76,6.12s1.51,4.49,2.4,6.78,2.06,4.28,2.78,6.63,1.22,4.58,1.78,6.96c0,.03.13.03.14.06.79,3.65.32,3.75,1.12,7.39.79,3.65,1.1,3.58,1.89,7.23s.58,3.7,1.37,7.34c.79,3.65,1.26,3.54,2.06,7.19s.64,3.6,1.44,7.25.54,4.16,1.34,7.81c.59,2.7-1.05,4.93-3.76,5.51-2.7.59-5.29-1.09-5.88-3.79-.79-3.64-1.2-3.55-1.99-7.2s-.38-3.73-1.18-7.38-1.05-3.59-1.84-7.23-.83-3.64-1.62-7.28-.8-3.64-1.59-7.29-.73-3.66-1.54-7.3c-.52-2.2-.67-4.78-1.5-7.35-.73-2.26-1.93-4.52-2.94-6.91-.95-2.24-1.91-4.57-3.14-6.79s-2.71-4.17-4.2-6.19-3.01-3.97-4.81-5.72-3.68-3.35-5.8-4.73-4.31-2.38-6.7-3.3c-2.24-.87-4.66-1.35-7.23-1.77-2.18-.36-4.45-.85-6.87-1.22-2.2-.34-4.5-.67-6.9-1.01-2.22-.32-4.51-.75-6.89-1.06-2.23-.3-4.54-.59-6.92-.88-2.25-.27-4.53-.73-6.91-.99s-4.57-.47-6.94-.7-4.6-.23-6.97-.43-4.59-.38-6.96-.56c-2.28-.17-4.58-.56-6.94-.71s-4.6-.4-6.96-.53-4.63.09-6.99-.01-4.61-.25-6.97-.33-4.62-.31-6.97-.36-4.63-.02-6.99-.04-4.63,0-6.99,0-4.79-.07-7.18-.04-4.78.47-7.17.52-4.79-.1-7.18-.02-4.77.43-7.16.53c-2.39.1-4.78.2-7.17.33s-4.78.23-7.16.38-4.76.4-7.15.58-4.8-.1-7.19.11-4.73.71-7.12.94-4.78.16-7.17.42-4.69,1.05-7.07,1.34-4.76.39-7.15.7-4.76.37-7.14.7-4.67,1.04-7.05,1.4-4.72.67-7.1,1.04c-2.28.36-4.56.6-6.68,1.34s-4.08,1.99-6.06,3.12-3.95,2.21-5.72,3.68-3.43,2.94-4.97,4.69-2.77,3.55-4.05,5.5-2.26,3.87-3.3,5.97c-.98,1.98-1.63,4.16-2.45,6.35-.77,2.08-1.8,4.12-2.41,6.38-.58,2.14-.87,4.4-1.3,6.7-.01.06.06.17.05.22-.8,3.56-.77,3.57-1.57,7.13-.8,3.56-1.04,3.51-1.84,7.07s-.76,3.57-1.56,7.14-.67,3.59-1.47,7.16-.96,3.53-1.76,7.1-.45,3.65-1.25,7.21c-.52,2.33-2.63,3.95-4.93,3.95Z"/>
        </g>
        <g>
          <path class="cls-3" d="M423.9,342.54c-1.31-3.09-4.23-4.93-7.53-5.48-2.32-.39-4.62-.77-6.92-1.13-2.32-.37-4.59-.98-6.89-1.31-2.32-.34-4.63-.68-6.93-.99-2.32-.31-4.67-.35-6.98-.63-2.32-.28-4.63-.66-6.94-.92-2.33-.26-4.63-.66-6.95-.88-2.33-.23-4.67-.19-7-.38-2.33-.2-4.63-.74-6.96-.9-2.33-.17-4.68,0-7.01-.13-2.33-.14-4.64-.61-6.98-.72-2.33-.11-4.66-.23-7-.31-2.33-.08-4.67-.14-7.01-.19-2.33-.05-4.67.28-7.01.26-2.33-.03-4.66-.02-7.01-.02s-4.81-.41-7.21-.38c-2.4.03-4.81-.1-7.21-.04-2.4.06-4.79.57-7.19.65-2.4.09-4.82-.25-7.22-.14-2.4.12-4.78.55-7.18.7-2.39.14-4.77.58-7.17.76-2.39.17-4.78.35-7.18.55-2.39.2-4.81.09-7.2.32-2.39.23-4.74.84-7.13,1.09-2.38.26-4.79.29-7.19.57-2.38.28-4.75.69-7.14,1-2.38.31-4.74.71-7.13,1.04-2.37.33-4.73.75-7.12,1.12-2.37.36-4.8.33-7.18.72-3.33.54-6.1,2.83-7.5,5.9,0,0-.04.01-.04.01-.16.36-.71,1.96.1,2.98s2.76,2.16,9.52,1.18c1.3-.27,5.27-.91,6.58-1.11,2.35-.36,4.66-.86,6.99-1.19,2.35-.33,4.66-.86,7-1.17,2.35-.31,4.72-.46,7.06-.74,2.35-.28,4.73-.31,7.07-.56,2.35-.25,4.71-.48,7.05-.7,2.36-.23,4.72-.26,7.07-.46,2.36-.2,4.7-.5,7.06-.67,2.36-.17,4.69-.73,7.05-.87,2.36-.14,4.73-.23,7.08-.34,2.36-.11,4.73-.09,7.09-.17,2.36-.09,4.72-.23,7.09-.28,2.36-.06,4.73-.07,7.09-.1,2.36-.03,4.73-.21,7.09-.21,2.49,0,4.96.16,7.42.19,2.48.03,4.95.44,7.41.5,2.48.06,4.94.22,7.41.31,2.48.09,4.95.06,7.41.18,2.47.13,4.96,0,7.42.16,2.47.16,4.95.17,7.41.37,2.46.19,4.92.53,7.38.76,2.46.22,4.91.61,7.37.87,2.45.26,4.91.53,7.37.82,2.45.29,4.94.32,7.4.64,2.44.32,4.9.66,7.36,1.01,2.44.35,4.84.98,7.3,1.37,2.43.38,4.87.8,7.32,1.21.02,0,.4.05.41.07.02.05,1.7.13,1.73.18,3.76.26,5.56.45,6.85-.63s.81-2.18.16-3.71Z"/>
          <path class="cls-3" d="M428.17,355.57c-.07-.15-.11-.28-.18-.4-.64-1.04-2.19-2.1-4.04-2.33-2.74-.34-5.76-.59-8.36-1.24,0,0-.02-.01-.02-.01-2.19-.33-4.58-.82-6.96-1.15-2.21-.31-4.53-.37-6.89-.68-2.22-.29-4.47-.93-6.82-1.21-2.23-.27-4.56-.2-6.92-.46-2.24-.24-4.5-.82-6.85-1.05-2.25-.22-4.55-.46-6.9-.66-2.26-.19-4.56-.37-6.91-.54-2.26-.17-4.59.05-6.94-.1-2.27-.14-4.57-.25-6.91-.38-2.27-.12-4.56-.65-6.9-.75-2.27-.1-4.58-.35-6.92-.42-2.28-.07-4.6.31-6.94.26-2.28-.05-4.58-.52-6.92-.55-2.28-.02-4.6.27-6.93.27s-4.76.29-7.14.32c-2.39.02-4.76.05-7.14.1-2.38.05-4.77-.21-7.14-.14-2.38.07-4.74.53-7.12.63-2.38.1-4.76-.02-7.14.1-2.38.13-4.74.37-7.12.52-2.37.15-4.74.39-7.12.57-2.37.18-4.73.44-7.11.64-2.37.2-4.77.01-7.15.24-2.36.23-4.72.61-7.09.87-2.36.25-4.71.66-7.08.94-2.36.28-4.78.1-7.15.4-2.35.3-4.72.58-7.09.9-2.35.32-4.52.75-6.89,1.1-.2-.13-3.49.73-3.48.64-4.48.72-5.99,1-8.31,2.48-.61.38-1.02.88-1.3,1.54-.76,1.68-.74,3.62.38,5.09.96,1.26,2.64,1.77,4.19,1.77.26,0,.5-.09.76-.13,2.38-.38,4.81-.29,7.17-.64,2.38-.35,4.66-1.34,7.02-1.66,2.38-.33,4.78-.45,7.14-.75,2.38-.31,4.8-.31,7.16-.59,2.38-.28,4.76-.57,7.13-.82,2.39-.26,4.75-.69,7.12-.92,2.39-.23,4.8-.11,7.18-.32,2.39-.21,4.72-1.06,7.1-1.24,2.39-.18,4.78-.26,7.17-.42,2.39-.16,4.79-.2,7.17-.32,2.39-.13,4.8.17,7.19.06,2.39-.1,4.77-.4,7.16-.48,2.39-.08,4.78-.3,7.17-.35,2.39-.05,4.78-.3,7.18-.33,2.39-.02,4.78.1,7.18.1s4.69.25,6.98.27c2.36.02,4.69.08,6.98.13,2.36.05,4.68.29,6.97.36,2.36.08,4.69.05,6.98.15,2.36.1,4.71-.19,6.99-.07,2.36.13,4.69.3,6.97.45,2.36.15,4.68.44,6.95.62,2.37.18,4.69.3,6.96.5,2.37.21,4.68.45,6.95.67,2.37.23,4.7.31,6.96.56,2.37.26,4.67.67,6.92.95,2.38.29,4.64.95,6.87,1.25,2.39.32,4.68.72,6.9,1.04,2.4.35,4.72.54,6.92.88,2.42.37,4.76.47,6.93.83,1.85.3,3.46-.51,4.59-2.02s1.24-3.4.49-5.05Z"/>
        </g>
        <g>
          <path class="cls-4" d="M474.59,421.12c-.18-2.31-.9-4.52-1.38-6.74-.48-2.26-.94-4.49-1.71-6.64s-1.52-4.35-2.57-6.38-2.24-4.03-3.56-5.9c-1.32-1.88-2.64-3.8-4.2-5.48s-3.42-3.09-5.19-4.56-3.8-2.53-5.76-3.75-3.74-2.7-5.85-3.64-4.3-1.61-6.52-2.26-4.43-1.15-6.72-1.5-4.6-.75-6.95-1.09-4.67-.24-7.03-.56-4.63-.55-6.99-.85-4.6-.76-6.97-1.04-4.61-.75-6.97-1-4.63-.53-7-.76-4.66-.23-7.03-.44-4.64-.48-7.01-.67-4.66-.3-7.03-.46-4.65-.45-7.02-.59c-2.32-.13-4.66-.28-7.03-.39s-4.66-.34-7.03-.43-4.68.24-7.05.18-4.67,0-7.04-.03-4.67-.18-7.04-.2-4.67.14-7.05.14-4.85-.17-7.24-.15-4.85-.23-7.25-.19-4.84.33-7.23.39-4.84.35-7.23.45-4.85.04-7.24.15c-2.44.12-4.84.3-7.23.44s-4.86-.04-7.25.11-4.85.23-7.23.41-4.83.54-7.21.74c-2.43.21-4.8.84-7.17,1.06s-4.88.03-7.25.28-4.78.96-7.15,1.23-4.89.03-7.25.32-4.8.77-7.16,1.08-4.79.8-7.15,1.13c-2.42.34-4.81.68-7.16,1.03s-4.64.76-6.87,1.41-4.53,1.31-6.65,2.26-4.24,2.07-6.21,3.31-3.69,2.9-5.48,4.39-3.84,2.78-5.41,4.51-2.77,3.8-4.1,5.73-2.45,3.97-3.51,6.07c-1.04,2.09-2.19,4.15-2.95,6.38s-1.27,4.5-1.72,6.83-.62,4.62-.74,6.99c-.19,3.68.01,3.7-.18,7.38-.19,3.68-.58,3.66-.77,7.35s0,3.69-.19,7.38-.04,3.69-.23,7.37-.11,3.69-.3,7.37c-.19,3.68-.26,3.68-.45,7.37s-.37,3.68-.56,7.36-.43,3.67-.62,7.36-.12,3.69-.31,7.38.22,3.71.03,7.4c-.15,2.86.3,5.49,1.54,7.83s3.2,4.38,5.55,5.8,4.86,2,7.72,2c3.58,0,3.58.44,7.17.44s3.58-.03,7.17-.03,3.58.21,7.17.21,3.58-.53,7.17-.53,3.58-.05,7.17-.05,3.58.62,7.17.62,3.58-.09,7.17-.09,3.58-.42,7.17-.42,3.58.31,7.17.31,3.58.03,7.17.03,3.58-.06,7.17-.06,3.59-.18,7.17-.18,3.58.17,7.17.17,3.59-.01,7.17-.01,3.58.17,7.17.17,3.58-.04,7.17-.04,3.58-.02,7.16-.02,3.58-.16,7.17-.16,3.58-.33,7.17-.33,3.58.56,7.17.56,3.58-.64,7.17-.64,3.58.26,7.17.26,3.58.16,7.17.16,3.58-.27,7.17-.27,3.59-.05,7.17-.05,3.58.21,7.17.21,3.59-.31,7.17-.31,3.59.66,7.17.66,3.59-.39,7.17-.39,3.59-.12,7.17-.12,3.59-.12,7.17-.12,3.59.46,7.17.46,3.59.19,7.17.19,3.59-.2,7.17-.2,3.59.03,7.17.03,3.59.04,7.17.04,3.59-.31,7.17-.31,3.59.46,7.18.46,3.59-.23,7.17-.23,3.59-.31,7.18-.31,3.59.34,7.18.34c2.91,0,5.55-1.06,7.85-2.47,2.37-1.46,4.68-3.29,5.95-5.77s1.28-5.3,1.06-8.19c-.28-3.73.2-3.77-.08-7.5s-.79-3.69-1.08-7.43-.16-3.74-.45-7.47c-.28-3.73-.08-3.75-.36-7.48-.28-3.73-.57-3.71-.86-7.44-.28-3.73-.09-3.75-.37-7.48s-.11-3.75-.4-7.48-.67-3.7-.95-7.44c-.28-3.74-.2-3.74-.44-7.48s-.06-3.75-.34-7.49Z"/>
          <path class="cls-3" d="M465.06,517.1c-3.58,0-3.58.01-7.17.01s-3.58-.23-7.17-.23-3.58.18-7.17.18c-3.58,0-3.58.04-7.17.04s-3.58.1-7.17.1c-3.58,0-3.58-.12-7.17-.12-3.58,0-3.58.13-7.17.13-3.58,0-3.58-.18-7.17-.18-3.58,0-3.58.42-7.17.42s-3.58-.13-7.17-.13-3.58-.05-7.17-.05c-3.59,0-3.59-.31-7.17-.31s-3.58.45-7.17.45c-3.59,0-3.59-.02-7.17-.02s-3.58-.14-7.17-.14c-3.58,0-3.58-.46-7.17-.46-3.58,0-3.58.59-7.16.59-3.58,0-3.58-.15-7.17-.15-3.58,0-3.58-.12-7.17-.12s-3.58.23-7.17.23-3.58.06-7.17.06c-3.58,0-3.58-.05-7.17-.05-3.58,0-3.58.08-7.17.08-3.58,0-3.58-.34-7.17-.34s-3.59-.33-7.17-.33-3.58.49-7.17.49c-3.59,0-3.59.2-7.17.2s-3.59-.4-7.17-.4c-3.59,0-3.59.37-7.17.37s-3.59-.39-7.17-.39-3.59-.27-7.17-.27-3.59.17-7.17.17-3.59.02-7.17.02c-3.59,0-3.59.29-7.17.29s-3.59.05-7.17.05-3.59-.09-7.17-.09-3.59.18-7.17.18q-3.59,0-7.18,0c-3.59,0-3.59-.24-7.17-.24-3.59,0-3.59-.1-7.18-.1s-3.59.13-7.18.13c-2.79,0-5.63-.32-8.1-1.38-2.48-1.06-4.62-2.94-6.54-4.96-1.92-2.03-3.67-4.27-4.6-6.8s-1.33-5.38-1.18-8.17c.19-3.68.69-3.66.89-7.34s.03-3.69.23-7.38.14-3.69.34-7.37.05-3.69.24-7.37.33-3.68.52-7.36.1-3.69.3-7.37.61-3.66.81-7.35.13-3.42.32-7.11.19-3.95.38-7.64c.19-3.69.08-3.69.28-7.38.12-2.36.32-4.68.73-6.96s1.13-4.53,1.83-6.75,1.28-4.51,2.24-6.63,1.89-4.32,3.11-6.31,2.74-3.82,4.2-5.64,3.02-3.59,4.7-5.22c1.67-1.63,3.33-3.34,5.2-4.75s4.19-2.13,6.22-3.3,3.88-2.65,6.04-3.56,4.43-1.46,6.7-2.09,4.45-1.5,6.79-1.85c2.42-.36,4.89-.23,7.28-.56s4.77-1.08,7.16-1.4,4.89-.19,7.29-.48,4.85-.47,7.25-.74,4.8-.86,7.21-1.11c2.42-.25,4.88-.11,7.29-.34s4.84-.51,7.25-.71,4.83-.58,7.25-.76,4.84-.42,7.26-.58,4.83-.6,7.25-.74c2.43-.14,4.86-.16,7.28-.27s4.85-.36,7.27-.46,4.86-.02,7.29-.09,4.86.15,7.29.11c2.42-.04,4.85-.13,7.28-.15s4.85-.07,7.29-.07,4.75.18,7.09.2c2.39.02,4.76-.37,7.1-.32s4.75.26,7.09.32,4.76.2,7.09.28,4.74.52,7.07.63c2.4.11,4.78-.13,7.1,0,2.4.14,4.76.33,7.08.48s4.76.29,7.07.47c2.4.18,4.75.48,7.06.68s4.8,0,7.1.22,4.75.62,7.04.87c2.41.26,4.78.41,7.06.68,2.42.28,4.77.51,7.05.8,2.42.31,4.71,1.06,6.97,1.37,2.43.33,4.75.83,6.99,1.16,2.45.36,4.78.73,7,1.07,2.5.38,5.06.45,7.47,1.16,2.42.71,4.68,1.89,6.97,2.92s4.61,2.06,6.75,3.38,4.03,2.99,5.98,4.6,3.75,3.32,5.46,5.17c1.72,1.85,3.7,3.5,5.14,5.56s2.56,4.37,3.72,6.6,2.14,4.57,2.99,6.94,1.22,4.87,1.75,7.33,1.11,4.89,1.3,7.41c.28,3.73.4,3.72.69,7.46s.45,3.72.74,7.45.15,3.74.43,7.48.41,3.72.7,7.46-.14,3.76.15,7.5c.28,3.73.14,3.74.43,7.48.28,3.74.36,3.73.64,7.46s.39,3.73.67,7.46.74,3.7,1.02,7.44.18,3.74.46,7.48c.21,2.79-.56,5.5-1.47,8.1s-2.34,4.87-4.24,6.92c-1.9,2.05-3.91,4-6.43,5.1-2.52,1.1-5.31,1.57-8.11,1.57ZM318.91,370.73c-2.41,0-4.8.02-7.19.05-2.4.02-4.81-.18-7.2-.13s-4.8.28-7.19.35-4.8.19-7.19.28c-2.4.09-4.79.29-7.18.41s-4.8.12-7.19.25-4.78.41-7.17.57-4.79.15-7.19.33-4.74.79-7.14,1-4.78.29-7.17.52-4.77.42-7.16.67-4.79.2-7.18.48-4.7,1-7.09,1.29-4.75.57-7.13.89-4.76.5-7.15.83-4.8.22-7.19.57c-2.35.35-4.52,1.44-6.74,2.13s-4.48,1.42-6.57,2.44-4.2,2.12-6.12,3.45-3.6,2.99-5.31,4.6-3.22,3.37-4.66,5.22-2.76,3.75-3.91,5.8-2.05,4.17-2.88,6.38-1.79,4.33-2.27,6.64-1.1,4.59-1.23,6.97c-.19,3.68.3,3.71.1,7.39s0,3.69-.19,7.38-.59,3.66-.78,7.35c-.19,3.68.17,3.7-.02,7.39s-.58,3.66-.78,7.35-.47,3.67-.66,7.35-.02,3.69-.22,7.38-.17,3.69-.36,7.37.1,3.7-.1,7.39c-.19,3.69-.14,3.69-.33,7.38-.15,2.8.72,5.39,2.66,7.43,1.93,2.04,4.47,2.94,7.28,2.94q3.58,0,7.17,0c3.58,0,3.58.24,7.17.24s3.58.1,7.17.1,3.58-.13,7.17-.13,3.58-.27,7.17-.27,3.58.32,7.17.32,3.58-.3,7.17-.3,3.58.04,7.17.04,3.58.5,7.17.5,3.58-.16,7.17-.16,3.58-.05,7.17-.05,3.59-.14,7.17-.14,3.58.14,7.17.14,3.59-.09,7.17-.09,3.58.42,7.17.42,3.58-.64,7.17-.64,3.58.57,7.16.57,3.58-.11,7.17-.11,3.58-.07,7.17-.07,3.58.17,7.17.17,3.58-.27,7.17-.27,3.58-.23,7.17-.23,3.58.18,7.17.18,3.58-.03,7.17-.03,3.59-.22,7.17-.22,3.58.69,7.17.69,3.59-.51,7.17-.51,3.59.23,7.17.23,3.59-.4,7.17-.4,3.59.48,7.17.48,3.59-.42,7.17-.42,3.59.44,7.17.44,3.59.11,7.17.11,3.59-.32,7.17-.32,3.59.39,7.17.39,3.59-.06,7.17-.06,3.59-.17,7.17-.17,3.59-.06,7.18-.06,3.59-.29,7.17-.29,3.59.1,7.18.1,3.59-.15,7.18-.15c2.85,0,5.4-.96,7.34-3.06,1.94-2.09,3.13-4.74,2.91-7.58-.28-3.73-.33-3.73-.62-7.46s-.32-3.73-.61-7.46-.12-3.75-.4-7.48-.7-3.7-.99-7.43-.12-3.74-.41-7.48-.23-3.74-.52-7.47.04-3.76-.24-7.5-.65-3.71-.93-7.44-.24-3.74-.52-7.48c-.28-3.74-.32-3.73-.6-7.47-.18-2.33-.42-4.63-.92-6.84s-1.6-4.33-2.42-6.45-1.68-4.27-2.82-6.25-2.52-3.82-3.95-5.62-3.01-3.42-4.69-4.99-3.19-3.34-5.1-4.64-3.83-2.6-5.91-3.61-4.23-1.87-6.45-2.55-4.53-.71-6.84-1.06c-2.19-.34-4.45-.99-6.87-1.35-2.21-.32-4.55-.47-6.95-.8-2.23-.3-4.51-.86-6.9-1.16-2.24-.28-4.56-.58-6.94-.86-2.25-.26-4.63-.01-7.01-.27s-4.56-.72-6.93-.95-4.59-.46-6.96-.67-4.58-.71-6.95-.9-4.62-.11-6.99-.27-4.62-.18-6.99-.31-4.63-.08-6.99-.2-4.62-.34-6.98-.43c-2.3-.09-4.63-.03-7-.1-2.3-.06-4.62-.54-6.98-.59s-4.64-.22-7-.24-4.64.31-7,.31Z"/>
        </g>
      </g>
      <g>
        <g>
          <path class="cls-3" d="M280.61,441.78c-1.02,1.92-2.17,3.7-3.39,5.34s-2.91,3.04-4.51,4.39-3.09,2.85-5.06,3.78c-1.79.85-3.84,1.52-6.03,2"/>
          <path class="cls-3" d="M261.55,462.06c-2.3,0-4.56-1.59-5.07-3.93-.59-2.7,1.31-5.4,4.01-5.99,2.41-.53,4.54-1.34,6.46-2.48s3.84-2.49,5.41-4.37c1.36-1.63,2.48-3.67,3.68-5.93,1.29-2.44,4.28-3.39,6.73-2.1,2.44,1.3,3.46,4.37,2.17,6.81-1.02,1.94-2.4,4.04-4.04,6.18-1.4,1.84-2.99,3.76-5,5.43-1.78,1.47-3.94,2.67-6.32,3.8-2.07.98-4.28,2.19-6.88,2.76-.36.08-.79-.18-1.15-.18Z"/>
        </g>
        <g>
          <path class="cls-3" d="M357.42,434.74c0,1.66.51,4.44,1.75,7.49.88,2.18,2.35,4.4,3.88,6.64,1.41,2.08,2.99,4.16,4.95,5.84s4.03,3.32,6.49,4.18"/>
          <path class="cls-3" d="M374.59,463.58c-.55,0-1.21.23-1.76.04-2.4-.84-4.48-2.3-6.43-3.72s-3.6-3.38-5.16-5.24-3.1-3.92-4.25-6c-1.28-2.32-2.47-4.54-3.19-6.67-.99-2.94-1.19-5.56-1.19-7.25,0-2.77,2.1-4.8,4.86-4.8s4.73,2.04,4.73,4.8c0,1.48,1.4,4.37,3.03,7.61,1.15,2.29,2.24,5,4.15,7.05s4.36,3.33,6.93,4.22c2.61.91,3.81,3.95,2.9,6.57-.72,2.07-2.56,3.39-4.63,3.39Z"/>
        </g>
        <path class="cls-3" d="M318.35,482.14c-1.27,0-2.56.52-3.85.45-2.34-.14-4.61-.91-6.88-1.3-2.32-.4-4.64-.69-6.85-1.33s-4.32-1.8-6.44-2.67c-2.19-.9-4.37-1.68-6.36-2.8s-4.06-2.37-5.88-3.74c-1.91-1.44-3.72-2.92-5.29-4.55-1.66-1.73-2.81-3.76-4.03-5.67-1.28-2.01-2.79-3.86-3.52-6.02-.88-2.62.73-5.63,3.35-6.51,2.62-.88,5.32.67,6.2,3.29.74,2.21,1.98,4.41,3.6,6.42,1.46,1.8,3.33,3.47,5.37,5.03,1.86,1.43,4.09,2.51,6.34,3.67,2.11,1.09,4.27,2.27,6.64,3.09s4.72,1.05,7.16,1.54,4.75,1.05,7.21,1.2c2,.12,4.64.3,7.65.03,2.32-.21,4.93-.47,7.59-1.14,2.35-.59,4.84-1.37,7.29-2.45,2.23-.99,4.43-2.38,6.62-3.9,2.01-1.39,3.68-3.33,5.56-5.24,1.7-1.73,3.42-3.57,4.94-5.79,1.36-2,2.48-4.25,3.65-6.69,1.19-2.5,4.42-3.33,6.92-2.13,2.5,1.19,3.89,4.24,2.7,6.73-1.02,2.13-2.35,4.06-3.56,5.98-1.25,1.99-2.76,3.74-4.2,5.51s-3.1,3.41-4.78,4.98c-1.69,1.58-3.5,2.96-5.39,4.29s-3.57,2.97-5.64,4.05c-1.98,1.03-4.25,1.47-6.37,2.24s-4.08,2.01-6.29,2.52-4.46.6-6.72.85-4.47.07-6.74.07Z"/>
        <path class="cls-3" d="M298.35,452.32c-2.52,0-5.06-.07-7.34-.77s-4.39-2.29-6.38-3.66-4.05-2.86-5.53-4.79-2.33-4.27-3.14-6.6-1.67-4.62-1.67-7.13.54-4.99,1.32-7.26,2.37-4.26,3.86-6.19,2.89-4.03,4.92-5.43,4.42-2.01,6.8-2.74,4.64-1,7.16-1,4.85.4,7.13,1.1,4.75,1.4,6.74,2.77,3.6,3.3,5.09,5.23,2.77,3.99,3.57,6.33,1.26,4.66,1.26,7.18-.44,4.93-1.22,7.19-2.22,4.3-3.71,6.23-3.15,3.62-5.18,5.02-4.05,2.7-6.42,3.43-4.72,1.08-7.24,1.08ZM298.35,416.48c-2.44,0-4.57.88-6.56,1.93-2.11,1.11-4.18,2.31-5.42,4.25-1.24,1.94-1.65,4.29-1.65,6.71s.36,4.8,1.6,6.74,3.31,3.2,5.42,4.31c1.99,1.05,4.17,1.72,6.61,1.72s4.88-.18,6.87-1.22c2.11-1.11,3.51-3.13,4.75-5.07s2.41-4.06,2.41-6.48-.69-4.85-1.93-6.79-3.11-3.69-5.22-4.79c-1.99-1.05-4.45-1.31-6.89-1.31Z"/>
        <path class="cls-3" d="M338.99,452.49c-2.53,0-5.01-.47-7.3-1.22s-4.39-2.22-6.37-3.66-4.04-2.9-5.49-4.9c-1.44-1.97-2.17-4.37-2.94-6.74s-1.3-4.65-1.3-7.18.04-5.06.79-7.35,2.43-4.3,3.87-6.27,2.98-3.9,4.97-5.35c1.97-1.44,4.25-2.3,6.62-3.07s4.63-1.24,7.16-1.24,5.05-.06,7.34.69,4.56,2.06,6.53,3.5,3.4,3.5,4.85,5.49,2.59,4.06,3.36,6.43,1.58,4.65,1.58,7.18-.79,4.9-1.54,7.19-1.53,4.76-2.97,6.73-3.16,3.91-5.15,5.36-4.32,2.5-6.68,3.27c-2.29.74-4.8,1.14-7.33,1.14ZM338.99,415.52c-2.45,0-4.69.58-6.67,1.72s-4.02,2.66-5.2,4.7-1.41,4.4-1.41,6.85.24,4.88,1.39,6.87,3.07,3.7,5.11,4.88,4.33,1.45,6.78,1.45,4.91-.11,6.89-1.25c2.04-1.18,3.63-3.14,4.81-5.18s2.1-4.3,2.1-6.76-.8-4.86-1.95-6.84c-1.18-2.04-3.2-3.42-5.25-4.6s-4.15-1.84-6.6-1.84Z"/>
        <path class="cls-3" d="M298.35,437.64c-2.15,0-4.15-.54-5.56-1.95s-2.58-3.41-2.58-5.56,1.39-3.92,2.8-5.33,3.19-2.65,5.33-2.65,3.85,1.32,5.26,2.72,2.64,3.11,2.64,5.26-1.11,3.97-2.52,5.38-3.23,2.13-5.38,2.13Z"/>
        <path class="cls-3" d="M338.99,436.32c-2.12,0-4.11-.63-5.5-2.02s-2.53-3.38-2.53-5.5,1.12-4.13,2.51-5.52,3.4-2.08,5.52-2.08,3.98.84,5.37,2.23c1.39,1.39,2,3.25,2,5.37s-.65,3.95-2.04,5.34c-1.39,1.39-3.22,2.19-5.34,2.19Z"/>
      </g>
    </g>
  </g>
</svg>