<?xml version="1.0" encoding="UTF-8"?>
<svg id="Calque_1" data-name="Calque 1" xmlns="http://www.w3.org/2000/svg" viewBox="0 0 1578.98 515.82">
  <defs>
    <style>
      .cls-1 {
        fill: #efca52;
      }

      .cls-2 {
        fill: #232115;
      }

      .cls-3 {
        fill: #2d2218;
      }

      .cls-4 {
        fill: #f6f4f1;
      }
    </style>
  </defs>
  <rect class="cls-1" x="-1.79" y="-3.64" width="1584.74" height="526.12"/>
  <g>
    <path class="cls-3" d="M1002.75,226.06c-4.46,5,8.29,10.27,11.35,11.63,20.18,8.94,54.63,14.33,56.2,43.08.81,14.8-3.98,24.28-15.4,32.47-21.57,15.48-49.57,14.38-74.32,10.1-6.14-1.06-27.98-6.75-30.65-12.48-1.97-4.23.32-14.49.58-19.7.14-2.81-.7-5.2-.33-8.35,1.17-9.88,6.29-8.1,13.59-6.36,16.27,3.87,33.2,16.65,50.65,12.23,15.31-3.88-.26-10.41-6.35-12.78-24.02-9.32-78.84-26.04-55.16-64.34,20.65-33.41,70.65-29.53,100.94-15.11,6.45,3.07,9.39,4.61,10.23,12.76.61,5.88-.44,17.88-1.52,23.85-.46,2.55-1.17,4.07-3.84,4.36-6.04.68-20.42-8.05-27.17-10.42-6.17-2.16-23.97-6.35-28.8-.94Z"/>
    <path class="cls-3" d="M899.52,340.64c-2.29-2.14-3.01-8.12-4.27-11.14-3.31-7.91-5.39-5.47-12.17-5.99-5.72-.44-11.45-1.06-17.27-.71-2.03.12-7.92.62-9.42,1.25-6.3,2.63-3.51,17.11-13.27,18.71-11.98-.52-25.66,1.72-37.28-1.55-1.6-.45-4.67-1.17-5.17-2.91-1.23-4.22,2.6-13.94,4.2-18.22,8.91-23.87,21.02-48.07,30.92-71.68,4.23-10.07,7.87-22.79,12.35-32.16,1.76-3.67,4.38-6.16,8.1-7.48,5-1.77,24.28-1.67,30.14-1.05,3.07.32,8.63,2.34,10.59,4.87l50.76,125.16c-.07,3.06-1.71,4.04-4.39,4.43-11.93-.51-24.56,1.85-36.42.78-1.97-.18-5.96-.98-7.4-2.32ZM868.49,289.54c1.73.51,8.19,0,10.61,0,.1,0,1.62-.72,1.66-1.11-1.5-4.65-2.11-9.62-3.5-14.3-.52-1.73-2.04-8.19-4.11-8.18l-6.2,20.65c-.39.93.87,2.74,1.55,2.94Z"/>
    <path class="cls-3" d="M736.3,184.77c29.77-2.77,61.03,15.15,68.5,46.51,10.77,45.21-2.66,89.36-51.47,95.44-35.28,4.39-66.16-11.47-74.14-49.34-9.05-42.97,12.37-88.44,57.11-92.61ZM738.9,236.04c-6.42,1.38-14.73,14.52-15.08,21.02-.48,8.82,7,15.74,14.59,18.01,5.99,1.79,10.99,2.64,15.84-2.16,13.18-13.07,6.41-41.55-15.35-36.87Z"/>
    <path class="cls-3" d="M539.54,219.42c1.35-1.65,3.85-2.46,5.84-2.81,11.73-2.1,25.96.24,37.72-2.32,26.49-1.76,52.7-6.03,79.31-6.28,2.41.28,3.66,3.13,4.43,5.18,1.82,4.86,3.19,19.76,3.01,25.18-.09,2.78-.91,4.96-3.49,5.87-9.71,3.42-20.11.81-30,2.78-2.94.59-5.45,1.27-6.41,4.56l6.65,86.84c0,4.9-.67,7.44-5.67,8.43-7.82,1.54-19.09,2.7-27.06,2.88-2.7.06-10.28.04-12.5-.58-2.6-.73-3.5-6.37-3.88-8.9-3.05-20.46-1.8-42.41-4.31-63.02l-3.23-21.84c-.72-1.96-4.68-2.59-6.48-2.67-5.76-.25-11.52.9-17.09,1.31-8.11.6-15.66,3.48-17.56-7.33-.95-5.36-2.52-23.35.7-27.29Z"/>
    <path class="cls-3" d="M1209.6,255.26c-.94.6-7.28.86-8.84.82-7.54-.23-14.83-2.76-22.4-2.78-5.1-.01-7.23.24-8.24,5.81-4.32,23.93-3.68,52.11-7.01,76.72-.4,2.93-1.1,8.31-1.74,10.91-1.45,5.9-9.09,3.44-13.24,3.36-6.6-.14-13.28-.13-19.9-1.12-2.77-.41-9.44-1.5-11.68-2.55-2.55-1.19-3.04-4.17-3.08-6.85-.33-23.63,5.99-52.29,7.1-76.68.1-2.12.3-9.96-.1-11.3-1.11-3.79-10.97-3.87-14.14-4.26-1.28-.16-2.51-.97-3.9-1.11-6.91-.71-20.67,2.7-20.85-8.48-.08-4.94,1.08-17.13,2.19-21.9,1.22-5.24,3.63-7.94,8.89-8.07,11.88-.3,26.14,4.84,38.2,4.19,23.99,2.74,48.19,2.56,71.99,6.66,2.26.39,5.23.08,7.24.69,3.51,1.06,3.84,9.98,3.78,13.23-.08,4.27-1.05,20.68-4.28,22.72Z"/>
    <path class="cls-3" d="M1326.52,235.43c-.52.72-2.09,1.61-2.91,2.01-6.1,2.91-24.15,3.11-31.78,3.56-5.78.34-14.22-2.44-16.39,6-1.32,5.14-.61,11.23,5.19,11.37,10.75.27,22.72-2.61,33.58-2.54,10.96.06,10.91,4.7,11.41,15.37.14,2.94.25,9.89-.28,12.47-.79,3.8-3.35,5.74-6.72,6.35-11.66,2.13-25.4.85-37.28,2.74-4.58,1.32-4.85,13.72.44,14.41,14.08,1.84,31.22-3.35,45.38-2.67,3.53.17,5.55,2.37,6.32,6.16.92,4.49,1.79,18.64.7,22.86-.9,3.5-2.7,4.17-5.76,4.71-15.24,2.72-35.8,2.7-51.54,3.82-9.65.69-26.45,3.69-35.32,1.7-5.39-1.21-6.26-6.69-7.02-12.02-5.17-36.32-3.72-76.46-8.39-113.17-.55-3.52,2.95-5.54,5.57-6.17,6.55-1.57,13.72-1.5,20.38-2.26,19.72-2.25,42.93-5.3,62.7-5.35,5.09-.01,9.56-.71,10.7,5.79.91,5.2,2.3,15.47,2.16,20.53-.03,1.25-.46,3.39-1.14,4.34Z"/>
    <path class="cls-3" d="M1263.22,195.78c6.91-1.01,44.03-6.31,49.28-9.84.71-.48,2.04-1.54,2.44-2.34.52-1.06.68-3.36.57-4.69-.42-5.39-2.79-16.22-4.18-21.69-1.74-6.83-5.74-5.77-10.38-5.4-18.02,1.45-38.86,6.33-56.59,10.12-5.99,1.28-12.53,1.71-18.34,3.85-2.32.85-5.29,3.25-4.41,6.96l3.96,20.21c.98,4.99,6.51,8.17,12.45,7.15l25.2-4.32Z"/>
    <path class="cls-3" d="M1381.15,209.34c-1.89,0-3.67-.47-5.46-.82-1.84-.37-3.63-.69-5.33-1.4-1.72-.72-3.27-1.69-4.8-2.72s-2.96-2.16-4.28-3.47-2.59-2.63-3.62-4.17-1.72-3.23-2.43-4.96c-.71-1.7-1.38-3.39-1.75-5.23-.36-1.79-.34-3.61-.34-5.5s.11-3.69.46-5.48.9-3.57,1.6-5.27,1.6-3.3,2.63-4.84c1.04-1.55,1.72-3.4,3.03-4.71,1.31-1.31,2.91-2.38,4.45-3.42,1.53-1.03,3.4-1.44,5.13-2.16s3.39-1.35,5.23-1.71c1.79-.36,3.6-.7,5.49-.7s3.77-.02,5.56.33c1.84.37,3.61,1.02,5.3,1.73s3.55,1.34,5.08,2.37c1.55,1.04,2.76,2.54,4.07,3.85,1.31,1.31,2.69,2.61,3.72,4.16s2,3.18,2.72,4.9c.71,1.7.94,3.59,1.31,5.44s.53,3.63.53,5.52.02,3.77-.34,5.56-1.23,3.52-1.94,5.22-1.43,3.44-2.45,4.97-1.96,3.24-3.27,4.55-2.85,2.47-4.39,3.5c-1.53,1.03-3.21,1.97-4.93,2.69-1.7.71-3.62.82-5.47,1.18-1.79.36-3.61.62-5.5.62ZM1381.15,161.64c-1.73,0-3.5-.05-5.1.38-1.65.44-3.2,1.32-4.64,2.16s-2.93,1.82-4.13,3.01-2.24,2.61-3.09,4.08-1.37,3.11-1.82,4.76-.86,3.3-.86,5.03.39,3.45.81,5.04.94,3.35,1.78,4.79c.85,1.47,1.99,2.83,3.18,4.02s2.59,2.27,4.06,3.12,3.07,1.55,4.72,1.99c1.6.43,3.35.01,5.08.01s3.36-.04,4.96-.46,3.44-.63,4.88-1.47,2.8-2.03,3.99-3.22,2.13-2.66,2.98-4.13c.84-1.45,1.29-3.08,1.74-4.73s.76-3.24.76-4.97-.53-3.32-.96-4.91-.73-3.32-1.57-4.77c-.85-1.47-2.06-2.65-3.25-3.84s-2.53-2.13-4-2.98-2.86-1.79-4.51-2.23-3.29-.68-5.02-.68Z"/>
    <path class="cls-3" d="M1391.94,171.27c-1.67-.66-3.7-.63-5.5-.86-2.14-.27-4.14-.3-5.49-.28-1.8.02-3.54.24-5.18.46-1.93.26-3.74.32-5.16.81-2.13.74-3.38,3.22-2.64,5.35.51,1.46,2.08,2.34,3.5,2.58.66,2.43-.3,2.56-.3,5.08s.16,2.52.16,5.04c0,1.47,1.16,2.55,2.63,2.55,2.38,0,2.38-.02,4.75-.02s2.38-.03,4.76-.03,2.38-.13,4.76-.13c1.47,0,2.48-.9,2.48-2.37,0-2.51-.06-2.51-.06-5.03s-.74-2.69-.09-5.12c1.4-.2,3.14-.98,3.69-2.39.83-2.09-.23-4.82-2.32-5.65Z"/>
    <g>
      <path class="cls-3" d="M347.74,331.98c2.01,0,4,.38,5.99.37,2.01,0,4.01-.16,6-.18,2.01-.02,4.01-.35,6-.38,2.02-.02,4.02.45,6.01.42s4.02-.29,6-.33,4.02.17,6.01.13c2.02-.04,4.02-.17,6-.2,2.02-.04,4.02-.47,6-.5,2.03-.04,4.03.05,6.01.02s4.03.33,6.01.3,4.03-.1,6-.12,4.04-.39,6-.39c2.04,0,4.04.34,6,.36s4.05-.31,6.01-.27c2.05.05,4.06-.02,6.01.05,2.06.08,4.06.29,5.99.41,2.07.13,4.06.45,5.97.63,2.08.2,4.11.15,6,.42,2.1.3,4,1.07,5.84,1.47,2.11.45,4.11.7,5.86,1.3,2.09.71,3.77,1.82,5.31,2.76,1.89,1.15,3.63,2.21,4.64,3.76,1.07,1.65,1.57,3.64,1.57,5.8,0,1.96-1.13,3.52-2.7,5.06-1.21,1.19-2.6,2.64-4.68,3.6-1.61.74-3.62,1.03-5.71,1.65-1.76.52-3.67.93-5.75,1.37-1.83.38-3.77.7-5.83,1.03-1.87.29-3.77.93-5.82,1.18-1.89.23-3.89.18-5.92.37-1.91.18-3.87.45-5.9.6-1.92.14-3.89.32-5.91.43s-3.9.19-5.92.28c-1.94.08-3.92-.1-5.93-.04s-3.91.19-5.93.24c-1.95.05-3.92.33-5.92.36-1.95.03-3.93-.16-5.93-.15-1.95.02-3.93.5-5.93.51-1.95,0-3.93-.41-5.93-.41-1.96,0-3.93.18-5.93.17s-3.93-.37-5.93-.39c-1.96-.02-3.94.17-5.93.15-1.96-.02-3.94.01-5.93-.02-1.96-.03-3.94.02-5.93-.02-1.97-.03-3.94-.38-5.93-.42-1.97-.04-3.95.38-5.94.34-2.95-.02-2.95-.13-5.89-.14-2.95,0-2.95-.23-5.89-.24-2.95,0-2.95-.03-5.89-.03-2.95,0-2.95.07-5.89.07-2.95,0-2.95.22-5.89.22-2.95,0-2.95-.2-5.89-.21-2.95,0-2.95.31-5.89.31s-2.95-.23-5.89-.24-2.95-.12-5.89-.13c-2.95,0-2.95-.11-5.89-.12-2.95,0-2.95-.04-5.9-.04-2.95,0-2.95.13-5.9.13s-2.95.36-5.9.35-2.95-.13-5.89-.14c-2.95,0-2.95.13-5.89.13-2.95,0-2.95-.35-5.89-.35s-2.95.36-5.9.35c-2.95,0-2.95-.21-5.9-.21s-2.95-.18-5.9-.19c-2.95,0-3.47.17-6.42.17s-5.35,1.56-7.13-.79,2.26-2.29,2.97-5.26,1.13-2.86,1.84-5.83c.71-2.97.19-3.09.91-6.05.71-2.97.95-2.91,1.66-5.88.71-2.97.77-2.95,1.49-5.92.71-2.97.43-3.03,1.15-6,.71-2.97-.79-4.1,1.68-5.89,2.43-1.77,2.99.5,5.99.77,2.99.27,3,.16,6,.43s3.01.08,6.01.35c2.99.27,2.97.5,5.97.78,3,.27,2.99.32,5.99.59,3,.27,2.99.33,5.99.6,3,.27,3.04-.22,6.04.05,3,.27,2.95.73,5.95,1s3.03-.12,6.03.15c3,.27,2.97.56,5.97.83,3,.27,3,.23,6,.5,3,.27,2.99.37,5.98.64,3,.27,3.02.02,6.01.29,3,.27,2.98.39,5.98.66s2.97.54,5.97.81c3,.27,3.02-.03,6.02.24s3.01.14,6,.41c3,.27,2.98.47,5.98.71,3,.24,3,.16,6.01.37Z"/>
      <g>
        <path class="cls-4" d="M224.35,359.31c-2.74,0-2.74.22-5.49.22-2.74,0-2.74.21-5.49.21-2.74,0-2.74-.19-5.49-.19-2.74,0-2.74-.18-5.49-.18q-2.74,0-5.49,0c-2.92,0-5.23-1.92-6.06-4.72-.99-3.35-1.13-3.31-2.12-6.66-.99-3.35-3.66-3.55-1.88-6.55,1.51-2.56,2.77-.18,5.74-.18s2.97-.23,5.94-.23,2.97.5,5.94.5,2.97-.37,5.94-.37,2.97.46,5.94.46,2.97-.38,5.94-.38,2.97.24,5.95.24,4.49-2.75,6.09-.24c1.83,2.88-.9,3.42-1.77,6.73-.87,3.31-1.17,3.23-2.04,6.53-.76,2.89-3.18,4.81-6.17,4.81Z"/>
        <path class="cls-3" d="M224.35,363.89c-2.74,0-2.74-.09-5.49-.09-2.74,0-2.74-.3-5.49-.3s-2.74.35-5.49.35c-2.74,0-2.74-.08-5.49-.08-2.74,0-2.74.17-5.49.17-2.38,0-4.6-1.11-6.43-2.47s-3.03-3.33-3.7-5.61c-.99-3.35-.97-3.35-1.96-6.71-.99-3.35-1.36-3.24-2.35-6.59-.38-1.27-.16-2.82.63-3.88.8-1.06,2.22-1.38,3.55-1.38,2.97,0,2.97-.22,5.94-.22s2.97.2,5.94.2,2.97-.03,5.94-.03,2.97-.08,5.94-.08,2.97-.18,5.94-.18,2.97.22,5.94.22,2.97-.17,5.95-.17,2.97.2,5.95.2c1.31,0,2.74.34,3.53,1.38.8,1.04.7,2.49.37,3.75-.87,3.31-.53,3.4-1.4,6.7-.87,3.31-.99,3.27-1.86,6.58-.62,2.37-2.03,4.39-3.87,5.81s-4.16,2.44-6.61,2.44ZM192.9,345.71c-.47,1.88.7,3.79,1.87,7.79.29,1,1.1,1.9,2.14,1.9,2.74,0,2.74-.35,5.49-.35s2.74.08,5.49.08,2.74-.17,5.49-.17,2.74.32,5.49.32,2.74.19,5.49.19c1.07,0,2.25-.9,2.52-1.93,1.05-3.97,2.33-6.13,1.93-6.9-.91-1.76-3.11-.89-6.15-.89-3.03,0-3.03-.39-6.07-.39-3.04,0-3.04.22-6.07.22-3.03,0-3.03-.2-6.07-.2-3.04,0-3.42.34-6.48-.13-3.25-.5-4.7-.96-5.06.47Z"/>
      </g>
      <g>
        <path class="cls-4" d="M426.92,359.24c-2.74,0-2.74.06-5.49.06-2.74,0-2.74.24-5.49.24-2.74,0-2.74-.03-5.49-.03s-2.74-.06-5.49-.06-2.74-.2-5.49-.2c-2.92,0-5.7-1.66-6.52-4.46-.99-3.35-.8-3.41-1.79-6.76s-3.73-3.71-1.95-6.72c1.51-2.56,2.98.07,5.95.07s2.97.14,5.94.14,2.97-.25,5.94-.25,2.97-.13,5.94-.13,2.97-.09,5.94-.09,2.97.16,5.94.16,2.97.4,5.95.4,4.54-2.93,6.14-.42c1.83,2.88-1.21,3.39-2.08,6.7-.87,3.31-.66,3.36-1.53,6.67-.76,2.89-3.44,4.67-6.42,4.67Z"/>
        <path class="cls-3" d="M426.92,363.93c-2.74,0-2.74-.45-5.49-.45-2.74,0-2.74-.03-5.49-.03-2.74,0-2.74-.02-5.49-.02q-2.74,0-5.49,0c-2.74,0-2.74.11-5.49.11-2.38,0-4.54-.79-6.37-2.15s-3.32-3.18-3.99-5.46c-.99-3.35-.83-3.4-1.82-6.75-.99-3.35-1.32-3.25-2.31-6.6-.38-1.27-.14-2.85.66-3.91.8-1.06,2.24-1.42,3.57-1.42,2.97,0,2.97-.35,5.94-.35s2.97.44,5.94.44,2.97.04,5.94.04,2.97,0,5.94,0,2.97.03,5.94.03,2.97-.04,5.94-.04,2.97-.15,5.95-.15,2.97-.19,5.95-.19c1.31,0,2.75.57,3.54,1.6.8,1.04.58,2.46.24,3.73-.87,3.31-.44,3.42-1.31,6.73s-.89,3.3-1.76,6.61c-.62,2.37-2.28,4.16-4.12,5.58-1.84,1.42-3.99,2.7-6.44,2.7ZM395.1,345.65c-.81,1.97.76,3.94,1.94,7.94.29,1,1.4,1.86,2.44,1.86,2.74,0,2.74.02,5.49.02s2.74,0,5.49,0,2.74-.11,5.49-.11,2.74.02,5.49.02,2.74-.15,5.49-.15c1.07,0,2.16-.67,2.43-1.71,1.05-3.97,2.7-5.49,1.77-7.88-.36-.93-2.86.15-5.9.15-3.03,0-3.03-.37-6.07-.37-3.04,0-3.04.35-6.07.35-3.03,0-3.03-.44-6.07-.44-3.04,0-2.98.16-6.01-.03-2.8-.17-5.46-.71-5.89.35Z"/>
      </g>
      <g>
        <path class="cls-4" d="M426.88,208.4c3.21,0,3.21-.35,6.42-.35s3.21.15,6.42.15,3.21-.1,6.42-.1,3.21-.22,6.42-.22,3.21.44,6.42.44c1.88,0,3.64.47,5.1,1.52s2.55,2.54,3.14,4.33c.75,2.27.51,2.35,1.26,4.62.61,1.85.58,3.55.04,5.22s-1.47,3.3-2.96,4.39c-1.42,1.04-3.13,1.7-5.08,1.7-3.15,0-3.15.12-6.3.12s-3.15,0-6.3,0c-3.15,0-3.15-.33-6.31-.33-3.15,0-3.15.31-6.31.31"/>
        <path class="cls-3" d="M460.48,234.43c-3.15,0-3.15-.2-6.3-.2-3.15,0-3.15.36-6.3.36s-3.15-.09-6.31-.09q-3.15,0-6.31,0c-2.33,0-4.5-2.02-4.5-4.35s2.17-4.07,4.5-4.07c3.15,0,3.15-.03,6.3-.03s3.15.11,6.3.11,3.15-.17,6.31-.17,3.15.17,6.31.17c1.46,0,2.73-.96,3.59-2.14.86-1.19,1.37-2.69.91-4.08-.75-2.27-.96-2.2-1.71-4.48-.61-1.85-2.34-3.14-4.28-3.14-3.21,0-3.21.14-6.42.14s-3.21.13-6.42.13-3.21-.18-6.42-.18c-3.21,0-3.21-.06-6.42-.06s-3.21,0-6.42,0c-2.33,0-4.44-1.87-4.44-4.2s2.11-4.27,4.44-4.27c3.21,0,3.21.2,6.42.2s3.21-.18,6.42-.18,3.21.2,6.42.2,3.21-.12,6.42-.12,3.21.19,6.42.19c1.85,0,3.67.06,5.28.78s2.93,2.03,4.15,3.37c1.19,1.31,2.22,2.75,2.8,4.51.75,2.27.88,2.23,1.63,4.5.66,1.99.91,4.1.6,6.08-.31,1.98-1.13,3.95-2.36,5.65-1.23,1.7-2.96,2.87-4.75,3.79s-3.75,1.56-5.85,1.56Z"/>
      </g>
      <path class="cls-2" d="M435.31,230.07c3,1.95,4.11,2.05,6.96-.11,2.26-1.71.34-2.65.51-5.48.17-2.83.19-2.83.36-5.66.17-2.83.04-2.84.21-5.68s2.61-3.86.4-5.64c-2.88-2.32-3.68-.06-7.37-.06s-4.82-2.63-7.47-.05c-2.11,2.05.67,2.97,1.45,5.8s.79,2.83,1.57,5.66c.78,2.83,1.26,2.7,1.48,5.64s-.56,3.97,1.9,5.57Z"/>
      <g>
        <path class="cls-4" d="M177.86,257.18c.67-3,.69-3,1.36-5.99.67-3,.4-3.06,1.07-6.06.67-3,.71-2.99,1.39-5.99.67-3,.76-2.98,1.43-5.98.67-3,.44-3.06,1.11-6.06s.8-2.97,1.45-5.98c.4-2.1,1.17-4.08,1.71-6.08s1.17-4.07,1.89-6.01,1.41-4.01,2.33-5.86c.95-1.92,2.23-3.6,3.36-5.33s2.22-3.63,3.59-5.18c1.41-1.59,2.82-3.2,4.43-4.52s3.39-2.57,5.23-3.6,3.92-1.48,5.94-2.17,3.9-1.53,6.03-1.87c1.97-.31,3.98-.62,6.01-.92s4.02-.36,6.05-.64,3.97-.73,6.01-.99c1.98-.26,4.03-.26,6.07-.5s3.98-.71,6.02-.93c1.99-.22,4.05,0,6.1-.2,2-.19,3.96-.93,6.01-1.11s4.03-.22,6.08-.38c2-.15,4.05.07,6.1-.06,2-.13,4.01-.64,6.05-.76,2.01-.11,4.05.24,6.1.16,2.01-.09,4.03-.13,6.08-.2s4.03-.22,6.08-.26c2.01-.04,4.04-.12,6.09-.14,2.01-.02,4.04-.28,6.09-.28s3.97.39,5.92.41,3.97-.25,5.92-.21c2,.04,3.98-.11,5.93-.05,2,.06,3.97.12,5.92.2s3.97.14,5.92.24,3.94.63,5.89.76c1.99.13,3.98.05,5.92.2s3.94.51,5.88.68,3.97.21,5.91.4,3.93.59,5.87.8c1.99.22,3.94.52,5.87.75,1.99.24,3.98.18,5.91.44s3.96.4,5.88.68c1.98.28,3.93.62,5.85.92,1.98.3,3.92.64,5.84.95,2.08.34,4.04,1.03,5.93,1.69,1.96.69,3.72,1.73,5.48,2.74s3.71,1.84,5.29,3.15c1.56,1.3,2.72,3.05,4.09,4.61,1.34,1.52,2.8,2.97,3.96,4.7s2.07,3.5,3.03,5.35,1.97,3.58,2.75,5.51c.76,1.88,1.33,3.86,1.95,5.84.61,1.94,1.12,3.93,1.59,5.94.68,3.07.76,3.05,1.43,6.12.67,3.07.33,3.14,1,6.21.67,3.07.84,3.03,1.51,6.1.67,3.07.97,3,1.64,6.07.67,3.07.3,3.15.97,6.22.67,3.07,1.07,2.98,1.74,6.06"/>
        <path class="cls-3" d="M177.75,261.41c-.31,0-.59-.17-.9-.24-2.27-.51-3.82-1.76-3.31-4.04.67-2.99.73-3.97,1.4-6.96s.65-2.92,1.33-5.92c.67-2.99.54-3.02,1.21-6.02.67-2.99.7-2.99,1.38-5.98.67-3,.98-2.93,1.65-5.92s.67-3,1.31-6c.39-2.07.56-4.16,1.08-6.11.54-2.04,1.05-4.06,1.73-5.96.71-1.99,1.79-3.79,2.64-5.62.89-1.91,1.67-3.85,2.71-5.58s2.47-3.37,3.72-4.96c1.3-1.65,2.47-3.39,3.92-4.81,1.5-1.45,3.4-2.39,5.06-3.58s3.35-2.38,5.19-3.3,3.66-1.9,5.64-2.53c1.94-.62,3.96-1.08,6.04-1.41,2.03-.32,4.08-.41,6.09-.71s4.07-.49,6.08-.77,4.03-.78,6.05-1.04c2.04-.26,4.05-.63,6.07-.88s4.11-.07,6.14-.29c2.04-.22,4.06-.49,6.09-.68,2.04-.2,4.06-.55,6.09-.73,2.04-.18,4.07-.44,6.1-.59s4.09-.14,6.13-.27c2.04-.13,4.06-.57,6.1-.68,2.04-.11,4.1.19,6.14.1,2.04-.09,4.06-.62,6.11-.69,2.04-.06,4.09.4,6.14.36s4.07-.49,6.12-.51,4.08.23,6.13.23,4-.3,5.97-.28,4,.21,5.96.25,4.01.01,5.97.08,3.99.46,5.95.54c2.02.09,4.02-.02,5.97.09,2.02.11,3.99.46,5.94.59s4.02-.03,5.97.12c2.02.15,4.01.25,5.95.42,2.02.18,3.96.77,5.9.96,2.03.2,4.05,0,5.97.22,2.03.22,4,.49,5.92.72,2.03.25,4,.59,5.91.85,2.04.27,4.05.29,5.94.56,2.05.3,3.96,1,5.84,1.29,2.06.32,4.08.3,5.94.61,2.02.33,3.96.92,5.85,1.53s3.77,1.45,5.56,2.36,3.46,2.01,5.11,3.21c1.61,1.17,3.02,2.58,4.49,4.01s2.72,2.87,3.99,4.49,2.5,3.08,3.59,4.83c1.03,1.67,2.26,3.3,3.17,5.15s1.27,3.78,2.02,5.7c.71,1.83,1.73,3.6,2.34,5.58.57,1.88,1.03,3.85,1.5,5.86,0,.02.11.03.12.05.67,3.07.27,3.16.94,6.22.67,3.07.92,3.01,1.59,6.08.67,3.07.49,3.11,1.15,6.18.67,3.07,1.06,2.98,1.73,6.05.67,3.07.54,3.03,1.21,6.1.67,3.07.46,3.5,1.13,6.58.5,2.28-.89,4.15-3.16,4.64-2.28.49-4.45-.91-4.95-3.19-.67-3.07-1.01-2.99-1.68-6.06s-.32-3.14-.99-6.21c-.67-3.07-.88-3.02-1.55-6.09-.67-3.07-.7-3.06-1.36-6.13s-.67-3.07-1.34-6.14c-.67-3.07-.62-3.08-1.3-6.15-.44-1.85-.57-4.03-1.26-6.19-.61-1.91-1.62-3.8-2.47-5.81-.8-1.89-1.61-3.85-2.65-5.72s-2.28-3.51-3.54-5.21-2.53-3.34-4.05-4.81c-1.49-1.45-3.1-2.82-4.88-3.98s-3.63-2-5.64-2.78c-1.89-.73-3.92-1.14-6.09-1.49-1.83-.3-3.75-.71-5.78-1.03-1.85-.29-3.79-.56-5.81-.85-1.87-.27-3.79-.63-5.8-.9-1.88-.25-3.82-.49-5.82-.74-1.89-.23-3.82-.61-5.82-.83s-3.85-.4-5.85-.59c-1.91-.19-3.87-.19-5.87-.37s-3.86-.32-5.85-.47c-1.92-.15-3.86-.47-5.84-.6-1.92-.12-3.87-.34-5.86-.44-1.92-.1-3.89.08-5.88,0-1.93-.08-3.88-.21-5.87-.27s-3.89-.26-5.87-.3-3.89-.01-5.88-.03-3.9,0-5.88,0-4.04-.06-6.04-.03-4.03.4-6.04.44c-2.02.04-4.03-.08-6.04-.02-2.02.06-4.02.36-6.03.44s-4.02.17-6.03.28c-2.01.11-4.02.19-6.03.32s-4.01.34-6.02.49c-2,.15-4.04-.09-6.05.09-2,.17-3.98.6-5.99.79-2,.2-4.03.14-6.04.35s-3.94.88-5.95,1.12-4.01.33-6.02.59-4.01.31-6.01.59-3.93.88-5.94,1.18c-1.98.29-3.98.56-5.98.88-1.92.3-3.83.5-5.63,1.13-1.81.63-3.43,1.68-5.1,2.63s-3.32,1.86-4.82,3.1-2.89,2.48-4.18,3.95c-1.23,1.41-2.33,2.99-3.41,4.63-1.02,1.56-1.91,3.26-2.78,5.02-.83,1.67-1.37,3.5-2.06,5.35-.65,1.75-1.51,3.47-2.03,5.37-.49,1.8-.73,3.71-1.09,5.64,0,.05.05.14.04.19-.67,3-.65,3-1.32,6-.67,3-.87,2.95-1.55,5.95-.67,3-.64,3.01-1.31,6.01-.67,3-.56,3.02-1.24,6.02s-.8,2.97-1.48,5.97c-.67,3-.38,3.07-1.05,6.07-.44,1.96-2.22,3.32-4.15,3.32Z"/>
      </g>
      <g>
        <path class="cls-3" d="M399.55,194.44c-1.1-2.6-3.56-4.15-6.34-4.62-1.95-.33-3.89-.65-5.82-.95-1.95-.31-3.86-.82-5.8-1.11-1.95-.29-3.9-.58-5.84-.84-1.96-.26-3.93-.29-5.88-.53-1.96-.24-3.9-.56-5.84-.77-1.96-.21-3.9-.55-5.85-.74-1.96-.19-3.93-.16-5.89-.32-1.96-.17-3.89-.62-5.86-.76-1.96-.14-3.94,0-5.9-.11-1.96-.12-3.91-.51-5.87-.61-1.96-.09-3.92-.2-5.9-.26-1.96-.07-3.93-.11-5.9-.16-1.96-.04-3.93.24-5.9.22-1.96-.02-3.92-.01-5.9-.01s-4.05-.34-6.07-.32c-2.02.02-4.05-.08-6.07-.03-2.02.05-4.03.48-6.05.55-2.02.07-4.05-.21-6.08-.12-2.02.1-4.02.47-6.04.59-2.02.12-4.02.49-6.04.64-2.01.14-4.03.29-6.04.46-2.01.17-4.05.08-6.06.27-2.01.19-3.99.7-6,.92-2.01.22-4.03.24-6.05.48-2,.24-4,.58-6.01.84-2,.26-3.99.59-6,.88-1.99.28-3.98.63-5.99.94-1.99.3-4.04.28-6.04.61-2.8.46-5.14,2.38-6.32,4.97,0,0-.04,0-.04,0-.13.3-.6,1.65.08,2.51s2.32,1.82,8.01.99c1.1-.22,4.43-.76,5.54-.93,1.97-.3,3.92-.73,5.89-1,1.98-.28,3.92-.73,5.89-.98,1.98-.26,3.97-.39,5.94-.63,1.98-.24,3.98-.26,5.95-.48,1.98-.21,3.96-.4,5.94-.59,1.98-.19,3.98-.22,5.95-.39,1.99-.17,3.96-.42,5.94-.56,1.99-.14,3.95-.62,5.93-.74,1.99-.12,3.98-.19,5.96-.29,1.99-.1,3.98-.07,5.97-.14,1.99-.07,3.98-.19,5.96-.24,1.99-.05,3.98-.06,5.97-.09,1.99-.02,3.98-.17,5.97-.17,2.09,0,4.17.13,6.25.16,2.09.03,4.17.37,6.24.42,2.09.05,4.16.18,6.23.26,2.08.08,4.17.05,6.24.15,2.08.11,4.17,0,6.25.13,2.08.13,4.17.15,6.24.31,2.07.16,4.14.45,6.21.64,2.07.19,4.13.52,6.2.73,2.07.22,4.13.44,6.21.69,2.06.24,4.16.27,6.23.54,2.06.27,4.12.56,6.19.85,2.05.3,4.08.83,6.14,1.15,2.05.32,4.1.67,6.16,1.02.02,0,.34.04.35.06.02.04,1.43.11,1.45.15,3.17.22,4.68.38,5.76-.53,1.08-.91.68-1.84.14-3.12Z"/>
        <path class="cls-3" d="M403.13,205.42c-.06-.12-.09-.24-.15-.33-.54-.88-1.84-1.77-3.4-1.96-2.31-.29-4.84-.5-7.03-1.05,0,0-.02,0-.02,0-1.85-.28-3.86-.69-5.86-.97-1.86-.26-3.81-.31-5.8-.57-1.87-.24-3.76-.78-5.74-1.02-1.88-.22-3.84-.17-5.82-.38-1.89-.2-3.79-.69-5.77-.88-1.89-.18-3.83-.38-5.8-.55-1.9-.16-3.84-.31-5.81-.45-1.9-.14-3.86.04-5.84-.08-1.91-.12-3.85-.21-5.82-.32-1.91-.1-3.84-.54-5.81-.63-1.91-.08-3.85-.29-5.83-.36-1.92-.06-3.87.26-5.84.22-1.92-.04-3.86-.44-5.82-.46-1.92-.02-3.87.23-5.84.23s-4.01.25-6.01.27c-2.01.02-4.01.04-6.01.08-2.01.04-4.01-.18-6.01-.12-2,.06-3.99.44-5.99.53-2,.08-4.01-.02-6.01.09-2,.11-3.99.31-5.99.44-2,.13-3.99.33-5.99.48-1.99.15-3.98.37-5.98.54-1.99.17-4.02.01-6.02.2-1.99.19-3.97.52-5.97.73-1.99.21-3.96.56-5.96.79-1.98.23-4.02.09-6.02.34-1.98.25-3.97.48-5.97.76-1.97.27-3.8.63-5.8.93-.16-.11-2.94.62-2.93.54-3.77.6-5.04.84-7,2.09-.52.32-.85.74-1.1,1.3-.64,1.41-.62,3.04.32,4.28.8,1.06,2.22,1.49,3.53,1.49.22,0,.42-.08.64-.11,2-.32,4.05-.24,6.03-.54,2-.3,3.92-1.13,5.91-1.4,2-.28,4.02-.38,6.01-.63,2.01-.26,4.04-.26,6.03-.5,2.01-.24,4-.48,6-.69,2.01-.22,3.99-.58,5.99-.77,2.01-.2,4.04-.09,6.04-.27,2.01-.18,3.97-.89,5.98-1.04,2.01-.15,4.03-.22,6.03-.35,2.01-.13,4.03-.16,6.04-.27,2.01-.11,4.04.14,6.05.05,2.01-.09,4.01-.34,6.03-.4,2.01-.06,4.02-.26,6.04-.3,2.01-.04,4.02-.26,6.04-.28,2.01-.02,4.02.08,6.05.08s3.94.21,5.88.23c1.99.02,3.94.06,5.88.11,1.99.04,3.94.24,5.87.3,1.99.06,3.95.04,5.87.12,1.99.09,3.96-.16,5.88-.06,1.99.11,3.94.26,5.87.38,1.99.13,3.94.37,5.85.52,1.99.15,3.95.25,5.86.42,1.99.17,3.94.38,5.85.57,2,.2,3.96.26,5.86.47,2,.22,3.93.57,5.82.8,2,.24,3.9.8,5.78,1.05,2.01.27,3.94.6,5.8.87,2.02.29,3.97.46,5.83.74,2.03.31,4,.4,5.84.7,1.56.25,2.91-.43,3.86-1.7.91-1.22,1.04-2.86.41-4.25Z"/>
      </g>
      <g>
        <path class="cls-4" d="M442.21,260.58c-.15-1.95-.76-3.8-1.16-5.67s-.79-3.78-1.44-5.59-1.28-3.67-2.16-5.37-1.88-3.39-2.99-4.97-2.22-3.2-3.53-4.62c-1.31-1.42-2.88-2.6-4.37-3.84s-3.2-2.13-4.85-3.15-3.15-2.27-4.92-3.07-3.62-1.35-5.48-1.9c-1.83-.54-3.73-.97-5.66-1.26-1.92-.29-3.87-.63-5.85-.92s-3.93-.2-5.92-.47-3.89-.46-5.88-.71c-1.93-.24-3.87-.64-5.86-.87s-3.88-.63-5.87-.84c-1.94-.21-3.9-.44-5.89-.64s-3.92-.2-5.92-.37c-1.94-.17-3.91-.41-5.9-.56-1.95-.15-3.92-.25-5.91-.38-1.95-.13-3.91-.38-5.91-.49s-3.92-.24-5.92-.33c-1.95-.09-3.92-.29-5.92-.36s-3.94.2-5.94.15c-1.95-.05-3.93,0-5.93-.03s-3.93-.15-5.93-.17c-1.96-.02-3.93.12-5.93.12s-4.08-.14-6.1-.13-4.09-.19-6.1-.16c-2.05.04-4.08.27-6.09.33s-4.07.3-6.09.37c-2.05.08-4.08.03-6.09.13-2.05.1-4.07.26-6.08.37s-4.09-.04-6.1.1c-2.05.14-4.08.19-6.09.34s-4.06.45-6.07.63c-2.05.18-4.04.7-6.04.89-2.05.19-4.1.03-6.1.24s-4.02.81-6.01,1.04c-2.04.23-4.11.03-6.1.27s-4.04.65-6.03.91c-2.04.27-4.03.67-6.02.95s-4.05.58-6.03.87c-1.98.29-3.91.64-5.78,1.19s-3.82,1.11-5.6,1.91c-1.81.81-3.57,1.74-5.23,2.78-1.68,1.05-3.1,2.44-4.61,3.7-1.52,1.27-3.23,2.34-4.55,3.8-1.33,1.46-2.33,3.2-3.45,4.83-1.11,1.62-2.07,3.34-2.95,5.11-.88,1.76-1.85,3.49-2.48,5.37s-1.07,3.79-1.44,5.75-.52,3.89-.63,5.88c-.16,3.1,0,3.11-.15,6.21-.16,3.1-.49,3.08-.65,6.18-.16,3.1,0,3.11-.16,6.21s-.04,3.11-.2,6.21-.09,3.1-.25,6.2c-.16,3.1-.22,3.1-.38,6.2-.16,3.1-.31,3.09-.47,6.2-.16,3.1-.36,3.09-.52,6.19s-.1,3.11-.26,6.21c-.16,3.1.19,3.12.02,6.23-.13,2.4.25,4.62,1.3,6.59s2.69,3.69,4.67,4.88,4.09,1.69,6.5,1.69c3.02,0,3.02.37,6.03.37s3.02-.02,6.03-.02,3.02.17,6.03.17,3.02-.45,6.03-.45,3.02-.05,6.03-.05,3.02.52,6.03.52,3.02-.07,6.03-.07,3.02-.35,6.03-.35,3.02.26,6.03.26,3.02.03,6.03.03,3.02-.05,6.03-.05,3.02-.15,6.04-.15,3.02.14,6.03.14,3.02-.01,6.04-.01,3.02.14,6.03.14,3.02-.03,6.03-.03,3.02-.02,6.03-.02,3.02-.14,6.03-.14,3.02-.27,6.03-.27,3.02.48,6.03.48,3.02-.54,6.03-.54,3.02.22,6.03.22,3.02.13,6.03.13,3.02-.22,6.03-.22,3.02-.04,6.04-.04,3.02.18,6.03.18,3.02-.26,6.04-.26,3.02.56,6.04.56,3.02-.33,6.04-.33,3.02-.1,6.04-.1,3.02-.1,6.04-.1,3.02.39,6.04.39,3.02.16,6.04.16,3.02-.17,6.04-.17,3.02.02,6.04.02,3.02.04,6.04.04,3.02-.26,6.04-.26,3.02.38,6.04.38,3.02-.19,6.04-.19,3.02-.26,6.04-.26,3.02.29,6.04.29c2.45,0,4.68-.89,6.61-2.08s3.94-2.77,5.01-4.86,1.08-4.46.89-6.9c-.24-3.14.17-3.17-.07-6.32-.24-3.14-.67-3.11-.91-6.25s-.14-3.15-.38-6.29c-.24-3.14-.06-3.16-.3-6.3-.24-3.14-.48-3.12-.72-6.27-.24-3.14-.08-3.16-.32-6.3-.24-3.14-.1-3.15-.33-6.3-.24-3.14-.56-3.12-.8-6.26-.24-3.15-.17-3.15-.37-6.3-.21-3.15-.05-3.16-.29-6.3Z"/>
        <path class="cls-3" d="M434.18,341.37c-3.02,0-3.02.01-6.03.01s-3.02-.19-6.03-.19c-3.02,0-3.02.16-6.03.16-3.02,0-3.02.03-6.03.03-3.02,0-3.02.08-6.03.08s-3.02-.1-6.03-.1c-3.02,0-3.02.11-6.03.11-3.02,0-3.02-.16-6.03-.16-3.02,0-3.02.35-6.03.35-3.02,0-3.02-.11-6.03-.11-3.02,0-3.02-.04-6.03-.04s-3.02-.26-6.04-.26-3.02.38-6.03.38c-3.02,0-3.02-.01-6.04-.01-3.02,0-3.02-.12-6.03-.12s-3.02-.38-6.03-.38c-3.02,0-3.02.49-6.03.49-3.02,0-3.02-.13-6.03-.13-3.02,0-3.02-.1-6.03-.1-3.02,0-3.02.19-6.03.19-3.02,0-3.02.05-6.03.05-3.02,0-3.02-.04-6.03-.04-3.02,0-3.02.07-6.03.07-3.02,0-3.02-.28-6.03-.28-3.02,0-3.02-.27-6.04-.27-3.02,0-3.02.41-6.03.41-3.02,0-3.02.17-6.04.17-3.02,0-3.02-.33-6.04-.33-3.02,0-3.02.31-6.04.31-3.02,0-3.02-.33-6.04-.33-3.02,0-3.02-.23-6.04-.23-3.02,0-3.02.14-6.04.14-3.02,0-3.02.02-6.04.02-3.02,0-3.02.24-6.04.24s-3.02.05-6.04.05c-3.02,0-3.02-.07-6.04-.07-3.02,0-3.02.15-6.04.15q-3.02,0-6.04,0c-3.02,0-3.02-.2-6.04-.2s-3.02-.08-6.04-.08c-3.02,0-3.02.11-6.04.11-2.35,0-4.74-.27-6.82-1.16s-3.89-2.47-5.51-4.18c-1.62-1.7-3.09-3.59-3.87-5.72-.79-2.13-1.12-4.53-1-6.88.16-3.1.58-3.08.75-6.18s.03-3.11.19-6.21c.16-3.1.12-3.1.28-6.2.16-3.1.04-3.11.2-6.21.16-3.1.28-3.09.44-6.19s.09-3.11.25-6.21c.16-3.1.52-3.08.68-6.19.16-3.1.11-2.88.27-5.98s.16-3.33.32-6.43.07-3.11.23-6.21c.1-1.99.27-3.94.61-5.86.35-1.95.95-3.82,1.54-5.68.59-1.89,1.08-3.8,1.89-5.58s1.59-3.64,2.62-5.31,2.3-3.22,3.53-4.75c1.23-1.54,2.54-3.02,3.95-4.39s2.8-2.81,4.37-4,3.53-1.79,5.24-2.78,3.26-2.23,5.09-3c1.8-.76,3.73-1.23,5.64-1.76,1.88-.52,3.75-1.27,5.71-1.56,2.03-.3,4.12-.19,6.13-.48s4.01-.91,6.03-1.18c2.04-.27,4.11-.16,6.13-.41s4.08-.4,6.1-.63c2.04-.23,4.04-.72,6.07-.94,2.04-.21,4.11-.09,6.14-.29,2.04-.19,4.07-.43,6.1-.6,2.04-.18,4.07-.49,6.1-.64s4.08-.35,6.11-.49c2.04-.14,4.07-.5,6.11-.62,2.04-.12,4.09-.14,6.13-.23s4.08-.31,6.12-.38c2.04-.08,4.09-.02,6.13-.07s4.09.13,6.13.09,4.08-.11,6.13-.13,4.08-.06,6.13-.06,4,.15,5.97.17c2.01.02,4.01-.31,5.97-.27,2.02.04,4,.22,5.97.27s4,.17,5.96.24,3.99.44,5.95.53,4.02-.11,5.98,0c2.02.11,4,.28,5.96.41,2.02.13,4.01.25,5.95.4s4,.41,5.94.57c2.02.17,4.04,0,5.98.18,2.03.2,3.99.52,5.93.73,2.03.22,4.02.35,5.94.57,2.03.24,4.02.43,5.93.67,2.04.26,3.96.89,5.87,1.15,2.05.28,4,.7,5.89.97,2.06.3,4.02.61,5.89.9,2.1.32,4.26.38,6.29.98,2.04.6,3.94,1.59,5.87,2.46,1.93.87,3.88,1.73,5.68,2.85s3.4,2.52,5.03,3.87c1.63,1.34,3.15,2.79,4.6,4.35,1.44,1.56,3.11,2.95,4.33,4.68,1.22,1.74,2.16,3.68,3.13,5.56.98,1.88,1.8,3.84,2.52,5.84s1.03,4.1,1.48,6.17.94,4.12,1.1,6.24c.24,3.14.34,3.14.58,6.28.24,3.14.38,3.13.62,6.27.24,3.14.13,3.15.37,6.29.24,3.14.35,3.13.59,6.28s-.12,3.17.12,6.31c.24,3.14.12,3.15.36,6.29.24,3.14.3,3.14.54,6.28.24,3.14.33,3.14.56,6.28.24,3.15.62,3.12.86,6.26s.15,3.15.39,6.3c.18,2.35-.48,4.63-1.24,6.82-.76,2.19-1.97,4.1-3.57,5.83-1.6,1.73-3.29,3.36-5.42,4.29-2.12.93-4.47,1.32-6.83,1.32ZM311.17,218.17c-2.02,0-4.04.02-6.06.04-2.02.02-4.05-.15-6.06-.11-2.02.04-4.04.24-6.05.3-2.02.06-4.04.16-6.05.23s-4.03.25-6.05.34c-2.02.1-4.04.1-6.05.21-2.01.11-4.02.35-6.04.48-2.01.13-4.04.12-6.05.28s-3.99.67-6.01.84-4.02.24-6.04.44-4.01.35-6.03.56c-2,.21-4.03.17-6.05.4s-3.96.84-5.97,1.09-3.99.48-6.01.75-4.01.42-6.02.7c-1.99.28-4.04.18-6.05.48-1.98.29-3.8,1.21-5.67,1.79-1.9.59-3.77,1.19-5.53,2.05s-3.54,1.78-5.15,2.91-3.03,2.52-4.47,3.87c-1.44,1.36-2.71,2.84-3.92,4.4-1.21,1.56-2.32,3.16-3.29,4.88-.96,1.72-1.72,3.51-2.42,5.37s-1.51,3.64-1.91,5.59-.93,3.86-1.03,5.86c-.16,3.1.25,3.12.09,6.22-.16,3.1,0,3.11-.16,6.21-.16,3.1-.49,3.08-.66,6.18-.16,3.1.15,3.12-.02,6.22s-.49,3.08-.65,6.18c-.16,3.1-.39,3.09-.55,6.19-.16,3.1-.02,3.11-.18,6.21-.16,3.1-.14,3.1-.31,6.2-.16,3.1.08,3.12-.08,6.22s-.12,3.11-.28,6.21c-.12,2.36.61,4.54,2.24,6.25,1.63,1.71,3.77,2.48,6.13,2.48q3.02,0,6.03,0c3.02,0,3.02.2,6.03.2s3.02.08,6.03.08,3.02-.11,6.03-.11,3.02-.23,6.03-.23,3.02.27,6.03.27,3.02-.26,6.03-.26,3.02.03,6.03.03,3.02.42,6.03.42,3.02-.13,6.03-.13,3.02-.04,6.03-.04,3.02-.12,6.04-.12,3.02.12,6.03.12,3.02-.07,6.04-.07,3.02.35,6.03.35,3.02-.54,6.03-.54,3.02.48,6.03.48,3.02-.09,6.03-.09,3.02-.06,6.03-.06,3.02.14,6.03.14,3.02-.23,6.03-.23,3.02-.19,6.03-.19,3.02.15,6.03.15,3.02-.03,6.03-.03,3.02-.18,6.04-.18,3.02.58,6.03.58,3.02-.43,6.04-.43,3.02.19,6.04.19,3.02-.34,6.04-.34,3.02.4,6.04.4,3.02-.36,6.04-.36,3.02.37,6.04.37,3.02.09,6.04.09,3.02-.27,6.04-.27,3.02.33,6.04.33,3.02-.05,6.04-.05,3.02-.15,6.04-.15,3.02-.05,6.04-.05,3.02-.24,6.04-.24,3.02.09,6.04.09,3.02-.12,6.04-.12c2.4,0,4.54-.81,6.18-2.57,1.63-1.76,2.63-3.99,2.45-6.38-.24-3.14-.28-3.14-.52-6.28-.24-3.14-.27-3.14-.51-6.28-.24-3.14-.1-3.15-.34-6.29s-.59-3.12-.83-6.26-.1-3.15-.34-6.29c-.24-3.14-.2-3.15-.43-6.29-.24-3.14.04-3.16-.2-6.31-.24-3.14-.54-3.12-.78-6.26-.24-3.15-.2-3.15-.44-6.29s-.27-3.14-.51-6.29c-.15-1.96-.35-3.9-.77-5.76s-1.34-3.64-2.04-5.43c-.71-1.82-1.42-3.59-2.38-5.26s-2.12-3.21-3.32-4.73c-1.21-1.52-2.53-2.88-3.95-4.2s-2.69-2.81-4.29-3.91c-1.59-1.09-3.22-2.19-4.98-3.04-1.73-.83-3.56-1.57-5.43-2.15-1.83-.56-3.82-.59-5.76-.89-1.85-.28-3.75-.84-5.78-1.13-1.86-.27-3.83-.4-5.85-.67-1.88-.26-3.8-.73-5.81-.98-1.89-.24-3.84-.49-5.84-.72-1.9-.22-3.89-.01-5.9-.22-1.9-.2-3.83-.6-5.83-.8-1.91-.18-3.86-.39-5.86-.56s-3.85-.6-5.85-.75-3.89-.1-5.89-.23c-1.92-.13-3.89-.15-5.88-.26s-3.9-.07-5.89-.16-3.89-.29-5.88-.36c-1.93-.07-3.9-.03-5.89-.08-1.94-.05-3.89-.46-5.88-.49-1.94-.04-3.9-.18-5.89-.2s-3.91.26-5.9.26Z"/>
      </g>
    </g>
    <g>
      <g>
        <path class="cls-3" d="M278.93,277.97c-.85,1.61-1.82,3.12-2.85,4.49-1.07,1.44-2.45,2.56-3.8,3.7-1.32,1.12-2.6,2.4-4.26,3.18-1.51.71-3.23,1.28-5.08,1.69"/>
        <path class="cls-3" d="M262.89,295.04c-1.94,0-3.84-1.34-4.27-3.31-.5-2.27,1.1-4.55,3.38-5.04,2.03-.44,3.82-1.13,5.44-2.09,1.63-.97,3.23-2.09,4.56-3.68,1.15-1.37,2.09-3.09,3.1-4.99,1.09-2.06,3.6-2.86,5.66-1.77,2.06,1.09,2.91,3.67,1.82,5.73-.86,1.63-2.02,3.4-3.4,5.21-1.18,1.55-2.51,3.16-4.21,4.57-1.5,1.24-3.31,2.25-5.32,3.2-1.74.82-3.6,1.84-5.79,2.32-.3.07-.67-.15-.96-.15Z"/>
      </g>
      <g>
        <path class="cls-3" d="M343.59,272.05c0,1.4.43,3.74,1.47,6.3.74,1.84,1.98,3.7,3.26,5.59,1.19,1.75,2.51,3.5,4.17,4.92,1.62,1.4,3.39,2.79,5.46,3.52"/>
        <path class="cls-3" d="M358.04,296.33c-.46,0-1.02.19-1.48.03-2.02-.7-3.77-1.94-5.41-3.13-1.7-1.24-3.03-2.85-4.35-4.41-1.37-1.63-2.61-3.3-3.57-5.05-1.07-1.95-2.08-3.82-2.69-5.61-.83-2.48-1-4.68-1-6.11,0-2.33,1.76-4.04,4.09-4.04s3.98,1.72,3.98,4.04c0,1.25,1.18,3.67,2.55,6.41.97,1.93,1.88,4.21,3.49,5.93,1.58,1.7,3.67,2.8,5.83,3.55,2.2.77,3.21,3.33,2.44,5.53-.61,1.74-2.15,2.85-3.89,2.85Z"/>
      </g>
      <path class="cls-3" d="M310.7,311.94c-1.07,0-2.16.44-3.24.37-1.97-.12-3.88-.77-5.79-1.09-1.95-.33-3.9-.58-5.76-1.12-1.91-.55-3.64-1.51-5.42-2.25-1.84-.76-3.68-1.42-5.36-2.36-1.74-.98-3.42-2-4.95-3.15-1.6-1.21-3.13-2.46-4.45-3.83-1.39-1.45-2.36-3.17-3.39-4.77-1.08-1.69-2.35-3.25-2.96-5.07-.74-2.21.61-4.74,2.82-5.48,2.2-.74,4.48.56,5.22,2.77.63,1.86,1.67,3.71,3.03,5.4,1.23,1.52,2.8,2.92,4.52,4.23,1.57,1.2,3.44,2.11,5.33,3.09,1.78.92,3.6,1.91,5.59,2.6,1.91.66,3.98.89,6.03,1.29s4,.89,6.07,1.01c1.68.1,3.91.25,6.44.02,1.96-.17,4.15-.4,6.39-.96,1.98-.49,4.08-1.15,6.14-2.06,1.88-.83,3.73-2,5.57-3.28,1.69-1.17,3.1-2.81,4.68-4.41,1.43-1.46,2.88-3,4.15-4.87,1.15-1.68,2.09-3.58,3.07-5.63,1-2.1,3.72-2.8,5.82-1.8,2.1,1,3.27,3.56,2.27,5.67-.86,1.79-1.98,3.41-2.99,5.03-1.05,1.68-2.33,3.15-3.54,4.64s-2.61,2.87-4.02,4.19c-1.42,1.33-2.95,2.49-4.54,3.61-1.58,1.11-3.01,2.5-4.75,3.41-1.67.87-3.58,1.23-5.36,1.89-1.76.64-3.43,1.69-5.29,2.12s-3.76.51-5.65.72-3.76.06-5.67.06Z"/>
      <path class="cls-3" d="M293.86,286.85c-2.12,0-4.26-.06-6.18-.65s-3.7-1.93-5.37-3.08c-1.71-1.18-3.41-2.41-4.66-4.03-1.25-1.63-1.96-3.59-2.64-5.56s-1.41-3.89-1.41-6.01.45-4.2,1.11-6.11c.68-1.96,1.99-3.59,3.25-5.21s2.43-3.39,4.14-4.57c1.67-1.15,3.72-1.69,5.72-2.31,1.92-.59,3.91-.84,6.03-.84s4.08.34,6,.93c2,.62,4,1.18,5.67,2.34,1.71,1.18,3.03,2.78,4.28,4.41,1.25,1.63,2.33,3.36,3,5.32.66,1.91,1.06,3.93,1.06,6.05s-.37,4.15-1.03,6.06c-.68,1.96-1.87,3.62-3.13,5.24-1.25,1.62-2.65,3.05-4.36,4.23-1.67,1.15-3.41,2.27-5.41,2.89-1.92.59-3.97.91-6.1.91ZM293.86,256.68c-2.05,0-3.85.74-5.52,1.62-1.77.93-3.52,1.95-4.56,3.58s-1.39,3.61-1.39,5.65.31,4.04,1.35,5.67,2.79,2.7,4.56,3.63c1.68.88,3.51,1.45,5.56,1.45s4.11-.15,5.78-1.03c1.77-.93,2.96-2.63,4-4.27,1.04-1.63,2.03-3.42,2.03-5.45s-.58-4.08-1.63-5.71c-1.04-1.63-2.62-3.1-4.39-4.04-1.68-.88-3.74-1.1-5.8-1.1Z"/>
      <path class="cls-3" d="M328.08,287c-2.13,0-4.22-.4-6.15-1.03s-3.7-1.87-5.36-3.08-3.4-2.44-4.62-4.12-1.83-3.68-2.48-5.67-1.1-3.91-1.1-6.04.04-4.26.66-6.18,2.05-3.62,3.25-5.28,2.5-3.28,4.18-4.5,3.58-1.94,5.57-2.59c1.93-.63,3.9-1.05,6.03-1.05s4.25-.05,6.18.58,3.84,1.73,5.5,2.94,2.86,2.95,4.09,4.62,2.18,3.42,2.83,5.41,1.33,3.91,1.33,6.04-.67,4.13-1.29,6.05c-.65,1.99-1.29,4.01-2.5,5.67s-2.66,3.29-4.34,4.52-3.63,2.1-5.63,2.75-4.04.96-6.17.96ZM328.08,255.88c-2.06,0-3.94.48-5.61,1.45-1.72,1-3.38,2.24-4.38,3.96-.97,1.67-1.19,3.7-1.19,5.77s.2,4.11,1.17,5.78c1,1.72,2.58,3.11,4.3,4.11,1.67.97,3.64,1.22,5.71,1.22s4.13-.09,5.8-1.06c1.72-1,3.05-2.64,4.05-4.36s1.76-3.62,1.76-5.69-.67-4.09-1.64-5.76c-1-1.72-2.7-2.87-4.42-3.87-1.67-.97-3.49-1.55-5.56-1.55Z"/>
      <path class="cls-3" d="M293.86,274.49c-1.81,0-3.49-.46-4.68-1.64s-2.17-2.87-2.17-4.68,1.17-3.3,2.36-4.49c1.19-1.19,2.68-2.23,4.49-2.23s3.24,1.11,4.43,2.29,2.22,2.62,2.22,4.43-.93,3.34-2.12,4.53c-1.19,1.19-2.72,1.79-4.53,1.79Z"/>
      <path class="cls-3" d="M328.08,273.39c-1.78,0-3.46-.53-4.63-1.7s-2.13-2.85-2.13-4.63.94-3.48,2.11-4.65c1.17-1.17,2.86-1.75,4.65-1.75s3.35.7,4.52,1.87,1.69,2.74,1.69,4.52-.54,3.32-1.71,4.49-2.71,1.84-4.49,1.84Z"/>
    </g>
  </g>
</svg>