<?xml version="1.0" encoding="UTF-8"?>
<svg id="Calque_1" data-name="Calque 1" xmlns="http://www.w3.org/2000/svg" viewBox="0 0 1200 700">
  <defs>
    <style>
      .cls-1 {
        fill: #efca52;
      }

      .cls-2 {
        fill: #232115;
      }

      .cls-3 {
        fill: #2d2218;
      }

      .cls-4 {
        fill: #f6f4f1;
      }
    </style>
  </defs>
  <g>
    <g>
      <rect class="cls-1" x="65.71" y="85.54" width="1049.1" height="528.91" rx="54.95" ry="54.95"/>
      <path class="cls-2" d="M1059.86,618.46H120.65c-32.5,0-58.95-26.44-58.95-58.95V140.49c0-32.5,26.44-58.95,58.95-58.95h939.21c32.5,0,58.95,26.44,58.95,58.95v419.02c0,32.5-26.44,58.95-58.95,58.95ZM120.65,89.54c-28.09,0-50.95,22.85-50.95,50.95v419.02c0,28.09,22.85,50.95,50.95,50.95h939.21c28.09,0,50.95-22.85,50.95-50.95V140.49c0-28.09-22.85-50.95-50.95-50.95H120.65Z"/>
    </g>
    <path class="cls-2" d="M381.59,170.87c-2.11-.83-4.26-1.59-6.47-2.27s-4.23-1.88-6.47-2.43-4.61-.41-6.86-.84-4.49-1.05-6.74-1.38-4.55-.88-6.8-1.12-4.66-.05-6.89-.22c-2.37-.18-4.66-.28-6.86-.37-2.42-.11-4.71-.45-6.86-.49-2.52-.04-4.83.37-6.87.4-2.45.03-4.9-.25-7.32-.15s-4.89.38-7.3.55-4.9.36-7.3.61-4.86.77-7.23,1.1-4.84.88-7.19,1.29c-2.47.43-5,.15-7.32.65-2.47.53-4.76,1.47-7.03,2.09-2.46.67-4.81,1.31-7.01,2.07-2.33.81-4.56,1.78-6.42,3.19s-3.82,3.12-5.17,5.07c-1.37,1.97-2.28,4.31-2.97,6.6s-.54,4.71-.49,7.13.29,4.67,1.09,6.99c.92,2.65,2.26,4.99,3.95,7.03s3.68,4.1,6.02,5.44c2.35,1.35,5.18,2.09,7.87,2.54,1.19,3.32.27,3.58.27,7.11s-.45,3.52-.45,7.05.29,3.52.29,7.05c0,3.53.07,3.53.07,7.05s-.21,3.52-.21,7.05c0,3.53-.54,3.53-.54,7.05,0,3.53.08,3.53.08,7.06,0,3.53.32,3.53.32,7.06,0,2.71.67,5.3,1.94,7.49s3.11,4.37,5.37,5.68,4.89,1.82,7.6,1.82c3.63,0,3.63-.09,7.27-.09s3.63.01,7.27.01,3.63-.46,7.26-.46,3.63,0,7.27,0,3.63.28,7.27.28,3.63.39,7.27.39,3.63-.61,7.27-.61,3.64.44,7.27.44,3.63-.28,7.27-.28,3.64-.12,7.27-.12,3.64.22,7.27.22c2.71,0,5.06-.96,7.25-2.23s4.65-2.67,5.95-4.94,1.94-4.91,1.94-7.62c0-3.52-.22-3.52-.22-7.04s-.37-3.52-.37-7.04.59-3.52.59-7.04c0-3.52-.49-3.52-.49-7.04,0-3.52-.1-3.52-.1-7.04s.14-3.52.14-7.04.25-3.52.25-7.05c0-3.52-.95-3.63.23-6.95,2.65-.38,4.91-1.38,7.26-2.64s4.71-2.67,6.5-4.68,2.93-4.42,3.94-6.98c.91-2.29,1.14-4.66,1.29-6.99s.63-4.91.04-7.21-2.25-4.26-3.53-6.29-2.71-3.85-4.58-5.39-3.85-2.63-6.14-3.54Z"/>
  </g>
  <g>
    <path class="cls-2" d="M617.8,423.34c-4.37,6.14,10.53,10.47,14.13,11.61,23.67,7.52,62.88,9.32,68.17,41.29,2.72,16.46-1.48,27.65-13.24,38.22-22.23,19.97-53.69,22.18-81.91,20.43-7-.43-32.13-4.12-35.83-10.2-2.73-4.49-1.42-16.25-1.77-22.11-.19-3.16-1.42-5.73-1.39-9.3.09-11.19,6.04-9.83,14.42-8.79,18.68,2.33,39.19,14.55,58.17,7.46,16.66-6.22-1.57-11.62-8.67-13.51-28.01-7.48-91.4-19.44-69.62-65.21,19-39.92,75.42-41.71,111.07-29.31,7.59,2.64,11.07,4,13.02,13.01,1.41,6.5,1.7,20.06,1.22,26.87-.2,2.91-.81,4.69-3.76,5.35-6.68,1.5-23.83-6.5-31.68-8.32-7.17-1.66-27.6-4.15-32.34,2.49Z"/>
    <path class="cls-2" d="M966.02,306.6c-2.38-2.6-2.67-9.38-3.82-12.87-3.02-9.16-5.57-6.6-13.13-7.79-6.39-1-12.75-2.19-19.32-2.31-2.29-.04-8.94,0-10.67.58-7.29,2.4-5.43,18.9-16.52,19.84-13.4-1.63-28.94-.31-41.7-4.99-1.75-.64-5.13-1.72-5.55-3.71-1.01-4.84,4.13-15.41,6.3-20.08,12.08-26.01,27.77-52.1,40.95-77.73,5.62-10.93,10.82-24.88,16.67-35,2.29-3.97,5.45-6.53,9.74-7.68,5.77-1.55,27.39.24,33.91,1.45,3.41.63,9.48,3.38,11.46,6.39l46.05,144.87c-.35,3.43-2.27,4.38-5.32,4.59-13.34-1.61-27.72-.07-40.94-2.3-2.2-.37-6.6-1.62-8.1-3.25ZM935.65,246.55c1.9.73,9.19.71,11.9.92.11,0,1.88-.67,1.96-1.1-1.28-5.35-1.53-10.98-2.69-16.35-.43-1.99-1.57-9.37-3.9-9.54l-8.76,22.63c-.52,1.01.74,3.15,1.49,3.43Z"/>
    <path class="cls-2" d="M763.15,158.72c33.5-3.12,68.69,17.05,77.1,52.35,12.12,50.88-2.99,100.57-57.93,107.41-39.71,4.94-74.46-12.91-83.44-55.53-10.19-48.36,13.92-99.54,64.27-104.23ZM766.08,216.42c-7.22,1.55-16.57,16.34-16.97,23.66-.54,9.93,7.88,17.71,16.43,20.27,6.74,2.02,12.37,2.97,17.82-2.43,14.83-14.71,7.21-46.76-17.28-41.49Z"/>
    <path class="cls-2" d="M535.37,185.95c1.46-1.9,4.25-2.88,6.49-3.34,13.13-2.72,29.22-.53,42.37-3.77,29.75-2.79,59.11-8.4,89.04-9.49,2.72.24,4.22,3.41,5.14,5.7,2.2,5.41,4.2,22.14,4.16,28.24-.02,3.13-.87,5.61-3.75,6.72-10.82,4.14-22.61,1.53-33.66,4.05-3.29.75-6.09,1.59-7.07,5.33l10.15,97.5c.14,5.52-.53,8.39-6.12,9.66-8.75,1.98-21.4,3.62-30.36,4.07-3.03.15-11.56.37-14.09-.27-2.94-.74-4.14-7.06-4.64-9.89-4.05-22.93-3.32-47.66-6.78-70.77l-4.3-24.48c-.87-2.18-5.35-2.77-7.37-2.81-6.48-.1-12.93,1.37-19.18,2-9.1.92-17.51,4.4-19.98-7.71-1.23-6-3.55-26.19-.05-30.73Z"/>
    <path class="cls-2" d="M855.76,415.66c-1.06.67-8.2.97-9.95.92-8.48-.26-16.69-3.1-25.21-3.13-5.74-.02-8.14.27-9.27,6.54-4.86,26.93-4.14,58.65-7.89,86.35-.45,3.3-1.24,9.36-1.96,12.28-1.63,6.64-10.24,3.88-14.9,3.78-7.43-.15-14.95-.15-22.4-1.26-3.12-.46-10.63-1.69-13.14-2.87-2.87-1.34-3.42-4.69-3.46-7.71-.37-26.6,6.74-58.85,7.99-86.3.11-2.39.34-11.21-.11-12.72-1.24-4.27-12.34-4.35-15.91-4.8-1.44-.18-2.83-1.09-4.39-1.25-7.77-.8-23.26,3.04-23.47-9.54-.09-5.56,1.22-19.28,2.47-24.65,1.37-5.9,4.09-8.94,10.01-9.08,13.37-.33,29.42,5.45,43,4.71,27,3.08,54.24,2.88,81.02,7.5,2.54.44,5.88.1,8.15.78,3.95,1.19,4.32,11.23,4.25,14.89-.09,4.81-1.18,23.27-4.82,25.57Z"/>
    <path class="cls-2" d="M998.67,424.95c-.64.77-2.49,1.65-3.45,2.02-7.13,2.78-27.52,1.5-36.16,1.36-6.56-.1-15.84-3.94-19,5.41-1.92,5.69-1.62,12.62,4.9,13.27,12.11,1.2,25.86-1.04,38.11-.07,12.36.98,11.91,6.22,11.59,18.3-.09,3.33-.54,11.18-1.36,14.05-1.21,4.22-4.26,6.19-8.11,6.6-13.34,1.43-28.73-1.16-42.29-.02-5.28,1.11-6.62,15.07-.7,16.3,15.74,3.25,35.51-1.17,51.43.78,3.97.49,6.06,3.14,6.62,7.48.66,5.15.46,21.18-1.12,25.85-1.31,3.87-3.4,4.48-6.89,4.84-17.43,1.79-40.63.06-58.48,0-10.94-.03-30.16,1.96-39.99-1.03-5.98-1.82-6.5-8.07-6.91-14.15-2.8-41.42,2.19-86.59-.02-128.41-.32-4.02,3.79-6.01,6.8-6.5,7.53-1.23,15.61-.55,23.18-.85,22.44-.9,48.88-2.4,71.2-.8,5.74.41,10.85,0,11.59,7.42.59,5.95,1.3,17.65.72,23.35-.14,1.41-.8,3.79-1.65,4.8Z"/>
    <path class="cls-2" d="M931.9,375.01c7.88-.57,50.21-3.45,56.43-6.99.84-.48,2.44-1.56,2.95-2.44.67-1.15,1.04-3.73,1.04-5.25-.02-6.12-1.79-18.54-2.9-24.82-1.39-7.86-6-6.99-11.26-6.96-20.46.13-44.38,3.9-64.71,6.69-6.87.94-14.28.88-21.01,2.81-2.69.77-6.24,3.23-5.56,7.48l2.78,23.14c.69,5.71,6.67,9.76,13.45,9.11l28.8-2.77Z"/>
  </g>
  <g>
    <g>
      <path class="cls-3" d="M361.26,497.88c2.3,0,4.57.43,6.84.42s4.58-.19,6.85-.21,4.58-.4,6.85-.43,4.59.51,6.86.48,4.58-.33,6.85-.37,4.59.19,6.86.15,4.59-.19,6.85-.23,4.59-.54,6.84-.58,4.6.06,6.85.02,4.6.37,6.86.35,4.6-.12,6.85-.13,4.61-.45,6.85-.45,4.61.39,6.85.41,4.63-.36,6.85-.31c2.34.05,4.64-.03,6.86.06,2.35.09,4.63.33,6.84.47,2.36.15,4.63.51,6.82.72,2.38.23,4.69.18,6.85.48,2.39.34,4.56,1.23,6.67,1.68,2.4.52,4.69.8,6.69,1.48,2.38.81,4.3,2.07,6.06,3.15,2.16,1.32,4.14,2.53,5.3,4.3,1.22,1.88,1.79,4.16,1.79,6.62,0,2.24-1.29,4.02-3.09,5.77-1.39,1.36-2.97,3.01-5.34,4.1-1.84.85-4.13,1.17-6.52,1.88-2,.59-4.19,1.06-6.56,1.56-2.09.44-4.3.8-6.65,1.17-2.13.33-4.3,1.06-6.64,1.34-2.16.26-4.43.2-6.76.42-2.18.2-4.41.52-6.73.69-2.19.16-4.44.36-6.74.49s-4.45.22-6.76.32-4.47-.12-6.77-.04-4.47.22-6.76.27-4.47.38-6.76.42-4.48-.19-6.77-.17-4.48.57-6.77.58-4.49-.47-6.77-.47-4.49.21-6.77.2-4.49-.42-6.77-.44-4.49.2-6.77.17-4.5.01-6.77-.02-4.5.02-6.77-.02-4.5-.43-6.77-.48-4.51.44-6.78.39c-3.36-.02-3.36-.15-6.72-.15s-3.36-.26-6.72-.27-3.36-.03-6.72-.03c-3.36,0-3.36.08-6.72.08s-3.36.25-6.73.25-3.36-.23-6.72-.24-3.36.36-6.73.35c-3.36,0-3.36-.26-6.73-.27s-3.36-.14-6.73-.15-3.36-.13-6.73-.13-3.36-.04-6.73-.05-3.36.15-6.73.15-3.36.41-6.73.4-3.36-.15-6.73-.16-3.36.15-6.73.15-3.36-.4-6.73-.4c-3.36,0-3.36.41-6.73.4s-3.37-.24-6.73-.24-3.36-.21-6.73-.21-3.96.2-7.32.2-6.1,1.78-8.13-.9c-2.1-2.78,2.58-2.62,3.39-6s1.29-3.27,2.1-6.65.22-3.53,1.03-6.91,1.08-3.32,1.89-6.71c.81-3.38.88-3.37,1.7-6.75.81-3.39.49-3.46,1.31-6.85.81-3.39-.9-4.68,1.91-6.73s3.42.57,6.83.87,3.43.18,6.85.49,3.44.09,6.86.4,3.39.58,6.81.89,3.41.36,6.83.67,3.41.38,6.83.69,3.47-.26,6.89.05,3.37.83,6.79,1.14,3.46-.13,6.88.18,3.39.64,6.81.95c3.42.31,3.42.26,6.84.57s3.41.42,6.83.73,3.44.02,6.86.33,3.41.44,6.82.75,3.39.61,6.81.92,3.45-.03,6.87.28,3.43.16,6.85.47,3.4.54,6.83.81,3.43.19,6.86.42Z"/>
      <g>
        <path class="cls-4" d="M220.44,529.07c-3.13,0-3.13.25-6.26.25-3.13,0-3.13.24-6.26.24s-3.13-.21-6.26-.21c-3.13,0-3.13-.21-6.26-.21q-3.13,0-6.26,0c-3.33,0-5.97-2.19-6.91-5.39-1.13-3.82-1.29-3.78-2.42-7.6s-4.18-4.05-2.15-7.48c1.73-2.92,3.16-.21,6.55-.21s3.39-.27,6.78-.27,3.39.57,6.78.57,3.39-.42,6.78-.42,3.39.52,6.78.52,3.39-.44,6.78-.44,3.39.28,6.78.28,5.13-3.13,6.95-.27c2.09,3.29-1.03,3.91-2.02,7.68-.99,3.77-1.33,3.68-2.33,7.46-.87,3.3-3.63,5.49-7.04,5.49Z"/>
        <path class="cls-3" d="M220.44,534.29c-3.13,0-3.13-.1-6.26-.1s-3.13-.35-6.26-.35-3.13.4-6.26.4-3.13-.09-6.26-.09c-3.13,0-3.13.2-6.26.2-2.71,0-5.25-1.27-7.33-2.82-2.08-1.56-3.46-3.8-4.22-6.4-1.13-3.82-1.11-3.83-2.24-7.65-1.13-3.82-1.55-3.7-2.68-7.52-.43-1.45-.19-3.22.72-4.43.91-1.21,2.53-1.58,4.05-1.58,3.39,0,3.39-.25,6.78-.25s3.39.23,6.78.23,3.39-.04,6.78-.04,3.39-.1,6.78-.1,3.39-.2,6.78-.2,3.39.25,6.78.25,3.39-.2,6.78-.2,3.39.23,6.78.23c1.49,0,3.12.39,4.03,1.57.91,1.18.8,2.84.42,4.28-.99,3.77-.6,3.87-1.6,7.65-.99,3.77-1.13,3.74-2.13,7.51-.71,2.7-2.32,5.01-4.42,6.63-2.1,1.62-4.75,2.78-7.54,2.78ZM184.55,513.55c-.54,2.15.8,4.33,2.14,8.89.34,1.14,1.26,2.17,2.44,2.17,3.13,0,3.13-.4,6.26-.4s3.13.09,6.26.09,3.13-.2,6.26-.2,3.13.37,6.26.37,3.13.22,6.26.22c1.22,0,2.57-1.02,2.88-2.2,1.19-4.53,2.66-6.99,2.2-7.87-1.04-2-3.55-1.01-7.01-1.01s-3.46-.45-6.93-.45-3.46.25-6.93.25-3.46-.23-6.93-.23-3.91.38-7.4-.15c-3.71-.57-5.37-1.1-5.78.54Z"/>
      </g>
      <g>
        <path class="cls-4" d="M451.61,528.99c-3.13,0-3.13.07-6.26.07s-3.13.27-6.26.27-3.13-.03-6.26-.03c-3.13,0-3.13-.07-6.26-.07s-3.13-.22-6.26-.22c-3.33,0-6.5-1.89-7.44-5.09-1.13-3.82-.92-3.89-2.04-7.71s-4.26-4.23-2.23-7.67c1.73-2.92,3.4.08,6.79.08s3.39.16,6.78.16,3.39-.29,6.78-.29,3.39-.14,6.78-.14,3.39-.11,6.78-.11,3.39.19,6.78.19,3.39.45,6.78.45,5.18-3.34,7-.48c2.09,3.29-1.38,3.87-2.37,7.64-.99,3.77-.76,3.83-1.75,7.61-.87,3.3-3.92,5.33-7.33,5.33Z"/>
        <path class="cls-3" d="M451.61,534.34c-3.13,0-3.13-.51-6.26-.51s-3.13-.04-6.26-.04c-3.13,0-3.13-.02-6.26-.02s-3.13,0-6.26,0-3.13.13-6.26.13c-2.71,0-5.18-.9-7.27-2.46-2.08-1.56-3.79-3.63-4.56-6.23-1.13-3.82-.95-3.88-2.07-7.7-1.13-3.82-1.51-3.71-2.63-7.54-.43-1.45-.15-3.25.75-4.47.91-1.21,2.56-1.62,4.07-1.62,3.39,0,3.39-.4,6.78-.4s3.39.5,6.78.5,3.39.04,6.78.04,3.39-.01,6.78-.01,3.39.03,6.78.03,3.39-.05,6.78-.05,3.39-.17,6.79-.17,3.39-.22,6.79-.22c1.49,0,3.13.65,4.04,1.83s.66,2.81.28,4.26c-.99,3.77-.5,3.9-1.49,7.67s-1.01,3.77-2.01,7.54c-.71,2.7-2.6,4.74-4.7,6.36-2.1,1.62-4.56,3.08-7.35,3.08ZM415.31,513.49c-.92,2.25.87,4.49,2.22,9.06.34,1.14,1.6,2.12,2.78,2.12,3.13,0,3.13.02,6.26.02s3.13,0,6.26,0,3.13-.13,6.26-.13,3.13.02,6.26.02,3.13-.17,6.26-.17c1.22,0,2.46-.77,2.78-1.95,1.19-4.53,3.08-6.26,2.02-9-.41-1.06-3.27.17-6.73.17-3.46,0-3.46-.42-6.93-.42-3.46,0-3.46.4-6.93.4s-3.46-.5-6.93-.5-3.41.18-6.86-.03c-3.2-.2-6.23-.81-6.72.4Z"/>
      </g>
      <g>
        <path class="cls-4" d="M451.57,356.84c3.66,0,3.66-.4,7.32-.4s3.66.17,7.33.17,3.66-.12,7.32-.12,3.66-.25,7.33-.25,3.66.5,7.33.5c2.15,0,4.16.54,5.82,1.74s2.91,2.9,3.58,4.94c.86,2.59.58,2.68,1.44,5.28.7,2.12.66,4.05.04,5.96s-1.68,3.77-3.37,5.01-3.57,1.94-5.8,1.94c-3.6,0-3.6.14-7.2.14s-3.6,0-7.19,0-3.6-.37-7.2-.37c-3.6,0-3.6.35-7.2.35"/>
        <path class="cls-3" d="M489.92,386.56c-3.6,0-3.6-.23-7.19-.23s-3.6.41-7.19.41-3.6-.11-7.2-.11-3.6,0-7.2,0c-2.66,0-5.14-2.31-5.14-4.97s2.48-4.64,5.14-4.64c3.6,0,3.6-.04,7.19-.04s3.6.13,7.19.13,3.6-.19,7.2-.19,3.6.19,7.2.19c1.67,0,3.12-1.09,4.09-2.45.98-1.35,1.56-3.07,1.04-4.65-.86-2.59-1.09-2.51-1.95-5.11-.7-2.11-2.67-3.58-4.89-3.58-3.66,0-3.66.16-7.32.16s-3.66.15-7.33.15c-3.66,0-3.66-.2-7.32-.2s-3.66-.07-7.33-.07q-3.66,0-7.33,0c-2.66,0-5.06-2.14-5.06-4.8s2.41-4.87,5.06-4.87c3.66,0,3.66.23,7.32.23s3.66-.21,7.33-.21,3.66.23,7.32.23,3.66-.14,7.33-.14,3.66.22,7.33.22c2.11,0,4.18.07,6.03.89s3.35,2.32,4.73,3.84c1.35,1.5,2.54,3.14,3.2,5.14.86,2.59,1,2.55,1.85,5.14.75,2.28,1.04,4.68.69,6.94-.35,2.26-1.29,4.51-2.7,6.45-1.4,1.94-3.38,3.28-5.42,4.32s-4.28,1.78-6.67,1.78Z"/>
      </g>
      <path class="cls-3" d="M461.19,381.58c3.42,2.22,4.69,2.34,7.94-.13,2.58-1.95.39-3.02.58-6.25s.22-3.23.41-6.46c.19-3.23.04-3.24.24-6.48s2.98-4.41.46-6.43c-3.29-2.64-4.2-.06-8.41-.06-4.22,0-5.5-3-8.53-.06-2.4,2.34.76,3.39,1.66,6.62s.9,3.23,1.79,6.46,1.44,3.08,1.69,6.43-.64,4.53,2.17,6.36Z"/>
      <g>
        <path class="cls-4" d="M167.39,412.52c.77-3.42.79-3.42,1.55-6.84s.46-3.49,1.22-6.92.81-3.41,1.58-6.84.86-3.4,1.63-6.83.5-3.49,1.27-6.91.92-3.39,1.65-6.82c.45-2.39,1.33-4.65,1.95-6.93s1.33-4.64,2.15-6.85,1.61-4.58,2.65-6.69,2.54-4.11,3.84-6.08c1.34-2.04,2.53-4.14,4.09-5.91s3.22-3.65,5.06-5.16,3.87-2.93,5.97-4.11,4.47-1.69,6.78-2.48,4.45-1.75,6.89-2.13c2.25-.35,4.54-.7,6.86-1.05s4.58-.41,6.91-.73c2.26-.31,4.53-.83,6.86-1.13s4.6-.29,6.93-.57,4.54-.81,6.87-1.06c2.27-.25,4.63,0,6.96-.22,2.28-.22,4.52-1.07,6.86-1.27s4.6-.25,6.94-.43,4.62.08,6.96-.07,4.57-.74,6.91-.86,4.63.28,6.96.18,4.6-.15,6.94-.22,4.6-.25,6.94-.3,4.61-.13,6.95-.16,4.61-.32,6.95-.32,4.53.44,6.76.46,4.53-.28,6.76-.23,4.54-.13,6.76-.06,4.53.14,6.76.23,4.53.16,6.76.28,4.5.72,6.72.87,4.54.06,6.76.23,4.5.58,6.71.78,4.53.23,6.74.45,4.49.67,6.7.91,4.49.59,6.7.86,4.54.21,6.74.5,4.52.46,6.72.78,4.48.71,6.67,1.05,4.48.73,6.66,1.09c2.38.39,4.61,1.17,6.77,1.93s4.24,1.98,6.26,3.13,4.24,2.1,6.04,3.6,3.11,3.48,4.67,5.26,3.19,3.39,4.52,5.36,2.36,4,3.46,6.11,2.25,4.09,3.14,6.29,1.52,4.41,2.23,6.67c.69,2.21,1.28,4.48,1.82,6.78.78,3.5.87,3.48,1.63,6.98.76,3.5.38,3.59,1.14,7.09s.96,3.46,1.73,6.97,1.1,3.43,1.87,6.93c.76,3.51.34,3.6,1.1,7.1.76,3.51,1.22,3.41,1.98,6.91"/>
        <path class="cls-3" d="M167.26,417.35c-.35,0-.68-.2-1.03-.28-2.59-.58-4.36-2.01-3.78-4.61.77-3.42.83-4.53,1.6-7.95.77-3.42.75-3.34,1.51-6.75.77-3.42.62-3.45,1.38-6.87s.8-3.41,1.57-6.83c.77-3.42,1.12-3.34,1.89-6.76s.76-3.42,1.5-6.85c.45-2.37.64-4.75,1.23-6.97s1.2-4.64,1.97-6.8c.81-2.27,2.04-4.33,3.02-6.41s1.9-4.4,3.09-6.36,2.82-3.85,4.24-5.66,2.81-3.87,4.48-5.49,3.88-2.73,5.78-4.09,3.82-2.72,5.93-3.77,4.18-2.17,6.44-2.89,4.52-1.23,6.89-1.6c2.32-.37,4.66-.47,6.95-.81s4.64-.56,6.94-.88,4.6-.89,6.9-1.19,4.62-.72,6.93-1,4.69-.08,7-.33,4.64-.55,6.95-.78,4.63-.63,6.95-.83,4.64-.5,6.96-.68c2.33-.18,4.67-.15,6.99-.31s4.63-.65,6.96-.77,4.68.21,7.01.11,4.64-.71,6.97-.78,4.67.46,7.01.41,4.65-.56,6.99-.59,4.66.26,7,.26,4.57-.34,6.81-.32,4.57.24,6.81.28,4.57.02,6.81.09,4.56.53,6.79.62,4.58-.02,6.81.1,4.55.52,6.78.67,4.59-.03,6.81.14,4.58.28,6.79.48,4.52.88,6.73,1.1,4.62,0,6.82.25c2.32.26,4.57.56,6.76.83,2.32.28,4.56.68,6.74.97,2.33.31,4.62.33,6.78.64,2.34.34,4.51,1.14,6.66,1.47,2.35.36,4.65.35,6.77.69,2.3.38,4.52,1.05,6.68,1.75s4.3,1.65,6.34,2.69,3.95,2.3,5.83,3.66,3.45,2.94,5.12,4.57,3.1,3.28,4.56,5.12,2.86,3.51,4.1,5.51c1.18,1.9,2.58,3.77,3.61,5.88s1.45,4.31,2.31,6.51,1.98,4.11,2.67,6.37,1.17,4.4,1.71,6.69c0,.03.13.03.14.06.76,3.5.31,3.6,1.07,7.1.76,3.5,1.05,3.44,1.82,6.94s.55,3.55,1.32,7.05,1.21,3.41,1.98,6.91c.76,3.51.62,3.45,1.38,6.96.76,3.51.52,4,1.29,7.5.57,2.6-1.01,4.73-3.61,5.3-2.6.56-5.08-1.04-5.65-3.64-.76-3.5-1.15-3.41-1.91-6.91-.76-3.5-.37-3.59-1.13-7.09s-1.01-3.45-1.77-6.95-.8-3.49-1.56-6.99-.77-3.5-1.53-7-.7-3.51-1.48-7.01c-.5-2.11-.65-4.59-1.44-7.06-.7-2.17-1.85-4.34-2.82-6.63-.91-2.16-1.84-4.39-3.02-6.53s-2.6-4-4.04-5.95-2.89-3.81-4.62-5.49-3.54-3.21-5.57-4.54-4.14-2.29-6.44-3.17c-2.15-.83-4.48-1.3-6.95-1.7-2.09-.34-4.28-.81-6.6-1.17-2.12-.33-4.33-.64-6.63-.97-2.13-.31-4.33-.72-6.62-1.02-2.15-.29-4.36-.56-6.65-.84-2.16-.26-4.36-.7-6.64-.95s-4.39-.45-6.67-.68c-2.18-.21-4.42-.22-6.7-.42-2.18-.19-4.41-.36-6.68-.53s-4.4-.54-6.67-.69-4.42-.38-6.69-.51-4.44.09-6.71-.01-4.43-.24-6.7-.31-4.43-.29-6.7-.34-4.44-.02-6.71-.04-4.45,0-6.71,0-4.61-.06-6.9-.04-4.6.45-6.89.5-4.6-.09-6.9-.02-4.58.41-6.88.51c-2.3.1-4.59.19-6.88.31s-4.59.22-6.88.37-4.57.39-6.87.56-4.61-.1-6.91.1-4.55.68-6.84.9-4.6.16-6.89.4-4.5,1.01-6.79,1.28-4.57.37-6.86.67-4.58.36-6.86.68-4.49,1-6.78,1.34-4.54.64-6.82,1c-2.19.35-4.38.57-6.42,1.29s-3.92,1.91-5.82,3-3.79,2.12-5.5,3.53c-1.65,1.37-3.3,2.83-4.77,4.5s-2.66,3.41-3.89,5.28c-1.17,1.78-2.17,3.72-3.17,5.73-.95,1.9-1.57,4-2.35,6.1-.74,1.99-1.72,3.96-2.32,6.13-.56,2.06-.83,4.23-1.25,6.43-.01.05.06.16.05.21-.77,3.42-.74,3.43-1.51,6.85s-1,3.37-1.76,6.8-.73,3.43-1.5,6.86c-.77,3.42-.64,3.45-1.41,6.87s-.92,3.39-1.69,6.82c-.77,3.43-.43,3.5-1.2,6.93-.5,2.24-2.53,3.79-4.73,3.79Z"/>
      </g>
      <g>
        <path class="cls-3" d="M420.38,340.92c-1.26-2.97-4.06-4.73-7.24-5.27-2.23-.38-4.44-.74-6.64-1.08-2.23-.35-4.41-.94-6.62-1.26-2.23-.33-4.45-.66-6.66-.95-2.23-.3-4.49-.33-6.71-.6-2.23-.27-4.45-.64-6.67-.88-2.23-.24-4.45-.63-6.68-.85-2.24-.22-4.49-.18-6.72-.37-2.24-.19-4.44-.71-6.68-.87-2.24-.16-4.49,0-6.74-.13-2.24-.13-4.46-.59-6.7-.69-2.24-.1-4.48-.22-6.73-.3-2.24-.08-4.48-.13-6.73-.18-2.24-.05-4.48.27-6.74.25-2.23-.02-4.48-.02-6.73-.02s-4.62-.39-6.92-.36c-2.31.03-4.62-.09-6.92-.04-2.31.06-4.6.54-6.91.63-2.3.08-4.63-.24-6.93-.13-2.3.11-4.59.53-6.9.67-2.3.14-4.58.56-6.89.73-2.3.17-4.6.33-6.9.53-2.29.19-4.62.09-6.92.31-2.29.22-4.55.8-6.85,1.05-2.29.25-4.6.28-6.9.55-2.28.27-4.56.66-6.86.96-2.28.3-4.56.68-6.85,1-2.28.32-4.55.72-6.84,1.07-2.27.35-4.61.32-6.9.69-3.2.52-5.86,2.72-7.21,5.67,0,0-.04.01-.04.01-.15.34-.69,1.88.09,2.87s2.65,2.08,9.14,1.13c1.25-.25,5.06-.87,6.32-1.06,2.25-.34,4.48-.83,6.72-1.15,2.25-.32,4.48-.83,6.72-1.12,2.26-.29,4.53-.45,6.78-.71,2.26-.27,4.54-.3,6.79-.54,2.26-.24,4.52-.46,6.77-.67,2.26-.22,4.54-.25,6.8-.44,2.27-.19,4.52-.48,6.78-.64,2.27-.16,4.51-.7,6.77-.84,2.27-.14,4.54-.22,6.8-.33,2.27-.11,4.54-.08,6.81-.17,2.27-.08,4.54-.22,6.81-.27,2.27-.05,4.54-.07,6.81-.1,2.27-.03,4.54-.2,6.81-.2,2.39,0,4.76.15,7.13.18,2.39.03,4.75.42,7.12.48,2.38.06,4.75.21,7.11.3,2.38.09,4.75.05,7.12.17,2.38.12,4.76,0,7.13.15,2.37.15,4.75.17,7.12.35,2.37.18,4.73.51,7.09.73,2.36.22,4.71.59,7.08.84,2.36.25,4.72.51,7.08.79,2.35.28,4.74.3,7.11.62,2.35.31,4.7.63,7.07.97,2.34.34,4.65.94,7.01,1.31,2.33.37,4.68.77,7.03,1.16.02,0,.39.05.4.07.02.05,1.63.12,1.66.17,3.61.25,5.34.44,6.58-.61s.77-2.1.15-3.56Z"/>
        <path class="cls-3" d="M424.47,353.44c-.06-.14-.11-.27-.17-.38-.62-1-2.1-2.02-3.88-2.24-2.63-.33-5.53-.57-8.03-1.19,0,0-.02,0-.02-.01-2.11-.32-4.4-.78-6.68-1.1-2.12-.3-4.35-.36-6.62-.65-2.13-.28-4.29-.89-6.56-1.16-2.15-.25-4.38-.19-6.65-.44-2.15-.23-4.33-.79-6.58-1.01-2.16-.21-4.37-.44-6.62-.63-2.17-.18-4.38-.35-6.63-.52-2.17-.16-4.41.05-6.66-.1-2.18-.14-4.39-.24-6.64-.36-2.18-.11-4.38-.62-6.63-.72-2.18-.09-4.4-.34-6.65-.41-2.19-.07-4.42.29-6.67.25-2.19-.05-4.4-.5-6.65-.53-2.19-.02-4.41.26-6.66.26s-4.58.28-6.86.31c-2.29.02-4.57.05-6.86.09-2.29.05-4.58-.2-6.86-.13-2.29.07-4.56.51-6.84.6-2.28.1-4.58-.02-6.86.1-2.28.12-4.56.36-6.84.5-2.28.15-4.55.37-6.83.54-2.28.17-4.55.42-6.83.61-2.27.19-4.58.01-6.87.23-2.27.22-4.53.59-6.81.83-2.27.24-4.52.64-6.8.9-2.26.26-4.59.1-6.87.39-2.26.29-4.53.55-6.81.86-2.25.31-4.34.72-6.62,1.06-.19-.12-3.35.7-3.35.61-4.3.69-5.75.96-7.98,2.38-.59.37-.98.85-1.25,1.48-.73,1.61-.71,3.47.36,4.88.92,1.21,2.54,1.7,4.02,1.7.25,0,.48-.09.73-.13,2.29-.36,4.62-.28,6.89-.61,2.29-.34,4.47-1.28,6.74-1.6,2.29-.32,4.59-.43,6.86-.72,2.29-.3,4.61-.3,6.88-.57,2.29-.27,4.57-.54,6.85-.79,2.29-.25,4.56-.66,6.84-.88,2.29-.22,4.61-.1,6.89-.3,2.29-.2,4.53-1.02,6.82-1.19,2.29-.17,4.6-.25,6.89-.4,2.3-.15,4.6-.19,6.89-.31,2.3-.12,4.61.16,6.91.06,2.29-.1,4.58-.39,6.88-.46,2.29-.07,4.59-.29,6.89-.34,2.29-.05,4.59-.29,6.89-.32,2.29-.02,4.59.09,6.9.09s4.5.24,6.71.26c2.27.02,4.5.07,6.71.12,2.27.05,4.49.28,6.7.35,2.27.07,4.5.05,6.7.14,2.27.1,4.52-.19,6.72-.07,2.27.12,4.5.29,6.69.43,2.27.15,4.49.43,6.68.59,2.27.17,4.51.29,6.69.48,2.27.2,4.5.43,6.67.65,2.28.22,4.52.3,6.69.54,2.28.25,4.49.65,6.64.91,2.29.28,4.46.91,6.6,1.2,2.29.3,4.49.69,6.62,1,2.3.33,4.53.52,6.65.85,2.32.36,4.57.46,6.66.8,1.78.29,3.33-.49,4.41-1.94s1.19-3.27.47-4.85Z"/>
      </g>
      <g>
        <path class="cls-4" d="M469.07,416.4c-.17-2.22-.87-4.34-1.32-6.47s-.9-4.32-1.64-6.38-1.46-4.18-2.47-6.13-2.15-3.87-3.42-5.67-2.54-3.65-4.03-5.27-3.28-2.97-4.98-4.38-3.65-2.43-5.53-3.6c-1.86-1.16-3.59-2.59-5.62-3.5s-4.13-1.55-6.26-2.17-4.25-1.1-6.46-1.44-4.42-.72-6.68-1.05-4.49-.23-6.75-.53-4.44-.53-6.71-.82-4.42-.73-6.69-1-4.43-.72-6.7-.96-4.45-.51-6.73-.73-4.48-.22-6.75-.42-4.46-.46-6.73-.64-4.47-.29-6.75-.44-4.46-.43-6.74-.56c-2.23-.13-4.48-.27-6.76-.38s-4.48-.33-6.76-.41-4.5.23-6.78.17-4.49,0-6.77-.03-4.48-.17-6.76-.19-4.49.13-6.77.13-4.66-.16-6.96-.14-4.66-.22-6.96-.18-4.65.31-6.95.38-4.65.34-6.94.43-4.66.04-6.96.15-4.65.29-6.94.42-4.67-.04-6.96.11c-2.34.16-4.66.22-6.95.39s-4.64.52-6.92.71-4.61.8-6.89,1.02-4.68.03-6.96.27-4.59.92-6.86,1.18-4.69.03-6.96.31-4.61.74-6.88,1.04-4.6.77-6.87,1.08-4.62.66-6.88.99-4.46.73-6.6,1.35c-2.18.63-4.35,1.26-6.39,2.18s-4.07,1.99-5.97,3.18-3.54,2.78-5.27,4.22-3.69,2.67-5.2,4.33c-1.51,1.66-2.66,3.65-3.93,5.51s-2.36,3.81-3.37,5.83-2.11,3.98-2.83,6.13-1.22,4.33-1.65,6.56-.59,4.44-.71,6.71c-.19,3.54,0,3.55-.18,7.09s-.56,3.52-.74,7.06,0,3.55-.18,7.09-.04,3.55-.23,7.08-.1,3.54-.29,7.08-.25,3.54-.43,7.08-.35,3.53-.54,7.07-.41,3.53-.6,7.07c-.19,3.54-.11,3.55-.3,7.09s.21,3.56.03,7.1c-.14,2.74.28,5.27,1.48,7.52s3.07,4.21,5.33,5.57c2.18,1.32,4.67,1.92,7.42,1.92,3.44,0,3.44.42,6.89.42s3.44-.03,6.89-.03,3.44.2,6.88.2,3.44-.51,6.89-.51,3.44-.05,6.89-.05,3.44.59,6.89.59,3.44-.08,6.89-.08,3.44-.4,6.89-.4,3.44.3,6.89.3,3.44.03,6.89.03,3.44-.05,6.89-.05,3.44-.17,6.89-.17,3.44.16,6.89.16,3.44-.01,6.89-.01,3.44.16,6.89.16,3.44-.04,6.89-.04,3.44-.02,6.88-.02,3.44-.16,6.88-.16,3.44-.31,6.89-.31,3.44.54,6.88.54,3.44-.62,6.89-.62,3.44.25,6.88.25,3.44.15,6.89.15,3.44-.26,6.89-.26,3.44-.05,6.89-.05,3.44.21,6.89.21,3.44-.3,6.89-.3,3.44.63,6.89.63,3.44-.37,6.89-.37,3.44-.12,6.89-.12,3.44-.11,6.89-.11,3.44.44,6.89.44,3.44.18,6.89.18,3.44-.2,6.89-.2,3.44.02,6.89.02,3.44.04,6.89.04,3.44-.3,6.89-.3,3.45.44,6.89.44,3.44-.22,6.89-.22,3.45-.3,6.89-.3,3.45.33,6.89.33c2.79,0,5.34-1.02,7.54-2.37,2.28-1.4,4.5-3.16,5.72-5.54s1.23-5.09,1.02-7.87c-.27-3.59.2-3.62-.08-7.21-.27-3.59-.76-3.55-1.03-7.13-.27-3.59-.16-3.59-.43-7.18-.27-3.59-.07-3.6-.35-7.19s-.55-3.56-.82-7.15c-.27-3.59-.09-3.6-.36-7.19s-.11-3.6-.38-7.19c-.27-3.59-.64-3.56-.91-7.15s-.19-3.6-.42-7.19-.06-3.6-.33-7.19Z"/>
        <path class="cls-3" d="M459.91,508.6c-3.44,0-3.44.01-6.89.01-3.44,0-3.44-.22-6.89-.22s-3.44.18-6.88.18c-3.44,0-3.44.04-6.89.04s-3.44.1-6.89.1-3.44-.12-6.89-.12-3.44.12-6.89.12-3.44-.18-6.89-.18-3.44.4-6.89.4c-3.44,0-3.44-.13-6.89-.13-3.44,0-3.44-.05-6.89-.05s-3.44-.29-6.89-.29-3.44.43-6.89.43-3.44-.02-6.89-.02-3.44-.13-6.89-.13-3.44-.44-6.89-.44c-3.44,0-3.44.56-6.88.56s-3.44-.15-6.88-.15-3.44-.11-6.89-.11c-3.44,0-3.44.22-6.88.22s-3.44.06-6.89.06-3.44-.05-6.88-.05-3.44.08-6.89.08c-3.44,0-3.44-.32-6.89-.32s-3.44-.31-6.89-.31c-3.44,0-3.44.47-6.89.47-3.44,0-3.44.19-6.89.19-3.44,0-3.44-.38-6.89-.38s-3.44.35-6.89.35-3.44-.38-6.89-.38-3.44-.26-6.89-.26-3.44.16-6.89.16c-3.44,0-3.44.02-6.89.02s-3.44.28-6.89.28-3.44.05-6.89.05-3.44-.08-6.89-.08-3.44.18-6.89.18-3.45,0-6.89,0-3.44-.23-6.89-.23c-3.45,0-3.45-.09-6.89-.09s-3.45.12-6.89.12c-2.68,0-5.4-.3-7.78-1.33-2.38-1.02-4.44-2.82-6.29-4.76-1.85-1.95-3.52-4.1-4.42-6.53-.9-2.43-1.28-5.17-1.14-7.85.18-3.54.67-3.51.85-7.05s.03-3.55.22-7.09.14-3.54.32-7.08.05-3.55.23-7.08c.18-3.54.32-3.53.5-7.07.19-3.54.1-3.54.28-7.08.19-3.54.59-3.52.77-7.06s.12-3.29.31-6.83c.19-3.54.18-3.8.37-7.34.19-3.54.08-3.55.27-7.09.12-2.27.31-4.49.7-6.68s1.09-4.35,1.75-6.48,1.23-4.34,2.16-6.37,1.81-4.15,2.99-6.06,2.63-3.67,4.03-5.42,2.9-3.45,4.51-5.01,3.2-3.21,4.99-4.56,4.03-2.04,5.98-3.17,3.72-2.55,5.8-3.42,4.26-1.4,6.43-2.01,4.28-1.45,6.52-1.78c2.32-.34,4.7-.22,6.99-.54s4.58-1.04,6.88-1.34,4.69-.18,7-.47c2.33-.29,4.66-.45,6.96-.72s4.61-.83,6.93-1.07c2.33-.24,4.69-.1,7-.33s4.64-.49,6.96-.69,4.64-.56,6.96-.73,4.65-.41,6.98-.56,4.64-.58,6.97-.71c2.33-.13,4.67-.15,7-.26s4.66-.35,6.99-.44,4.67-.02,7-.09,4.66.15,7,.1,4.66-.12,7-.14,4.66-.07,7-.07,4.57.17,6.81.19c2.3.02,4.57-.35,6.82-.31s4.57.25,6.81.31,4.57.19,6.81.27,4.56.5,6.79.6,4.59-.12,6.82,0c2.31.13,4.57.32,6.8.47s4.57.28,6.8.45c2.31.18,4.56.46,6.78.66s4.61,0,6.82.21,4.56.6,6.76.83c2.32.25,4.59.39,6.78.65,2.32.27,4.59.49,6.77.77,2.33.29,4.52,1.02,6.69,1.31,2.34.32,4.56.8,6.72,1.11,2.35.34,4.59.7,6.72,1.02,2.4.37,4.86.43,7.17,1.12s4.49,1.81,6.7,2.8,4.42,1.97,6.48,3.25,3.87,2.88,5.75,4.42,3.6,3.18,5.25,4.97c1.65,1.78,3.55,3.36,4.94,5.34s2.46,4.2,3.57,6.34,2.06,4.39,2.87,6.66,1.18,4.67,1.68,7.04,1.07,4.7,1.25,7.12c.27,3.59.39,3.58.66,7.16s.43,3.57.71,7.16c.27,3.59.14,3.6.42,7.18s.4,3.58.67,7.16c.27,3.59-.13,3.62.14,7.2.27,3.59.14,3.6.41,7.18.27,3.59.34,3.58.61,7.17s.37,3.58.64,7.17.71,3.56.98,7.15c.27,3.59.17,3.6.44,7.19.2,2.68-.54,5.28-1.41,7.78s-2.25,4.68-4.08,6.65c-1.83,1.97-3.76,3.84-6.18,4.9s-5.11,1.5-7.79,1.5ZM319.52,368c-2.31,0-4.61.02-6.91.04-2.31.02-4.62-.17-6.91-.13s-4.61.27-6.91.34-4.61.18-6.91.27-4.6.28-6.9.39-4.61.11-6.91.24-4.59.39-6.89.55-4.61.14-6.91.32-4.55.76-6.85.96-4.59.28-6.89.5-4.58.4-6.88.64-4.6.2-6.9.46-4.52.96-6.81,1.24-4.56.55-6.85.85-4.57.48-6.87.8-4.61.21-6.91.55c-2.26.33-4.34,1.39-6.47,2.05s-4.3,1.36-6.31,2.34-4.04,2.04-5.88,3.32-3.46,2.87-5.1,4.42-3.09,3.24-4.48,5.02-2.65,3.6-3.76,5.57-1.97,4-2.76,6.13c-.79,2.1-1.72,4.16-2.18,6.38s-1.06,4.41-1.18,6.69c-.19,3.54.28,3.56.1,7.1s0,3.55-.18,7.09c-.18,3.54-.56,3.52-.75,7.06s.17,3.56-.02,7.09-.56,3.52-.75,7.06-.45,3.53-.63,7.06c-.19,3.54-.02,3.55-.21,7.09-.19,3.54-.17,3.54-.35,7.08-.19,3.54.09,3.56-.09,7.1s-.13,3.54-.32,7.09c-.14,2.69.69,5.18,2.55,7.14,1.86,1.96,4.3,2.83,6.99,2.83q3.44,0,6.89,0c3.44,0,3.44.23,6.89.23s3.44.09,6.88.09,3.44-.12,6.89-.12,3.44-.26,6.89-.26,3.44.31,6.89.31,3.44-.29,6.89-.29,3.44.04,6.89.04,3.44.48,6.89.48,3.44-.15,6.89-.15,3.44-.05,6.89-.05,3.44-.14,6.89-.14,3.44.13,6.89.13,3.44-.09,6.89-.09,3.44.4,6.89.4,3.44-.61,6.89-.61,3.44.55,6.88.55,3.44-.1,6.88-.1,3.44-.07,6.89-.07,3.44.16,6.88.16,3.44-.26,6.89-.26,3.44-.22,6.88-.22,3.44.17,6.89.17,3.44-.03,6.89-.03,3.44-.21,6.89-.21,3.44.66,6.89.66,3.44-.49,6.89-.49,3.44.22,6.89.22,3.44-.38,6.89-.38,3.44.46,6.89.46,3.44-.41,6.89-.41,3.44.42,6.89.42,3.44.11,6.89.11,3.44-.31,6.89-.31,3.44.37,6.89.37,3.44-.05,6.89-.05,3.44-.17,6.89-.17,3.45-.06,6.89-.06,3.44-.28,6.89-.28,3.45.1,6.89.1,3.45-.14,6.89-.14c2.74,0,5.19-.92,7.05-2.94,1.86-2.01,3.01-4.55,2.8-7.28-.27-3.59-.32-3.58-.59-7.17s-.31-3.58-.58-7.17c-.27-3.59-.11-3.6-.38-7.18s-.68-3.55-.95-7.14-.12-3.6-.39-7.18c-.27-3.59-.22-3.59-.5-7.18s.04-3.61-.23-7.2-.62-3.56-.89-7.15-.23-3.59-.5-7.18c-.27-3.59-.31-3.59-.58-7.18-.17-2.24-.4-4.45-.88-6.57s-1.53-4.16-2.33-6.2-1.62-4.1-2.71-6.01-2.42-3.67-3.79-5.39-2.89-3.29-4.51-4.79-3.07-3.21-4.9-4.46c-1.82-1.24-3.68-2.5-5.68-3.46s-4.07-1.79-6.2-2.45-4.36-.68-6.57-1.02c-2.11-.32-4.28-.96-6.6-1.29-2.13-.31-4.37-.45-6.68-.77-2.14-.29-4.33-.83-6.63-1.12-2.16-.27-4.38-.56-6.67-.82-2.17-.25-4.44-.01-6.73-.26s-4.38-.69-6.66-.91-4.41-.44-6.69-.64-4.4-.69-6.67-.86-4.44-.11-6.72-.26-4.44-.17-6.71-.3-4.45-.08-6.72-.19-4.44-.33-6.71-.41c-2.21-.08-4.45-.03-6.72-.1s-4.44-.52-6.71-.56-4.45-.21-6.72-.23-4.46.3-6.73.3Z"/>
      </g>
    </g>
    <g>
      <g>
        <path class="cls-3" d="M282.73,436.25c-.98,1.84-2.08,3.56-3.26,5.13s-2.8,2.92-4.33,4.22-2.97,2.74-4.86,3.63c-1.72.81-3.68,1.46-5.79,1.92"/>
        <path class="cls-3" d="M264.43,455.73c-2.21,0-4.38-1.53-4.87-3.78-.57-2.6,1.26-5.19,3.85-5.75,2.31-.51,4.36-1.29,6.21-2.39s3.68-2.39,5.2-4.19c1.31-1.56,2.39-3.53,3.53-5.69,1.24-2.35,4.11-3.26,6.46-2.02,2.35,1.24,3.33,4.19,2.08,6.54-.98,1.86-2.3,3.88-3.88,5.94-1.35,1.76-2.87,3.61-4.81,5.21-1.71,1.42-3.78,2.57-6.07,3.65-1.99.94-4.11,2.1-6.61,2.65-.35.08-.76-.17-1.1-.17Z"/>
      </g>
      <g>
        <path class="cls-3" d="M356.52,429.49c0,1.6.49,4.27,1.68,7.19.85,2.1,2.26,4.22,3.72,6.38,1.36,2,2.87,3.99,4.75,5.61s3.87,3.19,6.24,4.01"/>
        <path class="cls-3" d="M373.01,457.19c-.53,0-1.17.22-1.69.04-2.3-.8-4.3-2.21-6.17-3.58s-3.46-3.25-4.96-5.03-2.98-3.76-4.08-5.76c-1.22-2.22-2.38-4.36-3.06-6.41-.95-2.83-1.14-5.34-1.14-6.97,0-2.66,2.01-4.61,4.67-4.61s4.55,1.96,4.55,4.61c0,1.42,1.35,4.19,2.91,7.31,1.1,2.2,2.15,4.8,3.98,6.77s4.19,3.2,6.66,4.06c2.51.88,3.66,3.8,2.79,6.31-.69,1.98-2.46,3.25-4.44,3.25Z"/>
      </g>
      <path class="cls-3" d="M318.98,475.02c-1.22,0-2.46.5-3.69.43-2.25-.14-4.43-.87-6.61-1.25s-4.45-.67-6.58-1.27-4.15-1.73-6.19-2.56c-2.1-.87-4.2-1.62-6.11-2.69s-3.9-2.28-5.65-3.59c-1.83-1.38-3.57-2.8-5.08-4.37-1.59-1.66-2.7-3.61-3.87-5.45-1.23-1.93-2.68-3.71-3.38-5.79-.85-2.52.7-5.4,3.22-6.25,2.52-.85,5.11.64,5.96,3.16.71,2.12,1.9,4.24,3.46,6.16,1.4,1.73,3.2,3.33,5.15,4.83,1.79,1.37,3.93,2.41,6.09,3.53,2.03,1.05,4.1,2.18,6.38,2.96s4.54,1.01,6.88,1.48,4.56,1.01,6.93,1.16c1.92.12,4.46.29,7.35.03,2.23-.2,4.73-.45,7.29-1.09,2.26-.56,4.65-1.31,7-2.35,2.15-.95,4.26-2.29,6.36-3.74,1.93-1.33,3.54-3.2,5.34-5.04,1.63-1.66,3.28-3.43,4.74-5.56,1.31-1.92,2.38-4.08,3.5-6.42,1.15-2.4,4.25-3.2,6.64-2.05,2.4,1.15,3.74,4.07,2.59,6.47-.98,2.04-2.26,3.9-3.42,5.74-1.2,1.91-2.65,3.59-4.04,5.29s-2.98,3.28-4.59,4.78-3.36,2.84-5.18,4.12-3.43,2.85-5.42,3.89c-1.91.99-4.08,1.41-6.12,2.15s-3.92,1.93-6.04,2.42-4.29.58-6.45.82-4.29.07-6.47.07Z"/>
      <path class="cls-3" d="M299.77,446.37c-2.42,0-4.86-.06-7.05-.74-2.28-.7-4.22-2.2-6.13-3.52-1.95-1.34-3.89-2.75-5.32-4.6s-2.24-4.1-3.01-6.34-1.6-4.44-1.6-6.85.52-4.79,1.27-6.97,2.28-4.09,3.71-5.95,2.78-3.87,4.73-5.21,4.25-1.93,6.53-2.63,4.46-.96,6.88-.96,4.66.38,6.85,1.06,4.56,1.35,6.47,2.67,3.46,3.17,4.89,5.03,2.66,3.84,3.43,6.08,1.21,4.48,1.21,6.9-.42,4.73-1.17,6.91-2.14,4.13-3.57,5.98c-1.43,1.85-3.03,3.48-4.98,4.82s-3.89,2.59-6.17,3.3-4.54,1.03-6.96,1.03ZM299.77,411.94c-2.34,0-4.39.85-6.3,1.85-2.02,1.06-4.02,2.22-5.21,4.08s-1.58,4.12-1.58,6.44.35,4.61,1.54,6.47c1.19,1.86,3.18,3.08,5.21,4.14,1.91,1,4,1.65,6.35,1.65s4.69-.17,6.6-1.17c2.02-1.06,3.37-3.01,4.57-4.87s2.32-3.9,2.32-6.22-.66-4.66-1.85-6.52-2.99-3.54-5.01-4.6c-1.91-1-4.27-1.26-6.62-1.26Z"/>
      <path class="cls-3" d="M338.81,446.54c-2.43,0-4.82-.46-7.01-1.17s-4.22-2.14-6.12-3.52-3.88-2.79-5.28-4.7-2.09-4.2-2.83-6.47-1.25-4.46-1.25-6.9.04-4.86.76-7.06,2.33-4.13,3.71-6.02c1.39-1.91,2.86-3.75,4.77-5.14,1.89-1.38,4.09-2.21,6.36-2.95s4.45-1.2,6.88-1.2,4.86-.05,7.05.66,4.38,1.98,6.28,3.36,3.27,3.36,4.66,5.28,2.49,3.9,3.23,6.18,1.51,4.46,1.51,6.89-.76,4.71-1.48,6.91c-.74,2.27-1.47,4.57-2.85,6.47s-3.04,3.76-4.95,5.15-4.15,2.4-6.42,3.14c-2.2.72-4.61,1.09-7.04,1.09ZM338.81,411.03c-2.36,0-4.5.55-6.41,1.66s-3.86,2.55-4.99,4.52-1.36,4.23-1.36,6.58.23,4.69,1.33,6.59c1.14,1.96,2.95,3.55,4.91,4.69s4.16,1.39,6.51,1.39,4.72-.1,6.62-1.2,3.48-3.02,4.62-4.98,2.01-4.13,2.01-6.49-.77-4.67-1.87-6.57c-1.14-1.96-3.08-3.28-5.04-4.42-1.9-1.1-3.99-1.76-6.34-1.76Z"/>
      <path class="cls-3" d="M299.77,432.27c-2.06,0-3.98-.52-5.34-1.87s-2.48-3.28-2.48-5.34,1.34-3.77,2.69-5.12,3.06-2.55,5.12-2.55,3.7,1.26,5.05,2.62,2.53,2.99,2.53,5.05-1.07,3.81-2.42,5.16c-1.35,1.35-3.1,2.05-5.16,2.05Z"/>
      <path class="cls-3" d="M338.81,431.01c-2.03,0-3.95-.61-5.28-1.94s-2.43-3.25-2.43-5.28,1.08-3.97,2.41-5.3,3.27-1.99,5.3-1.99,3.82.8,5.16,2.14,1.92,3.12,1.92,5.16-.62,3.79-1.96,5.13c-1.34,1.34-3.09,2.1-5.13,2.1Z"/>
    </g>
  </g>
</svg>