<?xml version="1.0" encoding="UTF-8"?>
<svg id="Calque_1" data-name="Calque 1" xmlns="http://www.w3.org/2000/svg" viewBox="0 0 1080 1080">
  <defs>
    <style>
      .cls-1 {
        fill: #efca52;
      }

      .cls-2 {
        fill: #232115;
      }
    </style>
  </defs>
  <g>
    <circle class="cls-1" cx="540" cy="540" r="285.67"/>
    <path class="cls-2" d="M540,254.33c157.77,0,285.67,127.9,285.67,285.67s-127.9,285.67-285.67,285.67-285.67-127.9-285.67-285.67,127.9-285.67,285.67-285.67M540,245.33c-39.78,0-78.37,7.79-114.7,23.16-35.09,14.84-66.6,36.09-93.66,63.15-27.06,27.06-48.31,58.57-63.15,93.66-15.37,36.33-23.16,74.93-23.16,114.7s7.79,78.37,23.16,114.7c14.84,35.09,36.09,66.6,63.15,93.66,27.06,27.06,58.57,48.31,93.66,63.15,36.33,15.37,74.93,23.16,114.7,23.16s78.37-7.79,114.7-23.16c35.09-14.84,66.6-36.09,93.66-63.15,27.06-27.06,48.31-58.57,63.15-93.66,15.37-36.33,23.16-74.93,23.16-114.7s-7.79-78.37-23.16-114.7c-14.84-35.09-36.09-66.6-63.15-93.66-27.06-27.06-58.57-48.31-93.66-63.15-36.33-15.37-74.93-23.16-114.7-23.16h0Z"/>
  </g>
  <path class="cls-2" d="M632.1,458.08c-3.25-1.29-6.58-2.45-9.99-3.51-3.36-1.04-6.55-2.83-10.01-3.68-3.43-.84-7.1-.7-10.57-1.37s-6.93-1.59-10.41-2.1c-3.55-.52-7.03-1.32-10.5-1.7s-7.19-.13-10.64-.38c-3.66-.27-7.2-.43-10.6-.58-3.74-.16-7.28-.67-10.6-.72-3.89-.06-7.45.53-10.61.57-3.37.05-6.72-.37-10.05-.25-3.37.13-6.71.51-10.03.72-3.37.22-6.72.45-10.02.75-3.38.31-6.67,1-9.95,1.39-3.38.4-6.65,1.11-9.9,1.6-3.38.51-6.86,0-10.08.61-3.37.63-6.55,1.82-9.73,2.55-3.37.77-6.64,1.48-9.76,2.35-3.36.94-6.66,1.64-9.68,2.69-3.59,1.25-7.12,2.8-10,4.98s-5.43,5.25-7.52,8.26c-2.11,3.04-3.1,6.68-4.17,10.21-1.06,3.5-1.81,7.06-1.73,10.8.07,3.61.69,7.21,1.94,10.8,1.06,3.05,2.13,6.05,3.88,8.59,1.8,2.63,4.28,4.65,6.67,6.66,2.42,2.03,5.19,3.36,8.04,4.68s5.58,2.82,8.7,3.35c1.43,5.25.41,5.44.41,10.88,0,5.44.09,5.44.09,10.89,0,5.44-.29,5.44-.29,10.89,0,5.44-.77,5.44-.77,10.89,0,5.45.12,5.45.12,10.89,0,5.44.45,5.44.45,10.89,0,5.45-.1,5.45-.1,10.9s-.32,5.45-.32,10.9c0,3.12.94,6.14,2.06,8.86,1.17,2.81,2.99,5.3,5.11,7.42,2.12,2.12,4.64,3.85,7.46,5.01,2.71,1.12,5.7,1.1,8.82,1.1,5.14,0,5.14.01,10.28.01s5.14.4,10.29.4,5.14.56,10.29.56,5.14-.88,10.28-.88,5.14.63,10.29.63,5.14-.4,10.29-.4,5.14-.17,10.29-.17,5.14.31,10.29.31,5.14-.42,10.28-.42,5.15,1.06,10.29,1.06,5.15-.14,10.3-.14,5.15-.32,10.3-.32c3.12,0,5.9-1.12,8.62-2.24,2.81-1.17,5.77-2.18,7.89-4.29,2.12-2.12,3.25-5.03,4.42-7.84,1.12-2.71,1.58-5.55,1.58-8.67,0-5.44.2-5.44.2-10.87,0-5.44.36-5.44.36-10.87,0-5.44.35-5.44.35-10.87s-.5-5.44-.5-10.87c0-5.44.51-5.44.51-10.88,0-5.44-.43-5.44-.43-10.87,0-5.44-.39-5.44-.39-10.88s-.4-5.46,1.03-10.71c3.07-.45,5.26-1.84,8.09-3.06,2.83-1.22,5.53-2.6,7.97-4.52,2.4-1.89,5.08-3.66,6.95-6.17,1.8-2.43,2.79-5.47,3.95-8.42,1.4-3.54,1.91-7.13,2.13-10.73.23-3.73.86-7.55-.06-11.1-.92-3.58-2.85-6.93-4.83-10.05-1.96-3.09-4.64-5.68-7.53-8.06-2.78-2.3-5.97-4.05-9.5-5.44Z"/>
</svg>