<?xml version="1.0" encoding="UTF-8"?>
<svg id="Calque_1" data-name="Calque 1" xmlns="http://www.w3.org/2000/svg" viewBox="0 0 1080 1080">
  <defs>
    <style>
      .cls-1 {
        fill: #efca52;
      }

      .cls-2 {
        fill: #232115;
      }

      .cls-3 {
        fill: #2d2218;
      }

      .cls-4 {
        fill: #f6f4f1;
      }
    </style>
  </defs>
  <g>
    <circle class="cls-1" cx="540" cy="540" r="285.67"/>
    <path class="cls-2" d="M540,254.33c157.77,0,285.67,127.9,285.67,285.67s-127.9,285.67-285.67,285.67-285.67-127.9-285.67-285.67,127.9-285.67,285.67-285.67M540,245.33c-39.78,0-78.37,7.79-114.7,23.16-35.09,14.84-66.6,36.09-93.66,63.15-27.06,27.06-48.31,58.57-63.15,93.66-15.37,36.33-23.16,74.93-23.16,114.7s7.79,78.37,23.16,114.7c14.84,35.09,36.09,66.6,63.15,93.66,27.06,27.06,58.57,48.31,93.66,63.15,36.33,15.37,74.93,23.16,114.7,23.16s78.37-7.79,114.7-23.16c35.09-14.84,66.6-36.09,93.66-63.15,27.06-27.06,48.31-58.57,63.15-93.66,15.37-36.33,23.16-74.93,23.16-114.7s-7.79-78.37-23.16-114.7c-14.84-35.09-36.09-66.6-63.15-93.66-27.06-27.06-58.57-48.31-93.66-63.15-36.33-15.37-74.93-23.16-114.7-23.16h0Z"/>
  </g>
  <g>
    <g>
      <path class="cls-3" d="M579.85,617.44c2.39,0,4.75.45,7.11.44,2.39-.01,4.76-.19,7.12-.21,2.39-.02,4.76-.42,7.11-.45,2.39-.03,4.77.53,7.12.5s4.76-.35,7.11-.39c2.39-.04,4.77.2,7.12.16,2.4-.04,4.77-.2,7.12-.24,2.4-.04,4.76-.56,7.11-.6,2.4-.04,4.78.06,7.12.02s4.78.39,7.12.36c2.41-.03,4.78-.12,7.11-.14,2.41-.02,4.79-.47,7.12-.47,2.42,0,4.79.41,7.11.43s4.81-.37,7.12-.32c2.44.05,4.82-.03,7.12.06,2.45.1,4.82.35,7.11.49,2.46.15,4.81.53,7.08.75,2.47.23,4.88.18,7.11.5,2.49.35,4.74,1.27,6.93,1.74,2.5.54,4.88.83,6.95,1.54,2.47.84,4.47,2.15,6.3,3.27,2.24,1.37,4.31,2.63,5.5,4.46,1.27,1.95,1.86,4.32,1.86,6.88,0,2.33-1.34,4.17-3.21,5.99-1.44,1.41-3.09,3.13-5.55,4.26-1.91.88-4.29,1.22-6.77,1.95-2.08.61-4.35,1.1-6.81,1.62-2.17.45-4.46.83-6.91,1.22-2.21.35-4.47,1.1-6.9,1.39-2.24.27-4.61.21-7.02.44-2.26.21-4.59.54-6.99.71-2.28.17-4.61.37-7.01.51s-4.63.23-7.02.33-4.65-.12-7.04-.04-4.64.23-7.02.28-4.64.39-7.02.43-4.66-.19-7.03-.17c-2.31.02-4.66.6-7.03.61-2.32,0-4.66-.49-7.03-.49-2.32,0-4.66.22-7.03.2-2.32-.01-4.66-.44-7.03-.46s-4.67.2-7.03.17c-2.33-.03-4.67.02-7.04-.02s-4.67.02-7.03-.02c-2.33-.04-4.67-.45-7.03-.49-2.33-.04-4.69.45-7.04.41-3.49-.02-3.49-.16-6.99-.16-3.49,0-3.49-.27-6.98-.28-3.49,0-3.49-.03-6.99-.03-3.49,0-3.49.08-6.99.08-3.49,0-3.49.26-6.99.26-3.49,0-3.49-.24-6.99-.24-3.49,0-3.49.37-6.99.37-3.49,0-3.49-.27-6.99-.28-3.49,0-3.49-.15-6.99-.15-3.49,0-3.49-.13-6.99-.14s-3.49-.05-6.99-.05c-3.5,0-3.5.16-6.99.15s-3.5.42-6.99.42c-3.49,0-3.49-.16-6.99-.16-3.49,0-3.49.16-6.99.15s-3.49-.42-6.99-.42c-3.5,0-3.5.42-6.99.42s-3.5-.25-6.99-.25-3.49-.22-6.99-.22c-3.5,0-4.11.21-7.61.2s-6.34,1.85-8.45-.94c-2.18-2.89,2.68-2.72,3.52-6.24.84-3.51,1.34-3.4,2.18-6.91s.23-3.66,1.07-7.18c.84-3.52,1.12-3.45,1.96-6.97s.92-3.5,1.76-7.01c.84-3.52.51-3.6,1.36-7.12s-.94-4.86,1.99-6.99c2.88-2.1,3.55.59,7.1.91,3.55.32,3.56.19,7.11.51,3.55.32,3.57.09,7.12.41,3.55.32,3.53.6,7.08.92,3.55.32,3.55.38,7.1.7,3.55.32,3.55.39,7.1.71,3.55.32,3.6-.27,7.16.06,3.55.32,3.5.86,7.05,1.18,3.55.32,3.59-.14,7.15.18,3.55.32,3.52.66,7.07.99s3.56.27,7.11.59c3.55.32,3.54.43,7.09.76,3.55.32,3.58.02,7.13.34,3.55.32,3.54.46,7.09.78s3.52.63,7.08.96c3.55.32,3.59-.03,7.14.29s3.57.17,7.12.49,3.53.56,7.09.84,3.56.19,7.12.43Z"/>
      <g>
        <path class="cls-4" d="M433.55,649.85c-3.25,0-3.25.26-6.5.26-3.25,0-3.25.25-6.51.25s-3.25-.22-6.5-.22c-3.25,0-3.25-.21-6.51-.21q-3.25,0-6.51,0c-3.46,0-6.2-2.28-7.18-5.6-1.17-3.97-1.34-3.92-2.51-7.9-1.17-3.97-4.34-4.2-2.23-7.77,1.79-3.03,3.28-.22,6.81-.22s3.52-.28,7.04-.28,3.52.59,7.04.59,3.52-.44,7.04-.44,3.52.54,7.05.54,3.52-.45,7.04-.45,3.52.29,7.05.29,5.33-3.25,7.22-.28c2.17,3.42-1.07,4.06-2.1,7.98-1.03,3.92-1.39,3.83-2.42,7.75-.9,3.42-3.78,5.71-7.32,5.71Z"/>
        <path class="cls-3" d="M433.55,655.27c-3.25,0-3.25-.11-6.5-.11-3.25,0-3.25-.36-6.51-.36s-3.25.42-6.5.42c-3.25,0-3.25-.09-6.51-.09-3.25,0-3.25.21-6.51.21-2.82,0-5.45-1.31-7.62-2.93s-3.59-3.95-4.39-6.65c-1.17-3.97-1.16-3.98-2.33-7.95s-1.61-3.84-2.78-7.82c-.45-1.51-.19-3.34.75-4.6.94-1.26,2.63-1.64,4.2-1.64,3.52,0,3.52-.26,7.04-.26s3.52.24,7.04.24,3.52-.04,7.04-.04,3.52-.1,7.04-.1,3.52-.21,7.05-.21,3.52.26,7.04.26,3.52-.21,7.05-.21,3.52.24,7.05.24c1.55,0,3.24.41,4.19,1.64.95,1.23.83,2.95.44,4.45-1.03,3.92-.63,4.03-1.66,7.94-1.03,3.92-1.18,3.88-2.21,7.8-.74,2.81-2.41,5.21-4.59,6.89s-4.93,2.89-7.83,2.89ZM396.27,633.72c-.56,2.23.83,4.49,2.22,9.23.35,1.18,1.3,2.26,2.54,2.26,3.25,0,3.25-.42,6.5-.42s3.25.09,6.51.09,3.25-.21,6.5-.21,3.25.38,6.51.38,3.25.22,6.51.22c1.27,0,2.67-1.06,2.99-2.29,1.24-4.7,2.76-7.26,2.29-8.18-1.08-2.08-3.69-1.05-7.29-1.05-3.6,0-3.6-.47-7.2-.47-3.6,0-3.6.26-7.2.26-3.6,0-3.6-.24-7.2-.24-3.6,0-4.06.4-7.69-.16-3.86-.59-5.58-1.14-6,.56Z"/>
      </g>
      <g>
        <path class="cls-4" d="M673.73,649.76c-3.25,0-3.25.07-6.5.07s-3.25.28-6.51.28-3.25-.03-6.5-.03c-3.25,0-3.25-.08-6.51-.08s-3.25-.23-6.51-.23c-3.46,0-6.76-1.97-7.73-5.28-1.17-3.97-.95-4.04-2.12-8.01-1.17-3.97-4.42-4.4-2.31-7.96,1.79-3.03,3.53.08,7.05.08s3.52.17,7.04.17,3.52-.3,7.04-.3,3.52-.15,7.04-.15,3.52-.11,7.05-.11,3.52.19,7.04.19,3.52.47,7.05.47,5.39-3.47,7.28-.49c2.17,3.42-1.43,4.02-2.46,7.94-1.03,3.92-.79,3.98-1.82,7.9-.9,3.42-4.07,5.54-7.61,5.54Z"/>
        <path class="cls-3" d="M673.73,655.32c-3.25,0-3.25-.53-6.5-.53-3.25,0-3.25-.04-6.51-.04-3.25,0-3.25-.02-6.5-.02q-3.25,0-6.51,0c-3.25,0-3.25.13-6.51.13-2.82,0-5.39-.93-7.55-2.55-2.16-1.62-3.94-3.78-4.73-6.48-1.17-3.97-.98-4.03-2.15-8-1.17-3.97-1.57-3.86-2.74-7.83-.45-1.51-.16-3.38.78-4.64.94-1.26,2.65-1.69,4.23-1.69,3.52,0,3.52-.42,7.04-.42s3.52.52,7.04.52,3.52.04,7.04.04,3.52-.01,7.04-.01,3.52.04,7.05.04,3.52-.05,7.04-.05,3.52-.18,7.05-.18,3.52-.23,7.05-.23c1.55,0,3.25.67,4.2,1.9.95,1.23.69,2.92.29,4.42-1.03,3.92-.52,4.05-1.55,7.97-1.03,3.92-1.05,3.91-2.09,7.83-.74,2.81-2.7,4.93-4.89,6.61-2.18,1.68-4.73,3.2-7.64,3.2ZM636.01,633.65c-.96,2.34.91,4.67,2.3,9.41.35,1.18,1.66,2.2,2.89,2.2,3.25,0,3.25.02,6.5.02s3.25,0,6.51,0,3.25-.13,6.5-.13,3.25.02,6.51.02,3.25-.18,6.51-.18c1.27,0,2.56-.8,2.88-2.03,1.24-4.7,3.2-6.51,2.1-9.35-.43-1.11-3.39.18-6.99.18s-3.6-.43-7.2-.43c-3.6,0-3.6.42-7.2.42s-3.6-.52-7.2-.52c-3.6,0-3.54.19-7.13-.04-3.32-.21-6.47-.84-6.99.41Z"/>
      </g>
      <g>
        <path class="cls-4" d="M673.68,470.92c3.8,0,3.8-.42,7.61-.42s3.81.18,7.61.18,3.8-.12,7.61-.12,3.81-.26,7.61-.26,3.81.52,7.61.52c2.23,0,4.32.56,6.04,1.81s3.03,3.02,3.72,5.14c.89,2.69.61,2.79,1.5,5.48.72,2.2.69,4.2.04,6.19s-1.74,3.91-3.5,5.21c-1.69,1.24-3.71,2.01-6.03,2.01-3.74,0-3.74.14-7.48.14q-3.74,0-7.47,0c-3.74,0-3.74-.39-7.48-.39-3.74,0-3.74.36-7.48.36"/>
        <path class="cls-3" d="M713.52,501.78c-3.74,0-3.74-.24-7.48-.24-3.74,0-3.74.42-7.47.42-3.74,0-3.74-.11-7.48-.11s-3.74,0-7.48,0c-2.76,0-5.34-2.4-5.34-5.16s2.58-4.82,5.34-4.82c3.74,0,3.74-.04,7.48-.04s3.74.13,7.47.13,3.74-.2,7.48-.2,3.74.2,7.48.2c1.73,0,3.24-1.14,4.25-2.54,1.02-1.41,1.62-3.19,1.08-4.83-.89-2.69-1.14-2.61-2.02-5.31-.72-2.19-2.77-3.72-5.08-3.72-3.8,0-3.8.16-7.61.16-3.81,0-3.81.16-7.61.16-3.8,0-3.8-.21-7.61-.21-3.81,0-3.81-.08-7.61-.08q-3.81,0-7.61,0c-2.76,0-5.26-2.22-5.26-4.98s2.5-5.06,5.26-5.06c3.8,0,3.8.24,7.61.24s3.81-.21,7.61-.21,3.8.24,7.61.24,3.81-.14,7.61-.14,3.81.23,7.61.23c2.2,0,4.35.08,6.26.93s3.48,2.41,4.92,3.99c1.41,1.55,2.64,3.26,3.32,5.34.89,2.69,1.04,2.64,1.93,5.34.78,2.36,1.08,4.86.71,7.21s-1.34,4.68-2.8,6.7c-1.46,2.02-3.51,3.4-5.63,4.49-2.12,1.08-4.44,1.85-6.93,1.85Z"/>
      </g>
      <path class="cls-2" d="M683.68,496.61c3.55,2.31,4.87,2.43,8.25-.13,2.68-2.03.4-3.14.6-6.5.2-3.36.23-3.36.43-6.71.2-3.36.05-3.37.25-6.73s3.1-4.58.47-6.69c-3.42-2.75-4.36-.07-8.74-.07s-5.72-3.12-8.86-.06c-2.5,2.43.79,3.52,1.72,6.88s.93,3.36,1.86,6.71,1.5,3.2,1.76,6.68c.27,3.64-.67,4.7,2.25,6.61Z"/>
      <g>
        <path class="cls-4" d="M378.44,528.76c.8-3.56.82-3.55,1.61-7.11s.47-3.63,1.27-7.19.85-3.55,1.64-7.1.9-3.53,1.69-7.09c.8-3.56.52-3.62,1.32-7.18.8-3.56.95-3.52,1.72-7.09.47-2.49,1.38-4.83,2.03-7.2.67-2.45,1.38-4.82,2.24-7.12.89-2.38,1.67-4.76,2.76-6.95s2.64-4.27,3.99-6.32c1.39-2.12,2.63-4.3,4.25-6.14,1.67-1.89,3.34-3.79,5.26-5.36s4.02-3.05,6.2-4.27,4.65-1.76,7.04-2.58c2.3-.79,4.62-1.81,7.15-2.21,2.34-.37,4.72-.73,7.13-1.09,2.34-.35,4.76-.43,7.18-.76s4.7-.86,7.12-1.18c2.35-.3,4.78-.3,7.2-.59s4.72-.84,7.14-1.1,4.81,0,7.23-.23,4.7-1.11,7.12-1.32c2.37-.21,4.78-.26,7.21-.45,2.37-.18,4.8.09,7.23-.07s4.75-.76,7.18-.9,4.81.29,7.23.18,4.78-.15,7.21-.23c2.38-.08,4.78-.26,7.21-.31,2.38-.05,4.79-.14,7.22-.17,2.38-.03,4.79-.34,7.22-.34s4.7.46,7.02.48c2.37.02,4.71-.29,7.02-.24,2.37.05,4.71-.13,7.03-.06s4.71.14,7.02.24c2.37.1,4.71.16,7.02.29,2.37.13,4.67.75,6.98.9s4.72.06,7.02.24c2.36.18,4.68.6,6.98.81,2.36.21,4.71.24,7,.47,2.36.23,4.66.7,6.96.95,2.36.26,4.67.61,6.96.89,2.36.29,4.72.21,7.01.52,2.35.31,4.69.48,6.98.81,2.35.34,4.66.74,6.93,1.09,2.35.36,4.65.76,6.92,1.13,2.47.4,4.79,1.22,7.03,2.01,2.33.82,4.41,2.06,6.5,3.25,2.11,1.21,4.4,2.18,6.28,3.74s3.23,3.62,4.85,5.46,3.32,3.52,4.69,5.57c1.33,1.99,2.46,4.15,3.59,6.35s2.34,4.25,3.26,6.53c.9,2.23,1.58,4.58,2.31,6.93s1.33,4.66,1.89,7.05c.81,3.64.91,3.61,1.7,7.25.79,3.64.39,3.73,1.18,7.37.79,3.64,1,3.6,1.79,7.24s1.15,3.56,1.94,7.2c.79,3.64.35,3.74,1.15,7.38.79,3.64,1.27,3.54,2.06,7.18"/>
        <path class="cls-3" d="M378.3,533.77c-.36,0-.7-.21-1.07-.29-2.69-.6-4.53-2.09-3.92-4.79.8-3.55.87-4.71,1.66-8.26.8-3.55.77-3.47,1.57-7.02.8-3.55.64-3.59,1.44-7.14s.83-3.54,1.63-7.09c.8-3.55,1.16-3.47,1.96-7.02q.8-3.55,1.56-7.11c.47-2.46.66-4.93,1.28-7.24.64-2.42,1.25-4.82,2.05-7.07.84-2.36,2.12-4.5,3.13-6.66s1.98-4.57,3.21-6.61,2.93-4,4.41-5.88c1.54-1.96,2.92-4.02,4.65-5.7s4.03-2.84,6-4.25c2-1.43,3.97-2.82,6.16-3.92s4.34-2.26,6.69-3,4.7-1.28,7.16-1.67c2.41-.38,4.84-.49,7.22-.84s4.82-.59,7.21-.92c2.41-.34,4.78-.93,7.17-1.24s4.8-.75,7.2-1.04c2.42-.29,4.88-.08,7.28-.34,2.42-.26,4.82-.58,7.22-.81,2.42-.24,4.81-.65,7.22-.86s4.82-.52,7.23-.7c2.42-.18,4.85-.16,7.26-.32s4.81-.67,7.23-.8c2.42-.13,4.86.22,7.28.12,2.42-.1,4.82-.74,7.24-.81,2.42-.08,4.85.48,7.28.43,2.42-.05,4.83-.58,7.26-.61,2.42-.03,4.84.27,7.27.27s4.75-.36,7.08-.33,4.75.24,7.07.29c2.39.05,4.75.02,7.07.09s4.73.55,7.05.65c2.39.1,4.76-.02,7.08.1s4.73.54,7.05.69c2.4.16,4.77-.03,7.08.14,2.4.18,4.76.29,7.06.49s4.7.91,7,1.14c2.4.24,4.8,0,7.08.26,2.41.27,4.75.58,7.02.86,2.41.29,4.74.7,7,1,2.42.32,4.8.34,7.05.66,2.43.35,4.69,1.18,6.92,1.53,2.45.38,4.83.36,7.04.72,2.39.39,4.7,1.09,6.94,1.82s4.47,1.71,6.59,2.8c2.12,1.08,4.11,2.39,6.05,3.8,1.91,1.38,3.59,3.06,5.32,4.75,1.68,1.63,3.22,3.41,4.73,5.32,1.44,1.83,2.97,3.65,4.26,5.73s2.68,3.91,3.75,6.11c1.02,2.09,1.51,4.48,2.4,6.76.84,2.17,2.06,4.27,2.77,6.61.68,2.23,1.22,4.57,1.78,6.95,0,.03.13.03.14.06.79,3.64.32,3.74,1.11,7.38.79,3.64,1.09,3.57,1.89,7.21.79,3.64.58,3.69,1.37,7.33s1.26,3.54,2.05,7.18c.79,3.64.64,3.59,1.43,7.23s.54,4.15,1.34,7.8c.59,2.7-1.05,4.92-3.75,5.5-2.7.58-5.28-1.08-5.87-3.78-.79-3.64-1.2-3.55-1.99-7.18-.79-3.64-.38-3.72-1.17-7.36-.79-3.64-1.05-3.58-1.84-7.22-.79-3.64-.83-3.63-1.62-7.26q-.79-3.64-1.59-7.28c-.79-3.64-.73-3.65-1.54-7.29-.52-2.19-.67-4.77-1.5-7.34-.72-2.26-1.92-4.51-2.93-6.89-.95-2.24-1.91-4.56-3.14-6.78-1.19-2.15-2.7-4.16-4.19-6.18-1.47-1.99-3-3.96-4.8-5.71-1.77-1.72-3.68-3.34-5.79-4.72s-4.3-2.38-6.69-3.3c-2.24-.86-4.65-1.35-7.22-1.77-2.17-.36-4.44-.85-6.86-1.22-2.2-.34-4.49-.67-6.89-1.01-2.21-.32-4.5-.75-6.88-1.06-2.23-.3-4.53-.58-6.91-.87-2.24-.27-4.53-.73-6.89-.99-2.25-.25-4.56-.47-6.93-.7s-4.59-.23-6.96-.43-4.58-.38-6.94-.56c-2.27-.17-4.57-.56-6.93-.71-2.28-.15-4.59-.4-6.95-.53s-4.62.09-6.97-.01c-2.29-.1-4.6-.25-6.96-.33-2.29-.07-4.61-.3-6.96-.35-2.29-.05-4.62-.02-6.97-.04s-4.62,0-6.97,0-4.78-.07-7.17-.04c-2.39.02-4.77.47-7.16.52-2.39.05-4.78-.1-7.17-.02s-4.76.42-7.15.53c-2.39.1-4.77.2-7.15.33s-4.77.23-7.15.38c-2.38.15-4.75.4-7.14.58s-4.79-.1-7.18.11c-2.37.21-4.72.71-7.11.94-2.37.23-4.77.16-7.16.42-2.36.26-4.68,1.05-7.06,1.33-2.36.28-4.75.39-7.13.69s-4.75.37-7.13.7-4.66,1.04-7.04,1.39c-2.35.35-4.72.67-7.09,1.04-2.27.36-4.55.6-6.67,1.34-2.15.75-4.07,1.99-6.05,3.11-1.96,1.11-3.94,2.2-5.71,3.67-1.72,1.42-3.43,2.94-4.96,4.68-1.46,1.67-2.77,3.54-4.05,5.49-1.21,1.85-2.26,3.86-3.3,5.95-.98,1.98-1.63,4.15-2.44,6.34-.77,2.07-1.79,4.11-2.41,6.37-.58,2.14-.87,4.39-1.3,6.69-.01.06.06.17.05.22-.8,3.56-.77,3.56-1.57,7.12-.8,3.56-1.03,3.5-1.83,7.06s-.76,3.57-1.56,7.12-.67,3.59-1.47,7.14c-.8,3.56-.95,3.52-1.75,7.08-.8,3.56-.45,3.64-1.25,7.2-.52,2.32-2.63,3.94-4.92,3.94Z"/>
      </g>
      <g>
        <path class="cls-3" d="M641.27,454.37c-1.3-3.09-4.22-4.92-7.52-5.47-2.31-.39-4.61-.77-6.9-1.13-2.31-.36-4.58-.97-6.88-1.31-2.31-.34-4.62-.68-6.92-.99-2.32-.31-4.66-.35-6.97-.63-2.32-.28-4.62-.66-6.93-.92-2.32-.25-4.62-.66-6.94-.88-2.32-.23-4.66-.19-6.99-.38-2.32-.2-4.62-.73-6.94-.9-2.32-.17-4.67,0-7-.13-2.32-.14-4.63-.61-6.96-.72-2.32-.11-4.65-.23-6.99-.31-2.32-.08-4.66-.14-7-.19-2.32-.05-4.66.28-7,.26-2.32-.03-4.65-.02-6.99-.02s-4.8-.4-7.19-.38c-2.4.03-4.8-.1-7.19-.04-2.4.06-4.78.57-7.17.65-2.39.09-4.81-.25-7.2-.14-2.39.11-4.77.55-7.16.7-2.39.14-4.76.58-7.16.75-2.39.17-4.77.34-7.17.55-2.38.2-4.8.09-7.19.32-2.38.23-4.73.83-7.12,1.09-2.38.26-4.78.29-7.17.57-2.37.28-4.74.68-7.12.99-2.37.31-4.73.7-7.12,1.04-2.37.33-4.72.75-7.1,1.11-2.36.36-4.79.33-7.17.72-3.32.54-6.09,2.82-7.49,5.89,0,0-.04.01-.04.01-.15.36-.71,1.95.1,2.98s2.75,2.16,9.5,1.17c1.3-.26,5.26-.9,6.56-1.1,2.34-.36,4.65-.86,6.98-1.19,2.34-.33,4.65-.86,6.98-1.17,2.35-.31,4.71-.46,7.04-.74,2.35-.28,4.72-.31,7.06-.56,2.35-.25,4.7-.48,7.04-.7,2.35-.23,4.71-.26,7.06-.46,2.35-.2,4.69-.5,7.04-.66,2.36-.17,4.68-.73,7.03-.87,2.36-.14,4.72-.23,7.07-.34,2.36-.11,4.72-.09,7.08-.17,2.36-.08,4.71-.23,7.07-.28,2.36-.06,4.72-.07,7.08-.1,2.36-.03,4.72-.21,7.08-.21,2.48,0,4.95.16,7.41.19,2.48.03,4.94.44,7.4.5,2.47.06,4.93.22,7.39.31,2.47.09,4.94.05,7.4.18,2.47.13,4.95,0,7.4.16,2.46.16,4.94.17,7.4.37,2.46.19,4.91.53,7.37.76,2.45.22,4.9.61,7.35.87,2.45.26,4.9.53,7.36.82,2.44.29,4.93.32,7.38.64,2.44.32,4.89.66,7.34,1.01,2.43.35,4.83.98,7.28,1.36,2.42.38,4.86.8,7.31,1.21.02,0,.4.05.41.07.02.05,1.7.13,1.72.18,3.75.26,5.55.45,6.83-.63,1.29-1.08.8-2.18.16-3.7Z"/>
        <path class="cls-3" d="M645.53,467.38c-.07-.15-.11-.28-.18-.39-.64-1.04-2.19-2.1-4.03-2.33-2.74-.34-5.74-.59-8.34-1.24,0,0-.02-.01-.02-.01-2.19-.33-4.57-.81-6.94-1.15-2.21-.31-4.52-.37-6.88-.68-2.22-.29-4.46-.93-6.81-1.21-2.23-.26-4.55-.2-6.9-.45-2.24-.24-4.49-.82-6.84-1.05-2.25-.22-4.54-.45-6.88-.65-2.25-.19-4.55-.36-6.89-.54-2.26-.17-4.58.05-6.92-.1-2.26-.14-4.56-.25-6.9-.38-2.27-.12-4.55-.65-6.89-.74-2.27-.09-4.57-.35-6.91-.42-2.27-.07-4.59.31-6.92.26-2.27-.05-4.57-.52-6.91-.55-2.28-.02-4.59.27-6.92.27s-4.75.29-7.12.32c-2.38.02-4.75.05-7.12.1-2.38.05-4.76-.21-7.13-.14-2.38.07-4.73.53-7.11.63-2.37.1-4.75-.02-7.13.1-2.37.13-4.73.37-7.11.52-2.37.15-4.73.39-7.1.57-2.36.18-4.72.44-7.09.64-2.36.2-4.76.01-7.13.24-2.36.23-4.71.61-7.08.87-2.35.25-4.7.66-7.07.94-2.35.27-4.77.1-7.13.4-2.35.3-4.71.57-7.08.9-2.34.32-4.51.75-6.87,1.1-.2-.13-3.48.73-3.48.64-4.47.72-5.98,1-8.29,2.47-.61.38-1.01.88-1.3,1.54-.76,1.67-.74,3.61.37,5.07.95,1.25,2.63,1.77,4.18,1.77.26,0,.5-.09.76-.13,2.37-.37,4.8-.29,7.15-.63,2.38-.35,4.65-1.33,7-1.66,2.38-.33,4.77-.45,7.13-.75,2.38-.31,4.79-.31,7.15-.59,2.38-.28,4.75-.57,7.11-.82,2.38-.26,4.74-.68,7.1-.92,2.38-.23,4.79-.11,7.16-.31,2.38-.21,4.71-1.06,7.09-1.24,2.38-.18,4.77-.26,7.15-.42,2.38-.16,4.78-.19,7.16-.32,2.38-.13,4.79.17,7.17.06,2.38-.1,4.76-.4,7.15-.48,2.38-.08,4.77-.3,7.16-.35,2.38-.05,4.77-.3,7.16-.33,2.38-.02,4.77.1,7.17.1s4.68.25,6.97.27c2.35.02,4.68.08,6.97.12,2.35.05,4.67.29,6.96.36,2.36.08,4.68.05,6.96.15,2.36.1,4.7-.19,6.98-.07,2.36.13,4.68.3,6.95.45,2.36.15,4.67.44,6.94.61,2.36.18,4.68.3,6.95.5,2.36.21,4.67.45,6.93.67,2.37.23,4.69.31,6.95.56,2.37.26,4.66.67,6.9.94,2.37.29,4.63.95,6.86,1.24,2.38.32,4.67.72,6.88,1.04,2.39.34,4.71.54,6.91.88,2.41.37,4.75.47,6.92.83,1.85.3,3.46-.5,4.58-2.02s1.24-3.4.49-5.04Z"/>
      </g>
      <g>
        <path class="cls-4" d="M691.86,532.79c-.18-2.31-.9-4.51-1.37-6.73-.48-2.26-.94-4.48-1.7-6.62s-1.51-4.35-2.56-6.37-2.23-4.02-3.55-5.89-2.64-3.79-4.19-5.47c-1.55-1.68-3.41-3.09-5.18-4.55-1.76-1.45-3.79-2.53-5.75-3.74-1.94-1.2-3.73-2.69-5.84-3.63s-4.29-1.61-6.5-2.26-4.42-1.15-6.71-1.5c-2.28-.35-4.59-.75-6.94-1.09-2.28-.33-4.66-.24-7.01-.56-2.29-.31-4.62-.55-6.97-.85-2.29-.29-4.59-.76-6.95-1.03s-4.6-.75-6.96-1-4.63-.53-6.99-.76c-2.3-.22-4.65-.23-7.02-.44-2.31-.2-4.63-.48-7-.66s-4.65-.3-7.01-.46c-2.31-.15-4.64-.45-7-.59s-4.65-.28-7.02-.39c-2.31-.11-4.65-.34-7.02-.43-2.32-.09-4.67.24-7.04.18-2.32-.06-4.66,0-7.03-.03s-4.66-.18-7.03-.2c-2.32-.02-4.66.14-7.03.14s-4.84-.17-7.23-.15-4.84-.23-7.23-.19c-2.43.05-4.83.33-7.22.39-2.43.07-4.83.35-7.21.44-2.43.09-4.84.04-7.23.15s-4.83.3-7.21.44-4.85-.04-7.23.11c-2.43.16-4.84.23-7.22.41-2.43.19-4.82.54-7.19.74s-4.79.84-7.16,1.06-4.87.03-7.23.28c-2.42.25-4.77.96-7.13,1.23s-4.88.03-7.24.32c-2.42.3-4.79.77-7.15,1.08s-4.78.8-7.13,1.13c-2.42.34-4.8.68-7.15,1.03-2.34.35-4.63.76-6.85,1.41s-4.52,1.31-6.64,2.26c-2.15.96-4.23,2.07-6.2,3.3s-3.68,2.89-5.47,4.39c-1.8,1.5-3.83,2.77-5.4,4.5s-2.76,3.79-4.09,5.72c-1.32,1.92-2.45,3.96-3.5,6.06s-2.19,4.14-2.94,6.37-1.27,4.49-1.71,6.81c-.43,2.27-.62,4.61-.74,6.97-.19,3.68.01,3.69-.18,7.36-.19,3.68-.58,3.66-.77,7.33s0,3.69-.19,7.36-.04,3.68-.23,7.36-.11,3.68-.3,7.36-.26,3.67-.45,7.35c-.19,3.68-.36,3.67-.56,7.35s-.43,3.66-.62,7.34c-.19,3.68-.12,3.68-.31,7.36s.22,3.7.03,7.38c-.15,2.85.29,5.48,1.54,7.82s3.19,4.37,5.54,5.78,4.85,2,7.71,2c3.58,0,3.58.44,7.15.44s3.58-.03,7.15-.03,3.58.2,7.15.2,3.58-.53,7.15-.53,3.58-.05,7.15-.05,3.58.62,7.15.62,3.58-.09,7.15-.09,3.58-.42,7.15-.42,3.58.31,7.15.31,3.58.03,7.15.03,3.58-.06,7.15-.06,3.58-.18,7.16-.18,3.58.17,7.15.17,3.58-.01,7.16-.01,3.58.17,7.15.17,3.58-.04,7.15-.04,3.57-.02,7.15-.02,3.58-.16,7.15-.16,3.58-.33,7.15-.33,3.58.56,7.15.56,3.58-.64,7.15-.64,3.58.25,7.15.25,3.58.16,7.15.16,3.58-.26,7.15-.26,3.58-.05,7.16-.05,3.58.21,7.15.21,3.58-.31,7.16-.31,3.58.66,7.16.66,3.58-.39,7.16-.39,3.58-.12,7.16-.12,3.58-.12,7.16-.12,3.58.46,7.16.46,3.58.19,7.16.19,3.58-.2,7.16-.2,3.58.03,7.16.03,3.58.04,7.16.04,3.58-.31,7.16-.31,3.58.45,7.16.45,3.58-.23,7.16-.23,3.58-.31,7.16-.31,3.58.34,7.16.34c2.9,0,5.54-1.06,7.83-2.46s4.67-3.29,5.94-5.76c1.23-2.39,1.28-5.29,1.06-8.18-.28-3.73.2-3.76-.08-7.49-.28-3.73-.79-3.69-1.07-7.41s-.16-3.73-.44-7.46c-.28-3.73-.08-3.74-.36-7.47-.28-3.73-.57-3.7-.85-7.43-.28-3.73-.09-3.74-.37-7.47s-.11-3.74-.4-7.47c-.28-3.73-.67-3.7-.95-7.42-.28-3.73-.2-3.74-.44-7.47-.24-3.73-.06-3.74-.34-7.47Z"/>
        <path class="cls-3" d="M682.34,628.58c-3.58,0-3.58.01-7.15.01-3.58,0-3.58-.23-7.15-.23-3.58,0-3.58.18-7.15.18s-3.58.04-7.15.04c-3.58,0-3.58.1-7.15.1-3.58,0-3.58-.12-7.15-.12s-3.58.13-7.15.13c-3.58,0-3.58-.18-7.15-.18-3.58,0-3.58.42-7.15.42-3.58,0-3.58-.13-7.15-.13s-3.58-.05-7.15-.05-3.58-.31-7.16-.31c-3.58,0-3.58.45-7.15.45-3.58,0-3.58-.02-7.16-.02-3.58,0-3.58-.14-7.15-.14-3.58,0-3.58-.46-7.15-.46-3.57,0-3.57.59-7.15.59-3.58,0-3.58-.15-7.15-.15-3.58,0-3.58-.12-7.15-.12-3.58,0-3.58.23-7.15.23s-3.58.06-7.15.06-3.58-.05-7.15-.05c-3.58,0-3.58.08-7.15.08-3.58,0-3.58-.34-7.15-.34-3.58,0-3.58-.33-7.16-.33-3.58,0-3.58.49-7.15.49s-3.58.2-7.16.2c-3.58,0-3.58-.4-7.16-.4-3.58,0-3.58.37-7.16.37-3.58,0-3.58-.39-7.16-.39s-3.58-.27-7.16-.27c-3.58,0-3.58.17-7.16.17-3.58,0-3.58.02-7.16.02-3.58,0-3.58.29-7.16.29-3.58,0-3.58.05-7.16.05-3.58,0-3.58-.09-7.16-.09s-3.58.18-7.16.18q-3.58,0-7.16,0c-3.58,0-3.58-.24-7.16-.24-3.58,0-3.58-.09-7.16-.09-3.58,0-3.58.13-7.16.13-2.79,0-5.61-.32-8.09-1.38-2.47-1.06-4.61-2.93-6.53-4.95-1.92-2.02-3.66-4.26-4.59-6.78-.93-2.52-1.33-5.37-1.18-8.15.19-3.68.69-3.65.89-7.33.19-3.68.03-3.68.23-7.36.19-3.68.14-3.68.34-7.35.19-3.68.05-3.68.24-7.36.19-3.68.33-3.67.52-7.34s.1-3.68.3-7.36c.19-3.68.61-3.66.8-7.33.19-3.68.13-3.42.32-7.09.19-3.68.19-3.95.38-7.62.19-3.68.08-3.69.28-7.36.12-2.35.32-4.67.73-6.94.41-2.31,1.13-4.52,1.82-6.74s1.28-4.51,2.24-6.62,1.88-4.31,3.1-6.29c1.23-1.99,2.73-3.81,4.19-5.63,1.46-1.82,3.01-3.58,4.69-5.21s3.32-3.33,5.19-4.74c1.86-1.4,4.18-2.12,6.21-3.29,2.01-1.16,3.87-2.65,6.03-3.55,2.14-.9,4.42-1.45,6.69-2.09s4.44-1.5,6.77-1.85c2.41-.36,4.88-.23,7.27-.56,2.41-.34,4.76-1.08,7.15-1.4,2.42-.32,4.88-.19,7.27-.48,2.42-.3,4.84-.47,7.24-.74s4.79-.86,7.2-1.11c2.42-.25,4.87-.11,7.27-.34,2.42-.23,4.83-.5,7.23-.71s4.82-.58,7.23-.76c2.42-.18,4.83-.42,7.25-.58,2.42-.16,4.82-.6,7.24-.74s4.85-.16,7.27-.27c2.42-.11,4.84-.36,7.26-.46,2.42-.09,4.85-.02,7.27-.09s4.85.15,7.27.11c2.42-.04,4.84-.13,7.27-.15,2.42-.02,4.84-.07,7.27-.07s4.74.18,7.07.2c2.39.02,4.75-.37,7.08-.32s4.75.26,7.07.32c2.39.07,4.75.2,7.07.28,2.39.09,4.73.52,7.06.63,2.39.11,4.77-.13,7.09,0,2.4.14,4.75.33,7.06.48,2.4.16,4.75.29,7.06.47s4.74.48,7.04.68c2.4.21,4.79,0,7.09.22,2.4.23,4.74.62,7.03.87,2.41.26,4.77.41,7.05.67,2.41.28,4.76.51,7.03.8,2.42.31,4.7,1.06,6.95,1.36,2.43.33,4.74.83,6.98,1.15,2.44.35,4.77.72,6.98,1.06,2.49.38,5.05.45,7.45,1.16,2.41.71,4.67,1.89,6.96,2.91,2.29,1.03,4.6,2.05,6.73,3.37s4.03,2.99,5.97,4.59c1.94,1.59,3.74,3.31,5.45,5.16,1.71,1.85,3.69,3.49,5.13,5.55,1.44,2.06,2.56,4.36,3.71,6.59,1.16,2.23,2.14,4.56,2.99,6.92s1.22,4.86,1.75,7.32,1.11,4.88,1.3,7.4c.28,3.73.4,3.72.69,7.44s.45,3.71.73,7.44c.28,3.73.15,3.74.43,7.46s.41,3.72.7,7.44-.14,3.76.15,7.48c.28,3.73.14,3.74.42,7.46s.35,3.72.64,7.45.39,3.72.67,7.44.73,3.69,1.02,7.42c.28,3.73.18,3.74.46,7.47.21,2.78-.56,5.49-1.47,8.08-.9,2.59-2.34,4.86-4.23,6.91-1.9,2.05-3.9,3.99-6.42,5.09s-5.3,1.56-8.09,1.56ZM536.49,482.51c-2.4,0-4.79.02-7.18.05s-4.8-.18-7.18-.13-4.79.28-7.18.35-4.79.19-7.18.28c-2.39.09-4.78.29-7.17.4s-4.79.12-7.18.25-4.77.41-7.16.57-4.78.15-7.17.33-4.73.79-7.12,1-4.77.29-7.16.52c-2.37.23-4.76.42-7.14.67-2.37.25-4.78.2-7.17.48s-4.69,1-7.08,1.29c-2.36.29-4.74.57-7.12.89-2.36.31-4.75.49-7.14.83-2.36.33-4.79.22-7.18.57-2.35.35-4.51,1.44-6.72,2.13s-4.47,1.41-6.56,2.43-4.19,2.12-6.11,3.45-3.6,2.99-5.3,4.59c-1.7,1.61-3.21,3.36-4.65,5.21-1.44,1.85-2.76,3.74-3.9,5.79-1.14,2.04-2.04,4.16-2.87,6.36-.82,2.18-1.79,4.32-2.27,6.63s-1.1,4.58-1.23,6.95c-.19,3.68.3,3.7.1,7.38-.19,3.68,0,3.69-.19,7.36s-.59,3.66-.78,7.33c-.19,3.68.17,3.7-.02,7.37-.19,3.68-.58,3.66-.77,7.33s-.47,3.66-.66,7.34c-.19,3.68-.02,3.69-.22,7.37s-.17,3.68-.36,7.36c-.19,3.68.1,3.69-.1,7.37s-.14,3.68-.33,7.36c-.15,2.8.72,5.38,2.65,7.42,1.93,2.03,4.46,2.94,7.27,2.94q3.58,0,7.15,0c3.58,0,3.58.24,7.15.24s3.58.09,7.15.09,3.58-.13,7.15-.13,3.58-.27,7.15-.27,3.58.32,7.15.32,3.58-.3,7.15-.3,3.58.04,7.15.04,3.58.5,7.15.5,3.58-.16,7.15-.16,3.58-.05,7.15-.05,3.58-.14,7.16-.14,3.58.14,7.15.14,3.58-.09,7.16-.09,3.58.42,7.15.42,3.58-.64,7.15-.64,3.57.57,7.15.57,3.58-.11,7.15-.11,3.58-.07,7.15-.07,3.58.17,7.15.17,3.58-.27,7.15-.27,3.58-.23,7.15-.23,3.58.18,7.15.18,3.58-.03,7.15-.03,3.58-.22,7.16-.22,3.58.69,7.15.69,3.58-.5,7.16-.5,3.58.23,7.16.23,3.58-.4,7.16-.4,3.58.48,7.16.48,3.58-.42,7.16-.42,3.58.44,7.16.44,3.58.11,7.16.11,3.58-.32,7.16-.32,3.58.39,7.16.39,3.58-.06,7.16-.06,3.58-.17,7.16-.17,3.58-.06,7.16-.06,3.58-.29,7.16-.29,3.58.1,7.16.1,3.58-.15,7.16-.15c2.85,0,5.39-.96,7.32-3.05,1.94-2.09,3.12-4.73,2.91-7.57-.28-3.73-.33-3.72-.62-7.45-.28-3.73-.32-3.72-.61-7.45-.28-3.73-.12-3.74-.4-7.46s-.7-3.69-.99-7.42-.12-3.74-.41-7.46c-.28-3.73-.23-3.73-.52-7.46s.04-3.75-.24-7.48c-.28-3.73-.65-3.7-.93-7.42-.28-3.73-.24-3.73-.52-7.46-.28-3.73-.32-3.73-.6-7.45-.18-2.32-.42-4.62-.92-6.83-.51-2.26-1.59-4.32-2.42-6.44-.84-2.15-1.68-4.26-2.82-6.24s-2.51-3.81-3.94-5.6-3-3.41-4.69-4.98c-1.68-1.56-3.18-3.33-5.09-4.63-1.89-1.29-3.82-2.6-5.9-3.6s-4.22-1.86-6.44-2.55-4.53-.71-6.83-1.06c-2.19-.33-4.44-.99-6.86-1.34-2.21-.32-4.54-.47-6.94-.8-2.23-.3-4.5-.86-6.89-1.16-2.24-.28-4.55-.58-6.93-.85-2.25-.26-4.62-.01-6.99-.27-2.26-.24-4.55-.72-6.92-.94s-4.58-.46-6.95-.67-4.57-.71-6.93-.89-4.62-.11-6.98-.27-4.61-.18-6.97-.31-4.62-.08-6.98-.19c-2.29-.11-4.61-.34-6.97-.43-2.29-.09-4.62-.03-6.98-.1-2.3-.06-4.61-.54-6.97-.58-2.3-.04-4.63-.22-6.99-.24-2.3-.02-4.63.31-6.99.31Z"/>
      </g>
    </g>
    <g>
      <g>
        <path class="cls-3" d="M498.27,553.41c-1.01,1.91-2.16,3.69-3.38,5.33-1.27,1.7-2.91,3.04-4.5,4.38-1.57,1.32-3.08,2.84-5.05,3.77-1.79.84-3.83,1.52-6.02,2"/>
        <path class="cls-3" d="M479.25,573.65c-2.3,0-4.55-1.59-5.06-3.92-.59-2.7,1.31-5.39,4-5.98,2.4-.53,4.53-1.34,6.45-2.48,1.93-1.15,3.83-2.48,5.4-4.36,1.36-1.62,2.48-3.67,3.67-5.91,1.29-2.44,4.27-3.39,6.71-2.09,2.44,1.29,3.46,4.36,2.16,6.8-1.02,1.93-2.39,4.03-4.03,6.17-1.4,1.83-2.98,3.75-4.99,5.42-1.78,1.47-3.93,2.67-6.31,3.79-2.07.98-4.27,2.19-6.87,2.75-.36.08-.79-.18-1.14-.18Z"/>
      </g>
      <g>
        <path class="cls-3" d="M574.93,546.39c0,1.66.51,4.44,1.74,7.47.88,2.18,2.35,4.39,3.87,6.63,1.41,2.08,2.98,4.15,4.94,5.83,1.93,1.65,4.02,3.31,6.48,4.17"/>
        <path class="cls-3" d="M592.06,575.17c-.55,0-1.21.23-1.76.04-2.39-.84-4.47-2.3-6.41-3.71s-3.6-3.38-5.15-5.23-3.09-3.91-4.24-5.99c-1.27-2.31-2.47-4.53-3.18-6.65-.99-2.94-1.19-5.55-1.19-7.24,0-2.76,2.09-4.79,4.85-4.79s4.72,2.03,4.72,4.79c0,1.48,1.4,4.36,3.02,7.6,1.15,2.29,2.23,4.99,4.14,7.04s4.35,3.32,6.92,4.21c2.61.91,3.8,3.95,2.89,6.55-.72,2.06-2.55,3.38-4.62,3.38Z"/>
      </g>
      <path class="cls-3" d="M535.93,593.69c-1.27,0-2.56.52-3.84.44-2.34-.14-4.6-.91-6.87-1.3-2.31-.4-4.63-.69-6.83-1.32-2.26-.65-4.31-1.79-6.43-2.66-2.18-.9-4.36-1.68-6.35-2.8s-4.05-2.37-5.86-3.73c-1.9-1.44-3.71-2.91-5.27-4.54-1.65-1.72-2.8-3.75-4.02-5.66-1.28-2-2.79-3.85-3.51-6.01-.88-2.62.73-5.61,3.34-6.5,2.61-.88,5.31.67,6.19,3.29.74,2.21,1.98,4.4,3.6,6.4,1.46,1.8,3.32,3.46,5.35,5.02,1.86,1.42,4.08,2.5,6.32,3.67,2.11,1.09,4.26,2.27,6.63,3.08s4.71,1.05,7.14,1.53,4.74,1.05,7.2,1.2c1.99.12,4.63.3,7.64.03,2.32-.21,4.92-.47,7.58-1.14,2.34-.59,4.83-1.36,7.28-2.45,2.23-.99,4.42-2.38,6.61-3.89,2-1.38,3.67-3.33,5.54-5.23,1.7-1.73,3.41-3.56,4.92-5.78,1.36-1.99,2.48-4.24,3.64-6.67,1.19-2.49,4.41-3.32,6.9-2.13,2.49,1.19,3.88,4.23,2.69,6.72-1.02,2.12-2.35,4.05-3.55,5.97-1.24,1.99-2.76,3.73-4.2,5.5s-3.1,3.41-4.77,4.97c-1.69,1.58-3.49,2.95-5.38,4.28s-3.56,2.97-5.63,4.04c-1.98,1.03-4.24,1.46-6.36,2.24s-4.07,2-6.27,2.51-4.45.6-6.7.85c-2.21.25-4.46.07-6.72.07Z"/>
      <path class="cls-3" d="M515.97,563.93c-2.52,0-5.05-.07-7.32-.77s-4.38-2.29-6.37-3.65c-2.03-1.4-4.04-2.85-5.52-4.78-1.49-1.93-2.33-4.26-3.13-6.59-.78-2.26-1.67-4.61-1.67-7.12s.54-4.98,1.32-7.24c.8-2.33,2.36-4.25,3.85-6.18,1.48-1.93,2.88-4.02,4.91-5.42s4.41-2,6.79-2.73,4.63-1,7.15-1,4.84.4,7.12,1.1,4.74,1.4,6.73,2.77c2.03,1.4,3.59,3.3,5.08,5.22,1.49,1.93,2.76,3.99,3.56,6.31s1.26,4.66,1.26,7.17-.44,4.92-1.22,7.18c-.8,2.33-2.22,4.29-3.71,6.22-1.48,1.93-3.15,3.62-5.17,5.01-1.99,1.37-4.04,2.69-6.41,3.43-2.28.7-4.71,1.08-7.23,1.08ZM515.97,528.16c-2.44,0-4.56.88-6.55,1.93-2.1,1.1-4.17,2.31-5.41,4.24s-1.64,4.28-1.64,6.69.36,4.79,1.6,6.72,3.31,3.2,5.41,4.3c1.99,1.04,4.16,1.72,6.6,1.72s4.87-.18,6.86-1.22c2.1-1.1,3.51-3.12,4.74-5.06,1.24-1.93,2.41-4.05,2.41-6.46s-.69-4.84-1.93-6.77-3.1-3.68-5.21-4.78c-1.99-1.04-4.44-1.31-6.88-1.31Z"/>
      <path class="cls-3" d="M556.54,564.11c-2.53,0-5-.47-7.29-1.22-2.36-.77-4.39-2.22-6.35-3.65-1.99-1.45-4.03-2.9-5.48-4.89s-2.17-4.36-2.94-6.73-1.3-4.64-1.3-7.17.04-5.05.79-7.33c.77-2.36,2.43-4.29,3.86-6.26,1.45-1.99,2.97-3.89,4.96-5.34,1.97-1.43,4.24-2.3,6.61-3.06,2.28-.74,4.62-1.24,7.15-1.24s5.04-.06,7.33.69,4.55,2.06,6.52,3.49c1.99,1.45,3.4,3.5,4.84,5.48s2.59,4.05,3.36,6.42,1.57,4.64,1.57,7.16-.79,4.89-1.53,7.18-1.53,4.75-2.96,6.72-3.15,3.91-5.14,5.35c-1.97,1.43-4.31,2.49-6.67,3.26-2.28.74-4.79,1.13-7.31,1.13ZM556.54,527.21c-2.45,0-4.68.57-6.65,1.72s-4.01,2.65-5.19,4.69c-1.15,1.98-1.41,4.39-1.41,6.84s.24,4.87,1.39,6.85c1.18,2.04,3.06,3.69,5.1,4.87s4.32,1.44,6.77,1.44,4.9-.1,6.88-1.25,3.62-3.13,4.8-5.17,2.09-4.29,2.09-6.74-.8-4.85-1.94-6.83-3.2-3.41-5.24-4.59-4.14-1.83-6.59-1.83Z"/>
      <path class="cls-3" d="M515.97,549.28c-2.14,0-4.14-.54-5.54-1.95s-2.58-3.4-2.58-5.54,1.39-3.92,2.8-5.32,3.18-2.65,5.32-2.65,3.84,1.31,5.25,2.72c1.41,1.41,2.63,3.11,2.63,5.25s-1.11,3.96-2.51,5.37c-1.41,1.41-3.22,2.13-5.37,2.13Z"/>
      <path class="cls-3" d="M556.54,547.97c-2.11,0-4.1-.63-5.49-2.02s-2.53-3.37-2.53-5.49,1.12-4.12,2.51-5.51c1.39-1.39,3.4-2.07,5.51-2.07s3.97.83,5.36,2.22,2,3.24,2,5.36-.64,3.94-2.03,5.33c-1.39,1.39-3.21,2.18-5.33,2.18Z"/>
    </g>
  </g>
</svg>